<svg width="28" height="28" viewBox="0 0 28 28" fill="none" xmlns="http://www.w3.org/2000/svg">
<path d="M18.2188 10.9531C17.8311 10.9531 17.5156 11.2686 17.5156 11.6562V14.9375C17.5156 15.0669 17.4106 15.1719 17.2812 15.1719C17.1519 15.1719 17.0469 15.0669 17.0469 14.9375V10.0156C17.0469 9.49859 16.6264 9.07812 16.1094 9.07812C15.5923 9.07812 15.1719 9.49859 15.1719 10.0156V14.9375C15.1719 15.0669 15.0669 15.1719 14.9375 15.1719C14.8081 15.1719 14.7031 15.0669 14.7031 14.9375V10.0156V9.78125V9.07812C14.7031 8.56109 14.2827 8.14062 13.7656 8.14062C13.2486 8.14062 12.8281 8.56109 12.8281 9.07812V9.78125V10.0156V14.9375C12.8281 15.0669 12.7231 15.1719 12.5938 15.1719C12.4644 15.1719 12.3594 15.0669 12.3594 14.9375V10.0156C12.3594 9.49859 11.9389 9.07812 11.4219 9.07812C10.9048 9.07812 10.4844 9.49859 10.4844 10.0156V15.875C10.4844 16.0044 10.3794 16.1094 10.25 16.1094C10.1206 16.1094 10.0156 16.0044 10.0156 15.875V14.3014C10.0156 13.7881 9.64672 13.3489 9.17563 13.302C8.90656 13.2772 8.64828 13.3597 8.44906 13.5392C8.25313 13.7169 8.14062 13.97 8.14062 14.2344V15.2633C8.14062 16.2078 8.47344 17.1275 9.07766 17.8522L9.43859 18.2848C10.1131 19.0939 10.4844 20.12 10.4844 21.1737V22.6719H17.0469V22.0634C17.0469 21.0425 17.398 20.0413 18.0355 19.2444C18.6073 18.5305 18.9219 17.6333 18.9219 16.7183V11.6562C18.9219 11.2686 18.6064 10.9531 18.2188 10.9531Z" fill="#3E66F3"/>
<path d="M9.54688 23.1406V27.3594H17.9844V23.1406H9.54688ZM11.1875 27.125C10.9288 27.125 10.7188 26.915 10.7188 26.6562C10.7188 26.3975 10.9288 26.1875 11.1875 26.1875C11.4462 26.1875 11.6562 26.3975 11.6562 26.6562C11.6562 26.915 11.4462 27.125 11.1875 27.125ZM11.1875 25.25C10.9288 25.25 10.7188 25.04 10.7188 24.7812C10.7188 24.5225 10.9288 24.3125 11.1875 24.3125C11.4462 24.3125 11.6562 24.5225 11.6562 24.7812C11.6562 25.04 11.4462 25.25 11.1875 25.25Z" fill="#3E66F3"/>
<path d="M10.0153 13.2049V10.0156C10.0153 9.24024 10.6462 8.60931 11.4216 8.60931C11.5664 8.60931 11.7042 8.63649 11.8359 8.67774L13.5436 6.96962C13.7217 6.79149 13.9144 6.62978 14.1183 6.48493C13.8998 6.42681 13.6805 6.38181 13.4597 6.36165L12.8991 6.31056C11.85 6.21493 10.8614 5.75228 10.1166 5.00743L9.05859 3.94946L4.41797 8.59009L4.84734 9.01946C5.56922 9.74181 6.02906 10.6981 6.14156 11.712C6.24234 12.6209 6.65437 13.4777 7.30125 14.1246L7.67203 14.4954V14.2343C7.67203 13.8377 7.84078 13.4576 8.13469 13.1913C8.42906 12.9251 8.82797 12.7967 9.22219 12.8351C9.525 12.8656 9.80016 13.001 10.0153 13.2049Z" fill="#3E66F3"/>
<path d="M7.07328 0.640625H0.640625V6.13578L3.425 8.92016L9.38891 2.95625L7.07328 0.640625ZM6.07438 1.95969C5.89109 2.14297 5.59438 2.14297 5.41156 1.95969C5.22828 1.77641 5.22828 1.47969 5.41156 1.29688C5.59484 1.11406 5.89156 1.11359 6.07438 1.29688C6.25719 1.47969 6.25719 1.77641 6.07438 1.95969ZM6.73719 3.28531C6.55391 3.10203 6.55391 2.80531 6.73719 2.6225C6.92047 2.43969 7.21719 2.43922 7.4 2.6225C7.58328 2.80578 7.58328 3.1025 7.4 3.28531C7.21719 3.46859 6.92047 3.46859 6.73719 3.28531Z" fill="#3E66F3"/>
<path d="M21.8645 0.640625L19.0801 3.425L25.044 9.38891L27.3596 7.07328V0.640625H21.8645ZM25.3777 7.4C25.1945 7.58328 24.8977 7.58328 24.7149 7.4C24.5316 7.21672 24.5316 6.92 24.7149 6.73719C24.8982 6.55391 25.1949 6.55391 25.3777 6.73719C25.561 6.92047 25.561 7.21719 25.3777 7.4ZM26.7038 6.07438C26.5205 6.25766 26.2238 6.25766 26.041 6.07438C25.8577 5.89109 25.8577 5.59438 26.041 5.41156C26.2243 5.22828 26.521 5.22828 26.7038 5.41156C26.8866 5.59438 26.8866 5.89109 26.7038 6.07438Z" fill="#3E66F3"/>
<path d="M18.9814 4.84759C18.2595 5.56946 17.3033 6.02884 16.2889 6.14181C15.38 6.24259 14.5227 6.65462 13.8762 7.30149L13.4727 7.70556C13.5678 7.6854 13.6653 7.67228 13.7666 7.67228C14.5062 7.67228 15.1142 8.24649 15.1686 8.97212C15.418 8.74712 15.7484 8.60978 16.1103 8.60978C16.8856 8.60978 17.5166 9.24071 17.5166 10.016V10.7196C17.7125 10.5724 17.9558 10.4848 18.2197 10.4848C18.8661 10.4848 19.3916 11.0107 19.3916 11.6567V16.7182C19.3916 16.7782 19.3864 16.8377 19.3841 16.8973C19.5195 16.8523 19.6433 16.7815 19.7436 16.6812L20.4716 15.9537C21.1391 15.2862 21.5539 14.4007 21.6392 13.4604L21.6903 12.8993C21.785 11.8502 22.2477 10.8621 22.993 10.1168L24.0509 9.05884L19.4108 4.41821L18.9814 4.84759Z" fill="#3E66F3"/>
</svg>
