<svg width="25" height="31" viewBox="0 0 25 31" fill="none" xmlns="http://www.w3.org/2000/svg">
<path d="M17.0392 18.4111H7.37191C3.31791 18.7815 0.142578 22.1895 0.142578 26.3405C0.142578 30.3055 3.03958 30.5001 6.83358 30.5001C7.24758 30.5001 7.67191 30.4981 8.10591 30.4981H16.3072C16.7382 30.4981 17.1636 30.5001 17.5776 30.5001C21.3716 30.5001 24.2702 30.3058 24.2702 26.3405C24.2689 22.1891 21.0932 18.7808 17.0392 18.4111Z" fill="#3E66F3"/>
<path d="M13.6699 14.3131H14.8886C15.2902 14.3131 15.6722 14.4498 15.9799 14.6931C16.6812 14.5991 17.3436 14.4168 17.9176 14.1685C18.0832 13.9231 18.2272 13.6625 18.3599 13.3955V10.7285C18.3599 10.1255 18.5842 9.56379 18.9732 9.13579C18.4049 5.90945 15.5949 3.45679 12.2056 3.45679C8.81723 3.45679 6.00657 5.90979 5.43823 9.13612C5.8269 9.56379 6.05157 10.1255 6.05157 10.7285V13.3955C7.17857 15.6575 9.50757 17.2148 12.2052 17.2148C12.2472 17.2148 12.2879 17.2095 12.3296 17.2085C12.0692 16.9008 11.9059 16.5088 11.9059 16.0755C11.9062 15.1038 12.6976 14.3131 13.6699 14.3131Z" fill="#3E66F3"/>
<path d="M3.59884 15.323H3.67584C4.52117 15.323 5.20717 14.637 5.20717 13.7887V10.728C5.20717 10.1267 4.86017 9.60867 4.35517 9.35767C4.5735 5.216 8.01084 1.91433 12.2055 1.91433C16.4002 1.91433 19.8388 5.21567 20.0565 9.35767C19.5515 9.60833 19.2048 10.1267 19.2048 10.728V13.7887C19.2048 13.992 19.2445 14.1813 19.3138 14.3587C18.4208 14.9963 17.1218 15.4517 15.6588 15.5777C15.4932 15.326 15.2108 15.1577 14.8882 15.1577H13.6695C13.1615 15.1577 12.7508 15.569 12.7508 16.075C12.7508 16.5817 13.1612 16.9937 13.6695 16.9937H14.8882C15.2432 16.9937 15.5458 16.7913 15.6985 16.498C17.3972 16.364 18.8742 15.8453 19.9118 15.0783C20.1495 15.2323 20.4315 15.3227 20.7358 15.3227H20.8125C21.6588 15.3227 22.3435 14.6367 22.3435 13.7883V10.7277C22.3435 10.118 21.9862 9.59167 21.4705 9.34733C21.2458 4.43267 17.1765 0.5 12.2058 0.5C7.23517 0.5 3.16517 4.43267 2.94217 9.348C2.42584 9.592 2.0675 10.1187 2.0675 10.7283V13.789C2.0675 14.637 2.75417 15.323 3.59884 15.323Z" fill="#3E66F3"/>
</svg>
