<svg width="23" height="31" viewBox="0 0 23 31" fill="none" xmlns="http://www.w3.org/2000/svg">
<path d="M18.7428 20.615C18.0864 20.9901 17.3363 21.1776 16.4924 21.1776C15.7891 21.1776 15.0858 21.4589 14.5701 21.9747C14.0075 22.5373 13.3042 22.9592 12.5071 23.1468L14.6638 29.992C14.8045 30.5077 15.4609 30.6015 15.7891 30.2264L17.2894 28.351C17.43 28.1634 17.7114 28.0697 17.9927 28.1634L20.2431 28.8667C20.712 29.0074 21.1808 28.5385 21.0402 28.0697L18.7428 20.615Z" fill="#3E66F3"/>
<path d="M6.17745 21.1776C5.3804 21.1776 4.58336 20.9901 3.92698 20.615L1.62962 28.0697C1.48897 28.5385 1.95781 29.0074 2.42666 28.8667L4.67713 28.1634C4.91156 28.0697 5.19287 28.1634 5.3804 28.351L6.88072 30.2264C7.20891 30.6015 7.81841 30.5077 8.00595 29.992L10.1158 23.1468C9.36561 22.9592 8.66234 22.5373 8.09972 21.9747C7.58399 21.4589 6.88072 21.1776 6.17745 21.1776Z" fill="#3E66F3"/>
<path d="M21.2275 8.84697C20.5242 8.1437 20.1492 7.25289 20.1492 6.26831C20.1492 4.25226 18.5082 2.61129 16.4921 2.61129C15.5076 2.61129 14.6168 2.23621 13.9135 1.53294C13.2102 0.829668 12.2725 0.45459 11.3348 0.45459C10.3971 0.45459 9.45942 0.829668 8.75615 1.53294C8.05288 2.18933 7.16207 2.61129 6.17749 2.61129C4.16144 2.61129 2.52047 4.25226 2.52047 6.26831C2.52047 7.25289 2.14539 8.1437 1.44212 8.84697C0.738848 9.55024 0.36377 10.4879 0.36377 11.4256C0.36377 12.3633 0.738848 13.301 1.44212 14.0043C2.14539 14.7076 2.52047 15.5984 2.52047 16.583C2.52047 18.599 4.16144 20.24 6.17749 20.24C7.16207 20.24 8.05288 20.6151 8.75615 21.3183C10.2096 22.7249 12.5069 22.7249 13.9135 21.3183C14.6168 20.6151 15.5544 20.24 16.4921 20.24C18.5082 20.24 20.1492 18.599 20.1492 16.583C20.1492 15.5984 20.5242 14.7076 21.2275 14.0043C21.9308 13.301 22.3059 12.3633 22.3059 11.4256C22.3059 10.4879 21.9308 9.55024 21.2275 8.84697ZM11.3348 18.177C7.58403 18.177 4.5834 15.1295 4.5834 11.4256C4.5834 7.67485 7.58403 4.67422 11.3348 4.67422C15.0856 4.67422 18.0862 7.72174 18.0862 11.4256C18.0862 15.1764 15.0856 18.177 11.3348 18.177Z" fill="#3E66F3"/>
<path d="M14.8511 10.1597L12.9757 9.8784C12.835 9.8784 12.6944 9.73775 12.6006 9.59709L11.7567 7.90924C11.5691 7.53416 11.0534 7.53416 10.8659 7.90924L10.0219 9.59709C9.92818 9.73775 9.83441 9.83152 9.64687 9.8784L7.77147 10.1597C7.34951 10.2066 7.20886 10.7223 7.49016 11.0036L8.84983 12.3164C8.94359 12.4102 9.03736 12.5977 8.99048 12.7384L8.66228 14.6138C8.6154 15.0357 9.03736 15.317 9.36556 15.1295L11.0534 14.2387C11.1941 14.1449 11.3816 14.1449 11.5223 14.2387L13.2101 15.1295C13.5852 15.317 14.0072 15.0357 13.9134 14.6138L13.5852 12.7384C13.5383 12.5977 13.6321 12.4102 13.7258 12.3164L15.0855 11.0036C15.4606 10.7223 15.273 10.2066 14.8511 10.1597Z" fill="#3E66F3"/>
</svg>
