<svg width="30" height="30" viewBox="0 0 30 30" fill="none" xmlns="http://www.w3.org/2000/svg">
<g clip-path="url(#clip0_1_229)">
<path fill-rule="evenodd" clip-rule="evenodd" d="M3.33228 19.4145C2.27341 18.359 1.43303 17.1052 0.859229 15.7246C0.285424 14.3441 -0.0105448 12.8639 -0.0117456 11.3689C-0.0129464 9.87384 0.280645 8.39323 0.85223 7.01176C1.42382 5.63029 2.26218 4.37507 3.31935 3.31793C4.37653 2.26079 5.63177 1.42246 7.01325 0.850913C8.39474 0.279368 9.87536 -0.0141799 11.3704 -0.0129355C12.8655 -0.0116911 14.3456 0.284321 15.7261 0.858166C17.1067 1.43201 18.3605 2.27242 19.4159 3.33133C20.4748 4.38677 21.3152 5.64064 21.889 7.02119C22.4628 8.40174 22.7587 9.88188 22.7599 11.3769C22.7611 12.872 22.4676 14.3526 21.896 15.7341C21.3244 17.1155 20.486 18.3707 19.4288 19.4279C18.3717 20.485 17.1164 21.3234 15.7349 21.8949C14.3535 22.4664 12.8728 22.76 11.3778 22.7588C9.88274 22.7575 8.4026 22.4615 7.02207 21.8877C5.64154 21.3138 4.3877 20.4734 3.33228 19.4145ZM29.3575 29.3561C29.7681 28.942 29.9985 28.3824 29.9985 27.7992C29.9985 27.216 29.7681 26.6565 29.3575 26.2424L21.9385 18.8233C21.5115 19.4251 21.0346 19.9897 20.5128 20.5114C19.9915 21.0337 19.4266 21.5106 18.8243 21.9371L26.2433 29.3561C26.6566 29.7684 27.2166 30 27.8004 30C28.3842 30 28.9442 29.7684 29.3575 29.3561ZM17.5977 5.59633C14.7337 5.81142 12.9252 5.07197 12.0703 3.33502C12.0063 3.205 11.9071 3.0955 11.7841 3.01894C11.661 2.94237 11.519 2.90179 11.3741 2.90179C11.2291 2.90179 11.0871 2.94237 10.9641 3.01894C10.841 3.0955 10.7419 3.205 10.6778 3.33502C9.823 5.07197 8.01486 5.81142 5.15039 5.59621C4.95729 5.58187 4.7658 5.64018 4.61346 5.75971C4.46112 5.87924 4.35893 6.05136 4.32691 6.24232C3.82166 9.27432 4.2941 12.2204 5.69437 14.7624C6.94828 17.0397 8.85615 18.8225 11.0661 19.7803C11.1633 19.8227 11.2683 19.8445 11.3744 19.8445C11.4804 19.8445 11.5854 19.8227 11.6827 19.7803C13.8926 18.8225 15.8004 17.0397 17.0544 14.7624C18.4547 12.2204 18.9271 9.27432 18.4219 6.24232C18.3902 6.05113 18.288 5.87875 18.1355 5.75915C17.9829 5.63956 17.7912 5.58142 17.5979 5.59621L17.5977 5.59633ZM11.3739 18.2151C14.627 16.6444 17.6129 12.6365 16.9871 7.17941C16.886 7.18215 16.7858 7.18351 16.6864 7.18351C14.2923 7.18351 12.5137 6.4866 11.3739 5.10525C10.187 6.54437 8.30589 7.23941 5.76117 7.17947C5.13527 12.6365 8.12109 16.6444 11.3739 18.2151ZM14.6769 9.90379C14.7402 9.82369 14.7871 9.73187 14.8149 9.6336C14.8427 9.53533 14.8508 9.43254 14.8387 9.33114C14.8267 9.22973 14.7947 9.13171 14.7447 9.04269C14.6947 8.95366 14.6275 8.87539 14.5472 8.81237C14.4668 8.74935 14.3748 8.70281 14.2765 8.67543C14.1781 8.64805 14.0753 8.64036 13.9739 8.65281C13.8726 8.66526 13.7747 8.6976 13.6858 8.74798C13.597 8.79835 13.519 8.86577 13.4563 8.94637L10.9106 12.1918L9.1981 10.663C9.12222 10.5947 9.03359 10.542 8.93728 10.5079C8.84097 10.4739 8.73889 10.4592 8.6369 10.4648C8.53491 10.4703 8.43502 10.4959 8.34296 10.5402C8.2509 10.5844 8.16848 10.6464 8.10045 10.7226C8.03242 10.7988 7.9801 10.8877 7.94651 10.9841C7.91292 11.0806 7.89872 11.1827 7.90471 11.2847C7.91071 11.3867 7.93679 11.4864 7.98145 11.5783C8.02612 11.6702 8.08848 11.7523 8.16498 11.82L10.4941 13.8996C10.6365 14.0263 10.8204 14.0964 11.0109 14.0964C11.0338 14.0966 11.0566 14.0957 11.0793 14.0936C11.1849 14.0842 11.2875 14.0533 11.3807 14.0027C11.4739 13.9521 11.5557 13.8829 11.6211 13.7995L14.6769 9.90379Z" fill="#3E66F3"/>
</g>
<defs>
<clipPath id="clip0_1_229">
<rect width="30" height="30" fill="white"/>
</clipPath>
</defs>
</svg>
