<svg width="28" height="30" viewBox="0 0 28 30" fill="none" xmlns="http://www.w3.org/2000/svg">
<path d="M18.0002 12.4819C19.6755 12.4819 21.0386 13.8619 21.0386 15.5588V20.1938C21.0386 21.5513 20.1414 22.7635 18.858 23.1441L17.5145 23.5416V24.9422V26.0757L14.5595 23.6879L14.0439 23.2716H13.3811H5.69078C4.01547 23.2716 2.65234 21.8916 2.65234 20.1947V15.5597C2.65234 13.8629 4.01547 12.4829 5.69078 12.4829L18.0002 12.4819ZM18.0002 10.6069H5.69078C2.98141 10.6069 0.777344 12.8279 0.777344 15.5588V20.1938C0.777344 22.9247 2.98234 25.1457 5.69078 25.1457H13.3811L19.3895 30.0001V24.9413C21.4473 24.3329 22.9136 22.4204 22.9136 20.1938V15.5588C22.9136 12.8279 20.7086 10.6069 18.0002 10.6069Z" fill="#3E66F3"/>
<path d="M18.617 0C13.8714 0 10.0107 3.89344 10.0107 8.68031C10.0107 11.2903 11.1395 13.6959 13.1242 15.3525V20.7628L17.4404 17.2763C22.727 18.0197 27.2232 13.8553 27.2232 8.67938C27.2223 3.89344 23.3617 0 18.617 0ZM14.7592 9.66281C14.0645 9.66281 13.502 9.09469 13.502 8.39344C13.502 7.69219 14.0654 7.12406 14.7592 7.12406C15.4529 7.12406 16.0164 7.69219 16.0164 8.39344C16.0164 9.09469 15.4539 9.66281 14.7592 9.66281ZM18.617 9.66281C17.9223 9.66281 17.3598 9.09469 17.3598 8.39344C17.3598 7.69219 17.9232 7.12406 18.617 7.12406C19.3107 7.12406 19.8742 7.69219 19.8742 8.39344C19.8742 9.09469 19.3117 9.66281 18.617 9.66281ZM22.4748 9.66281C21.7801 9.66281 21.2176 9.09469 21.2176 8.39344C21.2176 7.69219 21.7811 7.12406 22.4748 7.12406C23.1686 7.12406 23.732 7.69219 23.732 8.39344C23.732 9.09469 23.1695 9.66281 22.4748 9.66281Z" fill="#3E66F3"/>
</svg>
