<svg width="25" height="31" viewBox="0 0 25 31" fill="none" xmlns="http://www.w3.org/2000/svg">
<path fill-rule="evenodd" clip-rule="evenodd" d="M8.11883 15.1861V15.926C8.11883 18.4977 10.2067 20.5855 12.7783 20.5855C15.35 20.5855 17.4378 18.4977 17.4378 15.926V15.1861H20.5406C20.6529 15.1861 20.7606 15.2307 20.84 15.3101C20.9194 15.3895 20.964 15.4972 20.964 15.6095V16.6089C20.964 16.7338 20.9157 16.8538 20.8292 16.9439L14.9107 23.1101V26.8893C14.9107 27.0662 14.8142 27.229 14.6589 27.3139L11.0946 29.2617C11.0009 29.3129 10.8871 29.3108 10.7953 29.2564C10.7035 29.2019 10.6472 29.1031 10.6472 28.9963V23.1101L4.7275 16.9439C4.64095 16.8538 4.59268 16.7338 4.59268 16.6089V15.6095C4.59268 15.4972 4.63726 15.3895 4.71668 15.3101C4.79609 15.2307 4.90375 15.1861 5.01607 15.1861H8.11883ZM14.9631 15.1861V15.926C14.9631 17.1318 13.9841 18.1107 12.7783 18.1107C11.5725 18.1107 10.5936 17.1318 10.5936 15.926V15.1861H14.9631ZM9.43593 7.1634C9.28109 7.1634 9.14754 7.09669 9.05506 6.97221C8.96264 6.8478 8.93694 6.7004 8.98163 6.55227C9.39915 5.16719 10.6851 4.1582 12.2065 4.1582C13.7278 4.1582 15.0133 5.16719 15.4309 6.55227C15.476 6.7004 15.4499 6.8478 15.3574 6.97221C15.265 7.09669 15.1319 7.1634 14.9766 7.1634H9.43593ZM17.6548 8.15104C17.4999 8.15104 17.3664 8.08427 17.2739 7.95985C17.1815 7.83538 17.1558 7.68804 17.2004 7.53991C17.618 6.15483 18.9039 5.14584 20.4253 5.14584C21.9466 5.14584 23.2322 6.15483 23.6498 7.53991C23.6948 7.68804 23.6687 7.83538 23.5763 7.95985C23.4838 8.08427 23.3507 8.15104 23.1955 8.15104H17.6548ZM1.16561 8.14499C1.01077 8.14499 0.877223 8.07822 0.784803 7.95381C0.692324 7.82933 0.666678 7.68199 0.711315 7.53381C1.1289 6.14879 2.41478 5.1398 3.93619 5.1398C5.45754 5.1398 6.74307 6.14879 7.16065 7.53381C7.20565 7.68199 7.17958 7.82933 7.08716 7.95381C6.99468 8.07822 6.86155 8.14499 6.70629 8.14499H1.16561Z" fill="#9BC9FF"/>
<path fill-rule="evenodd" clip-rule="evenodd" d="M13.8267 3.90118C15.1248 4.45938 16.0678 5.68533 16.2239 7.14644C16.2385 7.28289 16.1944 7.41916 16.1027 7.52132C16.0108 7.62341 15.88 7.68172 15.7428 7.68172H8.75417C8.61687 7.68172 8.48598 7.62335 8.39423 7.5212C8.30247 7.41904 8.25838 7.28271 8.27308 7.14614C8.42997 5.68509 9.37322 4.45926 10.671 3.90112C10.2502 3.49007 9.9884 2.9168 9.9884 2.28444C9.9884 1.03938 11.0034 0.0234375 12.2484 0.0234375C13.4946 0.0234375 14.5094 1.03945 14.5094 2.28444C14.5094 2.9168 14.2477 3.49013 13.8267 3.90118ZM12.2484 4.54545C10.8745 4.54545 9.71399 5.46015 9.34237 6.71398H15.1549C14.7839 5.46009 13.6231 4.54545 12.2484 4.54545ZM12.2484 3.57771C12.9612 3.57771 13.5417 2.99658 13.5417 2.28444C13.5417 1.57231 12.9612 0.991179 12.2484 0.991179C11.5364 0.991179 10.9561 1.57243 10.9561 2.28444C10.9561 2.99652 11.5364 3.57771 12.2484 3.57771ZM22.0455 4.88779C23.3437 5.446 24.2866 6.67194 24.4427 8.13299C24.4573 8.2695 24.4133 8.40577 24.3214 8.50787C24.2297 8.60997 24.0989 8.66827 23.9616 8.66827H16.973C16.8357 8.66827 16.7048 8.60997 16.6131 8.50781C16.5213 8.40565 16.4772 8.26932 16.4919 8.13275C16.6488 6.6717 17.5921 5.44587 18.8899 4.88773C18.469 4.47668 18.2072 3.90342 18.2072 3.27106C18.2072 2.026 19.2222 1.01005 20.4673 1.01005C21.7135 1.01005 22.7283 2.02606 22.7283 3.27106C22.7283 3.90342 22.4665 4.47674 22.0455 4.88779ZM20.4673 5.53206C19.0933 5.53206 17.9328 6.4467 17.5612 7.70059C17.5612 7.70059 23.3737 7.70053 23.3737 7.70059C23.0027 6.4467 21.842 5.53206 20.4673 5.53206ZM20.4673 4.56432C21.1801 4.56432 21.7606 3.98319 21.7606 3.27106C21.7606 2.55892 21.1801 1.97779 20.4673 1.97779C19.7553 1.97779 19.175 2.55898 19.175 3.27106C19.175 3.98307 19.7553 4.56432 20.4673 4.56432ZM5.55639 4.87672C6.85449 5.43493 7.79743 6.66081 7.9536 8.12192C7.96818 8.25843 7.92409 8.3947 7.83233 8.4968C7.74058 8.5989 7.60975 8.6572 7.47245 8.6572H0.483849C0.34655 8.6572 0.215724 8.59884 0.123909 8.49668C0.0321555 8.39452 -0.0118767 8.25819 0.00276043 8.12168C0.159656 6.66057 1.1029 5.43474 2.4007 4.8766C1.97992 4.46555 1.71808 3.89229 1.71808 3.25993C1.71808 2.01487 2.73312 0.998921 3.97818 0.998921C5.22433 0.998921 6.23919 2.01493 6.23919 3.25993C6.23919 3.89229 5.97735 4.46561 5.55639 4.87672ZM3.97818 5.52093C2.60423 5.52093 1.44367 6.43563 1.07211 7.68946H6.88455C6.51354 6.43557 5.35286 5.52093 3.97818 5.52093ZM3.97818 4.55319C4.69098 4.55319 5.27145 3.97206 5.27145 3.25993C5.27145 2.54785 4.69098 1.96666 3.97818 1.96666C3.26611 1.96666 2.68582 2.54791 2.68582 3.25993C2.68582 3.972 3.26611 4.55319 3.97818 4.55319ZM17.9638 14.7356H21.0061C21.2734 14.7356 21.49 14.9522 21.49 15.2195V16.8369C21.49 16.9618 21.4417 17.0819 21.3552 17.172L15.4367 23.3381V27.2097C15.4367 27.3866 15.3402 27.5494 15.1849 27.6342L10.9213 29.9641C10.7714 30.0461 10.5894 30.0429 10.4425 29.9557C10.2955 29.8686 10.2054 29.7104 10.2054 29.5396V23.3382L4.28574 17.172C4.19919 17.0819 4.15092 16.9618 4.15092 16.8369V15.2195C4.15092 14.9522 4.36752 14.7356 4.63479 14.7356H7.67713V12.6959C7.67713 12.4287 7.89372 12.212 8.161 12.212H10.6357C10.9029 12.212 11.1196 12.4287 11.1196 12.6959V14.7356H14.5214V12.6959C14.5214 12.4287 14.738 12.212 15.0052 12.212H17.4799C17.7471 12.212 17.9638 12.4287 17.9638 12.6959V14.7356ZM7.67713 15.7034H5.11867V16.353H7.69195C7.68209 16.2231 7.67713 16.0918 7.67713 15.9594V15.7034ZM5.77008 17.3208L11.0383 22.8084C11.1248 22.8985 11.1732 23.0186 11.1732 23.1435V28.7237L14.469 26.9227V23.1435C14.469 23.0186 14.5173 22.8985 14.6038 22.8085L19.871 17.3208H17.7814C17.184 19.4997 15.188 21.1027 12.8204 21.1027C10.453 21.1027 8.45695 19.4997 7.85949 17.3208H5.77008ZM20.5223 16.353V15.7034H17.9638V15.9594C17.9638 16.0918 17.9588 16.2231 17.9489 16.353H20.5223ZM11.1196 15.7034V15.9594C11.1196 16.0948 11.1354 16.2267 11.1654 16.353H14.4755C14.5055 16.2267 14.5214 16.0948 14.5214 15.9594V15.7034H11.1196ZM11.8012 17.3208C12.0853 17.5339 12.4382 17.6603 12.8204 17.6603C13.2026 17.6603 13.5556 17.5339 13.8397 17.3208H11.8012ZM10.1518 13.9557V13.1798H8.64487V13.9557H10.1518ZM15.4891 14.9234V15.9594C15.4891 17.4323 14.2933 18.628 12.8204 18.628C11.3476 18.628 10.1518 17.4323 10.1518 15.9594V14.9234H8.64487V15.9594C8.64487 18.264 10.5159 20.135 12.8204 20.135C15.1251 20.135 16.9961 18.264 16.9961 15.9594V14.9234H15.4891ZM16.9961 13.9557V13.1798H15.4891V13.9557H16.9961ZM12.4668 9.41192C12.2849 9.21644 12.2958 8.91003 12.4913 8.72809C12.6868 8.54609 12.9932 8.55704 13.1751 8.75247C13.3964 8.99011 13.5978 9.23579 13.5978 9.71918C13.5978 10.1256 13.4527 10.3677 13.2748 10.5754C13.2226 10.6364 13.1665 10.6931 13.1135 10.7532C13.0614 10.8123 13.0109 10.877 13.0109 10.9942C13.0109 11.1537 13.1022 11.223 13.1751 11.3015C13.3571 11.4969 13.3462 11.8033 13.1507 11.9853C12.9553 12.1673 12.6488 12.1564 12.4668 11.9609C12.2457 11.7234 12.0432 11.4775 12.0432 10.9942C12.0432 10.5878 12.1882 10.3457 12.3661 10.138C12.4183 10.077 12.4744 10.0203 12.5274 9.96015C12.5795 9.90111 12.63 9.8364 12.63 9.71918C12.63 9.5598 12.5398 9.49025 12.4668 9.41192ZM17.5696 9.43823C17.5791 9.17132 17.8035 8.96241 18.0704 8.97196C18.3373 8.98146 18.5463 9.20585 18.5367 9.47277C18.5252 9.7972 18.4938 10.1134 18.152 10.4551C17.8646 10.7426 17.5909 10.8112 17.3181 10.8323C17.2381 10.8384 17.1584 10.8389 17.0784 10.8439C16.9998 10.8488 16.9183 10.8589 16.8354 10.9417C16.7226 11.0545 16.7382 11.1681 16.7343 11.2752C16.7248 11.542 16.5003 11.751 16.2335 11.7415C15.9666 11.732 15.7577 11.5075 15.7672 11.2406C15.7788 10.9163 15.8094 10.5992 16.1511 10.2575C16.4385 9.97007 16.7123 9.90142 16.985 9.88037C17.065 9.8742 17.1447 9.87371 17.2247 9.86869C17.3033 9.8638 17.3848 9.85375 17.4677 9.77089C17.5804 9.65815 17.5658 9.54523 17.5696 9.43823ZM7.10417 9.47277C7.09467 9.20585 7.30358 8.98146 7.5705 8.97196C7.83735 8.96241 8.06181 9.17132 8.07131 9.43823C8.07512 9.54523 8.06048 9.65815 8.17322 9.77089C8.25608 9.85375 8.33762 9.8638 8.41618 9.86869C8.49614 9.87371 8.57586 9.8742 8.65594 9.88037C8.92866 9.90142 9.20235 9.97007 9.48977 10.2575C9.83151 10.5992 9.86217 10.9163 9.87372 11.2406C9.88328 11.5075 9.67431 11.732 9.40745 11.7415C9.14054 11.751 8.91614 11.542 8.90659 11.2752C8.90278 11.1681 8.91826 11.0545 8.80552 10.9417C8.72259 10.8589 8.64112 10.8488 8.56255 10.8439C8.48253 10.8389 8.40282 10.8384 8.32274 10.8323C8.05008 10.8112 7.77632 10.7426 7.48891 10.4551C7.14711 10.1134 7.11578 9.7972 7.10417 9.47277Z" fill="#3E66F3"/>
</svg>
