<svg width="36" height="30" viewBox="0 0 36 30" fill="none" xmlns="http://www.w3.org/2000/svg">
<path d="M21.5125 5.14911C23.1608 6.18258 24.3166 7.93143 24.527 9.96144C25.1992 10.2755 25.9453 10.4562 26.7363 10.4562C29.6241 10.4562 31.9646 8.11561 31.9646 5.2283C31.9646 2.34055 29.6241 0 26.7363 0C23.8761 0.000889772 21.5561 2.29962 21.5125 5.14911ZM18.0873 15.854C20.975 15.854 23.3156 13.513 23.3156 10.6257C23.3156 7.73835 20.9746 5.3978 18.0873 5.3978C15.2 5.3978 12.8581 7.73879 12.8581 10.6261C12.8581 13.5134 15.2 15.854 18.0873 15.854ZM20.305 16.2103H15.8686C12.1774 16.2103 9.17444 19.2137 9.17444 22.905V28.3303L9.18823 28.4153L9.56194 28.5323C13.0845 29.633 16.1449 30 18.6639 30C23.5839 30 26.4356 28.5973 26.6113 28.5079L26.9605 28.3312H26.9979V22.905C26.9992 19.2137 23.9963 16.2103 20.305 16.2103ZM28.955 10.813H24.5528C24.5052 12.5743 23.7534 14.1603 22.5642 15.301C25.8452 16.2766 28.2458 19.3192 28.2458 22.913V24.5848C32.5924 24.4256 35.0971 23.1937 35.2621 23.1109L35.6113 22.9339H35.6487V17.5067C35.6487 13.8159 32.6457 10.813 28.955 10.813ZM8.91329 10.457C9.93608 10.457 10.8877 10.1585 11.6938 9.65002C11.9501 7.97859 12.8461 6.51803 14.126 5.52326C14.1314 5.42539 14.1407 5.3284 14.1407 5.22964C14.1407 2.34188 11.7997 0.00133456 8.91329 0.00133456C6.02509 0.00133456 3.68499 2.34188 3.68499 5.22964C3.68499 8.11606 6.02509 10.457 8.91329 10.457ZM13.6086 15.301C12.4252 14.1661 11.676 12.5885 11.6213 10.8379C11.458 10.8259 11.2965 10.813 11.1302 10.813H6.6942C3.00298 10.813 0 13.8159 0 17.5067V22.933L0.0137915 23.0166L0.387496 23.1345C3.21341 24.0167 5.73547 24.4234 7.92609 24.5515V22.913C7.92698 19.3192 10.3267 16.2775 13.6086 15.301Z" fill="#3E66F3"/>
</svg>
