<svg width="28" height="28" viewBox="0 0 28 28" fill="none" xmlns="http://www.w3.org/2000/svg">
<path d="M9.69453 13.4369C9.86043 13.4369 9.99453 13.3025 9.99453 13.1369V9.36982C9.99453 9.20422 9.86043 9.06982 9.69453 9.06982C9.52863 9.06982 9.39453 9.20422 9.39453 9.36982V13.1369C9.39453 13.3025 9.52863 13.4369 9.69453 13.4369Z" fill="#9BC9FF"/>
<path d="M9.69453 15.8375C9.86043 15.8375 9.99453 15.7031 9.99453 15.5375V14.2673C9.99453 14.1017 9.86043 13.9673 9.69453 13.9673C9.52863 13.9673 9.39453 14.1017 9.39453 14.2673V15.5375C9.39453 15.7031 9.52863 15.8375 9.69453 15.8375Z" fill="#9BC9FF"/>
<path d="M21.5047 16.9216L20.8456 12.8128C20.6551 11.6143 19.9567 10.5547 18.9295 9.90613L17.5936 9.06103V7.36903C17.5936 4.99483 16.4041 2.80663 14.4121 1.51603L13.0702 0.646031C12.9712 0.581531 12.8428 0.581531 12.7438 0.646031L11.4019 1.51573C9.40928 2.80663 8.22008 4.99483 8.22008 7.36903V9.06073L6.88448 9.90583C5.85758 10.5544 5.15918 11.6137 4.96808 12.8122L4.30898 16.9213C4.29968 16.9795 4.30748 17.0392 4.33208 17.0929L6.28958 21.3961C6.33818 21.5032 6.44528 21.5719 6.56258 21.5719H6.56588C6.68468 21.5707 6.79178 21.4993 6.83828 21.3901L7.25948 20.407C7.98758 25.1509 10.5337 26.1325 12.7996 27.0037C12.8341 27.0169 12.8704 27.0235 12.907 27.0235C12.9436 27.0235 12.9799 27.0169 13.0144 27.0037C15.28 26.1328 17.8258 25.1515 18.5542 20.4088L18.9754 21.3904C19.0222 21.4996 19.1293 21.5707 19.2478 21.5719H19.2511C19.3687 21.5719 19.4755 21.5032 19.5241 21.3961L21.4813 17.0929C21.5059 17.0392 21.5137 16.9795 21.5044 16.9213L21.5047 16.9216ZM8.82008 7.36903C8.82008 5.19913 9.90728 3.19933 11.7283 2.01913L12.907 1.25503L14.0857 2.01913C15.9064 3.19903 16.9936 5.19883 16.9936 7.36873V16.411H13.9753V12.2236C13.9753 11.6347 13.4959 11.1553 12.9067 11.1553C12.3175 11.1553 11.8381 11.6347 11.8381 12.2236V16.411H8.81948V7.36903H8.82008ZM12.907 26.4022C10.6099 25.5178 8.26688 24.5434 7.75538 19.5643H9.35647C9.71948 22.819 11.4211 23.4826 12.7996 24.0127C12.8341 24.0259 12.8704 24.0325 12.907 24.0325C12.9436 24.0325 12.9799 24.0259 13.0144 24.0127C14.3926 23.4829 16.0945 22.819 16.4575 19.5643H18.0586C17.5471 24.5434 15.2041 25.5178 12.907 26.4022ZM16.1902 18.9643H7.88108L8.71778 17.0113H17.0959L17.9341 18.9643H16.1902Z" fill="#9BC9FF"/>
<path d="M12.9074 9.88458C14.5217 9.88458 15.8348 8.57149 15.8348 6.95719C15.8348 5.34289 14.5217 4.02979 12.9074 4.02979C11.2931 4.02979 9.97998 5.34289 9.97998 6.95719C9.97998 8.57149 11.2931 9.88458 12.9074 9.88458ZM12.9074 4.62979C14.1905 4.62979 15.2348 5.67379 15.2348 6.95719C15.2348 8.24059 14.1908 9.28458 12.9074 9.28458C11.624 9.28458 10.58 8.24059 10.58 6.95719C10.58 5.67379 11.624 4.62979 12.9074 4.62979Z" fill="#9BC9FF"/>
<path d="M12.9073 8.80107C13.924 8.80107 14.7511 7.97397 14.7511 6.95727C14.7511 5.94057 13.924 5.11377 12.9073 5.11377C11.8906 5.11377 11.0635 5.94087 11.0635 6.95727C11.0635 7.97367 11.8906 8.80107 12.9073 8.80107Z" fill="#9BC9FF"/>
<path d="M3.96223 5.95882C4.23703 5.95882 4.48573 5.85592 4.68103 5.69152V6.18532C4.68103 6.35092 4.81513 6.48532 4.98103 6.48532C5.14693 6.48532 5.28103 6.35092 5.28103 6.18532V5.47792C5.28103 5.39842 5.24953 5.32192 5.19313 5.26552L5.04553 5.11792C5.06923 5.02702 5.08603 4.93342 5.08603 4.83502C5.08603 4.75072 5.07493 4.66912 5.05723 4.59022H5.19613C5.36203 4.59022 5.49613 4.45582 5.49613 4.29022C5.49613 4.12462 5.36203 3.99022 5.19613 3.99022H4.69483C4.66963 3.96832 4.64473 3.94612 4.61743 3.92632C4.68043 3.81592 4.71943 3.68962 4.71943 3.55342C4.71943 3.54112 4.71643 3.53002 4.71583 3.51772L4.87363 3.35992C4.93003 3.30352 4.96153 3.22732 4.96153 3.14782V2.64082C4.96153 2.47522 4.82743 2.34082 4.66153 2.34082C4.49563 2.34082 4.36153 2.47522 4.36153 2.64082V2.91232C4.24513 2.83942 4.10893 2.79562 3.96193 2.79562C3.81493 2.79562 3.67843 2.83972 3.56203 2.91232V2.64082C3.56203 2.47522 3.42793 2.34082 3.26203 2.34082C3.09613 2.34082 2.96203 2.47522 2.96203 2.64082V3.14782C2.96203 3.22732 2.99353 3.30382 3.04993 3.36022L3.20773 3.51772C3.20713 3.52972 3.20413 3.54112 3.20413 3.55342C3.20413 3.68962 3.24313 3.81562 3.30643 3.92632C3.27943 3.94582 3.25453 3.96802 3.22933 3.98992H2.72773C2.56183 3.98992 2.42773 4.12432 2.42773 4.28992C2.42773 4.45552 2.56183 4.58992 2.72773 4.58992H2.86693C2.84923 4.66912 2.83813 4.75042 2.83813 4.83472C2.83813 4.93312 2.85493 5.02672 2.87863 5.11762L2.73103 5.26552C2.67463 5.32192 2.64313 5.39812 2.64313 5.47762V6.18502C2.64313 6.35062 2.77723 6.48502 2.94313 6.48502C3.10903 6.48502 3.24313 6.35062 3.24313 6.18502V5.69122C3.43873 5.85562 3.68743 5.95852 3.96193 5.95852L3.96223 5.95882Z" fill="#9BC9FF"/>
<path d="M6.3154 9.22649C6.3154 9.06089 6.1813 8.92649 6.0154 8.92649H4.2625V7.78469C5.9899 7.63199 7.3495 6.17909 7.3495 4.41269C7.3495 2.54489 5.8303 1.02539 3.9625 1.02539C2.0947 1.02539 0.575195 2.54519 0.575195 4.41269C0.575195 6.17909 1.9351 7.63199 3.6625 7.78469V9.22649C3.6625 9.39209 3.7966 9.52649 3.9625 9.52649H6.0154C6.1813 9.52649 6.3154 9.39209 6.3154 9.22649ZM1.1752 4.41269C1.1752 2.87579 2.4256 1.62539 3.9625 1.62539C5.4994 1.62539 6.7495 2.87549 6.7495 4.41269C6.7495 5.94989 5.4991 7.19999 3.9625 7.19999C2.4259 7.19999 1.1752 5.94989 1.1752 4.41269Z" fill="#9BC9FF"/>
<path d="M25.5217 20.945H25.0204C24.9952 20.9231 24.9703 20.9009 24.9433 20.8814C25.0066 20.771 25.0456 20.6447 25.0456 20.5085C25.0456 20.4962 25.0426 20.4848 25.042 20.4728L25.1998 20.3153C25.2562 20.2589 25.2877 20.1827 25.2877 20.1029V19.5959C25.2877 19.4303 25.1536 19.2959 24.9877 19.2959C24.8218 19.2959 24.6877 19.4303 24.6877 19.5959V19.8674C24.5713 19.7945 24.4348 19.7507 24.2878 19.7507C24.1408 19.7507 24.0046 19.7945 23.8882 19.8674V19.5959C23.8882 19.4303 23.7541 19.2959 23.5882 19.2959C23.4223 19.2959 23.2882 19.4303 23.2882 19.5959V20.1029C23.2882 20.1824 23.3197 20.2589 23.3761 20.315L23.5339 20.4728C23.5333 20.4848 23.5303 20.4962 23.5303 20.5085C23.5303 20.6447 23.5693 20.7707 23.6323 20.8811C23.605 20.9006 23.5801 20.9231 23.5549 20.945H23.0539C22.888 20.945 22.7539 21.0794 22.7539 21.245C22.7539 21.4106 22.888 21.545 23.0539 21.545H23.1928C23.1751 21.6242 23.164 21.7055 23.164 21.7898C23.164 21.8882 23.1808 21.9818 23.2045 22.0727L23.0569 22.2203C23.0005 22.2767 22.969 22.3529 22.969 22.4327V23.1401C22.969 23.3057 23.1031 23.4401 23.269 23.4401C23.4349 23.4401 23.569 23.3057 23.569 23.1401V22.6463C23.7646 22.8107 24.0133 22.9136 24.2878 22.9136C24.5623 22.9136 24.8113 22.8107 25.0066 22.6463V23.1401C25.0066 23.3057 25.1407 23.4401 25.3066 23.4401C25.4725 23.4401 25.6066 23.3057 25.6066 23.1401V22.4327C25.6066 22.3532 25.5751 22.2767 25.5187 22.2206L25.3711 22.0727C25.3948 21.9818 25.4116 21.8882 25.4116 21.7898C25.4116 21.7055 25.4005 21.6239 25.3828 21.545H25.522C25.6879 21.545 25.822 21.4106 25.822 21.245C25.822 21.0794 25.6876 20.945 25.5217 20.945Z" fill="#9BC9FF"/>
<path d="M24.5874 17.9962V16.5544C24.5874 16.3888 24.4533 16.2544 24.2874 16.2544H22.2345C22.0686 16.2544 21.9345 16.3888 21.9345 16.5544C21.9345 16.72 22.0686 16.8544 22.2345 16.8544H23.9874V17.9962C22.26 18.1489 20.9004 19.6018 20.9004 21.3682C20.9004 23.236 22.4196 24.7555 24.2874 24.7555C26.1552 24.7555 27.6747 23.236 27.6747 21.3682C27.6747 19.6018 26.3148 18.1489 24.5874 17.9962ZM24.2874 24.1552C22.7508 24.1552 21.5004 22.9051 21.5004 21.3679C21.5004 19.8307 22.7508 18.5806 24.2874 18.5806C25.824 18.5806 27.0747 19.8307 27.0747 21.3679C27.0747 22.9051 25.8243 24.1552 24.2874 24.1552Z" fill="#9BC9FF"/>
<path d="M9.11934 12.8388C9.28524 12.8388 9.41934 12.7044 9.41934 12.5388V8.77168C9.41934 8.60608 9.28524 8.47168 9.11934 8.47168C8.95344 8.47168 8.81934 8.60608 8.81934 8.77168V12.5388C8.81934 12.7044 8.95344 12.8388 9.11934 12.8388Z" fill="#3E66F3"/>
<path d="M9.11934 15.2398C9.28524 15.2398 9.41934 15.1054 9.41934 14.9398V13.6696C9.41934 13.504 9.28524 13.3696 9.11934 13.3696C8.95344 13.3696 8.81934 13.504 8.81934 13.6696V14.9398C8.81934 15.1054 8.95344 15.2398 9.11934 15.2398Z" fill="#3E66F3"/>
<path d="M20.93 16.324L20.2709 12.2152C20.0804 11.0167 19.382 9.95707 18.3548 9.30847L17.0189 8.46337V6.77137C17.0189 4.39717 15.8294 2.20897 13.8374 0.918375L12.4955 0.048375C12.3965 -0.016125 12.2681 -0.016125 12.1691 0.048375L10.8272 0.918075C8.83457 2.20897 7.64537 4.39717 7.64537 6.77137V8.46307L6.30977 9.30817C5.28287 9.95677 4.58447 11.0161 4.39337 12.2146L3.73427 16.3237C3.72497 16.3819 3.73277 16.4416 3.75737 16.4953L5.71487 20.7985C5.76347 20.9056 5.87057 20.9743 5.98787 20.9743H5.99117C6.10997 20.9731 6.21707 20.9017 6.26357 20.7925L6.68477 19.8094C7.41287 24.5533 9.95897 25.5349 12.2249 26.4061C12.2594 26.4193 12.2957 26.4259 12.3323 26.4259C12.3689 26.4259 12.4052 26.4193 12.4397 26.4061C14.7053 25.5352 17.2511 24.5539 17.9795 19.8112L18.4007 20.7928C18.4475 20.902 18.5546 20.9731 18.6731 20.9743H18.6764C18.794 20.9743 18.9008 20.9056 18.9494 20.7985L20.9066 16.4953C20.9312 16.4416 20.939 16.3819 20.9297 16.3237L20.93 16.324ZM8.24507 6.77137C8.24507 4.60147 9.33227 2.60167 11.1533 1.42147L12.332 0.657375L13.5107 1.42147C15.3314 2.60137 16.4186 4.60117 16.4186 6.77107V15.8134H13.4003V11.626C13.4003 11.0371 12.9209 10.5577 12.3317 10.5577C11.7425 10.5577 11.2631 11.0371 11.2631 11.626V15.8134H8.24447V6.77137H8.24507ZM12.8006 15.8137H11.8637V11.6263C11.8637 11.368 12.0737 11.158 12.3323 11.158C12.5909 11.158 12.8009 11.368 12.8009 11.6263L12.8006 15.8137ZM5.97977 19.9318L4.34087 16.3294L4.98557 12.3094C5.14967 11.281 5.74877 10.372 6.63017 9.81547L7.64507 9.17317V16.0522L6.59207 18.5095C6.58457 18.5221 6.57767 18.535 6.57197 18.5488L5.97947 19.9318H5.97977ZM12.3323 25.8046C10.0352 24.9202 7.69217 23.9458 7.18067 18.9667H8.78177C9.14477 22.2214 10.8464 22.885 12.2249 23.4151C12.2594 23.4283 12.2957 23.4349 12.3323 23.4349C12.3689 23.4349 12.4052 23.4283 12.4397 23.4151C13.8179 22.8853 15.5198 22.2214 15.8828 18.9667H17.4839C16.9724 23.9458 14.6294 24.9202 12.3323 25.8046ZM9.38057 18.9667H15.284C14.9606 21.7306 13.6397 22.309 12.3323 22.8136C11.0252 22.309 9.70397 21.7306 9.38057 18.9667ZM15.6155 18.3667H7.30607L8.14277 16.4137H16.5209L17.3591 18.3667H15.6155ZM18.6842 19.933L17.0189 16.0522V9.17317L18.0344 9.81577C18.9158 10.3723 19.5149 11.2813 19.6784 12.3097L20.3231 16.3294L18.6842 19.933Z" fill="#3E66F3"/>
<path d="M12.3317 9.28644C13.946 9.28644 15.2591 7.97334 15.2591 6.35904C15.2591 4.74474 13.946 3.43164 12.3317 3.43164C10.7174 3.43164 9.4043 4.74474 9.4043 6.35904C9.4043 7.97334 10.7174 9.28644 12.3317 9.28644ZM12.3317 4.03164C13.6148 4.03164 14.6591 5.07564 14.6591 6.35904C14.6591 7.64244 13.6151 8.68644 12.3317 8.68644C11.0483 8.68644 10.0043 7.64244 10.0043 6.35904C10.0043 5.07564 11.0483 4.03164 12.3317 4.03164Z" fill="#3E66F3"/>
<path d="M12.3316 8.20244C13.3483 8.20244 14.1754 7.37534 14.1754 6.35864C14.1754 5.34194 13.3483 4.51514 12.3316 4.51514C11.3149 4.51514 10.4878 5.34224 10.4878 6.35864C10.4878 7.37504 11.3149 8.20244 12.3316 8.20244ZM12.3316 5.11514C13.0174 5.11514 13.5754 5.67284 13.5754 6.35864C13.5754 7.04444 13.0177 7.60244 12.3316 7.60244C11.6455 7.60244 11.0878 7.04444 11.0878 6.35864C11.0878 5.67284 11.6455 5.11514 12.3316 5.11514Z" fill="#3E66F3"/>
<path d="M3.38753 5.36068C3.66233 5.36068 3.91103 5.25778 4.10633 5.09338V5.58718C4.10633 5.75278 4.24043 5.88718 4.40633 5.88718C4.57223 5.88718 4.70633 5.75278 4.70633 5.58718V4.87978C4.70633 4.80028 4.67483 4.72378 4.61843 4.66738L4.47083 4.51978C4.49453 4.42888 4.51133 4.33528 4.51133 4.23688C4.51133 4.15258 4.50023 4.07098 4.48253 3.99208H4.62143C4.78733 3.99208 4.92143 3.85768 4.92143 3.69208C4.92143 3.52648 4.78733 3.39208 4.62143 3.39208H4.12013C4.09493 3.37018 4.07003 3.34798 4.04273 3.32818C4.10573 3.21778 4.14473 3.09148 4.14473 2.95528C4.14473 2.94298 4.14173 2.93188 4.14113 2.91958L4.29893 2.76178C4.35533 2.70538 4.38683 2.62918 4.38683 2.54968V2.04268C4.38683 1.87708 4.25273 1.74268 4.08683 1.74268C3.92093 1.74268 3.78683 1.87708 3.78683 2.04268V2.31418C3.67043 2.24128 3.53423 2.19748 3.38723 2.19748C3.24023 2.19748 3.10373 2.24158 2.98733 2.31418V2.04268C2.98733 1.87708 2.85323 1.74268 2.68733 1.74268C2.52143 1.74268 2.38733 1.87708 2.38733 2.04268V2.54968C2.38733 2.62918 2.41883 2.70568 2.47523 2.76208L2.63303 2.91958C2.63243 2.93158 2.62943 2.94298 2.62943 2.95528C2.62943 3.09148 2.66843 3.21748 2.73173 3.32818C2.70473 3.34768 2.67983 3.36988 2.65463 3.39178H2.15303C1.98713 3.39178 1.85303 3.52618 1.85303 3.69178C1.85303 3.85738 1.98713 3.99178 2.15303 3.99178H2.29223C2.27453 4.07098 2.26343 4.15228 2.26343 4.23658C2.26343 4.33498 2.28023 4.42858 2.30393 4.51948L2.15633 4.66738C2.09993 4.72378 2.06843 4.79998 2.06843 4.87948V5.58688C2.06843 5.75248 2.20253 5.88688 2.36843 5.88688C2.53433 5.88688 2.66843 5.75248 2.66843 5.58688V5.09308C2.86403 5.25748 3.11273 5.36038 3.38723 5.36038L3.38753 5.36068ZM3.38753 4.76068C3.09863 4.76068 2.86373 4.52578 2.86373 4.23688C2.86373 3.94798 3.09863 3.71308 3.38753 3.71308C3.67643 3.71308 3.91133 3.94798 3.91133 4.23688C3.91133 4.52578 3.67643 4.76068 3.38753 4.76068ZM3.22973 2.95528C3.22973 2.86828 3.30053 2.79748 3.38753 2.79748C3.47453 2.79748 3.54503 2.86828 3.54503 2.95528C3.54503 3.04228 3.47453 3.11308 3.38753 3.11308C3.30053 3.11308 3.22973 3.04228 3.22973 2.95528Z" fill="#3E66F3"/>
<path d="M5.7402 8.62834C5.7402 8.46274 5.6061 8.32834 5.4402 8.32834H3.6873V7.18655C5.4147 7.03385 6.7743 5.58095 6.7743 3.81455C6.7743 1.94675 5.2551 0.427246 3.3873 0.427246C1.5195 0.427246 0 1.94705 0 3.81485C0 5.58125 1.3599 7.03415 3.0873 7.18685V8.62865C3.0873 8.79425 3.2214 8.92865 3.3873 8.92865H5.4402C5.6061 8.92865 5.7402 8.79425 5.7402 8.62865V8.62834ZM0.6 3.81485C0.6 2.27795 1.8504 1.02755 3.3873 1.02755C4.9242 1.02755 6.1743 2.27765 6.1743 3.81485C6.1743 5.35205 4.9239 6.60215 3.3873 6.60215C1.8507 6.60215 0.6 5.35205 0.6 3.81485Z" fill="#3E66F3"/>
<path d="M24.9465 20.3473H24.4452C24.42 20.3254 24.3951 20.3032 24.3681 20.2837C24.4314 20.1733 24.4704 20.047 24.4704 19.9108C24.4704 19.8985 24.4674 19.8871 24.4668 19.8751L24.6246 19.7176C24.681 19.6612 24.7125 19.585 24.7125 19.5052V18.9982C24.7125 18.8326 24.5784 18.6982 24.4125 18.6982C24.2466 18.6982 24.1125 18.8326 24.1125 18.9982V19.2697C23.9961 19.1968 23.8596 19.153 23.7126 19.153C23.5656 19.153 23.4294 19.1968 23.313 19.2697V18.9982C23.313 18.8326 23.1789 18.6982 23.013 18.6982C22.8471 18.6982 22.713 18.8326 22.713 18.9982V19.5052C22.713 19.5847 22.7445 19.6612 22.8009 19.7173L22.9587 19.8751C22.9581 19.8871 22.9551 19.8985 22.9551 19.9108C22.9551 20.047 22.9941 20.173 23.0571 20.2834C23.0298 20.3029 23.0049 20.3254 22.9797 20.3473H22.4787C22.3128 20.3473 22.1787 20.4817 22.1787 20.6473C22.1787 20.8129 22.3128 20.9473 22.4787 20.9473H22.6176C22.5999 21.0265 22.5888 21.1078 22.5888 21.1921C22.5888 21.2905 22.6056 21.3841 22.6293 21.475L22.4817 21.6226C22.4253 21.679 22.3938 21.7552 22.3938 21.835V22.5424C22.3938 22.708 22.5279 22.8424 22.6938 22.8424C22.8597 22.8424 22.9938 22.708 22.9938 22.5424V22.0486C23.1894 22.213 23.4381 22.3159 23.7126 22.3159C23.9871 22.3159 24.2361 22.213 24.4314 22.0486V22.5424C24.4314 22.708 24.5655 22.8424 24.7314 22.8424C24.8973 22.8424 25.0314 22.708 25.0314 22.5424V21.835C25.0314 21.7555 24.9999 21.679 24.9435 21.6229L24.7959 21.475C24.8196 21.3841 24.8364 21.2905 24.8364 21.1921C24.8364 21.1078 24.8253 21.0262 24.8076 20.9473H24.9468C25.1127 20.9473 25.2468 20.8129 25.2468 20.6473C25.2468 20.4817 25.1124 20.3473 24.9465 20.3473ZM23.5545 19.9108C23.5545 19.8238 23.625 19.753 23.712 19.753C23.799 19.753 23.8698 19.8238 23.8698 19.9108C23.8698 19.9978 23.799 20.0683 23.712 20.0683C23.625 20.0683 23.5545 19.9975 23.5545 19.9108ZM23.712 21.7162C23.4231 21.7162 23.1882 21.4813 23.1882 21.1924C23.1882 20.9035 23.4231 20.6686 23.712 20.6686C24.0009 20.6686 24.2358 20.9035 24.2358 21.1924C24.2358 21.4813 24.0009 21.7162 23.712 21.7162Z" fill="#3E66F3"/>
<path d="M24.0122 17.398V15.9563C24.0122 15.7907 23.8781 15.6562 23.7122 15.6562H21.6593C21.4934 15.6562 21.3593 15.7907 21.3593 15.9563C21.3593 16.1219 21.4934 16.2563 21.6593 16.2563H23.4122V17.398C21.6848 17.5508 20.3252 19.0037 20.3252 20.7701C20.3252 22.6379 21.8444 24.1574 23.7122 24.1574C25.58 24.1574 27.0995 22.6379 27.0995 20.7701C27.0995 19.0037 25.7396 17.5508 24.0122 17.398ZM23.7122 23.5571C22.1756 23.5571 20.9252 22.307 20.9252 20.7698C20.9252 19.2326 22.1756 17.9825 23.7122 17.9825C25.2488 17.9825 26.4995 19.2326 26.4995 20.7698C26.4995 22.307 25.2491 23.5571 23.7122 23.5571Z" fill="#3E66F3"/>
</svg>
