<svg width="30" height="30" viewBox="0 0 30 30" fill="none" xmlns="http://www.w3.org/2000/svg">
<g clip-path="url(#clip0_1_15781)">
<path d="M16.9694 6.18701H3.28228C1.47702 6.18701 0 7.66404 0 9.46929V20.5306C0 22.3358 1.47702 23.8128 3.28228 23.8128H16.9694C18.7746 23.8128 20.2516 22.3358 20.2516 20.5306V9.46929C20.2516 7.63121 18.7746 6.18701 16.9694 6.18701Z" fill="#3E66F3"/>
<path d="M27.5709 7.99232C27.374 8.02514 27.177 8.12361 27.0129 8.22208L21.8926 11.1761V18.791L27.0458 21.7451C27.9976 22.303 29.1792 21.9748 29.7372 21.023C29.9013 20.7276 29.9998 20.3993 29.9998 20.0383V9.89604C29.9998 8.6816 28.851 7.69692 27.5709 7.99232Z" fill="#3E66F3"/>
</g>
<defs>
<clipPath id="clip0_1_15781">
<rect width="30" height="30" fill="white"/>
</clipPath>
</defs>
</svg>
