<svg width="20" height="20" viewBox="0 0 20 20" fill="none" xmlns="http://www.w3.org/2000/svg">
<path d="M19.8456 0.0752719C19.7881 0.0324162 19.5842 -0.0900798 19.3906 0.118842L10.8877 9.2264C10.7755 9.34639 10.5962 9.37389 10.4534 9.29497L5.52034 6.56434C5.29642 6.44078 5.13928 6.59077 5.09607 6.6397C5.00179 6.74719 4.94715 6.92469 5.07678 7.10004C5.20642 7.27539 10.7245 14.7412 10.7245 14.7412C10.8548 14.9173 11.0569 15.0144 11.2677 14.9994C11.4841 14.9873 11.6716 14.8709 11.7816 14.6798L19.9427 0.552399C20.0991 0.282051 19.8892 0.107771 19.8456 0.0752719Z" fill="#3E66F3"/>
<path d="M19.3369 6.76692C19.2384 6.72478 19.1269 6.72871 19.032 6.7762C18.8745 6.85513 18.798 7.03227 18.8509 7.1969C19.2105 8.31794 19.3484 9.49611 19.2598 10.7C18.9155 15.3902 14.9564 19.1597 10.2472 19.2826C7.61162 19.3508 5.04599 18.2837 3.23212 16.353C1.42075 14.4238 0.516494 11.7996 0.752558 9.15327C1.15112 4.67663 4.83314 1.05925 9.31727 0.739261C10.9708 0.621765 12.6118 0.93854 14.0682 1.65566C14.2396 1.7403 14.4453 1.67744 14.5378 1.51459C14.5896 1.42424 14.6007 1.3221 14.571 1.2246C14.5421 1.13103 14.4785 1.05639 14.3925 1.01389C13.0204 0.34106 11.5426 0 9.99975 0C7.2102 0 4.62207 1.11961 2.71178 3.15168C0.802556 5.18376 -0.153483 7.84188 0.0200822 10.6382C0.330786 15.6534 4.34672 19.6693 9.36156 19.9801C12.1561 20.1529 14.816 19.1979 16.8477 17.2884C18.8798 15.3777 19.9994 12.7896 19.9994 10.0004C19.9994 8.96899 19.843 7.95367 19.5334 6.9812C19.4916 6.84977 19.3923 6.79049 19.3369 6.76692Z" fill="#3E66F3"/>
</svg>
