<svg width="30" height="31" viewBox="0 0 30 31" fill="none" xmlns="http://www.w3.org/2000/svg">
<path d="M27.3633 5.67188C28.457 6.17969 29.0234 7.01953 29.0625 8.19141C28.9453 13.1914 27.9492 17.3711 26.0742 20.7305C24.1992 24.0898 22.168 26.5898 19.9805 28.2305C17.793 29.9102 16.1328 30.75 15 30.75C13.9062 30.75 12.2461 29.9297 10.0195 28.2891C7.83203 26.6094 5.80078 24.1094 3.92578 20.7891C2.05078 17.4297 1.05469 13.2305 0.9375 8.19141C0.976563 7.01953 1.5625 6.17969 2.69531 5.67188L13.9453 0.984375C14.2969 0.828125 14.6484 0.75 15 0.75C15.3906 0.75 15.7617 0.828125 16.1133 0.984375L27.3633 5.67188ZM20.625 12.4688C20.625 12.2344 20.5273 11.9414 20.332 11.5898C20.1367 11.2773 19.7656 11.082 19.2188 11.0039C18.7891 11.0039 18.4375 11.1602 18.1641 11.4727L13.5352 16.9219L11.7773 15.1641C11.5039 14.8906 11.1719 14.7539 10.7812 14.7539C9.92188 14.8711 9.45312 15.3398 9.375 16.1602C9.375 16.5898 9.51172 16.9219 9.78516 17.1562L12.5977 19.9688C12.8711 20.2422 13.2031 20.3789 13.5938 20.3789C13.8672 20.457 14.2188 20.3203 14.6484 19.9688L20.2734 13.4062C20.5078 13.1328 20.625 12.8203 20.625 12.4688Z" fill="#3E66F3"/>
</svg>
