<svg width="20" height="20" viewBox="0 0 20 20" fill="none" xmlns="http://www.w3.org/2000/svg">
<g clip-path="url(#clip0_1_1690)">
<path d="M19.1897 0.736304C19.136 0.696304 18.9457 0.581971 18.765 0.776971L10.8287 9.27764C10.724 9.38964 10.5567 9.4153 10.4233 9.34164L5.819 6.79297C5.61 6.67764 5.46333 6.81764 5.423 6.8633C5.335 6.96364 5.284 7.1293 5.405 7.29297C5.526 7.45664 10.6763 14.425 10.6763 14.425C10.798 14.5893 10.9867 14.68 11.1833 14.666C11.3853 14.6546 11.5603 14.546 11.663 14.3676L19.2803 1.18164C19.4263 0.929304 19.2303 0.766638 19.1897 0.736304Z" fill="#3E66F3"/>
<path d="M18.715 6.98202C18.623 6.94268 18.519 6.94635 18.4303 6.99068C18.2833 7.06435 18.212 7.22968 18.2613 7.38335C18.597 8.42968 18.7256 9.52935 18.643 10.653C18.3216 15.0307 14.6263 18.549 10.231 18.6637C7.77098 18.7273 5.37631 17.7313 3.68331 15.9293C1.99264 14.1287 1.14864 11.6793 1.36898 9.20935C1.74098 5.03102 5.17764 1.65468 9.36298 1.35602C10.9063 1.24635 12.438 1.54202 13.7973 2.21135C13.9573 2.29035 14.1493 2.23168 14.2356 2.07968C14.284 1.99535 14.2943 1.90002 14.2666 1.80902C14.2396 1.72168 14.1803 1.65202 14.1 1.61235C12.8193 0.984349 11.44 0.666016 9.99998 0.666016C7.39631 0.666016 4.98064 1.71102 3.19764 3.60768C1.41564 5.50435 0.523309 7.98535 0.685309 10.5953C0.975309 15.2763 4.72364 19.0247 9.40431 19.3147C12.0126 19.476 14.4953 18.5847 16.3916 16.8023C18.2883 15.019 19.3333 12.6033 19.3333 10C19.3333 9.03735 19.1873 8.08968 18.8983 7.18202C18.8593 7.05935 18.7666 7.00402 18.715 6.98202Z" fill="#3E66F3"/>
</g>
<defs>
<clipPath id="clip0_1_1690">
<rect width="20" height="20" fill="white"/>
</clipPath>
</defs>
</svg>
