<svg width="30" height="30" viewBox="0 0 30 30" fill="none" xmlns="http://www.w3.org/2000/svg">
<path d="M29.768 0.113152C29.6818 0.0488684 29.3759 -0.134876 29.0855 0.178507L16.3311 13.8398C16.1629 14.0198 15.894 14.0611 15.6797 13.9427L8.28015 9.84676C7.94426 9.66141 7.70856 9.8864 7.64374 9.95979C7.50231 10.121 7.42035 10.3873 7.61481 10.6503C7.80927 10.9133 16.0863 22.1121 16.0863 22.1121C16.2818 22.3762 16.585 22.5219 16.9011 22.4994C17.2257 22.4812 17.507 22.3065 17.672 22.0199L29.9137 0.828843C30.1483 0.42332 29.8334 0.1619 29.768 0.113152Z" fill="url(#paint0_linear_1_4315)"/>
<path d="M29.0054 10.1504C28.8576 10.0872 28.6904 10.0931 28.5479 10.1643C28.3117 10.2827 28.197 10.5484 28.2763 10.7954C28.8158 12.4769 29.0226 14.2442 28.8897 16.05C28.3733 23.0853 22.4346 28.7396 15.3709 28.9239C11.4174 29.0262 7.56898 27.4255 4.84818 24.5295C2.13112 21.6357 0.774741 17.6994 1.12884 13.7299C1.72667 7.01495 7.24971 1.58888 13.9759 1.10889C16.4562 0.932648 18.9177 1.40781 21.1023 2.48349C21.3594 2.61045 21.668 2.51617 21.8067 2.27189C21.8844 2.13636 21.901 1.98315 21.8565 1.8369C21.8132 1.69655 21.7178 1.58459 21.5887 1.52084C19.5305 0.51159 17.3138 0 14.9996 0C10.8153 0 6.93311 1.67941 4.06767 4.72752C1.20383 7.77564 -0.230225 11.7628 0.0301233 15.9573C0.496179 23.4801 6.52009 29.504 14.0423 29.9701C18.2342 30.2294 22.224 28.7969 25.2716 25.9325C28.3197 23.0666 29.9991 19.1844 29.9991 15.0006C29.9991 13.4535 29.7645 11.9305 29.3 10.4718C29.2374 10.2747 29.0884 10.1857 29.0054 10.1504Z" fill="url(#paint1_linear_1_4315)"/>
<defs>
<linearGradient id="paint0_linear_1_4315" x1="18.7497" y1="0.000976562" x2="18.7497" y2="22.5016" gradientUnits="userSpaceOnUse">
<stop stop-color="#3E66F3"/>
<stop offset="1" stop-color="#0031DD"/>
</linearGradient>
<linearGradient id="paint1_linear_1_4315" x1="14.9996" y1="0" x2="14.9996" y2="30" gradientUnits="userSpaceOnUse">
<stop stop-color="#3E66F3"/>
<stop offset="1" stop-color="#0031DD"/>
</linearGradient>
</defs>
</svg>
