<svg width="30" height="31" viewBox="0 0 30 31" fill="none" xmlns="http://www.w3.org/2000/svg">
<g clip-path="url(#clip0_567_678)">
<path fill-rule="evenodd" clip-rule="evenodd" d="M14.6398 21.6527C13.4623 21.6 12.3551 21.2133 11.4236 20.6158C11.4236 20.194 11.4236 19.6843 11.4236 19.614C11.4236 19.3504 11.406 19.0516 11.406 18.7529C11.406 18.1202 12.7593 17.382 13.638 17.382H13.7435L14.6398 18.7353V21.6527ZM15.3428 18.7353L16.2566 17.382H16.3445C17.1881 17.382 18.4535 18.085 18.5941 18.788C18.6116 19.0692 18.5765 19.3855 18.5765 19.6492V20.6158C17.645 21.2133 16.5378 21.6 15.3428 21.6527V18.7353ZM14.2883 16.9251V16.2748C14.5167 16.3627 14.7452 16.3978 14.9913 16.3978C15.2373 16.3978 15.4833 16.3627 15.7118 16.2748V16.9251L14.9913 17.9971L14.2883 16.9251ZM14.1828 15.4488C14.1477 15.4312 14.1301 15.4137 14.0949 15.3961C13.6029 15.0446 13.2689 14.3943 13.2689 13.6562C13.2689 13.5683 13.2689 13.4629 13.2865 13.3398C13.6907 13.252 14.4464 13.0059 15.3428 12.4084C15.5888 12.6369 16.2039 13.1114 16.7136 13.2871C16.7136 13.4101 16.7312 13.5507 16.7312 13.6562C16.7312 14.3943 16.3972 15.0446 15.8876 15.3961C15.87 15.4137 15.8348 15.4312 15.8173 15.4488C15.5712 15.607 15.29 15.6949 14.9913 15.6949C14.6925 15.6949 14.4289 15.607 14.1828 15.4488ZM13.5853 15.8882V16.6615C12.5308 16.7142 10.703 17.5754 10.703 18.7529V19.614V20.0885C9.26191 18.8583 8.34802 17.0481 8.34802 15.0094C8.34802 11.3539 11.3357 8.36621 14.9913 8.36621C18.6644 8.36621 21.6521 11.3539 21.6521 15.0094C21.6521 17.0481 20.7382 18.8583 19.2971 20.0885V19.6316V18.7529C19.2795 17.6632 17.4517 16.7318 16.4148 16.6615V15.8882C17.0299 15.3961 17.4341 14.5701 17.4341 13.6562C17.4341 13.4629 17.4517 13.2168 17.4341 13.0235C17.6275 12.092 17.4869 11.1957 17.4517 11.1079C16.8366 9.70189 15.4306 9.64916 14.1828 9.84249C12.4078 10.0358 12.2848 11.6703 12.5659 13.0938C12.5484 13.2696 12.5659 13.4804 12.5659 13.6562C12.5659 14.5701 12.9702 15.3961 13.5853 15.8882ZM15.0791 10.44C13.4974 10.44 12.9702 10.9673 13.1986 12.6369C14.8155 12.1975 15.2197 11.3188 15.6239 11.723C15.9227 12.0217 16.4324 12.426 16.7839 12.5841C16.8542 12.0042 16.8014 11.4945 16.7839 11.3539C16.5027 10.7564 15.9403 10.44 15.0791 10.44Z" fill="#3E66F3"/>
<path fill-rule="evenodd" clip-rule="evenodd" d="M23.2513 12.3733C22.6889 12.3733 22.232 11.9163 22.232 11.3539V8.7353C22.232 8.34866 21.8981 8.01474 21.4939 8.01474H18.5237C17.1881 8.01474 17.1881 5.97607 18.5237 5.97607H21.4939C23.0229 5.97607 24.2707 7.2063 24.2707 8.7353V11.3539C24.2707 11.9163 23.8137 12.3733 23.2513 12.3733Z" fill="#3E66F3"/>
<path fill-rule="evenodd" clip-rule="evenodd" d="M6.7487 12.3733C6.18631 12.3733 5.72937 11.9163 5.72937 11.3539V8.7353C5.72937 7.2063 6.9596 5.97607 8.4886 5.97607H11.4587C12.812 5.97607 12.812 8.01474 11.4587 8.01474H8.4886C8.08438 8.01474 7.76803 8.34866 7.76803 8.7353V11.3539C7.76803 11.9163 7.31109 12.3733 6.7487 12.3733Z" fill="#3E66F3"/>
<path fill-rule="evenodd" clip-rule="evenodd" d="M21.4939 24.0603H18.5237C17.1881 24.0603 17.1881 22.0216 18.5237 22.0216H21.4939C21.8981 22.0216 22.232 21.6877 22.232 21.2835V18.6648C22.232 17.3292 24.2707 17.3292 24.2707 18.6648V21.2835C24.2707 22.8125 23.0229 24.0603 21.4939 24.0603Z" fill="#3E66F3"/>
<path fill-rule="evenodd" clip-rule="evenodd" d="M11.4587 24.0603H8.4886C6.9596 24.0603 5.72937 22.8125 5.72937 21.2835V18.6648C5.72937 17.3292 7.76803 17.3292 7.76803 18.6648V21.2835C7.76803 21.6877 8.08438 22.0216 8.4886 22.0216H11.4587C12.812 22.0216 12.812 24.0603 11.4587 24.0603Z" fill="#3E66F3"/>
<path fill-rule="evenodd" clip-rule="evenodd" d="M14.9912 7.55761C14.8858 7.55761 14.7803 7.52246 14.7276 7.43459L13.058 5.3432C12.8822 5.11473 13.0404 4.78081 13.3392 4.78081H13.9719V1.05498C13.9719 -0.298274 16.0281 -0.298274 16.0281 1.05498V4.78081C16.4499 4.78081 16.8366 4.69294 16.9771 4.97413C17.0299 5.09716 17.0123 5.23775 16.9244 5.3432L15.2724 7.43459C15.2021 7.52246 15.0967 7.55761 14.9912 7.55761Z" fill="#3E66F3"/>
<path fill-rule="evenodd" clip-rule="evenodd" d="M24.8858 17.0306C24.8155 17.0306 24.7276 16.9955 24.6749 16.9427L22.5835 15.2907C22.4077 15.1501 22.4077 14.8865 22.5835 14.7459L24.6749 13.0763C24.9033 12.9006 25.2372 13.0587 25.2372 13.3575V13.9902H28.9631C30.3163 13.9902 30.3163 16.0464 28.9631 16.0464H25.2372C25.2372 16.4506 25.3427 17.0306 24.8858 17.0306Z" fill="#3E66F3"/>
<path fill-rule="evenodd" clip-rule="evenodd" d="M14.9912 30.0181C14.4288 30.0181 13.9718 29.5435 13.9718 28.9812V25.2553C13.55 25.2553 13.1458 25.3432 13.0228 25.062C12.9701 24.939 12.9701 24.7984 13.0579 24.6929L14.7275 22.6015C14.8506 22.4258 15.1318 22.4258 15.2724 22.6015L16.9068 24.6578C17.1529 24.9214 16.942 25.2553 16.6608 25.2553H16.0281V28.9812C16.0281 29.5435 15.5711 30.0181 14.9912 30.0181Z" fill="#3E66F3"/>
<path fill-rule="evenodd" clip-rule="evenodd" d="M5.11424 17.0304C4.6573 17.0304 4.76275 16.4504 4.76275 16.0462H1.03691C-0.31634 16.0462 -0.31634 13.99 1.03691 13.99H4.76275C4.76275 13.5506 4.67487 13.164 4.95607 13.0409C5.07909 12.9706 5.21969 12.9882 5.32514 13.0761L7.41653 14.7457C7.59227 14.8863 7.59227 15.1499 7.41653 15.2905L5.32514 16.9425C5.25484 16.9952 5.18454 17.0304 5.11424 17.0304Z" fill="#3E66F3"/>
</g>
<defs>
<clipPath id="clip0_567_678">
<rect width="30" height="30" fill="white" transform="translate(0 0.0180664)"/>
</clipPath>
</defs>
</svg>
