<svg width="38" height="31" viewBox="0 0 38 31" fill="none" xmlns="http://www.w3.org/2000/svg">
<path d="M37.79 21.1966V25.4507H28.8397C28.6832 22.5318 26.2614 20.2021 23.2964 20.2021H21.9705C22.8452 19.622 23.5543 18.8025 23.9962 17.8356C24.6316 17.4305 25.3775 17.2095 26.1417 17.2095H29.604C29.7329 17.2187 29.8526 17.2279 29.9815 17.2279C30.1104 17.2279 30.2393 17.2279 30.359 17.2095H33.8029C36.0036 17.2187 37.79 18.9958 37.79 21.1966Z" fill="#3E66F3"/>
<path d="M29.9816 8.29639C32.2008 8.29639 33.9964 10.1012 33.9964 12.3111C33.9964 14.4106 32.3665 16.1417 30.3131 16.3166H29.6317C27.5783 16.1417 25.9485 14.4198 25.9485 12.3111C25.9669 10.1012 27.7625 8.29639 29.9816 8.29639Z" fill="#3E66F3"/>
<path d="M29.9815 0.0180664L31.3259 1.89652H30.8287C30.58 1.89652 30.3775 2.0991 30.3775 2.34772V5.23906H29.5764V2.34772C29.5764 2.0991 29.3738 1.89652 29.1252 1.89652H28.6279L29.9815 0.0180664Z" fill="#3E66F3"/>
<path d="M23.6003 15.534C23.6003 16.1693 23.4714 16.7678 23.2504 17.3203C23.2412 17.348 23.2227 17.3664 23.2135 17.394C22.5505 18.9225 21.0957 20.0367 19.3645 20.2025H18.4345C16.7126 20.0275 15.2577 18.9317 14.5947 17.4032C14.3461 16.8323 14.208 16.1877 14.208 15.5247C14.208 12.9373 16.3167 10.8286 18.9041 10.8286C21.4916 10.8378 23.6003 12.9373 23.6003 15.534Z" fill="#3E66F3"/>
<path d="M22.5782 2.9276L20.9023 4.55744C20.801 4.65873 20.7549 4.80606 20.7734 4.95339L21.1693 7.25541L19.1067 6.16886C18.9686 6.1044 18.812 6.1044 18.6923 6.16886L16.6113 7.25541L17.0072 4.95339C17.0349 4.81527 16.9888 4.65873 16.8783 4.55744L15.2117 2.9276L17.5229 2.58691C17.661 2.56849 17.7899 2.47641 17.8636 2.33829L18.9041 0.248047L19.9354 2.33829C19.9907 2.47641 20.1196 2.55928 20.2669 2.58691L22.5782 2.9276Z" fill="#3E66F3"/>
<path d="M15.8379 20.2115H14.4843C11.5285 20.2115 9.10681 22.5411 8.95028 25.4601H0V21.2059C0 19.0144 1.77716 17.228 3.9779 17.228H7.55985C7.65193 17.228 7.73481 17.2372 7.82689 17.2372C7.91897 17.2372 8.00184 17.2372 8.09392 17.228H11.6483C12.4309 17.228 13.186 17.449 13.8306 17.8818C14.2634 18.8302 14.9632 19.6405 15.8379 20.2115Z" fill="#3E66F3"/>
<path d="M7.82702 8.29639C10.0462 8.29639 11.851 10.1012 11.851 12.3111C11.851 14.4474 10.1751 16.1969 8.06643 16.3259H7.59682C5.49737 16.2061 3.81229 14.4566 3.81229 12.3111C3.80308 10.092 5.61708 8.29639 7.82702 8.29639Z" fill="#3E66F3"/>
<path d="M7.82698 0.0180664L9.17136 1.89652H8.67413C8.42551 1.89652 8.22293 2.0991 8.22293 2.34772V5.23906H7.41262V2.34772C7.41262 2.0991 7.21004 1.89652 6.96142 1.89652H6.47339L7.82698 0.0180664Z" fill="#3E66F3"/>
<path d="M27.9465 25.9019V30.0179H23.7844V27.9829C23.7844 27.7343 23.5819 27.5317 23.3332 27.5317C23.0846 27.5317 22.882 27.7343 22.882 27.9829V30.0179H14.9354V27.9829C14.9354 27.7343 14.7329 27.5317 14.4843 27.5317C14.2356 27.5317 14.0331 27.7343 14.0331 27.9829V30.0179H9.82495V25.9019V25.7546C9.82495 23.1947 11.906 21.1045 14.475 21.1045H18.3977C18.5634 21.1229 18.7292 21.1229 18.8949 21.1229C19.0607 21.1229 19.2264 21.1137 19.383 21.1045H23.2872C25.8563 21.1045 27.9373 23.1855 27.9373 25.7546V25.9019H27.9465Z" fill="#3E66F3"/>
</svg>
