<svg width="40" height="40" viewBox="0 0 40 40" fill="none" xmlns="http://www.w3.org/2000/svg">
<g clip-path="url(#clip0_1_4564)">
<path d="M39.1667 8.24026H35.8333C35.571 8.24026 35.324 8.36378 35.1667 8.57362L32.9166 11.5737H32.4583C31.895 4.69302 25.8606 -0.428218 18.9799 0.134993C12.8813 0.634219 8.04042 5.47499 7.5412 11.5737H4.99952V8.24034C4.99687 7.7801 4.62163 7.40915 4.16139 7.41181C3.91029 7.4133 3.67325 7.52783 3.51614 7.72369L0.182815 11.8903C-0.0609383 12.1948 -0.0609383 12.6275 0.182815 12.932L3.51622 17.0987C3.80419 17.4577 4.32873 17.5152 4.68772 17.2272C4.88585 17.0683 5.00062 16.8276 4.9996 16.5737V13.2403H7.54128C7.82464 17.461 10.2234 21.2521 13.9164 23.3154C9.76982 23.8591 6.66837 27.3918 6.66626 31.5739V39.074C6.66626 39.5342 7.03939 39.9073 7.49963 39.9073H32.5C32.9602 39.9073 33.3333 39.5342 33.3333 39.074V31.5739C33.3312 27.3918 30.2298 23.8591 26.0832 23.3154C29.7762 21.2521 32.175 17.461 32.4583 13.2403H39.1668C39.627 13.2403 40.0002 12.8671 40.0002 12.4069V9.07347C40 8.61339 39.6269 8.24026 39.1667 8.24026ZM3.33286 14.1987L1.89948 12.407L3.33286 10.6154V14.1987ZM8.33293 38.2407V31.5739C8.33621 28.4533 10.5037 25.7526 13.5496 25.0738C13.8163 28.3405 15.2163 35.074 17.4747 38.2407H8.33293ZM19.1664 37.7574C17.4164 35.8824 15.458 28.8989 15.1997 24.9072H19.1664V37.7574ZM26.4498 25.0738C29.4957 25.7526 31.6632 28.4533 31.6665 31.5739V38.2407H22.4998C24.8165 35.099 26.1915 28.3405 26.4498 25.0738ZM20.8331 37.7574V24.9072H24.7998C24.5415 28.8989 22.5831 35.8824 20.8331 37.7574ZM24.0831 13.2403C23.6229 15.495 21.422 16.9498 19.1673 16.4895C16.9126 16.0293 15.4579 13.8284 15.9181 11.5737C16.3783 9.31895 18.5792 7.86424 20.834 8.32448C22.4703 8.65847 23.7492 9.93731 24.0831 11.5737H22.4998V13.2403H24.0831ZM19.9997 6.5736C16.778 6.56985 14.1632 9.17848 14.1595 12.4002C14.1557 15.6218 16.7644 18.2366 19.9861 18.2404C22.8884 18.2438 25.3518 16.1129 25.7664 13.2403H27.4331C26.9729 17.3569 23.2627 20.3209 19.1461 19.8607C15.0296 19.4004 12.0656 15.6902 12.5258 11.5737C12.986 7.45712 16.6962 4.4931 20.8128 4.95334C24.2951 5.34264 27.0437 8.09135 27.4331 11.5737H25.7664C25.3526 8.7062 22.897 6.57703 19.9997 6.5736ZM19.9997 3.24019C14.9371 3.23816 10.8312 7.34056 10.8292 12.4033C10.8272 17.4659 14.9296 21.5718 19.9923 21.5738C24.7335 21.5758 28.6938 17.962 29.1249 13.2403H30.7915C30.3313 19.2058 25.1222 23.6686 19.1567 23.2084C13.1913 22.7481 8.72848 17.5391 9.18872 11.5737C9.64896 5.60819 14.858 1.1454 20.8234 1.60564C26.1491 2.0165 30.3806 6.24797 30.7914 11.5737H29.1248C28.6941 6.85493 24.7381 3.24214 19.9997 3.24019ZM38.3333 11.5737H34.9999L36.25 9.907H38.3333V11.5737Z" fill="url(#paint0_linear_1_4564)"/>
<path d="M20.8327 11.5736H19.166V13.2403H20.8327V11.5736Z" fill="url(#paint1_linear_1_4564)"/>
</g>
<defs>
<linearGradient id="paint0_linear_1_4564" x1="20.0001" y1="0.0926514" x2="20.0001" y2="39.9073" gradientUnits="userSpaceOnUse">
<stop stop-color="#3E66F3"/>
<stop offset="1" stop-color="#0031DD"/>
</linearGradient>
<linearGradient id="paint1_linear_1_4564" x1="19.9993" y1="11.5736" x2="19.9993" y2="13.2403" gradientUnits="userSpaceOnUse">
<stop stop-color="#3E66F3"/>
<stop offset="1" stop-color="#0031DD"/>
</linearGradient>
<clipPath id="clip0_1_4564">
<rect width="40" height="40" fill="white"/>
</clipPath>
</defs>
</svg>
