<svg width="40" height="40" viewBox="0 0 40 40" fill="none" xmlns="http://www.w3.org/2000/svg">
<g clip-path="url(#clip0_1_4575)">
<path d="M8.19082 19.0294L9.30895 18.47C8.6177 17.0875 6.67895 15.7844 6.59645 15.7294L5.90332 16.7694C6.38645 17.0925 7.73957 18.1256 8.19082 19.0294Z" fill="url(#paint0_linear_1_4575)"/>
<path d="M11.3158 19.0294L12.4339 18.47C11.7427 17.0875 9.80395 15.7844 9.72145 15.7294L9.02832 16.7694C9.51145 17.0925 10.8646 18.1256 11.3158 19.0294Z" fill="url(#paint1_linear_1_4575)"/>
<path d="M11.25 27.6431V26.5287C12.9131 25.9937 13.475 24.9569 13.6581 24.31C14.5863 24.1137 15.625 23.405 15.625 21.875C15.625 21.8244 15.6125 21.7838 15.6106 21.735V17.535C15.6406 17.2356 15.7194 15.78 14.605 14.4956C13.4587 13.1738 11.4888 12.5025 8.75 12.5C8.745 12.5 8.74 12.5 8.73563 12.5C5.99688 12.5025 4.02688 13.1737 2.88063 14.495C1.76625 15.78 1.845 17.235 1.875 17.535V21.875C1.875 23.405 2.91375 24.1137 3.84187 24.31C4.025 24.9575 4.58687 25.9937 6.25 26.5287V27.6431C4.79063 28.0656 0.625 29.5825 0.625 33.125V39.375H16.875V33.125C16.875 29.5825 12.7094 28.0656 11.25 27.6431ZM7.70813 30L6.66812 30.78L6.30125 28.9444L7.70813 30ZM8.05938 33.75H9.44062L9.92688 38.125H7.57312L8.05938 33.75ZM9.695 32.5H7.805C7.66375 32.2644 7.58375 31.9525 7.54188 31.6875L8.75 30.7812L9.95813 31.6875C9.91625 31.9525 9.83625 32.2644 9.695 32.5ZM11.1987 28.9444L10.8319 30.78L9.79187 30L11.1987 28.9444ZM13.75 22.9787V20.7687C14.0425 20.9081 14.32 21.1919 14.3606 21.7481V21.875H14.375C14.375 22.5194 14.0688 22.8269 13.75 22.9787ZM3.125 21.875C3.125 21.2312 3.43062 20.9237 3.75 20.7719V22.9813C3.43438 22.8306 3.125 22.5238 3.125 21.875ZM5 23.75V19.0087L6.06687 17.9419L5.18313 17.0581L3.75 18.4913V19.4625C3.54063 19.5144 3.32875 19.5856 3.125 19.6938V17.5L3.11938 17.4162C3.11375 17.37 2.98438 16.2681 3.84 15.2963C4.73 14.2856 6.42562 13.7506 8.7425 13.7494C11.06 13.7506 12.755 14.285 13.645 15.2963C14.5006 16.2681 14.3719 17.3694 14.3663 17.4113L14.3631 19.6862C14.1631 19.5812 13.9556 19.5131 13.75 19.4625V18.75H12.5V23.7387C12.4975 23.8156 12.3875 25.625 8.75 25.625C5.1125 25.625 5.0025 23.8156 5 23.75ZM8.75 26.875C9.2125 26.875 9.61938 26.8419 10 26.7937L10.0006 28.2806L8.75 29.2188L7.5 28.2812V26.7937C7.88063 26.8419 8.2875 26.875 8.75 26.875ZM1.875 33.125C1.875 31.2306 3.6525 30.05 5.11688 29.395L5.83188 32.97L6.45375 32.5037C6.5425 32.7825 6.66563 33.0687 6.85 33.3219L6.31562 38.125H5V32.5H3.75V38.125H1.875V33.125ZM15.625 38.125H13.75V32.5H12.5V38.125H11.1844L10.6506 33.3219C10.835 33.0687 10.9581 32.7819 11.0469 32.5037L11.6687 32.97L12.3837 29.395C13.8475 30.05 15.625 31.2306 15.625 33.125V38.125Z" fill="url(#paint2_linear_1_4575)"/>
<path d="M6.875 21.25C7.22018 21.25 7.5 20.9702 7.5 20.625C7.5 20.2798 7.22018 20 6.875 20C6.52982 20 6.25 20.2798 6.25 20.625C6.25 20.9702 6.52982 21.25 6.875 21.25Z" fill="url(#paint3_linear_1_4575)"/>
<path d="M10.625 21.25C10.9702 21.25 11.25 20.9702 11.25 20.625C11.25 20.2798 10.9702 20 10.625 20C10.2798 20 10 20.2798 10 20.625C10 20.9702 10.2798 21.25 10.625 21.25Z" fill="url(#paint4_linear_1_4575)"/>
<path d="M11.0673 23.5669L10.1836 22.6832C8.80609 24.0607 7.46359 22.8269 7.31547 22.6807L6.43359 23.5669C6.90547 24.0388 7.79234 24.59 8.81609 24.59C9.53172 24.59 10.3136 24.3207 11.0673 23.5669Z" fill="url(#paint5_linear_1_4575)"/>
<path d="M39.375 13.5725V10.0319L36.9431 9.17688C36.7644 8.6 36.5294 8.04313 36.2419 7.51312L37.3831 5.1325L34.8794 2.62875L32.3994 3.70875C31.8831 3.43625 31.3381 3.21312 30.7719 3.04188L29.8225 0.625H26.2812L25.4406 3.01375C24.8463 3.1875 24.275 3.4175 23.735 3.70125L21.4731 2.61687L18.9694 5.12063L19.9531 7.37875C19.6231 7.965 19.3581 8.58375 19.1619 9.2275L16.875 10.0319V13.5725L19.1019 14.4475C19.2919 15.1287 19.5587 15.7844 19.8987 16.4044L18.9694 18.5381L21.4731 21.0419L23.5219 20.0594C24.1456 20.4094 24.8056 20.6838 25.4912 20.88L26.2812 23.125H29.8225L30.715 20.8544C31.38 20.6569 32.0194 20.3856 32.6213 20.0463L34.8794 21.0294L37.3831 18.5256L36.2987 16.2644C36.5912 15.7069 36.8269 15.1181 37.0019 14.5056L39.375 13.5725ZM35.9506 13.5756L35.8725 13.8888C35.6925 14.6119 35.4169 15.3006 35.0537 15.935L34.8906 16.22L35.8731 18.2681L34.5975 19.5438L32.53 18.6431L32.2525 18.8131C31.5819 19.2231 30.8544 19.5319 30.0894 19.7313L29.7813 19.8113L28.9713 21.875H27.1675L26.45 19.835L26.1219 19.7544C25.33 19.5588 24.575 19.2444 23.8769 18.8188L23.5875 18.6419L21.7319 19.5319L20.4562 18.2562L21.2987 16.3225L21.135 16.0475C20.7256 15.3581 20.4225 14.6144 20.235 13.8363L20.1588 13.52L18.125 12.7206V10.9169L20.1944 10.1894L20.2794 9.87C20.4781 9.12125 20.7838 8.40688 21.1875 7.74688L21.3569 7.47L20.4562 5.4025L21.7319 4.12688L23.7806 5.10938L24.0656 4.94625C24.6881 4.58938 25.365 4.31687 26.0769 4.13563L26.4013 4.05313L27.1669 1.875H28.9706L29.8375 4.08L30.1425 4.16125C30.8181 4.34125 31.4619 4.60562 32.0569 4.94625L32.3294 5.1025L34.5981 4.11438L35.8737 5.39L34.83 7.56688L34.9994 7.85438C35.3631 8.46938 35.6419 9.13188 35.83 9.8225L35.9156 10.14L38.125 10.9169V12.7206L35.9506 13.5756Z" fill="url(#paint6_linear_1_4575)"/>
<path d="M9.375 6.87498H15.9913L14.5581 8.30811L15.4419 9.19186L18.3837 6.24998L15.4419 3.30811L14.5581 4.19186L15.9913 5.62498H8.125V11.25H9.375V6.87498Z" fill="url(#paint7_linear_1_4575)"/>
<path d="M27.5 35.625H20.2587L21.6918 34.1919L20.8081 33.3081L17.8662 36.25L20.8081 39.1919L21.6918 38.3081L20.2587 36.875H28.75V24.375H27.5V35.625Z" fill="url(#paint8_linear_1_4575)"/>
<path d="M28.125 4.375C23.9894 4.375 20.625 7.73937 20.625 11.875C20.625 16.0106 23.9894 19.375 28.125 19.375C32.2606 19.375 35.625 16.0106 35.625 11.875C35.625 7.73937 32.2606 4.375 28.125 4.375ZM28.125 18.125C25.8175 18.125 23.8031 16.865 22.7206 15H33.5294C32.4469 16.865 30.4325 18.125 28.125 18.125ZM34.0869 13.75H32.5V10H31.25V13.75H30V7.5H28.75V13.75H27.5V8.75H26.25V13.75H25V11.875H23.75V13.75H22.1631C21.9769 13.1575 21.875 12.5281 21.875 11.875C21.875 8.42875 24.6788 5.625 28.125 5.625C31.5712 5.625 34.375 8.42875 34.375 11.875C34.375 12.5281 34.2731 13.1575 34.0869 13.75Z" fill="url(#paint9_linear_1_4575)"/>
</g>
<defs>
<linearGradient id="paint0_linear_1_4575" x1="7.60613" y1="15.7294" x2="7.60613" y2="19.0294" gradientUnits="userSpaceOnUse">
<stop stop-color="#3E66F3"/>
<stop offset="1" stop-color="#0031DD"/>
</linearGradient>
<linearGradient id="paint1_linear_1_4575" x1="10.7311" y1="15.7294" x2="10.7311" y2="19.0294" gradientUnits="userSpaceOnUse">
<stop stop-color="#3E66F3"/>
<stop offset="1" stop-color="#0031DD"/>
</linearGradient>
<linearGradient id="paint2_linear_1_4575" x1="8.75" y1="12.5" x2="8.75" y2="39.375" gradientUnits="userSpaceOnUse">
<stop stop-color="#3E66F3"/>
<stop offset="1" stop-color="#0031DD"/>
</linearGradient>
<linearGradient id="paint3_linear_1_4575" x1="6.875" y1="20" x2="6.875" y2="21.25" gradientUnits="userSpaceOnUse">
<stop stop-color="#3E66F3"/>
<stop offset="1" stop-color="#0031DD"/>
</linearGradient>
<linearGradient id="paint4_linear_1_4575" x1="10.625" y1="20" x2="10.625" y2="21.25" gradientUnits="userSpaceOnUse">
<stop stop-color="#3E66F3"/>
<stop offset="1" stop-color="#0031DD"/>
</linearGradient>
<linearGradient id="paint5_linear_1_4575" x1="8.75047" y1="22.6807" x2="8.75047" y2="24.59" gradientUnits="userSpaceOnUse">
<stop stop-color="#3E66F3"/>
<stop offset="1" stop-color="#0031DD"/>
</linearGradient>
<linearGradient id="paint6_linear_1_4575" x1="28.125" y1="0.625" x2="28.125" y2="23.125" gradientUnits="userSpaceOnUse">
<stop stop-color="#3E66F3"/>
<stop offset="1" stop-color="#0031DD"/>
</linearGradient>
<linearGradient id="paint7_linear_1_4575" x1="13.2544" y1="3.30811" x2="13.2544" y2="11.25" gradientUnits="userSpaceOnUse">
<stop stop-color="#3E66F3"/>
<stop offset="1" stop-color="#0031DD"/>
</linearGradient>
<linearGradient id="paint8_linear_1_4575" x1="23.3081" y1="24.375" x2="23.3081" y2="39.1919" gradientUnits="userSpaceOnUse">
<stop stop-color="#3E66F3"/>
<stop offset="1" stop-color="#0031DD"/>
</linearGradient>
<linearGradient id="paint9_linear_1_4575" x1="28.125" y1="4.375" x2="28.125" y2="19.375" gradientUnits="userSpaceOnUse">
<stop stop-color="#3E66F3"/>
<stop offset="1" stop-color="#0031DD"/>
</linearGradient>
<clipPath id="clip0_1_4575">
<rect width="40" height="40" fill="white"/>
</clipPath>
</defs>
</svg>
