<svg width="32" height="31" viewBox="0 0 32 31" fill="none" xmlns="http://www.w3.org/2000/svg">
<path d="M6.1999 2.61807H15.0999C15.2499 2.61807 15.3999 2.46807 15.3999 2.31807V0.318066C15.3999 0.168066 15.2499 0.0180664 15.0999 0.0180664H6.1999C6.0499 0.0180664 5.8999 0.168066 5.8999 0.318066V2.31807C5.8999 2.46807 6.0499 2.61807 6.1999 2.61807Z" fill="#3E66F3"/>
<path d="M16.9 23.0679C16.9 20.6179 18 18.4179 19.75 16.9179L19.4 16.5179L19.1 16.7679C19 16.8679 18.9 16.8679 18.75 16.8679C18.6 16.8679 18.45 16.8179 18.35 16.6679C18.15 16.4179 18.2 16.1179 18.45 15.9179L19.9 14.7679C20.15 14.5679 20.45 14.6179 20.65 14.8679C20.85 15.1179 20.8 15.4179 20.55 15.6179L20.25 15.8679L20.6 16.3179C20.8 16.1679 21.05 16.0679 21.3 15.9179V3.41787C21.3 2.56787 20.6 1.86787 19.75 1.86787H16.5V2.31787C16.5 3.06787 15.9 3.71787 15.1 3.71787H6.2C5.45 3.71787 4.8 3.11787 4.8 2.31787V1.81787H1.55C0.7 1.81787 0 2.56787 0 3.41787V28.4679C0 29.3179 0.7 30.0179 1.55 30.0179H19.75C20.05 30.0179 20.35 29.9179 20.6 29.7679C18.4 28.3679 16.9 25.8679 16.9 23.0679ZM6.15 5.51787H15.15C15.45 5.51787 15.7 5.76787 15.7 6.06787C15.7 6.36787 15.45 6.61787 15.15 6.61787H6.15C5.85 6.61787 5.6 6.36787 5.6 6.06787C5.65 5.71787 5.85 5.51787 6.15 5.51787ZM2.35 8.51787H19C19.3 8.51787 19.55 8.76787 19.55 9.06787C19.55 9.36787 19.3 9.61787 19 9.61787H2.35C2.05 9.61787 1.8 9.36787 1.8 9.06787C1.8 8.76787 2.05 8.51787 2.35 8.51787ZM2.35 11.5179H19C19.3 11.5179 19.55 11.7679 19.55 12.0679C19.55 12.3679 19.3 12.6179 19 12.6179H2.35C2.05 12.6179 1.8 12.3679 1.8 12.0679C1.8 11.7679 2.05 11.5179 2.35 11.5179ZM2.35 14.5679H12.15C12.45 14.5679 12.7 14.8179 12.7 15.1179C12.7 15.4179 12.45 15.6679 12.15 15.6679H2.35C2.05 15.6679 1.8 15.4179 1.8 15.1179C1.8 14.8179 2.05 14.5679 2.35 14.5679ZM10.85 18.8679C10.85 19.1679 10.6 19.4179 10.3 19.4179H7.8C7.5 19.4179 7.25 19.1679 7.25 18.8679C7.25 18.5679 7.5 18.3179 7.8 18.3179H10.3C10.6 18.3679 10.85 18.5679 10.85 18.8679ZM5.9 27.4179C5.9 27.7179 5.65 27.9679 5.35 27.9679H2.35C2.05 27.9679 1.8 27.7179 1.8 27.4179V24.3679C1.8 24.0679 2.05 23.8179 2.35 23.8179H5.4C5.7 23.8179 5.95 24.0679 5.95 24.3679L5.9 27.4179ZM5.9 21.2679C5.9 21.5679 5.65 21.8179 5.35 21.8179H2.35C2.05 21.8179 1.8 21.5679 1.8 21.2679V18.2179C1.8 17.9179 2.05 17.6679 2.35 17.6679H5.4C5.7 17.6679 5.95 17.9179 5.95 18.2179L5.9 21.2679ZM14.3 27.3179H7.85C7.55 27.3179 7.3 27.0679 7.3 26.7679C7.3 26.4679 7.55 26.2179 7.85 26.2179H14.3C14.6 26.2179 14.85 26.4679 14.85 26.7679C14.85 27.0679 14.55 27.3179 14.3 27.3179ZM7.3 25.0679C7.3 24.7679 7.55 24.5179 7.85 24.5179H10.35C10.65 24.5179 10.9 24.7679 10.9 25.0679C10.9 25.3679 10.65 25.6179 10.35 25.6179H7.85C7.55 25.5679 7.3 25.3679 7.3 25.0679ZM14.3 21.1679H7.85C7.55 21.1679 7.3 20.9179 7.3 20.6179C7.3 20.3179 7.55 20.0679 7.85 20.0679H14.3C14.6 20.0679 14.85 20.3179 14.85 20.6179C14.8 20.9179 14.55 21.1679 14.3 21.1679Z" fill="#3E66F3"/>
<path d="M2.8501 24.9683H4.8001V26.9183H2.8501V24.9683Z" fill="#3E66F3"/>
<path d="M2.8501 18.7681H4.8001V20.7181H2.8501V18.7681Z" fill="#3E66F3"/>
<path d="M24.9999 22.418C24.6499 22.418 24.3999 22.718 24.3999 23.018C24.3999 23.368 24.6999 23.618 24.9999 23.618C25.3499 23.618 25.5999 23.318 25.5999 23.018C25.5999 22.718 25.3499 22.418 24.9999 22.418Z" fill="#3E66F3"/>
<path d="M25 16.0181C21.15 16.0181 18 19.1681 18 23.0181C18 26.8681 21.15 30.0181 25 30.0181C28.85 30.0181 32 26.8681 32 23.0181C32 19.1681 28.85 16.0181 25 16.0181ZM25 28.8681C21.8 28.8681 19.2 26.2681 19.2 23.0681C19.2 19.8681 21.8 17.2181 25 17.2181C28.2 17.2181 30.8 19.8181 30.8 23.0181C30.8 26.2181 28.2 28.8681 25 28.8681Z" fill="#3E66F3"/>
<path d="M25 18.3179C22.4 18.3179 20.25 20.4679 20.25 23.0679C20.25 25.6679 22.4 27.8179 25 27.8179C27.6 27.8179 29.75 25.6679 29.75 23.0679C29.75 20.4679 27.6 18.3179 25 18.3179ZM27.95 20.8679L26.5 22.3179C26.6 22.5179 26.7 22.7679 26.7 23.0679C26.7 24.0179 25.95 24.7679 25 24.7679C24.7 24.7679 24.45 24.7179 24.25 24.5679L24.1 24.7179C24 24.8179 23.85 24.8679 23.75 24.8679C23.6 24.8679 23.45 24.8179 23.35 24.7179C23.15 24.5179 23.15 24.1679 23.35 23.9679L23.5 23.8179C23.4 23.6179 23.35 23.3679 23.35 23.0679C23.35 22.1179 24.1 21.3679 25.05 21.3679C25.3 21.3679 25.6 21.4179 25.8 21.5679L27.25 20.1179C27.45 19.9179 27.8 19.9179 28 20.1179C28.15 20.3179 28.15 20.6679 27.95 20.8679Z" fill="#3E66F3"/>
<path d="M29.6999 15.8179L29.3499 16.2679C29.6499 16.4679 29.9499 16.6679 30.1999 16.9179L30.5499 16.5179L30.8499 16.7679C30.9499 16.8679 31.0499 16.8679 31.1999 16.8679C31.3499 16.8679 31.4999 16.8179 31.5999 16.6679C31.7999 16.4179 31.7499 16.1179 31.4999 15.9179L30.0499 14.7679C29.7999 14.5679 29.4999 14.6179 29.2999 14.8679C29.0999 15.1179 29.1499 15.4179 29.3999 15.6179L29.6999 15.8179Z" fill="#3E66F3"/>
<path d="M23.3 13.8183H24.5V14.9683H25.05H25.6V13.8183H26.8C27.1 13.8183 27.35 13.5683 27.35 13.2683C27.35 12.9683 27.1 12.7183 26.8 12.7183H23.4C23.1 12.7183 22.85 12.9683 22.85 13.2683C22.75 13.5683 23 13.8183 23.3 13.8183Z" fill="#3E66F3"/>
</svg>
