<svg width="30" height="30" viewBox="0 0 30 30" fill="none" xmlns="http://www.w3.org/2000/svg">
<path d="M18.5297 3.68091C16.6046 5.11844 14.3851 6.11183 12.0305 6.58974L5.39745 7.91636C4.8454 8.02613 4.34843 8.3238 3.99116 8.75874C3.6339 9.19368 3.4384 9.73899 3.43795 10.3018V16.0465C3.427 16.6176 3.6173 17.1745 3.97553 17.6195C4.33377 18.0645 4.83711 18.3694 5.39745 18.4806L12.0305 19.8073C14.3811 20.2706 16.6004 21.2473 18.5297 22.6674C18.7106 22.803 18.9256 22.8856 19.1507 22.9059C19.3759 22.9263 19.6021 22.8834 19.8042 22.7824C20.0065 22.6813 20.1765 22.5259 20.2954 22.3336C20.4141 22.1414 20.4771 21.9198 20.4771 21.6938V4.65459C20.4771 4.42855 20.4141 4.207 20.2954 4.01473C20.1765 3.82245 20.0065 3.66708 19.8042 3.56599C19.6021 3.46491 19.3759 3.42213 19.1507 3.44241C18.9256 3.46271 18.7106 3.5453 18.5297 3.68091Z" stroke="#407360" stroke-width="1.5" stroke-linecap="round" stroke-linejoin="round"/>
<path d="M10.5088 19.4543L12.5535 24.9191C12.6221 25.1026 12.6454 25.2998 12.6214 25.4942C12.5974 25.6886 12.5269 25.8742 12.4157 26.0356C12.3046 26.1968 12.1562 26.3289 11.9832 26.4206C11.8101 26.5122 11.6175 26.5608 11.4217 26.562H9.99767C9.50032 26.5637 9.0144 26.4129 8.60532 26.13C8.19624 25.8472 7.88363 25.4458 7.70955 24.9799L5.27539 18.3833" stroke="#407360" stroke-width="1.5" stroke-linecap="round" stroke-linejoin="round"/>
<path d="M15.6084 9.52295V16.8254" stroke="#407360" stroke-width="1.5" stroke-linecap="round" stroke-linejoin="round"/>
<path d="M23.1543 8.00141L26.3188 6.17578" stroke="#407360" stroke-width="1.5" stroke-linecap="round" stroke-linejoin="round"/>
<path d="M23.1543 18.3467L26.3188 20.1723" stroke="#407360" stroke-width="1.5" stroke-linecap="round" stroke-linejoin="round"/>
<path d="M22.9111 13.1743H26.5624" stroke="#407360" stroke-width="1.5" stroke-linecap="round" stroke-linejoin="round"/>
</svg>
