<svg width="40" height="40" viewBox="0 0 40 40" fill="none" xmlns="http://www.w3.org/2000/svg">
<g clip-path="url(#clip0_1_13182)">
<path d="M31.034 23.4483C31.4149 23.4483 31.7237 23.1395 31.7237 22.7586V20.6897C31.7237 17.0151 30.4528 15.6553 28.8438 13.9413C28.6603 13.7456 28.47 13.5422 28.2741 13.3284C27.6305 12.6236 26.9877 11.8801 26.3526 11.1399C26.0084 10.7402 25.6673 10.3472 25.3299 9.96127C25.9906 9.49657 26.3186 8.68871 26.1687 7.895C26.0189 7.10096 25.4191 6.46821 24.6348 6.27593C25.7815 5.64083 26.8961 4.67807 26.8961 0.689655C26.8961 0.308796 26.5873 0 26.2064 0C25.5286 0 21.8941 0.558661 19.9995 2.87918C18.1057 0.558661 14.4732 0 13.7926 0C13.4118 0 13.103 0.308796 13.103 0.689655C13.103 4.67807 14.2176 5.64083 15.3642 6.27593C14.5789 6.46855 13.9789 7.10298 13.8304 7.89803C13.6815 8.69309 14.0119 9.50128 14.6746 9.96498C14.3937 10.2866 14.1109 10.6152 13.8256 10.9503C13.1417 11.7491 12.4332 12.5751 11.7341 13.324C11.4954 13.5793 11.2741 13.813 11.067 14.0312C8.97819 16.2268 8.2754 16.9656 8.2754 20.6897V22.7586C8.27405 22.9984 8.3973 23.2213 8.6007 23.3479C8.80443 23.4745 9.05901 23.4863 9.27318 23.3792L11.7237 22.1505L14.1742 23.3792C14.3681 23.4762 14.5965 23.4762 14.7904 23.3792L17.2409 22.1505L19.6914 23.3792C19.8854 23.4762 20.1137 23.4762 20.3077 23.3792L22.7582 22.1505L25.2087 23.3792C25.4026 23.4762 25.6309 23.4762 25.8249 23.3792L28.2754 22.1505L30.7259 23.3792C30.8219 23.4257 30.9273 23.4493 31.034 23.4483ZM25.5016 1.47091C25.3811 4.29115 24.5954 4.72286 23.9539 5.07442C23.4488 5.28556 23.0525 5.69504 22.8582 6.2069H20.6892V4.33392C21.7058 2.47879 24.2257 1.711 25.5016 1.47091ZM19.3099 4.33392V6.2069H17.1409C16.9466 5.69504 16.5503 5.28556 16.0451 5.07442C15.4036 4.72286 14.618 4.29115 14.4975 1.47023C15.7714 1.70966 18.2926 2.4771 19.3099 4.33392ZM15.8616 7.58621H24.1375C24.5183 7.58621 24.8271 7.895 24.8271 8.27586C24.8271 8.65672 24.5183 8.96552 24.1375 8.96552H15.8616C15.4807 8.96552 15.172 8.65672 15.172 8.27586C15.172 7.895 15.4807 7.58621 15.8616 7.58621ZM30.3444 21.6426L28.5835 20.7587C28.3896 20.6617 28.1612 20.6617 27.9673 20.7587L25.5168 21.9875L23.0663 20.7587C22.8723 20.6617 22.644 20.6617 22.45 20.7587L19.9995 21.9875L17.549 20.7587C17.3551 20.6617 17.1268 20.6617 16.9328 20.7587L14.4823 21.9875L12.0318 20.7587C11.8378 20.6617 11.6095 20.6617 11.4156 20.7587L9.65471 21.6426V20.6897C9.65471 17.5172 10.0686 17.0801 12.0638 14.9778C12.2706 14.7579 12.4975 14.5215 12.7383 14.2642C13.4589 13.4931 14.1762 12.6559 14.8706 11.8454C15.31 11.3338 15.7424 10.8277 16.1697 10.3448H23.8307C24.3133 10.8877 24.8093 11.4608 25.3077 12.04C25.9519 12.7876 26.6038 13.5442 27.2554 14.2578C27.4561 14.4774 27.6497 14.6841 27.8376 14.8848C29.4008 16.5517 30.3444 17.5599 30.3444 20.6897V21.6426Z" fill="#1C1C25"/>
<path d="M20.0003 24.8276C15.8105 24.8276 12.4141 28.2241 12.4141 32.4138C12.4141 36.6036 15.8105 40.0001 20.0003 40.0001C24.1901 40.0001 27.5865 36.6036 27.5865 32.4138C27.5814 28.2261 24.188 24.8327 20.0003 24.8276ZM20.0003 38.6207C16.5722 38.6207 13.7934 35.8419 13.7934 32.4138C13.7934 28.9858 16.5722 26.2069 20.0003 26.2069C23.4283 26.2069 26.2072 28.9858 26.2072 32.4138C26.2035 35.8402 23.4267 38.617 20.0003 38.6207Z" fill="#3E66F3"/>
<path d="M20.6895 31.7244H19.3102C18.9293 31.7244 18.6205 31.4156 18.6205 31.0347C18.6205 30.6538 18.9293 30.345 19.3102 30.345H21.3791C21.76 30.345 22.0688 30.0363 22.0688 29.6554C22.0688 29.2745 21.76 28.9657 21.3791 28.9657H20.6895V28.2761C20.6895 27.8952 20.3807 27.5864 19.9998 27.5864C19.619 27.5864 19.3102 27.8952 19.3102 28.2761V28.9657C18.1676 28.9657 17.2412 29.8921 17.2412 31.0347C17.2412 32.1773 18.1676 33.1037 19.3102 33.1037H20.6895C21.0703 33.1037 21.3791 33.4125 21.3791 33.7933C21.3791 34.1742 21.0703 34.483 20.6895 34.483H18.6205C18.2397 34.483 17.9309 34.7918 17.9309 35.1726C17.9309 35.5535 18.2397 35.8623 18.6205 35.8623H19.3102V36.5519C19.3102 36.9328 19.619 37.2416 19.9998 37.2416C20.3807 37.2416 20.6895 36.9328 20.6895 36.5519V35.8623C21.8321 35.8623 22.7585 34.9359 22.7585 33.7933C22.7585 32.6507 21.8321 31.7244 20.6895 31.7244Z" fill="#3E66F3"/>
<path d="M34.2073 32.552C33.9026 32.3233 33.4702 32.3849 33.2419 32.6897L32.4141 33.7932V30.3449C32.4141 29.9641 32.1053 29.6553 31.7245 29.6553C31.3436 29.6553 31.0348 29.9641 31.0348 30.3449V33.7932L30.2071 32.6897C29.9788 32.3849 29.5464 32.3233 29.2417 32.552C28.9369 32.7803 28.8753 33.2127 29.1039 33.5174L31.1729 36.276C31.181 36.2871 31.1955 36.2912 31.2045 36.3023C31.2507 36.3565 31.3052 36.403 31.3659 36.44C31.3901 36.4545 31.4093 36.474 31.4349 36.4862C31.6171 36.5774 31.8319 36.5774 32.0141 36.4862C32.0397 36.474 32.0589 36.4545 32.0831 36.44C32.1437 36.403 32.1983 36.3565 32.2444 36.3023C32.2535 36.2912 32.268 36.2871 32.2761 36.276L34.345 33.5174C34.5737 33.2127 34.5121 32.7803 34.2073 32.552Z" fill="#1C1C25"/>
<path d="M21.5173 15.448L20.6895 16.5515V13.1032C20.6895 12.7224 20.3807 12.4136 19.9999 12.4136C19.619 12.4136 19.3102 12.7224 19.3102 13.1032V16.5515L18.4825 15.448C18.2542 15.1432 17.8218 15.0816 17.517 15.3103C17.2123 15.5386 17.1507 15.971 17.3793 16.2757L19.4483 19.0343C19.457 19.0461 19.4708 19.0502 19.4806 19.0613C19.5264 19.1135 19.5803 19.1583 19.6399 19.1943C19.6618 19.2115 19.685 19.2273 19.7089 19.2418C19.8911 19.333 20.106 19.333 20.2881 19.2418C20.312 19.2273 20.3349 19.2115 20.3572 19.1943C20.4168 19.1583 20.4706 19.1135 20.5164 19.0613C20.5262 19.0502 20.54 19.0461 20.5488 19.0343L22.6177 16.2757C22.8464 15.971 22.7844 15.5386 22.48 15.3103C22.1753 15.0816 21.7429 15.1432 21.5142 15.448H21.5173Z" fill="#1C1C25"/>
<path d="M31.0342 26.2067V27.5861C31.0342 27.9669 31.343 28.2757 31.7238 28.2757C32.1047 28.2757 32.4135 27.9669 32.4135 27.5861V26.2067C32.4135 25.8259 32.1047 25.5171 31.7238 25.5171C31.343 25.5171 31.0342 25.8259 31.0342 26.2067Z" fill="#1C1C25"/>
<path d="M9.79362 32.6897L8.9659 33.7932V30.3449C8.9659 29.9641 8.6571 29.6553 8.27624 29.6553C7.89538 29.6553 7.58659 29.9641 7.58659 30.3449V33.7932L6.75887 32.6897C6.53055 32.3849 6.09817 32.3233 5.79342 32.552C5.48866 32.7803 5.42704 33.2127 5.65569 33.5174L7.72465 36.276C7.73274 36.2871 7.74722 36.2912 7.75631 36.3023C7.80244 36.3565 7.85699 36.403 7.91761 36.44C7.94185 36.4545 7.96105 36.474 7.98664 36.4862C8.16882 36.5774 8.38366 36.5774 8.56584 36.4862C8.59144 36.474 8.61063 36.4545 8.63488 36.44C8.69549 36.403 8.75004 36.3565 8.79618 36.3023C8.80527 36.2912 8.81975 36.2871 8.82783 36.276L10.8968 33.5174C11.1254 33.2127 11.0638 32.7803 10.7591 32.552C10.4543 32.3233 10.0219 32.3849 9.79362 32.6897Z" fill="#1C1C25"/>
<path d="M8.27559 28.2757C8.65645 28.2757 8.96525 27.9669 8.96525 27.5861V26.2067C8.96525 25.8259 8.65645 25.5171 8.27559 25.5171C7.89473 25.5171 7.58594 25.8259 7.58594 26.2067V27.5861C7.58594 27.9669 7.89473 28.2757 8.27559 28.2757Z" fill="#1C1C25"/>
</g>
<defs>
<clipPath id="clip0_1_13182">
<rect width="40" height="40" fill="white"/>
</clipPath>
</defs>
</svg>
