<svg width="30" height="30" viewBox="0 0 30 30" fill="none" xmlns="http://www.w3.org/2000/svg">
<g clip-path="url(#clip0_726_975)">
<path d="M7.5 14.9995C7.75888 14.9995 7.96875 14.7896 7.96875 14.5308C7.96875 14.2719 7.75888 14.062 7.5 14.062C7.24112 14.062 7.03125 14.2719 7.03125 14.5308C7.03125 14.7896 7.24112 14.9995 7.5 14.9995Z" fill="white"/>
<path d="M13.5938 1.98438V6.45297L17.3175 4.21891L13.5938 1.98438ZM14.5312 3.64094L15.495 4.21891L14.5312 4.79687V3.64094Z" fill="white"/>
<path d="M29.5312 7.96875H23.7741C22.4513 6.31875 20.7225 5.09391 18.7406 4.39594C18.7439 4.33688 18.75 4.27875 18.75 4.21875C18.75 2.15109 17.0677 0.46875 15 0.46875C12.9323 0.46875 11.25 2.15109 11.25 4.21875C11.25 4.27922 11.2561 4.33828 11.2589 4.39828C8.91422 5.22563 6.90844 6.80813 5.55188 8.90625H5.26969C2.62266 8.90625 0.46875 11.0602 0.46875 13.7077C0.46875 15.255 1.22062 16.7156 2.47969 17.6142L3.75 18.5217V18.8648L2.84859 19.1227C1.44703 19.5225 0.46875 20.82 0.46875 22.2773V29.5312H8.90625V25.9552C8.97984 25.8933 9.05203 25.8295 9.12094 25.7606L9.87234 25.0092C11.4506 25.8188 13.2145 26.25 15 26.25C15.3122 26.25 15.6253 26.2322 15.9375 26.2064V26.5786L16.5567 26.8031L16.2778 27.3998L18.0684 29.1905L18.6652 28.9111L18.8902 29.5312H21.4219L21.6469 28.912L22.2436 29.1914L24.0342 27.4008L23.7553 26.8041L24.375 26.5786V24.0464L23.7558 23.8219L24.0347 23.2252L23.348 22.5384C24.2362 21.5573 24.9333 20.4436 25.4278 19.2192H26.7188V17.3442H29.5312V7.96875ZM15 1.40625C16.5511 1.40625 17.8125 2.66766 17.8125 4.21875C17.8125 5.76984 16.5511 7.03125 15 7.03125C13.4489 7.03125 12.1875 5.76984 12.1875 4.21875C12.1875 2.66766 13.4489 1.40625 15 1.40625ZM3.02437 16.8516C2.01141 16.1278 1.40625 14.9527 1.40625 13.7077C1.40625 11.5772 3.13969 9.84375 5.27016 9.84375H8.90625C9.42328 9.84375 9.84375 10.2642 9.84375 10.7812C9.84375 11.6991 8.49375 11.7178 8.43609 11.7183H5.15625C4.38094 11.7183 3.75 12.3492 3.75 13.1245V13.6734C3.20438 13.867 2.8125 14.3883 2.8125 14.9995V15.0802C2.8125 15.4556 2.95875 15.8091 3.22453 16.0744L3.75 16.5998V17.37L3.02437 16.8516ZM7.30594 18.2808H5.625V19.2183H6.5625V19.9617L6.09375 20.4309L4.6875 19.0242V16.2117L3.88734 15.4116C3.80016 15.3239 3.75 15.2034 3.75 15.0802V14.9995C3.75 14.7408 3.96047 14.5308 4.21875 14.5308H4.6875V13.1245C4.6875 12.8658 4.89797 12.6558 5.15625 12.6558H8.19047C8.49937 13.1325 9.26766 14.4647 9.36469 16.0711L7.96875 16.5366V17.618L7.30594 18.2808ZM3.10594 20.0245L4.08234 19.7452L6.09375 21.7566L7.03125 20.8191L7.55672 21.345C7.69031 21.4786 7.79719 21.6408 7.8675 21.8161L7.87781 21.9281L6.94969 22.8562C6.93797 22.8497 6.92625 22.8431 6.91453 22.8366L3.37359 20.8697C3.08578 20.7094 2.76047 20.625 2.40844 20.625C2.29078 20.625 2.17688 20.6395 2.06531 20.6597C2.34563 20.3667 2.69859 20.1408 3.10594 20.0245ZM7.96875 28.5938H1.40625V24.2203C1.43109 24.2353 1.45406 24.2531 1.47938 24.2667L5.24203 26.3194C5.72156 26.5809 6.2625 26.7188 6.80813 26.7188C7.21172 26.7188 7.60266 26.6433 7.96875 26.5041V28.5938ZM8.45766 25.0978C8.01703 25.5384 7.43109 25.7812 6.80766 25.7812C6.41859 25.7812 6.03234 25.6828 5.69063 25.4967L1.92797 23.4441C1.60641 23.2683 1.40625 22.9312 1.40625 22.5647C1.40625 22.012 1.85578 21.5625 2.43141 21.5625C2.60109 21.5625 2.76937 21.6061 2.91797 21.6886L6.45891 23.6555C6.65063 23.7623 6.82547 23.8941 6.97875 24.0473L7.63734 24.7064L8.30062 24.0436L7.69453 23.437L10.7812 20.3503L11.9934 21.5625L8.45766 25.0978ZM12.8503 21.0938L11.4441 19.6875L12.5888 18.5433C12.7552 18.3769 12.9853 18.2812 13.2206 18.2812C13.5614 18.2812 13.8675 18.4702 14.0198 18.7753L14.2416 19.2188H15C15.2583 19.2188 15.4688 19.4287 15.4688 19.6875V20.625C15.4688 20.8838 15.2583 21.0938 15 21.0938H12.8503ZM23.4375 25.9214L23.0517 26.062L22.8422 26.1614L22.6439 26.6391L22.9073 27.202L22.0463 28.0636L21.4847 27.8011L20.978 28.0097L20.7652 28.5938H19.5469L19.4067 28.208L19.3111 28.0003L18.8278 27.8011L18.2662 28.0636L17.4052 27.202L17.6686 26.6391L17.4591 26.1342L16.875 25.9214V24.7036L17.2608 24.563L17.4703 24.4636L17.6686 23.9859L17.4052 23.423L18.2662 22.5614L18.8288 22.8239L19.335 22.6153L19.5473 22.0312H20.7656L20.9058 22.417L21.0009 22.6242L21.4842 22.8239L22.0467 22.5614L22.9078 23.423L22.6444 23.9859L22.8539 24.4908L23.4375 24.7036V25.9214ZM22.6763 21.8662L22.2441 21.4341L21.6473 21.7134L21.4223 21.0938H18.8906L18.6656 21.713L18.0689 21.4336L16.2783 23.2242L16.5572 23.8209L15.9375 24.0464V25.2619C14.1038 25.4255 12.2311 25.0955 10.5722 24.3089L12.8503 22.0312H15C15.7753 22.0312 16.4062 21.4003 16.4062 20.625V19.6875C16.4062 18.9122 15.7753 18.2812 15 18.2812H14.8186C14.4952 17.7009 13.8905 17.3438 13.2202 17.3438C12.7312 17.3438 12.2714 17.5341 11.9255 17.8805L10.7812 19.0247L8.60625 21.1997C8.50078 21.0108 8.37281 20.8345 8.22 20.6822L7.5 19.9617V19.2183H7.69406L8.90625 18.0061V17.2125L10.3125 16.7438V16.4058C10.3125 14.7473 9.66562 13.3284 9.22078 12.5475C9.32438 12.5212 9.43125 12.4908 9.53953 12.45C10.3402 12.1505 10.7812 11.5575 10.7812 10.7812C10.7812 9.74719 9.94031 8.90625 8.90625 8.90625H6.68297C7.87875 7.27547 9.52688 6.03797 11.4206 5.33672C11.8973 6.86016 13.3214 7.96875 15 7.96875C16.68 7.96875 18.1055 6.85828 18.5808 5.33297C20.0925 5.89172 21.4387 6.78844 22.537 7.96875H21.0938V10.7812H19.2188V19.2188H24.3989C23.9653 20.1863 23.3883 21.0722 22.6763 21.8662ZM25.7812 18.2812H20.1562V11.7188H25.7812V18.2812ZM28.5938 16.4062H26.7188V10.7812H22.0312V8.90625H28.5938V16.4062Z" fill="white"/>
<path d="M21.0938 12.6562H24.8438V13.5938H21.0938V12.6562Z" fill="white"/>
<path d="M21.0938 14.5312H24.8438V15.4688H21.0938V14.5312Z" fill="white"/>
<path d="M21.0938 16.4062H24.8438V17.3438H21.0938V16.4062Z" fill="white"/>
<path d="M20.1562 22.9688C18.8639 22.9688 17.8125 24.0202 17.8125 25.3125C17.8125 26.6048 18.8639 27.6562 20.1562 27.6562C21.4486 27.6562 22.5 26.6048 22.5 25.3125C22.5 24.0202 21.4486 22.9688 20.1562 22.9688ZM20.1562 26.7188C19.3809 26.7188 18.75 26.0878 18.75 25.3125C18.75 24.5372 19.3809 23.9062 20.1562 23.9062C20.9316 23.9062 21.5625 24.5372 21.5625 25.3125C21.5625 26.0878 20.9316 26.7188 20.1562 26.7188Z" fill="white"/>
</g>
<defs>
<clipPath id="clip0_726_975">
<rect width="30" height="30" fill="white"/>
</clipPath>
</defs>
</svg>
