<svg width="30" height="30" viewBox="0 0 30 30" fill="none" xmlns="http://www.w3.org/2000/svg">
<path d="M5.60547 7.77344V22.9492C5.60547 23.9075 5.98616 24.8266 6.66378 25.5042C7.34139 26.1819 8.26044 26.5625 9.21874 26.5625H20.7812C21.7395 26.5625 22.6586 26.1819 23.3362 25.5042C24.0139 24.8266 24.3945 23.9075 24.3945 22.9492V7.77344" stroke="#407360" stroke-width="1.5" stroke-linecap="round" stroke-linejoin="round"/>
<path d="M24.3945 7.77346L20.4777 3.85666C20.3426 3.72271 20.1825 3.61674 20.0064 3.54481C19.8304 3.47289 19.6417 3.43642 19.4515 3.43752H10.5484C10.3582 3.43642 10.1697 3.47289 9.99357 3.54481C9.81748 3.61674 9.65732 3.72271 9.52227 3.85666L5.60547 7.77346H24.3945Z" stroke="#407360" stroke-width="1.5" stroke-linecap="round" stroke-linejoin="round"/>
<path d="M10.6641 12.1094L11.1121 12.991C11.411 13.5942 11.8725 14.102 12.4445 14.4569C13.0166 14.8119 13.6764 15 14.3496 15H15.6504C16.3236 15 16.9834 14.8119 17.5555 14.4569C18.1275 14.102 18.589 13.5942 18.8879 12.991L19.336 12.1094" stroke="#407360" stroke-width="1.5" stroke-linecap="round" stroke-linejoin="round"/>
</svg>
