<svg width="30" height="30" viewBox="0 0 30 30" fill="none" xmlns="http://www.w3.org/2000/svg">
<g clip-path="url(#clip0_726_922)">
<path fill-rule="evenodd" clip-rule="evenodd" d="M19.8683 13.474V11.1557C19.8683 10.6367 20.671 10.6367 20.671 11.1557V13.474H26.2627V11.1557C26.2627 10.6367 27.0655 10.6367 27.0655 11.1557V13.474H28.3043V10.9204C28.3043 9.50865 27.1555 8.35986 25.7437 8.35986H25.3285L23.7852 10.4083C23.6261 10.6159 23.3077 10.6159 23.1485 10.4083L21.6053 8.35986H21.1901C19.7783 8.35986 18.6295 9.50865 18.6295 10.9204V13.474H19.8683ZM14.9963 30C11.3354 30 7.39768 27.7301 7.39768 22.7474V15.8893C7.39768 15.6678 7.57761 15.4879 7.79907 15.4879H10.2766C10.498 15.4879 10.678 15.6678 10.678 15.8893V22.4567C10.678 28.1869 19.3216 28.1869 19.3216 22.4567V15.8893C19.3216 15.6678 19.5015 15.4879 19.7229 15.4879H22.2005C22.4219 15.4879 22.6018 15.6678 22.6018 15.8893V22.7474C22.6018 27.7301 18.6572 30 14.9963 30ZM8.20045 16.2837V17.7993H9.87519V16.2837H8.20045ZM8.20045 18.6021V22.7474C8.20045 31.3633 21.7991 31.3633 21.7991 22.7474V18.6021H20.1243V22.4567C20.1243 29.218 9.87519 29.218 9.87519 22.4567V18.6021H8.20045ZM21.7991 17.7993V16.2837H20.1243V17.7993H21.7991ZM13.8475 24.1453C13.5984 24.1453 13.4046 23.9031 13.46 23.654L14.2212 20.5398L12.0274 20.6228C11.6953 20.6367 11.4946 20.2284 11.7091 19.9654L15.9375 14.8305C16.2005 14.519 16.7195 14.7682 16.6364 15.1696L15.9375 18.4429L17.979 18.4014C18.3112 18.4014 18.5049 18.8028 18.2904 19.0588L14.1589 24C14.0759 24.0969 13.9652 24.1453 13.8475 24.1453ZM14.7333 19.7232C14.9825 19.7232 15.1762 19.9723 15.1209 20.2215L14.6434 22.173L17.1139 19.218L15.4461 19.2526C15.197 19.2526 14.9963 19.0173 15.0517 18.7682L15.5153 16.6021L12.8856 19.7924L14.7333 19.7232ZM3.7437 3.93772C3.18315 2.04844 4.34578 0 6.48419 0C7.53609 0 8.31118 0.567474 8.34578 0.588235C9.75755 1.65398 9.54301 3.21799 9.21083 3.97232C9.11395 4.42215 9.54993 5.88927 8.07588 6.95502L8.42883 7.56401H8.80945C10.6641 7.56401 12.1658 9.07266 12.1658 10.9204V13.8754C12.1658 14.0969 11.9859 14.2768 11.7645 14.2768H1.3008C1.07934 14.2768 0.899414 14.0969 0.899414 13.8754V10.9204C0.899414 9.07266 2.40114 7.56401 4.25582 7.56401H4.63644L4.95478 7.0173C4.22121 6.52595 3.7437 5.68858 3.7437 4.74048V3.93772ZM8.40806 3.90311C8.22121 1.37716 4.61568 2.23529 4.53955 3.92388C4.49111 5.0519 4.56723 5.95156 5.69526 6.51903C6.88557 7.10727 8.40806 6.14533 8.40806 4.74048V3.90311ZM6.48419 0.795848C5.52225 0.795848 4.66412 1.48789 4.46343 2.3737C5.52225 1.40484 7.53609 1.10035 8.60184 2.28374C8.42191 1.57785 7.68834 0.795848 6.48419 0.795848ZM6.47727 7.47405C6.20045 7.47405 5.93056 7.43253 5.68142 7.3564L5.34924 7.93772L6.53263 9.50173L7.71602 7.93772L7.37 7.32872C7.08627 7.42561 6.78869 7.47405 6.47727 7.47405ZM1.69526 13.474H2.93402V11.1557C2.93402 10.6367 3.72986 10.6367 3.72986 11.1557V13.474H9.32848V11.1557C9.32848 10.6367 10.1312 10.6367 10.1312 11.1557V13.474H11.37V10.9204C11.37 9.50865 10.2212 8.35986 8.80945 8.35986H8.39422L6.85097 10.4083C6.69872 10.609 6.36654 10.609 6.21429 10.4083L4.67104 8.35986H4.25582C2.84405 8.35986 1.69526 9.50865 1.69526 10.9204V13.474ZM20.678 3.93772C20.1174 2.04844 21.28 0 23.4184 0C24.4703 0 25.2454 0.567474 25.28 0.588235C26.6918 1.65398 26.4773 3.21799 26.1451 3.97232C26.0482 4.42215 26.4842 5.88927 25.0101 6.95502L25.3631 7.56401H25.7437C27.5984 7.56401 29.1001 9.07266 29.1001 10.9204V13.8754C29.1001 14.0969 28.9202 14.2768 28.6987 14.2768H18.2351C18.0136 14.2768 17.8337 14.0969 17.8337 13.8754V10.9204C17.8337 9.07266 19.3354 7.56401 21.1901 7.56401H21.5707L21.889 7.0173C21.1624 6.52595 20.678 5.68858 20.678 4.74048V3.93772ZM25.3423 3.91003C25.1624 1.37024 21.5499 2.23529 21.4738 3.91696C21.4254 5.0519 21.5015 5.95156 22.6295 6.51903C23.8337 7.11419 25.3423 6.13149 25.3423 4.74048V3.91003ZM23.4184 0.795848C22.4565 0.795848 21.6053 1.48097 21.4046 2.36678C22.4634 1.40484 24.4703 1.10035 25.5361 2.28374C25.3562 1.57785 24.6226 0.795848 23.4184 0.795848ZM23.4115 7.47405C23.1347 7.47405 22.8648 7.43253 22.6157 7.3564L22.2835 7.93772L23.4669 9.50173L24.6503 7.9308L24.3043 7.32872C24.0205 7.42561 23.7229 7.47405 23.4115 7.47405Z" fill="white"/>
</g>
<defs>
<clipPath id="clip0_726_922">
<rect width="30" height="30" fill="white"/>
</clipPath>
</defs>
</svg>
