<svg width="40" height="40" viewBox="0 0 40 40" fill="none" xmlns="http://www.w3.org/2000/svg">
<g clip-path="url(#clip0_1_13199)">
<path d="M1.56249 20C1.56249 9.83356 9.83348 1.56249 20 1.56249C24.3023 1.56249 28.4277 3.0503 31.7264 5.77185L30.7525 5.83638C30.3219 5.8649 29.9961 6.23701 30.0246 6.66755C30.0519 7.08052 30.3954 7.39716 30.8033 7.39716C30.8207 7.39716 30.8382 7.39661 30.8557 7.39544L33.6414 7.21083C34.0719 7.18232 34.3978 6.81021 34.3692 6.37966L34.1846 3.59405C34.1561 3.1635 33.7845 2.83733 33.3535 2.86616C32.9229 2.89468 32.5971 3.26678 32.6256 3.69733L32.681 4.53373C29.1093 1.60203 24.6498 0 20 0C14.6578 0 9.63543 2.08038 5.85787 5.85787C2.0803 9.63535 0 14.6578 0 20C0 23.5058 0.926559 26.9638 2.67944 30C2.82413 30.2506 3.08671 30.3907 3.35671 30.3907C3.48921 30.3907 3.62358 30.3569 3.74663 30.2859C4.1203 30.0702 4.24834 29.5924 4.03256 29.2187C2.41671 26.4197 1.56249 23.232 1.56249 20Z" fill="#1C1C25"/>
<path d="M37.3203 10.0001C37.1046 9.62647 36.6267 9.49842 36.2531 9.7142C35.8794 9.9299 35.7514 10.4077 35.9672 10.7814C37.5832 13.5804 38.4373 16.7682 38.4373 20.0001C38.4373 30.1665 30.1663 38.4376 19.9998 38.4376C15.6975 38.4376 11.5721 36.9498 8.27345 34.2282L9.24743 34.1637C9.67797 34.1352 10.0038 33.7631 9.97531 33.3325C9.9468 32.902 9.57407 32.5757 9.14415 32.6047L6.35853 32.7893C5.92799 32.8178 5.60213 33.1899 5.63064 33.6204L5.81525 36.406C5.8426 36.819 6.18611 37.1357 6.594 37.1357C6.61134 37.1357 6.62884 37.1351 6.64642 37.1339C7.07697 37.1054 7.40282 36.7333 7.37431 36.3028L7.31892 35.4664C10.8906 38.3981 15.3501 40.0001 19.9999 40.0001C25.3421 40.0001 30.3645 37.9197 34.142 34.1422C37.9195 30.3647 39.9999 25.3423 39.9999 20.0001C39.9998 16.4943 39.0732 13.0364 37.3203 10.0001Z" fill="#1C1C25"/>
<path d="M7.54858 22.9154C7.86421 24.2724 8.396 25.555 9.13483 26.7413L8.046 28.0229C7.78257 28.333 7.80124 28.7934 8.08897 29.0811L10.9184 31.9106C11.2062 32.1984 11.6665 32.2171 11.9767 31.9536L13.258 30.8649C14.4439 31.6036 15.7267 32.1355 17.0843 32.4514L17.2203 34.1255C17.2533 34.5311 17.5921 34.8435 17.999 34.8435H22.0005C22.4074 34.8435 22.7462 34.5311 22.7792 34.1256L22.9153 32.451C24.2723 32.1353 25.5549 31.6035 26.7412 30.8647L28.0228 31.9536C28.3329 32.2171 28.7933 32.1984 29.0811 31.9107L31.9106 29.0812C32.1983 28.7934 32.217 28.333 31.9535 28.0229L30.8648 26.7416C31.6036 25.5557 32.1354 24.273 32.4513 22.9154L34.1254 22.7793C34.5311 22.7463 34.8434 22.4075 34.8434 22.0006V17.9992C34.8434 17.5923 34.5311 17.2535 34.1255 17.2205L32.4512 17.0843C32.1354 15.7268 31.6037 14.4442 30.8649 13.258L31.9534 11.9768C32.2169 11.6667 32.1983 11.2063 31.9105 10.9186L29.0811 8.08905C28.7933 7.80132 28.3329 7.78265 28.0228 8.04616L26.7415 9.13475C25.5555 8.39608 24.273 7.86444 22.9153 7.54874L22.7792 5.87422C22.7463 5.46859 22.4074 5.15625 22.0006 5.15625H17.9991C17.5922 5.15625 17.2534 5.46859 17.2204 5.87414L17.0843 7.54874C15.7272 7.86444 14.4446 8.39624 13.2583 9.13498L11.9768 8.04616C11.6666 7.78272 11.2062 7.80147 10.9185 8.08913L8.08905 10.9186C7.80132 11.2063 7.78265 11.6668 8.04616 11.9768L9.13475 13.2582C8.396 14.4441 7.86413 15.7268 7.54827 17.0844L5.87414 17.2206C5.46859 17.2535 5.15625 17.5924 5.15625 17.9992V22.0007C5.15625 22.4076 5.46859 22.7464 5.87422 22.7794L7.54858 22.9154ZM6.71859 18.7194L8.25702 18.5943C8.60905 18.5656 8.89819 18.3044 8.96202 17.957C9.24834 16.4006 9.85037 14.9484 10.7515 13.6408C10.952 13.35 10.9323 12.9608 10.7036 12.6916L9.70311 11.514L11.5139 9.70319L12.6917 10.7039C12.9608 10.9325 13.3498 10.9522 13.6407 10.7519C14.949 9.85061 16.4011 9.24858 17.9567 8.96264C18.3042 8.89874 18.5655 8.60967 18.5942 8.25757L18.7193 6.71867H21.2802L21.4052 8.25757C21.4339 8.60967 21.6952 8.89881 22.0427 8.96264C23.5991 9.24873 25.0512 9.85069 26.3588 10.7516C26.6496 10.952 27.0387 10.9324 27.308 10.7037L28.4855 9.70319L30.2963 11.514L29.2959 12.6915C29.0672 12.9607 29.0476 13.3497 29.248 13.6406C30.1491 14.9483 30.7512 16.4006 31.0372 17.9568C31.1012 18.3042 31.3902 18.5656 31.7423 18.5942L33.2809 18.7193V21.2802L31.7425 21.4052C31.3904 21.4339 31.1013 21.6952 31.0375 22.0426C30.7512 23.599 30.1491 25.0511 29.248 26.3587C29.0475 26.6496 29.0672 27.0387 29.2958 27.308L30.2964 28.4856L28.4855 30.2964L27.3077 29.2957C27.0387 29.067 26.6495 29.0473 26.3587 29.2477C25.0504 30.149 23.5983 30.751 22.0427 31.037C21.6953 31.1008 21.434 31.39 21.4053 31.742L21.2802 33.281H18.7193L18.5942 31.7426C18.5656 31.3905 18.3043 31.1014 17.9569 31.0376C16.4004 30.7512 14.9483 30.1492 13.6407 29.248C13.35 29.0476 12.9608 29.0673 12.6915 29.2959L11.5139 30.2965L9.70311 28.4856L10.7038 27.3078C10.9325 27.0387 10.9522 26.6496 10.7518 26.3587C9.85045 25.0505 9.2485 23.5984 8.96256 22.0428C8.89866 21.6954 8.6096 21.4341 8.25749 21.4054L6.71851 21.2803L6.71859 18.7194Z" fill="#1C1C25"/>
<path d="M16.1331 19.258C17.166 18.2251 18.5394 17.6562 20.0001 17.6562C21.4608 17.6562 22.8341 18.2251 23.867 19.258C24.0196 19.4106 24.2195 19.4869 24.4195 19.4869C24.6194 19.4869 24.8194 19.4106 24.9719 19.258C25.277 18.953 25.277 18.4583 24.9719 18.1531C23.6438 16.8251 21.8781 16.0938 20 16.0938C18.1219 16.0938 16.3562 16.8252 15.0281 18.1531C14.723 18.4582 14.723 18.9529 15.0281 19.258C15.3332 19.5632 15.828 19.5632 16.1331 19.258Z" fill="#3E66F3"/>
<path d="M20.0002 19.2188C18.9568 19.2188 17.9758 19.6251 17.2381 20.3629C16.933 20.668 16.933 21.1627 17.2381 21.4678C17.5432 21.773 18.0379 21.7729 18.343 21.4678C18.7857 21.0251 19.3743 20.7813 20.0003 20.7813C20.6263 20.7813 21.2149 21.0252 21.6576 21.4678C21.8102 21.6204 22.0101 21.6966 22.21 21.6966C22.41 21.6966 22.61 21.6203 22.7625 21.4678C23.0675 21.1627 23.0675 20.668 22.7625 20.363C22.0245 19.6251 21.0436 19.2188 20.0002 19.2188Z" fill="#3E66F3"/>
<path d="M19.9995 22.3438C19.568 22.3438 19.2183 22.6935 19.2183 23.125C19.2183 23.5565 19.568 23.9062 19.9995 23.9062H20.0001C20.4315 23.9062 20.7811 23.5565 20.7811 23.125C20.7811 22.6935 20.431 22.3438 19.9995 22.3438Z" fill="#3E66F3"/>
<path d="M20 28.9844C24.954 28.9844 28.9844 24.954 28.9844 20C28.9844 15.046 24.954 11.0156 20 11.0156C15.046 11.0156 11.0156 15.046 11.0156 20C11.0156 24.954 15.046 28.9844 20 28.9844ZM20 12.5781C24.0924 12.5781 27.4219 15.9076 27.4219 20C27.4219 24.0924 24.0924 27.4219 20 27.4219C15.9076 27.4219 12.5781 24.0924 12.5781 20C12.5781 15.9076 15.9076 12.5781 20 12.5781Z" fill="#3E66F3"/>
</g>
<defs>
<clipPath id="clip0_1_13199">
<rect width="40" height="40" fill="white"/>
</clipPath>
</defs>
</svg>
