<svg width="30" height="30" viewBox="0 0 30 30" fill="none" xmlns="http://www.w3.org/2000/svg">
<g clip-path="url(#clip0_726_927)">
<path d="M14.0625 6.09375C13.365 6.09375 12.7889 6.60562 12.6792 7.27219C11.2697 8.62594 9.42703 9.375 7.46672 9.375H6.5625C5.27016 9.375 4.21875 10.4264 4.21875 11.7188C4.21875 12.8794 5.06906 13.8389 6.17813 14.0236L7.12406 18.2812H9.84375V14.4506C10.8947 14.7989 11.8603 15.3783 12.6792 16.1653C12.7889 16.8319 13.365 17.3438 14.0625 17.3438C14.8378 17.3438 15.4688 16.7128 15.4688 15.9375V7.5C15.4688 6.72469 14.8378 6.09375 14.0625 6.09375ZM7.96875 10.2881C9.68813 10.1878 11.3081 9.57891 12.6562 8.52844V14.9095C11.3081 13.8591 9.68813 13.2502 7.96875 13.1498V10.2881ZM5.15625 11.7188C5.15625 10.9434 5.78719 10.3125 6.5625 10.3125H7.03125V13.125H6.5625C5.78719 13.125 5.15625 12.4941 5.15625 11.7188ZM8.90625 17.3438H7.87594L7.14656 14.0625H7.46625C7.95516 14.0625 8.43609 14.1108 8.90578 14.2013L8.90625 17.3438ZM14.5312 15.9375C14.5312 16.1962 14.3208 16.4062 14.0625 16.4062C13.8042 16.4062 13.5938 16.1962 13.5938 15.9375V7.5C13.5938 7.24172 13.8042 7.03125 14.0625 7.03125C14.3208 7.03125 14.5312 7.24172 14.5312 7.5V15.9375Z" fill="white"/>
<path d="M6.09375 2.34375H7.03125V3.28125H6.09375V2.34375Z" fill="white"/>
<path d="M4.21875 2.34375H5.15625V3.28125H4.21875V2.34375Z" fill="white"/>
<path d="M2.34375 2.34375H3.28125V3.28125H2.34375V2.34375Z" fill="white"/>
<path d="M13.7222 23.2247L11.9316 21.4341L11.3348 21.7134L11.1098 21.0938H10.3125V20.1562H17.8125C18.5878 20.1562 19.2188 19.5253 19.2188 18.75V1.875C19.2188 1.09969 18.5878 0.46875 17.8125 0.46875H1.875C1.09969 0.46875 0.46875 1.09969 0.46875 1.875V18.75C0.46875 19.5253 1.09969 20.1562 1.875 20.1562H9.375V21.0938H8.57766L8.35266 21.713L7.75594 21.4336L5.96531 23.2242L6.24422 23.8209L5.625 24.0464V26.5786L6.24422 26.8031L5.96531 27.3998L7.75594 29.1905L8.35266 28.9111L8.57766 29.5312H11.1094L11.3344 28.912L11.9311 29.1914L13.7217 27.4008L13.4428 26.8041L14.0625 26.5786V24.0464L13.4433 23.8219L13.7222 23.2247ZM1.875 1.40625H17.8125C18.0708 1.40625 18.2812 1.61672 18.2812 1.875V4.21875H1.40625V1.875C1.40625 1.61672 1.61672 1.40625 1.875 1.40625ZM1.40625 18.75V5.15625H18.2812V18.75C18.2812 19.0088 18.0708 19.2188 17.8125 19.2188H1.875C1.61672 19.2188 1.40625 19.0088 1.40625 18.75ZM13.125 25.9214L12.7392 26.062L12.5297 26.1614L12.3314 26.6391L12.5948 27.202L11.7337 28.0636L11.1722 27.8011L10.6655 28.0097L10.4527 28.5938H9.23438L9.09422 28.208L8.99859 28.0003L8.51531 27.8011L7.95375 28.0636L7.09266 27.202L7.35609 26.6391L7.14656 26.1342L6.5625 25.9214V24.7036L6.94828 24.563L7.15781 24.4636L7.35609 23.9859L7.09266 23.423L7.95375 22.5614L8.51625 22.8239L9.0225 22.6153L9.23484 22.0312H10.4531L10.5933 22.417L10.6884 22.6242L11.1717 22.8239L11.7342 22.5614L12.5953 23.423L12.3319 23.9859L12.5414 24.4908L13.125 24.7036V25.9214Z" fill="white"/>
<path d="M9.84375 22.9688C8.55141 22.9688 7.5 24.0202 7.5 25.3125C7.5 26.6048 8.55141 27.6562 9.84375 27.6562C11.1361 27.6562 12.1875 26.6048 12.1875 25.3125C12.1875 24.0202 11.1361 22.9688 9.84375 22.9688ZM9.84375 26.7188C9.06844 26.7188 8.4375 26.0878 8.4375 25.3125C8.4375 24.5372 9.06844 23.9062 9.84375 23.9062C10.6191 23.9062 11.25 24.5372 11.25 25.3125C11.25 26.0878 10.6191 26.7188 9.84375 26.7188Z" fill="white"/>
<path d="M24.8438 24.8438H25.7812V25.7812H24.8438V24.8438Z" fill="white"/>
<path d="M22.9688 24.8438H23.9062V25.7812H22.9688V24.8438Z" fill="white"/>
<path d="M26.7188 24.8438H27.6562V25.7812H26.7188V24.8438Z" fill="white"/>
<path d="M24.8438 18.2812H25.7812V19.2188H24.8438V18.2812Z" fill="white"/>
<path d="M22.9688 18.2812H23.9062V19.2188H22.9688V18.2812Z" fill="white"/>
<path d="M26.7188 18.2812H27.6562V19.2188H26.7188V18.2812Z" fill="white"/>
<path d="M26.7188 11.7188H27.6562V12.6562H26.7188V11.7188Z" fill="white"/>
<path d="M22.9688 11.7188H23.9062V12.6562H22.9688V11.7188Z" fill="white"/>
<path d="M24.8438 11.7188H25.7812V12.6562H24.8438V11.7188Z" fill="white"/>
<path d="M28.125 7.96875C28.9003 7.96875 29.5312 7.33781 29.5312 6.5625V4.6875C29.5312 3.91219 28.9003 3.28125 28.125 3.28125H22.5C21.7247 3.28125 21.0938 3.91219 21.0938 4.6875V6.5625C21.0938 7.33781 21.7247 7.96875 22.5 7.96875H24.8438V9.84375H22.5C21.7247 9.84375 21.0938 10.4747 21.0938 11.25V13.125C21.0938 13.9003 21.7247 14.5312 22.5 14.5312H24.8438V16.4062H22.5C21.7247 16.4062 21.0938 17.0372 21.0938 17.8125V19.6875C21.0938 20.4628 21.7247 21.0938 22.5 21.0938H24.8438V22.9688H22.5C21.7247 22.9688 21.0938 23.5997 21.0938 24.375V26.25C21.0938 27.0253 21.7247 27.6562 22.5 27.6562H28.125C28.9003 27.6562 29.5312 27.0253 29.5312 26.25V24.375C29.5312 23.5997 28.9003 22.9688 28.125 22.9688H25.7812V21.0938H28.125C28.9003 21.0938 29.5312 20.4628 29.5312 19.6875V17.8125C29.5312 17.0372 28.9003 16.4062 28.125 16.4062H25.7812V14.5312H28.125C28.9003 14.5312 29.5312 13.9003 29.5312 13.125V11.25C29.5312 10.4747 28.9003 9.84375 28.125 9.84375H25.7812V7.96875H28.125ZM28.5938 24.375V26.25C28.5938 26.5088 28.3833 26.7188 28.125 26.7188H22.5C22.2417 26.7188 22.0312 26.5088 22.0312 26.25V24.375C22.0312 24.1162 22.2417 23.9062 22.5 23.9062H28.125C28.3833 23.9062 28.5938 24.1162 28.5938 24.375ZM28.5938 17.8125V19.6875C28.5938 19.9463 28.3833 20.1562 28.125 20.1562H22.5C22.2417 20.1562 22.0312 19.9463 22.0312 19.6875V17.8125C22.0312 17.5538 22.2417 17.3438 22.5 17.3438H28.125C28.3833 17.3438 28.5938 17.5538 28.5938 17.8125ZM28.5938 11.25V13.125C28.5938 13.3833 28.3833 13.5938 28.125 13.5938H22.5C22.2417 13.5938 22.0312 13.3833 22.0312 13.125V11.25C22.0312 10.9917 22.2417 10.7812 22.5 10.7812H28.125C28.3833 10.7812 28.5938 10.9917 28.5938 11.25ZM22.0312 6.5625V4.6875C22.0312 4.42922 22.2417 4.21875 22.5 4.21875H28.125C28.3833 4.21875 28.5938 4.42922 28.5938 4.6875V6.5625C28.5938 6.82078 28.3833 7.03125 28.125 7.03125H22.5C22.2417 7.03125 22.0312 6.82078 22.0312 6.5625Z" fill="white"/>
<path d="M22.9688 5.15625H23.9062V6.09375H22.9688V5.15625Z" fill="white"/>
<path d="M26.7188 5.15625H27.6562V6.09375H26.7188V5.15625Z" fill="white"/>
<path d="M24.8438 5.15625H25.7812V6.09375H24.8438V5.15625Z" fill="white"/>
<path d="M15 24.8438H20.1562V25.7812H15V24.8438Z" fill="white"/>
</g>
<defs>
<clipPath id="clip0_726_927">
<rect width="30" height="30" fill="white"/>
</clipPath>
</defs>
</svg>
