<svg width="60" height="60" viewBox="0 0 60 60" fill="none" xmlns="http://www.w3.org/2000/svg">
<path d="M56.129 52.425H56.5742C58.471 52.425 60 54.1179 60 56.2072C60 58.3072 58.471 60.0001 56.5742 60.0001H3.42581C1.52903 60.0001 0 58.3072 0 56.2072C0 55.1572 0.387097 54.2143 1.00645 53.5286C1.62581 52.8429 2.47742 52.425 3.42581 52.425H4.83871H22.0355L23.2258 55.7143H36.7742L37.9645 52.425H50.0323H56.129Z" fill="#344477"/>
<path d="M52.2583 19.6074V46.8216C52.2583 48.1824 51.2616 49.2859 50.0325 49.2859H10.9358C9.70674 49.2859 8.70996 48.1824 8.70996 46.8216V19.6074C8.70996 18.2466 9.70674 17.1431 10.9358 17.1431H23.2648V23.5395C21.968 23.7002 20.8454 24.7288 20.4874 26.2074L19.3938 30.9216C18.1842 30.4824 17.2842 29.2609 17.1971 27.7716L16.7906 21.1824C16.7422 20.3574 15.8035 20.0466 15.3487 20.6895L11.7874 25.7788C11.3616 26.3895 11.7777 27.2788 12.4745 27.2252L13.9067 27.1181L13.9648 28.0074C14.1583 31.2324 16.2487 33.8038 18.9293 34.5109C19.1035 35.8931 19.8874 37.1359 21.1842 37.5109L43.1132 43.8109C44.8551 44.3038 46.6164 43.1574 47.0616 41.2395L48.6874 34.3074C49.1422 32.3895 48.1067 30.4288 46.3745 29.9359L26.5842 24.2574V17.1431H50.0325C51.2616 17.1431 52.2583 18.2466 52.2583 19.6074Z" fill="#CED6F8"/>
<path d="M23.2261 43.9288C17.2387 41.7195 15.3719 36.9441 14.9635 31.3706C14.4003 30.3913 14.0393 29.2502 13.9648 28.0074L13.9067 27.1181L12.4745 27.2252C11.7777 27.2788 11.3616 26.3895 11.7874 25.7788L15.2316 20.8566C15.3148 19.602 15.3932 18.3581 15.4396 17.1431H10.9358C9.70674 17.1431 8.70996 18.2466 8.70996 19.6074V46.8216C8.70996 48.1824 9.70674 49.2859 10.9358 49.2859H50.0325C51.2616 49.2859 52.2583 48.1824 52.2583 46.8216V45.7684C42.5809 45.5702 32.9035 46.6074 23.2261 43.9288Z" fill="#A7B7EA"/>
<path d="M52.2582 12.8569H26.584V17.1426H50.0324C51.2614 17.1426 52.2582 18.2462 52.2582 19.6069V46.8212C52.2582 48.1819 51.2614 49.2855 50.0324 49.2855H10.9356C9.70661 49.2855 8.70983 48.1819 8.70983 46.8212V19.6069C8.70983 18.2462 9.70661 17.1426 10.9356 17.1426H23.2647V12.8569H8.70983C6.57113 12.8569 4.83887 14.7748 4.83887 17.1426V52.4248H56.1292V17.1426C56.1292 14.7748 54.3969 12.8569 52.2582 12.8569Z" fill="#6887EE"/>
<path d="M10.9356 49.2855C9.70661 49.2855 8.70983 48.1819 8.70983 46.8212V19.6069C8.70983 18.2462 9.70661 17.1426 10.9356 17.1426H15.3776C15.3776 14.7748 17.1098 12.8569 19.2485 12.8569H8.70983C6.57113 12.8569 4.83887 14.7748 4.83887 17.1426V52.4248H56.1292V49.2855H10.9356Z" fill="#2646A6"/>
<path d="M46.3748 29.9358C48.1071 30.4287 49.1426 32.3894 48.6877 34.3072L47.0619 41.2394C46.6168 43.1572 44.8555 44.3037 43.1136 43.8108L21.1845 37.5108C19.8878 37.1358 19.1039 35.8929 18.9297 34.5108C19.4039 34.6394 19.9071 34.7037 20.4103 34.7037C20.5555 34.7037 20.7103 34.6929 20.8555 34.6822C23.2652 34.5001 25.2781 32.8929 26.2555 30.6429C26.7878 29.4215 25.8878 28.0286 24.6684 28.1144C24.0974 28.1572 23.5845 28.5322 23.3329 29.1108C22.8394 30.2251 21.8426 31.0179 20.6426 31.1037C20.2071 31.1358 19.7813 31.0715 19.3942 30.9215L20.4878 26.2072C20.8458 24.7286 21.9684 23.7001 23.2652 23.5394C23.6523 23.4965 24.0394 23.5286 24.4361 23.6358L26.5845 24.2572L46.3748 29.9358Z" fill="#F8E009"/>
<path d="M24.4355 23.6358C24.0387 23.5286 23.6516 23.4965 23.2645 23.5394C21.9677 23.7001 20.8452 24.7286 20.4871 26.2072L19.3936 30.9215C19.7807 31.0715 20.2065 31.1358 20.6419 31.1037C21.8419 31.0179 22.8387 30.2251 23.3323 29.1108C23.549 28.6137 23.9623 28.2804 24.4365 28.1658C24.5013 26.8779 24.8177 25.4754 25.4623 23.9326L24.4355 23.6358Z" fill="#FBBB04"/>
<path d="M25.2539 32.293C24.1661 33.6462 22.6197 34.5483 20.8555 34.6823C20.7103 34.693 20.5555 34.7037 20.4103 34.7037C19.9071 34.7037 19.4039 34.6394 18.9297 34.5108C19.1039 35.893 19.8878 37.1358 21.1845 37.5108L43.1136 43.8108C44.4423 44.1869 45.7787 43.604 46.5365 42.4576C39.2968 40.9105 28.34 38.5908 25.2539 32.293Z" fill="#FBBB04"/>
<path d="M43.5469 21.4287H48.3856V25.7144H43.5469V21.4287Z" fill="#A9D51A"/>
<path d="M44.2734 34.2536C45.2121 34.8215 45.5508 36.1286 45.0379 37.1679C44.5153 38.2072 43.3347 38.5822 42.396 38.0036C41.4669 37.4358 41.1185 36.1286 41.6411 35.0894C42.154 34.0608 43.3347 33.6751 44.2734 34.2536Z" fill="#A9D51A"/>
<path d="M37.7021 32.3999C38.6408 32.9785 38.9796 34.2856 38.457 35.3249C37.9441 36.3535 36.7634 36.7392 35.8247 36.1606C34.886 35.5928 34.5473 34.2856 35.0699 33.2464C35.5828 32.2071 36.7634 31.8321 37.7021 32.3999Z" fill="#A9D51A"/>
<path d="M37.9642 52.4248L36.7739 55.7141H23.2255L22.0352 52.4248H37.9642Z" fill="#CED6F8"/>
<path d="M31.1428 30.5679C32.0815 31.1357 32.4202 32.4429 31.9073 33.4822C31.3847 34.5107 30.2138 34.8964 29.2751 34.3179C28.3363 33.75 27.9976 32.4429 28.5105 31.4036C29.0331 30.3643 30.2041 29.9893 31.1428 30.5679Z" fill="#A9D51A"/>
<path d="M24.8807 0C27.0194 0 28.7517 1.91786 28.7517 4.28572C28.7517 5.97857 27.8711 7.43572 26.584 8.13214C26.0711 8.41072 25.4904 8.57143 24.8807 8.57143C24.3001 8.57143 23.7485 8.43214 23.2646 8.175C21.9291 7.5 21.0098 6.01072 21.0098 4.28572C21.0098 1.91786 22.742 0 24.8807 0Z" fill="#A9D51A"/>
<path d="M26.584 17.143V24.2573L24.4356 23.6359C24.0388 23.5288 23.6517 23.4966 23.2646 23.5395V17.143V12.8573V8.17518C23.7485 8.43232 24.3001 8.57161 24.8808 8.57161C25.4905 8.57161 26.0711 8.4109 26.584 8.13232V12.8573V17.143Z" fill="#F7664F"/>
<path d="M24.6669 28.1144C25.8862 28.0287 26.7862 29.4216 26.254 30.643C25.2766 32.893 23.2637 34.5001 20.854 34.6823C20.7088 34.693 20.554 34.7037 20.4088 34.7037C19.9056 34.7037 19.4024 34.6394 18.9282 34.5108C16.2475 33.8037 14.1572 31.2323 13.9637 28.0073L13.9056 27.118L12.4733 27.2251C11.7766 27.2787 11.3604 26.3894 11.7862 25.7787L15.3475 20.6894C15.8024 20.0466 16.7411 20.3573 16.7895 21.1823L17.1959 27.7716C17.283 29.2608 18.183 30.4823 19.3927 30.9216C19.7798 31.0716 20.2056 31.1358 20.6411 31.1037C21.8411 31.018 22.8378 30.2251 23.3314 29.1108C23.583 28.5323 24.0959 28.1573 24.6669 28.1144Z" fill="#F7664F"/>
<path d="M12.581 42.8572H19.3552C19.8904 42.8572 20.323 42.3772 20.323 41.7858C20.323 41.1944 19.8904 40.7144 19.3552 40.7144H12.581C12.0459 40.7144 11.6133 41.1944 11.6133 41.7858C11.6133 42.3772 12.0459 42.8572 12.581 42.8572Z" fill="#1C357D"/>
<path d="M12.581 46.0716H22.2584C22.7936 46.0716 23.2262 45.5916 23.2262 45.0001C23.2262 44.4087 22.7936 43.9287 22.2584 43.9287H12.581C12.0459 43.9287 11.6133 44.4087 11.6133 45.0001C11.6133 45.5916 12.0459 46.0716 12.581 46.0716Z" fill="#1C357D"/>
</svg>
