<svg width="30" height="30" viewBox="0 0 30 30" fill="none" xmlns="http://www.w3.org/2000/svg">
<g clip-path="url(#clip0_726_925)">
<path d="M23.8007 17.2987H20.9669C20.7081 17.2987 20.4982 17.5086 20.4982 17.7675V29.0267C20.4982 29.2855 20.7081 29.4954 20.9669 29.4954H23.8007C24.0596 29.4954 24.2694 29.2855 24.2694 29.0267V17.7675C24.2694 17.5086 24.0596 17.2987 23.8007 17.2987ZM23.3319 28.5579H21.4357V18.2362H23.3319V28.5579ZM29.0625 14.6231H26.2288C25.9699 14.6231 25.76 14.833 25.76 15.0919V29.0265C25.76 29.2854 25.9699 29.4953 26.2288 29.4953H29.0625C29.3214 29.4953 29.5313 29.2854 29.5313 29.0265V15.0919C29.5313 14.833 29.3214 14.6231 29.0625 14.6231ZM28.5938 28.5579H26.6975V15.5606H28.5938V28.5579ZM13.2769 23.1213H10.4431C10.1842 23.1213 9.97433 23.3312 9.97433 23.5901V29.0265C9.97433 29.2854 10.1842 29.4953 10.4431 29.4953H13.2769C13.5357 29.4953 13.7456 29.2854 13.7456 29.0265V23.5901C13.7456 23.3312 13.5358 23.1213 13.2769 23.1213ZM12.8081 28.5579H10.9118V24.0589H12.8081V28.5579ZM28.4111 10.9305L28.2716 11.8883C28.2343 12.1445 28.4118 12.3824 28.668 12.4196C28.6909 12.423 28.7136 12.4246 28.7361 12.4246C28.9651 12.4246 29.1654 12.2566 29.1994 12.0233L29.5264 9.77732C29.5467 9.63828 29.5035 9.49742 29.4086 9.39365C29.3138 9.28988 29.1772 9.23439 29.0372 9.24172L26.7709 9.36477C26.5124 9.37877 26.3142 9.59973 26.3282 9.85824C26.3422 10.1168 26.5633 10.3137 26.8217 10.3009L27.7659 10.2496C25.3929 12.3399 22.7959 14.22 20.0256 15.8515C19.9886 15.8219 19.9469 15.7975 19.9011 15.7798L19.2619 15.5338C19.1625 15.1941 19.0268 14.8667 18.8565 14.5559L19.1347 13.9296C19.2135 13.7524 19.1749 13.545 19.0378 13.4079L18.0416 12.4116C17.9045 12.2745 17.697 12.2362 17.5199 12.3147L16.8932 12.593C16.5824 12.4228 16.2552 12.2871 15.9156 12.1877L15.8141 11.924L17.0937 10.6602H17.4583C17.8542 10.6602 18.1762 10.3381 18.1762 9.94226V8.61752C18.1762 8.22172 17.8541 7.89969 17.4583 7.89969H1.18668C0.790816 7.89963 0.468785 8.22166 0.468785 8.61746V9.94221C0.468785 10.3381 0.790816 10.6601 1.18668 10.6601H1.55125L7.20062 16.2402V20.1137C7.20062 20.2708 7.27931 20.4174 7.41015 20.5042C7.48814 20.556 7.57849 20.5824 7.66937 20.5824C7.73101 20.5824 7.79289 20.5703 7.85136 20.5456L10.0517 19.6183L9.92037 19.914C9.84168 20.0912 9.88017 20.2985 10.0173 20.4357L11.0136 21.4319C11.1507 21.5691 11.3581 21.6075 11.5353 21.5288L12.1618 21.2505C12.4727 21.4207 12.8 21.5565 13.1394 21.6558L13.3856 22.2952C13.4552 22.4762 13.6291 22.5956 13.8231 22.5956H15.2319C15.2334 22.5956 15.2347 22.5953 15.2362 22.5952V29.0265C15.2362 29.2854 15.4461 29.4953 15.7049 29.4953H18.5387C18.7976 29.4953 19.0075 29.2854 19.0075 29.0265V20.4658L19.0376 20.4357C19.1747 20.2986 19.2132 20.0912 19.1345 19.914L18.8562 19.2874C19.0264 18.9766 19.1621 18.6493 19.2615 18.3099L19.9009 18.0637C20.0819 17.9941 20.2013 17.8202 20.2013 17.6262V16.834C23.1452 15.1265 25.9013 13.1443 28.4111 10.9305ZM1.40628 8.83713H17.2386V9.7226H1.40628V8.83713ZM2.88537 10.6602H15.7595L15.1644 11.248H13.8232C13.6293 11.248 13.4554 11.3673 13.3857 11.5483L13.1396 12.1877C12.8 12.2871 12.4728 12.4228 12.1619 12.593L11.5353 12.3147C11.3581 12.2362 11.1508 12.2745 11.0136 12.4116L10.0174 13.4079C9.88029 13.545 9.84173 13.7524 9.92043 13.9296L10.1987 14.5561C10.0284 14.8669 9.89271 15.1943 9.79334 15.5339L9.68464 15.5757H7.86191L2.88537 10.6602ZM8.13812 16.5132H8.85367V17.6262C8.85367 17.8202 8.97308 17.994 9.15402 18.0637L9.79316 18.3097C9.82785 18.4282 9.86722 18.5451 9.91064 18.6604L8.13806 19.4075L8.13812 16.5132ZM18.0701 28.558H16.1738V21.5727C16.4216 21.4849 16.6621 21.3774 16.8934 21.2507L17.5197 21.5289C17.6969 21.6077 17.9043 21.5692 18.0415 21.432L18.0701 21.4034V28.558H18.0701ZM19.2639 17.3044L18.7017 17.5208C18.5575 17.5763 18.4499 17.6994 18.4141 17.8497C18.3163 18.2608 18.154 18.6522 17.9317 19.0132C17.8507 19.1448 17.8397 19.3079 17.9024 19.4492L18.1472 20.0003L17.6062 20.5413L17.0553 20.2967C16.9141 20.2339 16.7509 20.2447 16.6193 20.326C16.2583 20.5483 15.8667 20.7106 15.4555 20.8084C15.3051 20.8442 15.182 20.9517 15.1265 21.096L14.9102 21.658H14.145L13.9286 21.0958C13.8732 20.9515 13.7501 20.8439 13.5997 20.8082C13.1887 20.7103 12.7972 20.5481 12.4362 20.3258C12.3045 20.2447 12.1414 20.2338 12.0002 20.2965L11.4491 20.5413L10.908 20.0004L11.1527 19.4495C11.2154 19.3082 11.2044 19.1451 11.1234 19.0134C10.9011 18.6526 10.7388 18.261 10.6409 17.8497C10.6051 17.6993 10.4975 17.5762 10.3533 17.5207L9.79129 17.3044V16.5392L10.3534 16.3229C10.4976 16.2674 10.6052 16.1443 10.641 15.9939C10.7389 15.5827 10.9012 15.1913 11.1234 14.8304C11.2045 14.6987 11.2155 14.5356 11.1527 14.3943L10.908 13.8433L11.449 13.3023L12.0002 13.5471C12.1414 13.6098 12.3045 13.5989 12.4361 13.5178C12.7971 13.2955 13.1886 13.1333 13.5997 13.0354C13.7501 12.9996 13.8731 12.892 13.9286 12.7478L14.145 12.1856H14.9102L15.1266 12.7478C15.1821 12.892 15.3051 12.9996 15.4555 13.0354C15.8666 13.1333 16.2581 13.2956 16.619 13.5178C16.7506 13.5989 16.9138 13.6098 17.055 13.5471L17.6062 13.3023L18.1472 13.8433L17.9026 14.3941C17.8398 14.5354 17.8508 14.6985 17.9319 14.8302C18.1542 15.1911 18.3165 15.5827 18.4144 15.9939C18.4501 16.1443 18.5577 16.2674 18.702 16.3229L19.264 16.5392V17.3044H19.2639ZM0.937535 6.79326H17.7074C17.8404 6.79326 17.9672 6.73678 18.0561 6.63787C18.1449 6.53896 18.1877 6.40689 18.1735 6.27465C18.048 5.10277 17.3192 4.13404 16.3146 3.66043C16.6177 3.3251 16.8026 2.88102 16.8026 2.39451C16.8026 1.3523 15.9546 0.504395 14.9124 0.504395C13.8702 0.504395 13.0223 1.3523 13.0223 2.39451C13.0223 2.88102 13.2072 3.3251 13.5102 3.66043C12.9348 3.93172 12.4503 4.36543 12.1175 4.90695C11.7846 4.36543 11.3001 3.93172 10.7247 3.66043C11.0277 3.3251 11.2126 2.88102 11.2126 2.39451C11.2126 1.3523 10.3647 0.504395 9.32248 0.504395C8.28027 0.504395 7.43236 1.3523 7.43236 2.39451C7.43236 2.88102 7.61722 3.3251 7.92027 3.66043C7.34488 3.93172 6.86031 4.36543 6.5275 4.90695C6.19468 4.36543 5.71011 3.93172 5.13472 3.66043C5.43777 3.3251 5.62263 2.88102 5.62263 2.39451C5.62263 1.3523 4.77472 0.504395 3.73252 0.504395C2.69031 0.504395 1.8424 1.35225 1.8424 2.39445C1.8424 2.88096 2.02726 3.32504 2.33031 3.66037C1.32578 4.13398 0.596871 5.10277 0.471422 6.27459C0.457242 6.40684 0.499957 6.53891 0.588843 6.63781C0.67773 6.73672 0.804468 6.79326 0.937535 6.79326ZM14.9124 1.44184C15.4377 1.44184 15.8651 1.86916 15.8651 2.39445C15.8651 2.91975 15.4377 3.34707 14.9124 3.34707C14.3871 3.34707 13.9598 2.91975 13.9598 2.39445C13.9598 1.86916 14.3871 1.44184 14.9124 1.44184ZM14.9124 4.28457C15.931 4.28457 16.8062 4.93168 17.1257 5.85576H12.6991C13.0186 4.93168 13.8938 4.28457 14.9124 4.28457ZM9.32242 1.44184C9.84771 1.44184 10.275 1.86916 10.275 2.39445C10.275 2.91975 9.84771 3.34707 9.32242 3.34707C8.79712 3.34707 8.3698 2.91975 8.3698 2.39445C8.3698 1.86916 8.79712 1.44184 9.32242 1.44184ZM9.32248 4.28457C10.3411 4.28457 11.2163 4.93168 11.5358 5.85576H7.10916C7.42861 4.93168 8.30388 4.28457 9.32248 4.28457ZM3.73252 1.44184C4.25781 1.44184 4.68513 1.86916 4.68513 2.39445C4.68513 2.91975 4.25781 3.34707 3.73252 3.34707C3.20722 3.34707 2.7799 2.91975 2.7799 2.39445C2.7799 1.86916 3.20722 1.44184 3.73252 1.44184ZM3.73252 4.28457C4.75111 4.28457 5.62632 4.93168 5.94584 5.85576H1.51914C1.83865 4.93168 2.71392 4.28457 3.73252 4.28457ZM14.5275 13.9961C12.9143 13.9961 11.6017 15.3085 11.6017 16.9218C11.6017 18.5352 12.9142 19.8476 14.5275 19.8476C16.1409 19.8476 17.4533 18.5352 17.4533 16.9218C17.4533 15.3085 16.1408 13.9961 14.5275 13.9961ZM14.5275 18.91C13.4312 18.91 12.5392 18.0181 12.5392 16.9218C12.5392 15.8254 13.4312 14.9335 14.5275 14.9335C15.6239 14.9335 16.5158 15.8254 16.5158 16.9218C16.5158 18.0181 15.6239 18.91 14.5275 18.91ZM26.2728 5.83941C26.303 5.80449 26.3212 5.76512 26.3117 5.68666C26.3012 5.60105 26.2769 5.4006 25.6332 5.2949C24.492 5.10746 24.2912 4.4518 24.2731 4.07768C24.2441 3.48189 24.6275 2.97922 25.2374 2.79635V2.72053C25.2374 2.46166 25.4472 2.25178 25.7061 2.25178C25.965 2.25178 26.1749 2.46166 26.1749 2.72053V2.79207C26.5663 2.90562 26.9293 3.17375 27.1265 3.64332C27.2267 3.88203 27.1145 4.15678 26.8758 4.25703C26.6371 4.35728 26.3623 4.24496 26.2621 4.00637C26.1153 3.65668 25.7486 3.63758 25.5553 3.68158C25.4711 3.70068 25.1973 3.78242 25.2095 4.03227C25.2125 4.09285 25.2214 4.27725 25.7852 4.36982C26.6727 4.51555 27.163 4.92061 27.2423 5.57375C27.2826 5.90527 27.1925 6.20926 26.9819 6.45277C26.7921 6.67215 26.5051 6.83205 26.1749 6.90986V6.96846C26.1749 7.22732 25.965 7.43721 25.7061 7.43721C25.4472 7.43721 25.2374 7.22732 25.2374 6.96846V6.90154C24.7064 6.75916 24.3036 6.37853 24.1745 5.86074C24.1119 5.60955 24.2648 5.35514 24.516 5.2925C24.7673 5.23004 25.0215 5.38279 25.0841 5.63393C25.1586 5.93246 25.482 6.0299 25.7387 6.0251C25.9633 6.01971 26.1829 5.94342 26.2728 5.83941ZM25.7061 8.66967C27.8153 8.66967 29.5313 6.95369 29.5313 4.84449C29.5313 2.73523 27.8153 1.01926 25.7061 1.01926C23.5969 1.01926 21.8809 2.73523 21.8809 4.84449C21.8809 6.95369 23.5969 8.66967 25.7061 8.66967ZM25.7061 1.9567C27.2983 1.9567 28.5938 3.25209 28.5938 4.84443C28.5938 6.43672 27.2983 7.73211 25.7061 7.73211C24.1138 7.73211 22.8184 6.43672 22.8184 4.84443C22.8184 3.25215 24.1138 1.9567 25.7061 1.9567Z" fill="white"/>
</g>
<defs>
<clipPath id="clip0_726_925">
<rect width="30" height="30" fill="white"/>
</clipPath>
</defs>
</svg>
