<svg width="30" height="30" viewBox="0 0 30 30" fill="none" xmlns="http://www.w3.org/2000/svg">
<path d="M19.0625 3.4375H10.9375C6.79536 3.4375 3.4375 6.79536 3.4375 10.9375V19.0625C3.4375 23.2046 6.79536 26.5625 10.9375 26.5625H19.0625C23.2046 26.5625 26.5625 23.2046 26.5625 19.0625V10.9375C26.5625 6.79536 23.2046 3.4375 19.0625 3.4375Z" stroke="#407360" stroke-width="1.5"/>
<path d="M8.75 18.5543L11.6529 14.6918C11.8325 14.4548 12.0948 14.2941 12.3875 14.2416C12.6773 14.1863 12.9773 14.2413 13.2286 14.3956L16.0604 16.1847C16.3216 16.3481 16.636 16.4033 16.9373 16.3387C17.2416 16.2771 17.5098 16.0983 17.6836 15.8411L20.5984 11.4453" stroke="#407360" stroke-width="1.5" stroke-linecap="round" stroke-linejoin="round"/>
<path d="M17.1035 12.097L20.5988 11.4453L21.2504 14.9406" stroke="#407360" stroke-width="1.5" stroke-linecap="round" stroke-linejoin="round"/>
</svg>
