<svg width="30" height="30" viewBox="0 0 30 30" fill="none" xmlns="http://www.w3.org/2000/svg">
<path d="M21.175 5.87158H21.25C22.2445 5.87158 23.1984 6.25627 23.9016 6.94102C24.6049 7.62578 25 8.55451 25 9.52289V21.694C25 22.9851 24.4732 24.2234 23.5355 25.1364C22.5979 26.0495 21.3261 26.5624 20 26.5624H10C8.67391 26.5624 7.40215 26.0495 6.46446 25.1364C5.52679 24.2234 5 22.9851 5 21.694V9.52289C4.9998 8.56703 5.38457 7.64919 6.0717 6.96651C6.75882 6.28381 7.69349 5.89069 8.675 5.87158" stroke="#407360" stroke-width="1.5" stroke-linecap="round" stroke-linejoin="round"/>
<path d="M19.9248 3.4375H9.9248C9.23445 3.4375 8.6748 3.98241 8.6748 4.6546V7.08881C8.6748 7.761 9.23445 8.30593 9.9248 8.30593H19.9248C20.6152 8.30593 21.1748 7.761 21.1748 7.08881V4.6546C21.1748 3.98241 20.6152 3.4375 19.9248 3.4375Z" stroke="#407360" stroke-width="1.5" stroke-linecap="round" stroke-linejoin="round"/>
<path d="M10.1914 14.3252H19.8087" stroke="#407360" stroke-width="1.5" stroke-linecap="round" stroke-linejoin="round"/>
<path d="M10.1914 19.8228H19.8087" stroke="#407360" stroke-width="1.5" stroke-linecap="round" stroke-linejoin="round"/>
</svg>
