<svg width="60" height="54" viewBox="0 0 60 54" fill="none" xmlns="http://www.w3.org/2000/svg">
<path d="M20.5273 41.8846L33.0801 36.2307L34.4093 36.923L21.8565 42.6923L20.5273 41.8846Z" fill="#1A253D"/>
<path d="M40.0219 46.8462V48L27.4691 53.7692L19.3467 50.0769L20.5281 41.8846L21.8572 42.6923L34.41 36.9231L33.3763 43.8462L40.0219 46.8462Z" fill="#1D2943"/>
<path d="M21.858 42.6923L34.4108 36.9231L33.377 43.8462L20.8242 49.6154L21.858 42.6923Z" fill="#4C5C75"/>
<path d="M20.8242 49.6152L33.377 43.8459L40.0226 46.8459L27.4698 52.4998L20.8242 49.6152Z" fill="#1D2943"/>
<path d="M27.4678 52.4998L40.0206 46.8459V47.9998L27.4678 53.769V52.4998Z" fill="#4C5C75"/>
<path d="M20.5281 41.8845L21.8572 42.6922L20.8235 49.6153L27.4691 52.4999V53.7691L19.3467 50.0768L20.5281 41.8845Z" fill="#111D33"/>
<path d="M48.4389 2.19229C48.2912 2.19229 48.2912 2.0769 48.1436 2.0769C48.2912 2.0769 48.2912 2.0769 48.4389 2.19229Z" fill="#1D2943"/>
<path d="M49.4726 27.1154C48.8819 27.3461 48.4388 27.6923 48.2912 28.2692H47.2574V31.0384C46.519 31.5 45.7806 31.8461 44.8945 32.1923C42.6793 33.1154 40.1688 33.5769 37.8059 34.2692C35.7383 34.8461 36.1814 37.0384 37.8059 37.3846L7.38378 51.2308C6.64538 51.5769 5.90698 51.5769 5.31626 51.3461L1.03354 49.3846C0.590501 49.1538 0.147461 48.6923 0.147461 48V22.1538C0.147461 20.7692 1.47658 19.0384 2.95338 18.2308L42.2363 0.461519C42.9747 0.115365 43.7131 0.115366 44.3038 0.346135L48.4388 2.19229C48.4388 2.19229 48.2912 2.19229 48.1435 2.19229C48.2912 2.19229 48.4388 2.19229 48.4388 2.30767C49.0296 2.53844 49.3249 2.99998 49.3249 3.80767L49.4726 27.1154Z" fill="#1D2943"/>
<path d="M0 22.1538C0 20.7692 1.32912 19.0384 2.80592 18.2308L42.2365 0.461519C42.9749 0.115365 43.7133 0.115366 44.304 0.346135L48.5867 2.30767C47.996 2.0769 47.4053 2.0769 46.5192 2.42306L7.08864 20.1923C5.46416 20.8846 4.28272 22.6154 4.28272 24.1154V49.9615C4.28272 50.6538 4.57808 51.1154 5.1688 51.3461L0.886081 49.3846C0.295361 49.1538 0 48.6923 0 48V22.1538Z" fill="#4C5C75"/>
<path d="M48.4389 2.19229C48.2912 2.19229 48.2912 2.0769 48.1436 2.0769C48.2912 2.0769 48.2912 2.0769 48.4389 2.19229Z" fill="#1D2943"/>
<path d="M49.4728 26.6538V29.5384C49.4728 30.923 48.1437 32.6538 46.6669 33.4615L7.23632 51.2307C6.35024 51.5769 5.61184 51.5769 5.02112 51.3461C5.02112 51.3461 5.1688 51.3461 5.1688 51.4615L0.886081 49.5C0.295361 49.2692 0 48.8077 0 48V45.1153L4.28272 47.0769L49.4728 26.6538Z" fill="#DEDFFB"/>
<path d="M49.4723 26.6541V29.5387C49.4723 30.9233 48.1432 32.6541 46.6664 33.4617L7.23583 51.231C5.61135 51.9233 4.42991 51.3464 4.28223 49.9617V47.0771L49.4723 26.6541Z" fill="#F3F1FC"/>
<path d="M4.28272 49.9615V47.0769L0 45.1154V48C0 48.6923 0.295361 49.2692 0.886081 49.5L5.1688 51.4615C4.57808 51.1154 4.28272 50.6538 4.28272 49.9615Z" fill="#DEDFFB"/>
<path d="M26.8772 37.846C27.7633 37.4998 28.354 37.7306 28.354 38.5383C28.354 39.2306 27.7633 40.1536 26.8772 40.4998C25.9911 40.846 25.4004 40.6152 25.4004 39.8075C25.4004 38.9998 25.9911 38.1921 26.8772 37.846Z" fill="#1D2943"/>
<path d="M47.9965 26.1924L5.6123 45.2309V24.0001C5.6123 22.9616 6.64606 21.577 7.82751 21.1155L47.1104 3.34625C47.5534 3.11548 47.7011 3.11548 47.7011 3.11548C47.8488 3.11548 47.8488 3.23086 47.8488 3.57702L47.9965 26.1924Z" fill="white"/>
<path d="M42.68 9.46135L40.3171 12.1152L32.1947 21.1152L30.8656 22.4998L20.528 24.1152C20.3803 24.1152 12.8487 22.6152 13.2917 22.7306L11.5195 21.9229L26.1399 5.99981L25.6968 5.76904L39.2834 7.96135L42.68 9.46135Z" fill="#FEBC1F"/>
<path d="M11.3721 21.8078L13.2919 22.7309L27.9122 6.80784L26.1401 5.88477L11.3721 21.8078Z" fill="#FFD06C"/>
<path d="M42.6805 9.46135L27.9125 6.80751L25.6973 5.76904L39.2838 7.96135L42.6805 9.46135Z" fill="#FFD06C"/>
<path d="M42.6803 9.46146C33.2288 7.73069 30.1275 7.15377 30.1275 7.15377L27.9123 6.80762C27.7646 6.923 21.2667 14.0768 13.292 22.7307C13.4397 22.7307 21.119 24.2307 20.5283 24.1153L30.8659 22.4999L32.195 21.1153L40.3174 12.1153L42.6803 9.46146Z" fill="#FEBC1F"/>
<path d="M34.5571 5.42297L34.2617 0.461426L39.5782 2.8845" fill="#DEDFFB"/>
<path d="M39.7272 23.7692L17.5752 33.6923L16.3938 33.2308L16.2461 7.73077L33.377 0L34.5584 0.576923V5.19231L39.5795 2.88462L39.7272 23.7692Z" fill="#DEDFFB"/>
<path d="M16.2461 7.73096L17.4275 8.30788L17.5752 33.6925L16.3938 33.231L16.2461 7.73096Z" fill="#DEDFFB"/>
<path d="M33.377 0L34.5584 0.576923L17.4275 8.30769L16.2461 7.73077L33.377 0Z" fill="#E9E7FC"/>
<path d="M34.5576 0.577148V5.19253L39.5788 2.88484L39.7264 23.7695L17.5744 33.6925L17.4268 8.30792L34.5576 0.577148Z" fill="#F3F1FC"/>
<path d="M18.3125 8.76927L33.6712 1.84619V6.34619L38.6923 4.15388V23.3077L18.4602 32.5385L18.3125 8.76927Z" fill="white"/>
<path d="M39.5787 2.88477L34.5576 5.19246L39.5787 2.88477Z" fill="#DEDFFB"/>
<path d="M42.6802 26.1922L13.2919 39.4614L11.5198 38.6537L11.3721 21.8076L13.2919 22.7307L26.2878 25.2691L27.9122 23.5384L29.5367 23.7691L42.6802 9.46143V26.1922Z" fill="#FEBC1F"/>
<path d="M11.3721 21.8076L13.2919 22.7307V39.4615L11.5198 38.6538L11.3721 21.8076Z" fill="#FEBC1F"/>
<path d="M27.9123 23.5386L29.5368 23.7693L42.6803 26.1924L13.292 39.4617L26.2878 25.2693L27.9123 23.5386Z" fill="#FEBC1F"/>
<path d="M13.292 22.731L26.2878 25.2694L13.292 39.4617V22.731Z" fill="#F9A83D"/>
<path d="M29.5361 23.7691L42.6797 9.46143V26.1922L29.5361 23.7691Z" fill="#F9A83D"/>
<path d="M33.9678 12.4614C34.4108 12.4614 35.0015 12.6922 35.1492 13.3845C35.1492 13.6153 34.8539 13.846 34.8539 13.6153C34.7062 13.1537 34.2631 12.923 33.9678 12.923V12.8076C33.9678 12.5768 33.9678 12.4614 33.9678 12.4614Z" fill="#1D2943"/>
<path d="M33.0803 15.8076C33.5233 16.0384 33.8187 16.2692 33.8187 16.9615C33.8187 17.0768 33.671 17.1922 33.671 17.1922C33.5233 17.1922 33.5233 17.1922 33.5233 17.0768C33.5233 16.6153 33.228 16.2692 32.9326 16.1538C32.9326 16.0384 33.0803 15.923 33.0803 15.8076Z" fill="#1D2943"/>
<path d="M25.4022 16.1536C25.6976 16.0382 25.993 16.1536 25.993 16.4998C25.993 16.8459 25.6976 17.1921 25.4022 17.4229C25.1069 17.5382 24.8115 17.4229 24.8115 17.0767C24.8115 16.7305 25.1069 16.269 25.4022 16.1536Z" fill="white"/>
<path d="M31.1604 11.1922C31.4557 11.0768 31.7511 11.1922 31.7511 11.5383C31.7511 11.8845 31.4557 12.2307 31.1604 12.4614C30.865 12.5768 30.5697 12.4614 30.5697 12.1153C30.422 11.7691 30.7173 11.423 31.1604 11.1922Z" fill="white"/>
<path d="M31.6034 13.3846C31.8988 13.2692 32.1941 13.3846 32.1941 13.7307C32.1941 14.0769 31.8988 14.423 31.6034 14.6538C31.3081 14.7692 31.0127 14.6538 31.0127 14.3077C31.0127 13.9615 31.3081 13.6153 31.6034 13.3846Z" fill="white"/>
<path d="M31.3085 15.6922C31.6039 15.5768 31.8992 15.6922 31.8992 16.0383C31.8992 16.3845 31.6039 16.7307 31.3085 16.9614C31.0131 17.0768 30.7178 16.9614 30.7178 16.6153C30.7178 16.2691 31.0131 15.923 31.3085 15.6922Z" fill="white"/>
<path d="M33.9674 12.4616V12.6923V12.8077C33.9674 13.7308 33.672 14.7693 33.0813 15.8077C33.0813 15.9231 32.9336 16.0385 32.9336 16.1539C32.1952 17.4231 31.3091 18.577 30.1277 19.3847C28.3555 20.7693 25.6973 21.577 24.0728 20.077C24.0728 19.9616 23.9251 19.9616 23.9251 19.8462C23.4821 19.2693 23.0391 18.4616 23.0391 17.5385V17.4231C23.0391 17.3077 23.0391 17.3077 23.0391 17.1923C23.0391 16.5 23.3344 15.6923 23.6298 14.8847C23.6298 14.7693 23.7775 14.6539 23.7775 14.5385C24.2205 13.5 24.9589 12.4616 25.845 11.6539C26.5834 10.9616 27.4695 10.2693 28.3555 9.92311C29.2416 9.46158 30.1277 9.34619 30.8661 9.34619C31.7522 9.34619 32.4906 9.69234 32.9336 10.3847C32.9336 10.5 33.0813 10.5 33.0813 10.6154C33.672 11.077 33.9674 11.7693 33.9674 12.4616ZM28.5032 12.3462C28.7986 12.2308 29.0939 11.7693 29.0939 11.4231C29.0939 11.077 28.7986 10.9616 28.5032 11.077C28.2079 11.1923 27.9125 11.6539 27.9125 12C27.7648 12.3462 28.0602 12.4616 28.5032 12.3462ZM25.6973 19.3847C25.9927 19.2693 26.288 18.8077 26.288 18.4616C26.288 18.1154 25.9927 18 25.6973 18.1154C25.4019 18.2308 25.1066 18.6923 25.1066 19.0385C24.9589 19.5 25.2543 19.6154 25.6973 19.3847ZM30.4231 12.1154C30.4231 12.4616 30.7184 12.577 31.0138 12.4616C31.3091 12.3462 31.6045 11.8847 31.6045 11.5385C31.6045 11.1923 31.3091 11.077 31.0138 11.1923C30.7184 11.4231 30.4231 11.7693 30.4231 12.1154ZM31.6045 14.5385C31.8999 14.4231 32.1952 13.9616 32.1952 13.6154C32.1952 13.2693 31.8999 13.1539 31.6045 13.2693C31.3091 13.3847 31.0138 13.8462 31.0138 14.1923C31.0138 14.5385 31.3091 14.7693 31.6045 14.5385ZM25.9927 14.7693C26.288 14.6539 26.5834 14.1923 26.5834 13.8462C26.5834 13.5 26.288 13.3847 25.9927 13.5C25.6973 13.6154 25.4019 14.077 25.4019 14.4231C25.2543 14.7693 25.5496 14.8847 25.9927 14.7693ZM24.8112 17.077C24.8112 17.4231 25.1066 17.5385 25.4019 17.4231C25.6973 17.3077 25.9927 16.8462 25.9927 16.5C25.9927 16.1539 25.6973 16.0385 25.4019 16.1539C25.1066 16.2693 24.8112 16.7308 24.8112 17.077ZM31.3091 16.8462C31.6045 16.7308 31.8999 16.2693 31.8999 15.9231C31.8999 15.577 31.6045 15.4616 31.3091 15.577C31.0138 15.6923 30.7184 16.1539 30.7184 16.5C30.7184 16.9616 31.0138 17.077 31.3091 16.8462Z" fill="#F45170"/>
<path d="M28.503 14.8848C28.6507 14.8848 28.6507 14.8848 28.503 14.8848L29.2414 20.0771C28.9461 20.1925 28.7984 20.3078 28.503 20.4232C28.2077 20.5386 28.06 20.654 27.7646 20.654L28.3554 15.0001C28.503 14.8848 28.503 14.8848 28.503 14.8848Z" fill="#1D2943"/>
<path d="M26.7306 9.3463C26.8783 9.23092 27.1736 9.23092 27.3213 9.3463C26.8783 9.80784 26.5829 10.2694 26.2875 10.7309C26.1399 10.7309 25.9922 10.5001 25.9922 10.3848C25.9922 10.0386 26.2875 9.57707 26.7306 9.3463Z" fill="#1D2943"/>
<path d="M26.4353 8.19219C26.7307 8.07681 27.0261 7.96143 27.3214 7.96143C27.7645 7.96143 28.2075 8.19219 28.3552 8.53835C28.2075 8.65373 28.0598 8.65373 28.0598 8.76912C27.9121 8.53835 27.6168 8.30758 27.1737 8.30758C26.8784 8.30758 26.7307 8.42296 26.4353 8.53835C26.14 8.65373 25.8446 8.8845 25.5493 9.23066C25.5493 9.23066 25.5493 9.23066 25.4016 9.34604H25.2539C25.2539 9.34604 25.2539 9.23066 25.2539 9.11527C25.5493 8.65373 25.9923 8.30758 26.4353 8.19219Z" fill="#111D33"/>
<path d="M30.4218 7.73059C30.8648 7.49982 31.1602 7.73059 31.1602 8.07674C31.1602 8.30751 31.0125 8.53828 30.8648 8.76905C30.5695 8.4229 30.2741 8.30751 29.8311 8.30751C29.9787 7.96136 30.1264 7.84597 30.4218 7.73059Z" fill="#1D2943"/>
<path d="M28.5041 11.1922C28.7995 11.0768 29.0949 11.1922 29.0949 11.5383C29.0949 11.8845 28.7995 12.2307 28.5041 12.4614C28.2088 12.5768 27.9134 12.4614 27.9134 12.1153C27.7657 11.6537 28.0611 11.3076 28.5041 11.1922Z" fill="white"/>
<path d="M28.5027 8.4233C28.5027 8.4233 28.6504 8.4233 28.6504 8.30792C28.7981 8.30792 28.9458 8.19253 28.9458 8.19253C29.2411 8.07715 29.5365 8.07715 29.6842 8.07715C30.1272 8.07715 30.4226 8.30792 30.7179 8.53869C30.8656 8.76946 31.0133 9.00023 31.0133 9.34638C30.2749 9.34638 29.3888 9.46176 28.5027 9.9233C27.6167 10.3848 26.7306 10.9618 25.9922 11.6541C25.9922 11.3079 26.1399 10.9618 26.2875 10.6156C26.4352 10.1541 26.8783 9.69253 27.3213 9.23099C27.6167 9.00023 27.7644 8.76946 28.0597 8.65407C28.2074 8.53869 28.3551 8.53869 28.3551 8.4233C28.3551 8.53869 28.5027 8.4233 28.5027 8.4233Z" fill="#4C5C75"/>
<path d="M30.7177 6.23077C31.0131 6.11538 31.4561 6 31.7515 6C31.8991 6 31.7515 6.34615 31.6038 6.34615C31.3084 6.34615 31.0131 6.34615 30.7177 6.57692C29.9793 6.92308 29.3886 7.61538 29.0932 8.30769C28.9455 8.30769 28.7979 8.42308 28.7979 8.42308C28.9455 7.84615 29.3886 7.38462 29.8316 6.92308C29.9793 6.57692 30.2747 6.34615 30.7177 6.23077Z" fill="#111D33"/>
<path d="M34.2625 8.30762C34.4102 8.30762 34.4102 8.30762 34.4102 8.423C34.4102 9.23069 33.6718 10.1538 33.2287 10.7307C33.2287 10.6153 33.0811 10.6153 33.0811 10.4999C33.5241 10.0384 33.9671 9.2307 33.9671 8.53839C34.1148 8.423 34.2625 8.30762 34.2625 8.30762Z" fill="#1D2943"/>
<path d="M23.1862 17.3076V17.5384V17.6538C22.8908 17.9999 22.4478 18.5768 22.3001 19.1538C22.3001 19.3845 21.8571 19.4999 22.0047 19.2692C22.1524 18.4615 22.5955 17.7692 23.1862 17.3076Z" fill="#1D2943"/>
<path d="M22.7436 13.5C22.8913 13.5 22.8913 13.5 22.8913 13.6154C22.8913 14.3077 23.482 14.5385 23.7774 14.6538C23.7774 14.7692 23.6297 14.8846 23.6297 15C23.1866 14.8846 22.4482 14.5385 22.4482 13.7308C22.5959 13.6154 22.5959 13.5 22.7436 13.5Z" fill="#1D2943"/>
<path d="M23.9249 19.9614C23.9249 20.0768 24.0726 20.0768 24.0726 20.1922C23.7772 20.6537 23.4819 21.1153 23.4819 21.5768C23.4819 21.6922 23.3342 21.8076 23.3342 21.8076C23.1865 21.8076 23.1865 21.8076 23.1865 21.6922C23.1865 21.1153 23.6296 20.5383 23.9249 19.9614Z" fill="#1D2943"/>
<path d="M25.9914 13.4998C26.2868 13.3844 26.5822 13.4998 26.5822 13.846C26.5822 14.1921 26.2868 14.5383 25.9914 14.769C25.6961 14.8844 25.4007 14.769 25.4007 14.4229C25.253 14.0767 25.5484 13.7306 25.9914 13.4998Z" fill="white"/>
<path d="M25.6965 18.2308C25.9919 18.1154 26.2872 18.2308 26.2872 18.5769C26.2872 18.9231 25.9919 19.2692 25.6965 19.5C25.4012 19.6154 25.1058 19.5 25.1058 19.1538C24.9581 18.8077 25.2535 18.4615 25.6965 18.2308Z" fill="white"/>
<path d="M59.9577 30.0002C60.4008 36.4617 57.2995 42.0002 52.1307 46.3848C50.3585 46.5002 48.734 46.3848 47.5526 45.8078L45.7804 45.0002C43.1222 43.8463 42.0884 40.8463 42.3838 36.2309C44.3036 35.3078 45.6327 33.1155 45.042 31.6155C46.5188 30.2309 48.4387 29.0771 50.2108 28.2694C51.983 27.4617 53.9028 27.0002 55.5273 26.8848L57.4471 27.6925C57.2995 28.2694 57.2995 28.8463 57.4471 29.3078C57.7425 29.3078 57.8902 29.1925 58.1855 29.0771L59.9577 30.0002Z" fill="#5EC363"/>
<path d="M58.037 30.2308L56.1172 29.4232C56.5602 29.6539 57.2986 29.6539 58.037 29.1924L59.9569 30.0001C59.0708 30.3462 58.4801 30.4616 58.037 30.2308Z" fill="#78E75A"/>
<path d="M51.9833 29.1923L50.0635 28.3846C51.8356 27.5769 53.7555 27.1154 55.38 27L57.2998 27.8077C55.6753 27.8077 53.7555 28.2692 51.9833 29.1923Z" fill="#78E75A"/>
<path d="M47.5528 45.8079L45.633 45.0002C42.9747 43.731 41.941 40.8463 42.2363 36.231L44.1562 37.0387C43.8608 41.654 44.8946 44.654 47.5528 45.8079Z" fill="#5EC363"/>
<path d="M44.1562 37.154L42.2363 36.3463C44.1562 35.4233 45.4853 33.231 44.8946 31.731L46.8144 32.5386C47.5528 34.0386 46.076 36.231 44.1562 37.154Z" fill="#78E75A"/>
<path d="M46.8154 32.5386L44.8955 31.7309C46.3723 30.3463 48.1445 29.1925 50.0643 28.3848L51.9842 29.1925C50.0643 30.0002 48.2922 31.154 46.8154 32.5386Z" fill="#5EC363"/>
<path d="M57.2996 27.8076C56.7089 29.5384 57.7427 31.0384 59.9579 29.9999C60.4009 36.4615 57.2996 41.8845 52.1308 46.3845C46.2236 46.9615 43.7131 43.6153 44.1561 37.1538C46.0759 36.2307 47.4051 34.0384 46.8143 32.5384C49.3249 30.2307 53.4599 27.923 57.2996 27.8076Z" fill="#72D561"/>
<path d="M55.9703 28.8462C55.8227 30.4616 56.8564 31.7308 58.7763 31.2693C58.7763 33.9231 58.1855 36.4616 57.1518 38.7693C55.9703 41.077 54.3459 43.1539 51.983 45.2308C47.2572 45.4616 44.8943 42.9231 45.1897 37.5C46.9619 36.2308 48.291 34.1539 47.9956 32.4231C50.0631 30.8077 53.1644 29.1923 55.9703 28.8462Z" fill="white"/>
<path d="M52.1305 40.6153C52.7212 40.3846 53.0166 40.5 53.0166 41.0769C53.0166 41.5384 52.5736 42.1153 52.1305 42.3461C51.5398 42.5769 51.2444 42.3461 51.2444 41.8846C51.0968 41.423 51.5398 40.8461 52.1305 40.6153Z" fill="#4C5C75"/>
<path d="M51.9831 31.8461C53.0169 31.3846 53.7553 31.8461 53.6076 32.7692L53.0169 38.6538C53.0169 39.1153 52.5738 39.6923 51.9831 39.923C51.5401 40.1538 51.097 40.0384 50.9493 39.5769L50.2109 34.2692C50.2109 33.4615 51.097 32.3076 51.9831 31.8461Z" fill="#4C5C75"/>
</svg>
