<svg width="39" height="40" viewBox="0 0 39 40" fill="none" xmlns="http://www.w3.org/2000/svg">
<path fill-rule="evenodd" clip-rule="evenodd" d="M11.6156 11.4508L10.7866 12.2798C10.5295 12.537 10.5295 12.9558 10.7866 13.2119L11.6601 14.0854C11.9129 13.7566 12.1874 13.4441 12.4837 13.1468C12.7799 12.8506 13.0935 12.576 13.4223 12.3232L12.5488 11.4497C12.2916 11.1937 11.8728 11.1937 11.6156 11.4508Z" fill="#3E66F3"/>
<path fill-rule="evenodd" clip-rule="evenodd" d="M26.3635 11.2573C26.1877 11.2573 26.0217 11.3257 25.8969 11.4505L25.0234 12.3239C25.3522 12.5768 25.6647 12.8513 25.9609 13.1475C26.2572 13.4437 26.5317 13.7573 26.7845 14.0861L27.658 13.2126C27.9151 12.9555 27.9151 12.5377 27.658 12.2805L26.829 11.4516C26.7053 11.3257 26.5393 11.2573 26.3635 11.2573Z" fill="#3E66F3"/>
<path fill-rule="evenodd" clip-rule="evenodd" d="M36.9716 18.9366V17.7474C36.9716 15.3516 36.5017 13.0273 35.5762 10.8388C34.6821 8.72504 33.4028 6.82726 31.773 5.19748C30.1432 3.56771 28.2454 2.28841 26.1317 1.39431C23.9431 0.46875 21.6189 0 19.2231 0C16.8273 0 14.503 0.469835 12.3145 1.3954C10.2007 2.2895 8.30295 3.56879 6.67318 5.19857C5.0434 6.82834 3.76411 8.72613 2.87001 10.8398C1.94445 13.0284 1.47461 15.3526 1.47461 17.7485V18.9377H3.23785V17.832C3.23785 15.6619 3.66862 13.5514 4.51714 11.5592C5.33746 9.63542 6.50825 7.90907 7.99805 6.42687C9.47591 4.9566 11.1892 3.80534 13.0924 3.00239C15.0673 2.16905 17.1571 1.75347 19.3066 1.76432C23.5438 1.78602 27.5271 3.44835 30.5252 6.44531C33.5438 9.46506 35.2062 13.4787 35.2062 17.7485V18.9377L36.9716 18.9366Z" fill="#1C1C25"/>
<path fill-rule="evenodd" clip-rule="evenodd" d="M19.6628 24.8624V25.8314C20.9757 25.7348 22.1725 25.2118 23.1133 24.3991L22.4297 23.7155C22.2582 23.5441 22.2582 23.2652 22.4297 23.0938C22.6011 22.9223 22.88 22.9223 23.0514 23.0938L23.735 23.7773C24.5477 22.8366 25.0707 21.6408 25.1673 20.3268H24.1984C23.9553 20.3268 23.7589 20.1304 23.7589 19.8874C23.7589 19.6443 23.9553 19.4479 24.1984 19.4479H25.1673C25.0707 18.135 24.5477 16.9382 23.735 15.9974L23.0514 16.6799C22.9657 16.7656 22.8529 16.809 22.7411 16.809C22.6283 16.809 22.5165 16.7656 22.4297 16.6799C22.2582 16.5085 22.2582 16.2296 22.4297 16.0582L23.1133 15.3757C22.1725 14.564 20.9768 14.0399 19.6628 13.9434V14.9123C19.6628 15.1554 19.4664 15.3518 19.2233 15.3518C18.9803 15.3518 18.7839 15.1554 18.7839 14.9123V13.9434C17.4709 14.0399 16.2741 14.5629 15.3333 15.3757L16.0158 16.0582C16.1873 16.2296 16.1873 16.5085 16.0158 16.6799C15.9301 16.7656 15.8173 16.809 15.7044 16.809C15.5927 16.809 15.4798 16.7656 15.3941 16.6799L14.7116 15.9974C13.8989 16.9382 13.3759 18.1339 13.2793 19.4479H14.2483C14.4913 19.4479 14.6877 19.6443 14.6877 19.8874C14.6877 20.1304 14.4913 20.3268 14.2483 20.3268H13.2793C13.3748 21.6398 13.8989 22.8366 14.7116 23.7773L15.3941 23.0938C15.5655 22.9223 15.8444 22.9223 16.0158 23.0938C16.1873 23.2652 16.1873 23.5441 16.0158 23.7155L15.3333 24.3991C16.2741 25.2107 17.4698 25.7348 18.7839 25.8314V24.8624C18.7839 24.6194 18.9803 24.423 19.2233 24.423C19.4664 24.423 19.6628 24.6194 19.6628 24.8624ZM18.7839 19.8874V17.3754C18.7839 17.1324 18.9803 16.936 19.2233 16.936C19.4664 16.936 19.6628 17.1324 19.6628 17.3754V19.602L21.9685 20.6263C22.191 20.725 22.2897 20.9844 22.1921 21.2068C22.1194 21.3707 21.9588 21.4683 21.7906 21.4683C21.7309 21.4683 21.6701 21.4564 21.6126 21.4303L19.0464 20.2899C18.8859 20.2183 18.7839 20.0599 18.7839 19.8874Z" fill="#1C1C25"/>
<path fill-rule="evenodd" clip-rule="evenodd" d="M24.486 26.7493C26.5455 25.1662 27.8758 22.6792 27.8758 19.8862C27.8758 18.085 27.3213 16.4097 26.3762 15.0219C25.7631 14.1245 24.9862 13.3465 24.0889 12.7345C22.7022 11.7884 21.0268 11.2339 19.2245 11.2339C17.4146 11.2339 15.7327 11.7927 14.3428 12.7465C13.4519 13.3574 12.6815 14.1299 12.0728 15.0219C11.1266 16.4086 10.5732 18.0839 10.5732 19.8862C10.5732 22.6781 11.9035 25.1662 13.963 26.7493C15.4224 27.8713 17.2475 28.5386 19.2256 28.5386C21.2004 28.5386 23.0266 27.8713 24.486 26.7493ZM12.3842 19.8873C12.3842 18.0611 13.096 16.3435 14.3873 15.0512C15.6785 13.7599 17.3962 13.0481 19.2234 13.0481C21.0507 13.0481 22.7673 13.7599 24.0585 15.0512C25.3497 16.3424 26.0615 18.0601 26.0615 19.8873C26.0615 21.7146 25.3497 23.4312 24.0585 24.7235C22.7673 26.0147 21.0496 26.7265 19.2223 26.7265C17.3962 26.7265 15.6785 26.0147 14.3862 24.7235C13.096 23.4312 12.3842 21.7135 12.3842 19.8873Z" fill="#1C1C25"/>
<path fill-rule="evenodd" clip-rule="evenodd" d="M0 24.6612V29.9574C0 30.8808 0.750868 31.6317 1.67426 31.6317H4.71246V22.9858H1.67426C0.751953 22.9869 0 23.7378 0 24.6612Z" fill="#3E66F3"/>
<path fill-rule="evenodd" clip-rule="evenodd" d="M36.7706 31.633C37.694 31.633 38.4449 30.8822 38.4449 29.9588V24.6625C38.4449 23.7392 37.694 22.9883 36.7706 22.9883H33.7324V31.6341L36.7706 31.633Z" fill="#3E66F3"/>
<path fill-rule="evenodd" clip-rule="evenodd" d="M20.3895 38.3056C20.3895 37.8998 20.0586 37.5688 19.6528 37.5688H17.7387C17.3329 37.5688 17.002 37.8987 17.002 38.3056V39.2626C17.002 39.6685 17.3329 39.9994 17.7387 39.9994H19.6528C20.0586 39.9994 20.3895 39.6685 20.3895 39.2626V38.3056Z" fill="#3E66F3"/>
<path fill-rule="evenodd" clip-rule="evenodd" d="M35.6481 34.0265C35.6481 36.4071 33.7113 38.344 31.3306 38.344H21.2666V39.2229H31.3306C34.1963 39.2229 36.527 36.8921 36.527 34.0265V32.5117H35.6481V34.0265Z" fill="#1C1C25"/>
<path fill-rule="evenodd" clip-rule="evenodd" d="M35.6484 19.8149H36.5273V22.1077H35.6484V19.8149Z" fill="#1C1C25"/>
<path fill-rule="evenodd" clip-rule="evenodd" d="M24.6689 27.7103L25.9949 29.4399C26.0817 29.5528 26.2119 29.6114 26.3443 29.6114C26.4376 29.6114 26.532 29.5821 26.6112 29.5213C26.8044 29.3738 26.8402 29.0981 26.6926 28.905L25.3656 27.1743C25.1409 27.3653 24.9087 27.5432 24.6689 27.7103Z" fill="#1C1C25"/>
<path fill-rule="evenodd" clip-rule="evenodd" d="M17.502 7.39014C17.2589 7.39014 17.0625 7.58653 17.0625 7.82959C17.0625 8.07264 17.2589 8.26904 17.502 8.26904H18.7834V10.3643C18.9288 10.3578 19.0764 10.3545 19.2229 10.3545C19.3694 10.3545 19.5169 10.3578 19.6623 10.3643V8.26904H20.9438C21.1868 8.26904 21.3832 8.07264 21.3832 7.82959C21.3832 7.58653 21.1868 7.39014 20.9438 7.39014H17.502Z" fill="#1C1C25"/>
<path fill-rule="evenodd" clip-rule="evenodd" d="M11.7526 28.906C11.6051 29.0991 11.6419 29.3747 11.834 29.5223C11.9143 29.5831 12.0076 29.6124 12.1009 29.6124C12.2322 29.6124 12.3635 29.5527 12.4503 29.4409L13.7763 27.7113C13.5365 27.5442 13.3032 27.3652 13.0797 27.1753L11.7526 28.906Z" fill="#1C1C25"/>
<path fill-rule="evenodd" clip-rule="evenodd" d="M1.91699 19.8149H2.7959V22.1077H1.91699V19.8149Z" fill="#1C1C25"/>
</svg>
