<svg width="60" height="60" viewBox="0 0 60 60" fill="none" xmlns="http://www.w3.org/2000/svg">
<path d="M39.2441 39.6761C39.2441 36.1052 41.3232 32.9795 44.4056 31.3054C45.9261 30.4732 47.6949 29.999 49.5878 29.999C51.0049 29.999 52.3599 30.27 53.5908 30.7538C54.9872 31.2957 56.2181 32.128 57.2214 33.1537C58.9074 34.8762 59.9314 37.16 59.9314 39.6761C59.9314 42.3469 58.773 44.7662 56.9007 46.5177C55.0285 48.2693 52.4426 49.3531 49.5878 49.3531C46.7329 49.3531 44.147 48.2693 42.2748 46.5177C40.9715 45.2984 40.0199 43.7694 39.5648 42.0469C39.3476 41.2921 39.2441 40.4889 39.2441 39.6761Z" fill="#F7664F"/>
<path d="M51.6565 47.4174C48.8017 47.4174 46.2158 46.3336 44.3436 44.582C43.0403 43.3627 42.0886 41.8338 41.6335 40.1113C41.4163 39.3565 41.3129 38.5533 41.3129 37.7404C41.3129 35.5631 42.0783 33.5599 43.3919 31.9438C40.8784 33.6954 39.2441 36.5114 39.2441 39.6758C39.2441 40.4887 39.3476 41.2919 39.5648 42.0467C40.0199 43.7692 40.9715 45.2981 42.2748 46.5175C44.147 48.269 46.7329 49.3528 49.5878 49.3528C52.4426 49.3528 55.0285 48.269 56.9007 46.5175C57.2421 46.1981 57.5524 45.8594 57.842 45.5014C56.1146 46.7013 53.9735 47.4174 51.6565 47.4174Z" fill="#AC4038"/>
<path d="M49.587 56.1264C46.97 56.1264 44.5496 55.3716 42.5533 54.0749C41.4155 53.3491 40.4121 52.4394 39.595 51.404C39.5536 51.3556 39.5122 51.2975 39.4916 51.2395C38.9847 50.475 39.0985 49.4879 39.7708 48.8589L42.274 46.5171C44.1462 48.2686 46.7321 49.3525 49.587 49.3525C52.4418 49.3525 55.0277 48.2686 56.8999 46.5171L59.4031 48.8589C60.1271 49.5363 60.1995 50.6201 59.5789 51.404C57.324 54.2684 53.6934 56.1264 49.587 56.1264Z" fill="#A9D51A"/>
<path d="M42.6783 36.521L48.2432 39.4435C47.2709 41.0595 45.2436 41.7079 43.7127 40.9047C42.1715 40.1015 41.7164 38.1371 42.6783 36.521Z" fill="#F2F2F2"/>
<path d="M56.4975 36.521C57.4698 38.1371 57.0043 40.1015 55.4735 40.9047C53.9323 41.7079 51.9049 41.0595 50.9326 39.4435L56.4975 36.521Z" fill="#F2F2F2"/>
<path d="M56.611 12.7446C58.5453 13.1801 59.89 14.7962 59.8693 16.6445C59.8176 20.2734 59.3624 26.4667 57.2213 33.1535C56.218 32.1277 54.9871 31.2955 53.5907 30.7536C54.9974 25.9151 55.4629 21.4153 55.587 18.2509C55.6284 17.3316 54.9871 16.4993 54.0251 16.2574C48.8326 14.9413 40.5473 12.0963 32.6551 6.17394C31.0519 4.97399 28.8176 4.97399 27.2144 6.17394C19.3222 12.0963 11.0369 14.9413 5.8444 16.2574C4.88244 16.4993 4.25147 17.3316 4.2825 18.2509C4.64453 27.4053 7.83038 47.5336 28.2591 55.3913C29.3348 55.8074 30.5347 55.8074 31.6104 55.3913C34.5894 54.2494 37.2063 52.8366 39.4923 51.2399C39.513 51.2979 39.5544 51.356 39.5957 51.4044C40.4129 52.4398 41.4162 53.3495 42.554 54.0752C39.4095 56.359 35.6962 58.3041 31.3208 59.775C30.4312 60.075 29.4383 60.075 28.5487 59.775C2.83439 51.1625 0.124357 25.7796 0.000233659 16.6445C-0.0204536 14.7962 1.33456 13.1801 3.25848 12.7446C8.24412 11.6318 18.2464 8.60288 27.0696 1.04512C28.6832 -0.348373 31.1863 -0.348373 32.7999 1.04512C41.6231 8.60288 51.6254 11.6318 56.611 12.7446Z" fill="#6887EE"/>
<path d="M44.406 31.3051C41.3236 32.9792 39.2445 36.1049 39.2445 39.6757C39.2445 40.4886 39.3479 41.2918 39.5651 42.0466C36.9999 44.1852 33.6279 45.4819 29.9352 45.4819C21.9396 45.4819 15.4541 39.4144 15.4541 31.9341C15.4541 24.4537 21.9396 18.3862 29.9352 18.3862C33.6279 18.3862 36.9999 19.683 39.5548 21.8216L29.0457 32.3695L26.6563 30.1438C25.2909 28.8665 23.0877 28.8665 21.7224 30.1438C20.357 31.4115 20.357 33.4824 21.7224 34.7598L25.5288 38.3209C27.4941 40.1692 30.711 40.1208 32.6142 38.2241L43.5578 27.3472C44.0439 28.5955 44.3336 29.9212 44.406 31.3051Z" fill="#F2F2F2"/>
<path d="M39.379 41.2044C39.4203 41.485 39.4824 41.7753 39.5651 42.0463C36.9999 44.1849 33.6279 45.4816 29.9352 45.4816C21.9396 45.4816 15.4541 39.4141 15.4541 31.9338C15.4541 27.4533 17.7814 23.476 21.3707 21.0181C19.6019 23.2631 18.5572 26.0404 18.5572 29.0306C18.5572 36.511 25.0427 42.5785 33.0383 42.5785C35.3139 42.5785 37.455 42.085 39.379 41.2044Z" fill="#DDDDDD"/>
<path d="M46.4953 19.8189C47.8193 21.0672 47.8607 23.0703 46.5677 24.3574L43.5577 27.3476L32.6141 38.2246C30.7109 40.1213 27.494 40.1697 25.5287 38.3213L21.7223 34.7602C20.3569 33.4828 20.3569 31.4119 21.7223 30.1443C23.0876 28.8669 25.2908 28.8669 26.6562 30.1443L29.0456 32.37L39.5547 21.822L41.4786 19.8963C42.1613 19.2092 43.0922 18.8608 44.0232 18.8608C44.9231 18.8608 45.8126 19.1802 46.4953 19.8189Z" fill="#7AB82D"/>
<path d="M46.5678 24.3568L43.5578 27.347L32.6142 38.224C30.711 40.1207 27.4941 40.1691 25.5288 38.3208L21.7224 34.7596C20.4811 33.5984 20.3674 31.7791 21.3914 30.5114C21.4845 30.6469 21.5983 30.7727 21.7224 30.8888L25.5288 34.45C27.4941 36.2983 30.711 36.2499 32.6142 34.3532L43.5578 23.4762L46.5678 20.486C46.6609 20.3893 46.754 20.2925 46.8264 20.186C47.8194 21.4344 47.7367 23.1859 46.5678 24.3568Z" fill="#5B9F06"/>
<path d="M54.0259 16.2574C54.9879 16.4993 55.6292 17.3315 55.5878 18.2508C55.4637 21.4152 54.9982 25.915 53.5915 30.7535C52.3606 30.2697 51.0056 29.9987 49.5885 29.9987C47.6956 29.9987 45.9269 30.4729 44.4063 31.3051C44.3339 29.9213 44.0443 28.5956 43.5582 27.3472L46.5682 24.357C47.8611 23.07 47.8197 21.0668 46.4958 19.8185C45.8131 19.1798 44.9235 18.8605 44.0236 18.8605C43.0927 18.8605 42.1618 19.2088 41.4791 19.8959L39.5552 21.8216C37.0003 19.683 33.6283 18.3863 29.9356 18.3863C21.9399 18.3863 15.4545 24.4538 15.4545 31.9341C15.4545 39.4145 21.9399 45.482 29.9356 45.482C33.6283 45.482 37.0003 44.1853 39.5655 42.0466C40.0206 43.7691 40.9722 45.2981 42.2755 46.5174L39.7724 48.8593C39.1 49.4883 38.9863 50.4753 39.4931 51.2398C37.2072 52.8365 34.5902 54.2494 31.6112 55.3913C30.5355 55.8074 29.3356 55.8074 28.2599 55.3913C7.83119 47.5335 4.64535 27.4053 4.28332 18.2508C4.25229 17.3315 4.88325 16.4993 5.84521 16.2574C11.0377 14.9413 19.323 12.0962 27.2152 6.17389C28.8185 4.97394 31.0527 4.97394 32.656 6.17389C40.5482 12.0962 48.8334 14.9413 54.0259 16.2574Z" fill="#CED6F8"/>
<path d="M3.25848 12.7445C1.33456 13.18 -0.0204536 14.796 0.000233659 16.6443C0.124357 25.7794 2.83439 51.1623 28.5487 59.7748C29.4383 60.0748 30.4312 60.0748 31.3208 59.7748C34.0867 58.8449 36.5857 57.7253 38.8458 56.4508C36.805 56.0598 34.8604 55.5092 33.0234 54.8009C32.5569 55.0012 32.0955 55.2054 31.6094 55.3921C30.5336 55.8082 29.3338 55.8082 28.258 55.3921C7.83037 47.5334 4.64453 27.4052 4.2825 18.2507C4.25147 17.3314 4.88244 16.4992 5.8444 16.2572C7.15494 15.9253 8.66407 15.4947 10.3128 14.9421C10.4401 13.4267 10.6511 11.9219 10.9438 10.4355C7.87175 11.591 5.18757 12.3139 3.25848 12.7445Z" fill="#2646A6"/>
<path d="M10.3137 14.9424C8.66489 15.494 7.15575 15.9246 5.84521 16.2575C4.88325 16.4994 4.25229 17.3316 4.28332 18.251C4.64535 27.4054 7.83119 47.5336 28.2599 55.3914C29.3356 55.8075 30.5355 55.8075 31.6112 55.3914C32.0974 55.2056 32.5577 55.0004 33.0252 54.8001C17.0867 48.6494 8.94831 31.2579 10.3137 14.9424Z" fill="#A7B7EA"/>
<path d="M22.1697 12.9496C21.4871 13.326 20.8085 13.6841 20.1351 14.0237C18.806 14.6943 17.4365 15.3272 16.0639 15.903C15.5426 16.1217 15.3098 16.6946 15.5446 17.1823C15.7174 17.5413 16.0939 17.7542 16.489 17.7542C16.6307 17.7542 16.7735 17.7271 16.9121 17.6691C18.3281 17.0739 19.7431 16.4197 21.1157 15.7269C21.8129 15.3756 22.5142 15.0059 23.2186 14.6169C23.7109 14.346 23.8744 13.7518 23.5847 13.2921C23.2962 12.8305 22.6611 12.6776 22.1697 12.9496Z" fill="#1C357D"/>
<path d="M13.0112 17.1002C12.0016 17.467 10.9745 17.8125 9.95771 18.1279C9.4157 18.2953 9.1209 18.8431 9.30088 19.3501C9.44466 19.7566 9.84806 20.0149 10.2825 20.0149C10.3901 20.0149 10.4997 19.9985 10.6073 19.9656C11.6582 19.6404 12.7184 19.2834 13.76 18.905C14.2927 18.7114 14.5565 18.1511 14.3496 17.6528C14.1417 17.1534 13.5418 16.9077 13.0112 17.1002Z" fill="#1C357D"/>
<path d="M50.6224 53.2236V56.0783C50.2811 56.117 49.9398 56.1267 49.5881 56.1267C49.2364 56.1267 48.8951 56.117 48.5537 56.0783V53.2236C48.5537 52.6913 49.0192 52.2559 49.5881 52.2559C50.157 52.2559 50.6224 52.6913 50.6224 53.2236Z" fill="#DDEEA3"/>
<path d="M45.4302 52.8557L43.7959 54.7815C43.3615 54.5686 42.9478 54.3363 42.5547 54.0751C42.3789 53.9686 42.2133 53.8525 42.0479 53.717L43.8166 51.6558C44.1786 51.23 44.82 51.1623 45.2751 51.501C45.7198 51.83 45.7923 52.4396 45.4302 52.8557Z" fill="#DDEEA3"/>
<path d="M57.1393 53.7267C56.5911 54.1234 56.0119 54.4815 55.3912 54.7815L53.7466 52.8557C53.3846 52.4396 53.457 51.83 53.9017 51.501C54.3569 51.1623 55.0085 51.23 55.3602 51.6558L57.1393 53.7267Z" fill="#DDEEA3"/>
<path d="M52.1271 43.6821C50.5342 42.8983 48.6372 42.907 47.0525 43.7034C46.5498 43.9569 46.3605 44.5434 46.6315 45.0137C46.8187 45.3378 47.1746 45.5227 47.5438 45.5227C47.7093 45.5227 47.8769 45.4859 48.0331 45.4075C49.0075 44.9169 50.1804 44.9101 51.1641 45.3949C51.6678 45.6436 52.2957 45.4617 52.5615 44.9885C52.8274 44.5153 52.6319 43.9308 52.1271 43.6821Z" fill="#FCC2B9"/>
</svg>
