<svg width="49" height="60" viewBox="0 0 49 60" fill="none" xmlns="http://www.w3.org/2000/svg">
<path d="M47.8521 30.7071C47.5961 30.6469 47.325 30.7674 47.2045 31.0084C47.1141 31.1138 45.5779 32.7855 35.5325 33.6138C29.0866 34.141 26.1046 36.7916 24.7341 39.0808V28.4932C28.5444 28.4631 31.3909 27.1378 32.8065 24.7432C34.3427 22.1226 34.0114 18.4328 31.9029 14.8785C28.2281 8.6735 24.7341 0.435357 24.7039 0.360054C24.5835 0.0588421 24.2371 -0.0767036 23.9359 0.0437812C23.8003 0.104024 23.6798 0.209448 23.6196 0.360054C23.5895 0.435357 20.0954 8.68856 16.4206 14.8785C14.3121 18.4328 13.9657 22.1226 15.5019 24.7432C16.9176 27.1378 19.7791 28.4631 23.5744 28.4932V39.0808C22.2039 36.8067 19.2219 34.156 12.776 33.6138C2.73055 32.7855 1.19437 31.1138 1.104 31.0084C0.953397 30.7222 0.591943 30.6168 0.305792 30.7674C0.0949438 30.8728 -0.0255409 31.0987 0.0045803 31.3246C0.0497621 31.8216 0.998579 43.4936 8.40839 47.7859C10.2006 48.81 12.2488 49.3522 14.3272 49.322C17.008 49.322 20.005 48.5389 23.2581 46.9876C23.3485 46.9425 23.4087 46.8822 23.469 46.822C23.484 46.8069 23.5142 46.7467 23.5895 46.6563V59.4126C23.5895 59.744 23.8455 60 24.1768 60C24.5082 60 24.7642 59.744 24.7642 59.4126V46.6563C24.8244 46.7467 24.8696 46.8069 24.8847 46.822C24.9449 46.8973 25.0202 46.9575 25.0955 46.9876C28.3637 48.5539 31.3457 49.322 34.0265 49.322C36.1048 49.3522 38.138 48.825 39.9453 47.7859C47.3551 43.4936 48.319 31.8066 48.3491 31.3246C48.319 31.0385 48.1232 30.7825 47.8521 30.7071ZM16.4959 24.1407C15.1706 21.8967 15.517 18.6587 17.3996 15.4658C20.2611 10.6464 23.0021 4.60714 24.1316 2.04684C25.2612 4.60714 28.0022 10.6464 30.8637 15.4658C32.7463 18.6436 33.0927 21.8967 31.7674 24.1407C30.5625 26.189 28.1378 27.2733 24.719 27.3035V12.9507C24.719 12.6194 24.463 12.3633 24.1316 12.3633C23.8003 12.3633 23.5443 12.6194 23.5443 12.9507V27.3035C20.1406 27.2884 17.7008 26.204 16.4959 24.1407ZM8.96563 46.7768C3.49864 43.6141 1.78173 35.7374 1.29979 32.5747C2.79079 33.3277 5.95351 34.2313 12.6404 34.7886C23.2129 35.6621 23.5292 42.2737 23.5443 42.6201C23.5443 43.4785 23.3636 44.337 23.0322 45.1352C21.1948 43.8099 15.3965 39.7736 10.7578 38.4332C10.4416 38.3579 10.1253 38.5537 10.05 38.87C9.97469 39.1712 10.1404 39.4574 10.4265 39.5628C14.8543 40.8429 20.5924 44.834 22.3545 46.0991C16.9779 48.5841 12.4747 48.81 8.96563 46.7768ZM39.2977 46.7768C35.7885 48.81 31.2854 48.5841 25.9088 46.0991C27.6709 44.834 33.409 40.8429 37.8368 39.5628C38.138 39.4574 38.3037 39.126 38.1982 38.8097C38.0928 38.5236 37.8067 38.3579 37.5055 38.4332C32.8668 39.7887 27.0534 43.8099 25.2311 45.1352C24.8997 44.337 24.719 43.4785 24.719 42.6201C24.719 42.4393 25.0353 35.6621 35.6229 34.7886C42.3098 34.2313 45.4725 33.3277 46.9635 32.5747C46.4816 35.7374 44.7797 43.6141 39.2977 46.7768Z" fill="#3E66F3"/>
</svg>
