<svg width="73" height="61" viewBox="0 0 73 61" fill="none" xmlns="http://www.w3.org/2000/svg">
<path d="M13.4135 59.1358L13.4113 59.1352C11.5516 58.6253 10.9268 56.2363 12.33 54.833L50.7923 16.3707C51.4305 15.7325 52.4315 15.55 53.4555 15.7482L53.4583 15.7488C54.7647 15.9937 56.1973 15.6283 57.2256 14.6411L57.2256 14.6412L57.2335 14.6333L66.5318 5.29881C66.532 5.29862 66.5322 5.29844 66.5324 5.29825C68.2086 3.62228 69.5394 3.26219 70.3571 3.59853C71.1734 3.93426 71.8655 5.12402 71.8655 7.51423V42.1773C71.8655 51.8876 63.9844 59.7687 54.2741 59.7687H18.0914C16.4715 59.7687 14.9247 59.5576 13.4135 59.1358Z" stroke="#3E66F3"/>
<path d="M2.50361 50.264L2.50161 50.2603C1.20436 47.8762 0.5 45.1004 0.5 42.1772V7.51416C0.5 5.12395 1.19208 3.93419 2.00837 3.59846C2.82617 3.2621 4.15703 3.62223 5.83327 5.2983C5.83341 5.29844 5.83356 5.29859 5.8337 5.29873L15.1682 14.6694L15.1681 14.6694L15.1735 14.6746C16.7788 16.2388 19.404 16.2388 21.0093 14.6746L21.0093 14.6747L21.0144 14.6696L33.9674 1.68045C33.9674 1.6804 33.9675 1.68036 33.9675 1.68031C35.1834 0.464588 37.1824 0.464637 38.3982 1.68045L45.4131 8.69529C45.4138 8.69603 45.4145 8.69677 45.4153 8.69751C46.5982 9.91399 46.5973 11.9149 45.3815 13.1308L7.49811 51.0141C5.99968 52.5125 3.50405 52.1399 2.50361 50.264Z" stroke="#3E66F3"/>
</svg>
