<svg width="57" height="57" viewBox="0 0 57 57" fill="none" xmlns="http://www.w3.org/2000/svg">
<path d="M26.7146 30.7148V43.572C26.7146 46.9819 25.36 50.2522 22.9488 52.6634C20.5376 55.0745 17.2674 56.4291 13.8575 56.4291C10.4475 56.4291 7.17726 55.0745 4.76608 52.6634C2.3549 50.2522 1.00031 46.9819 1.00031 43.572C1.00031 40.1621 2.3549 36.8918 4.76608 34.4806C7.17726 32.0694 10.4475 30.7148 13.8575 30.7148H26.7146Z" stroke="#3E66F3" stroke-linecap="round" stroke-linejoin="round"/>
<path d="M26.7146 26.7139H13.8575C10.4475 26.7139 7.17727 25.3593 4.76608 22.9481C2.3549 20.5369 1.00031 17.2667 1.00031 13.8567C1.00031 10.4468 2.3549 7.17653 4.76608 4.76535C7.17727 2.35417 10.4475 0.999582 13.8575 0.999582C17.2674 0.999582 20.5376 2.35417 22.9488 4.76535C25.36 7.17653 26.7146 10.4468 26.7146 13.8567V26.7139Z" stroke="#3E66F3" stroke-linecap="round" stroke-linejoin="round"/>
<path d="M30.7146 26.7148V13.8577C30.7146 10.4478 32.0692 7.17751 34.4804 4.76633C36.8916 2.35515 40.1618 1.00056 43.5717 1.00056C46.9817 1.00056 50.2519 2.35515 52.6631 4.76633C55.0743 7.17751 56.4289 10.4478 56.4289 13.8577C56.4289 17.2676 55.0743 20.5379 52.6631 22.9491C50.2519 25.3603 46.9817 26.7148 43.5717 26.7148H30.7146Z" stroke="#3E66F3" stroke-linecap="round" stroke-linejoin="round"/>
<path d="M30.7146 30.7148H43.5717C46.9817 30.7148 50.2519 32.0694 52.6631 34.4806C55.0743 36.8918 56.4289 40.1621 56.4289 43.572C56.4289 46.9819 55.0743 50.2522 52.6631 52.6634C50.2519 55.0745 46.9817 56.4291 43.5717 56.4291C40.1618 56.4291 36.8915 55.0745 34.4804 52.6634C32.0692 50.2522 30.7146 46.9819 30.7146 43.572V30.7148Z" stroke="#3E66F3" stroke-linecap="round" stroke-linejoin="round"/>
</svg>
