<svg width="50" height="50" viewBox="0 0 50 50" fill="none" xmlns="http://www.w3.org/2000/svg">
<g clip-path="url(#clip0_1066_570)">
<path d="M48.6739 38.2655L45.9277 35.5193C46.0905 35.2359 46.1787 34.9139 46.1787 34.5778C46.1787 34.0709 45.9814 33.594 45.6229 33.2354L44.7981 32.4107C44.4395 32.0521 43.9627 31.8545 43.4557 31.8545C43.1197 31.8545 42.7981 31.943 42.5143 32.1059L25.9768 15.5685L26.4479 15.0973L27.291 15.9404C27.434 16.0834 27.6213 16.1552 27.8086 16.1552C27.9963 16.1552 28.1836 16.0834 28.3267 15.9404C28.6128 15.6543 28.6128 15.1908 28.3267 14.9047L27.4836 14.0617L28.9225 12.6228L31.0027 14.7033C31.1457 14.8463 31.3334 14.9177 31.5207 14.9177C31.708 14.9177 31.8957 14.8463 32.0387 14.7033C32.3245 14.4172 32.3245 13.9537 32.0387 13.6676L29.9582 11.5871L31.3971 10.1485L32.2402 10.9916C32.3832 11.1346 32.5705 11.206 32.7578 11.206C32.9455 11.206 33.1328 11.1346 33.2758 10.9916C33.562 10.7055 33.562 10.242 33.2758 9.95591L32.4328 9.11286L33.8717 7.67396L34.7147 8.517C34.8578 8.66006 35.0451 8.73177 35.2324 8.73177C35.4201 8.73177 35.6074 8.66006 35.7504 8.517C36.0365 8.2309 36.0365 7.76742 35.7504 7.48132L34.9074 6.63827L36.3463 5.19937L38.4264 7.2799C38.5695 7.42295 38.7572 7.49429 38.9445 7.49429C39.1318 7.49429 39.3195 7.42295 39.4625 7.2799C39.7482 6.9938 39.7482 6.53031 39.4625 6.24421L37.382 4.16368L39.596 1.94963C39.9031 1.64293 40.314 1.47089 40.753 1.46516C41.1856 1.45868 41.593 1.62042 41.8909 1.91835L48.0772 8.10464C48.6906 8.71804 48.6765 9.76899 48.0463 10.3996L36.3253 22.1198C36.0392 22.4055 36.0392 22.8694 36.3253 23.1551C36.4684 23.2982 36.6557 23.3699 36.8433 23.3699C37.0306 23.3699 37.2179 23.2982 37.361 23.1551L49.0816 11.4349C50.294 10.2226 50.3077 8.26371 49.1125 7.06857L42.9263 0.882279C42.3468 0.302827 41.5728 -0.0115037 40.734 0.000321939C39.9104 0.0110031 39.1386 0.335252 38.56 0.913559L24.9411 14.5328L14.5346 4.12629C14.4549 4.04657 14.3576 3.98629 14.2508 3.95005L11.2983 2.95366L3.90958 0.453889C2.95286 0.130021 1.9145 0.372636 1.20001 1.08713C0.506114 1.78102 0.255489 2.79458 0.546169 3.73224L2.91776 11.3822L3.83405 14.3436C3.86838 14.455 3.934 14.5633 4.01639 14.6457L14.4221 25.0514L0.896357 38.5775C-0.298786 39.7727 -0.298786 41.7174 0.896357 42.9126L7.08226 49.0988C7.65943 49.676 8.42961 49.9938 9.25015 49.9938C10.0707 49.9938 10.8405 49.676 11.4177 49.0988L23.0448 37.4717C23.3309 37.1856 23.3309 36.7217 23.0448 36.436C22.7587 36.1499 22.2953 36.1499 22.0092 36.436L10.382 48.0632C10.0814 48.3638 9.67969 48.5289 9.25015 48.5289C8.82062 48.5289 8.41855 48.3634 8.11833 48.0632L1.93205 41.8769C1.30796 41.2528 1.30796 40.2373 1.93205 39.6132L4.17737 37.3679L6.25753 39.4481C6.40058 39.5911 6.58826 39.6628 6.77556 39.6628C6.96286 39.6628 7.15055 39.5911 7.2936 39.4481C7.57932 39.1623 7.57932 38.6985 7.2936 38.4124L5.21306 36.3322L6.65197 34.8933L7.49501 35.7364C7.63806 35.8794 7.82536 35.9507 8.01267 35.9507C8.20035 35.9507 8.38765 35.8794 8.5307 35.7364C8.8168 35.4503 8.8168 34.9868 8.5307 34.7007L7.68765 33.8576L9.12656 32.4187L9.9696 33.2618C10.1127 33.4048 10.3 33.4765 10.4873 33.4765C10.6749 33.4765 10.8622 33.4048 11.0053 33.2618C11.2914 32.976 11.2914 32.5122 11.0053 32.2265L10.1619 31.383L11.6008 29.9441L13.6813 32.0247C13.8243 32.1673 14.0117 32.239 14.199 32.239C14.3866 32.239 14.5739 32.1677 14.717 32.0247C15.0031 31.7386 15.0031 31.2747 14.717 30.989L12.6365 28.9084L14.0754 27.4699L14.9184 28.313C15.0615 28.4556 15.2491 28.5274 15.4364 28.5274C15.6237 28.5274 15.811 28.456 15.9541 28.313C16.2402 28.0269 16.2402 27.563 15.9541 27.2773L15.111 26.4342L15.4578 26.0871L31.996 42.6253C31.5821 43.3501 31.6821 44.2908 32.3004 44.9088L33.1248 45.7331C33.4834 46.0917 33.9602 46.2893 34.4672 46.2893C34.8032 46.2893 35.1248 46.2008 35.409 46.0383L38.1552 48.7845C38.7526 49.3819 39.5373 49.6806 40.322 49.6806C41.107 49.6806 41.8917 49.3819 42.4891 48.7845L48.6739 42.5998C49.251 42.0226 49.5688 41.2532 49.5688 40.4326C49.5688 39.6125 49.251 38.8427 48.6739 38.2655ZM6.17246 14.7304L8.08553 14.5728L34.0182 40.5059L32.9829 41.5408L6.17246 14.7304ZM4.2983 10.889C4.2983 10.8886 4.2983 10.8886 4.29792 10.8882L3.0467 6.85227C4.34446 6.51963 6.31475 5.41795 6.78968 2.97426L10.8241 4.33953L13.2579 5.16274L13.0248 9.29558C12.9149 11.2441 11.3658 12.8337 9.42105 12.9935L5.06162 13.3521L4.31203 10.934L4.2983 10.889ZM41.4305 33.0935L40.4395 34.0846L14.5537 8.19924L14.6598 6.32279L41.4305 33.0935ZM14.3946 10.1115L39.4034 35.1203L35.0539 39.4702L9.98143 14.3977C12.1981 14.0289 13.964 12.2985 14.3946 10.1115ZM2.2357 2.12244C2.46038 1.89813 2.75678 1.77835 3.06158 1.77835C3.18784 1.77835 3.31564 1.79895 3.44038 1.84129L5.38625 2.49971C5.38549 2.50352 5.38434 2.50734 5.38396 2.51115C5.06696 4.6676 3.24163 5.29473 2.61144 5.44808L1.94502 3.2985C1.8157 2.88194 1.92709 2.43104 2.2357 2.12244ZM34.1605 44.6975L33.3357 43.8731C33.1667 43.7041 33.1667 43.4287 33.3357 43.2593L43.149 33.4464C43.2307 33.3644 43.3398 33.3194 43.4557 33.3194C43.5717 33.3194 43.6804 33.3644 43.7624 33.4464L44.5872 34.2711C44.6692 34.3532 44.7142 34.4619 44.7142 34.5778C44.7142 34.6938 44.6692 34.8029 44.5872 34.8845C44.5872 34.8845 44.4224 35.0493 44.422 35.0497L34.7739 44.6978C34.6922 44.7795 34.5831 44.8249 34.4672 44.8249C34.3512 44.8249 34.2425 44.7795 34.1605 44.6975ZM47.6382 41.5641L41.4534 47.7488C40.8297 48.3725 39.8146 48.3725 39.1905 47.7488L36.4924 45.0503L44.94 36.6031L47.6382 39.3012C47.9384 39.6014 48.1039 40.0035 48.1039 40.4326C48.1039 40.8618 47.9388 41.2635 47.6382 41.5641Z" fill="#5E917E"/>
</g>
<defs>
<clipPath id="clip0_1066_570">
<rect width="50" height="50" fill="white"/>
</clipPath>
</defs>
</svg>
