<svg width="60" height="60" viewBox="0 0 60 60" fill="none" xmlns="http://www.w3.org/2000/svg">
<path opacity="0.5" d="M30 60C46.5685 60 60 46.5685 60 30C60 13.4315 46.5685 0 30 0C13.4315 0 0 13.4315 0 30C0 46.5685 13.4315 60 30 60Z" fill="url(#paint0_linear_724_781)"/>
<path fill-rule="evenodd" clip-rule="evenodd" d="M53.6765 17.0552V41.4977C53.6765 41.8985 53.3454 42.2254 52.9396 42.2254H48.3751C47.9693 42.2254 47.6383 41.8985 47.6383 41.4977V17.0552H45.7093C45.365 17.0552 45.1867 16.65 45.4216 16.4014L50.1899 11.3559C50.4429 11.0883 50.8719 11.0883 51.1249 11.3559L55.8932 16.4014C56.1283 16.65 55.9499 17.0552 55.6055 17.0552H53.6765ZM22.9038 33.941C22.7397 33.1287 22.4163 32.3733 21.9666 31.708L22.8484 30.837L21.0917 29.1021L20.2099 29.9731C19.5361 29.5291 18.7712 29.2094 17.9487 29.0474V27.8164H15.4643V29.0474C14.6419 29.2095 13.8768 29.5289 13.2031 29.973L12.3214 29.1021L10.5646 30.837L11.4464 31.7079C10.9968 32.3733 10.6731 33.1286 10.5091 33.941H9.26273V36.3946H10.5091C10.6731 37.2069 10.9967 37.9624 11.4463 38.6278L10.5645 39.4986L12.3213 41.2335L13.203 40.3627C13.8767 40.8067 14.6417 41.1262 15.4642 41.2883V42.5192H17.9486V41.2882C18.7711 41.1262 19.5362 40.8068 20.2098 40.3627L21.0916 41.2335L22.8483 39.4986L21.9665 38.6278C22.4161 37.9623 22.7397 37.207 22.9037 36.3947H24.1503V33.9411H22.9038V33.941ZM16.7065 38.9906C14.5687 38.9906 12.8357 37.2791 12.8357 35.1678C12.8357 33.0566 14.5687 31.3452 16.7065 31.3452C18.8443 31.3452 20.5772 33.0567 20.5772 35.1678C20.5772 37.2791 18.8443 38.9906 16.7065 38.9906ZM45.3219 7.04416L40.0612 6.01553C39.6052 5.92768 39.1633 6.22146 39.0744 6.67169C38.9853 7.12203 39.2828 7.55843 39.7388 7.64627L42.8035 8.24558L17.4167 22.7205C17.1816 22.7076 16.9448 22.7007 16.7064 22.7007C9.68883 22.7007 4 28.3189 4 35.2492C4 42.1796 9.68883 47.7978 16.7064 47.7978C19.6685 47.7978 22.3939 46.7968 24.5546 45.1187L27.0679 47.6007L26.2432 48.415L28.0915 50.2404L31.8862 46.4929L30.0378 44.6676L29.2131 45.4819L26.7 43C28.3992 40.8661 29.4129 38.1746 29.4129 35.2492C29.4129 29.4594 25.4421 24.5863 20.0435 23.1388L43.6447 9.68203L42.6365 12.6069C42.4875 13.0411 42.7232 13.5124 43.1628 13.6595C43.6025 13.8066 44.0796 13.5739 44.2286 13.1397L45.9443 8.16241C46.1341 7.68172 45.8394 7.14386 45.3219 7.04416ZM26.6274 35.2492C26.6274 40.6604 22.1858 45.047 16.7065 45.047C11.2273 45.047 6.78547 40.6604 6.78547 35.2492C6.78547 29.838 11.2273 25.4514 16.7065 25.4514C22.1858 25.4514 26.6274 29.8381 26.6274 35.2492ZM29.2823 51.4164L33.0769 47.6689L38.9607 53.4796C40.0042 54.5101 40.0042 56.1966 38.9607 57.2271C37.9172 58.2576 36.2095 58.2576 35.1661 57.2271L29.2823 51.4164ZM28.1091 26.5803H31.8506C32.2564 26.5803 32.5874 26.9072 32.5874 27.308V41.4976C32.5874 41.8984 32.2564 42.2253 31.8506 42.2253H29.2458C30.424 40.1643 31.0972 37.7846 31.0972 35.2492C31.0971 31.9857 29.9822 28.9796 28.1091 26.5803ZM37.8305 21.1213H42.3951C42.8009 21.1213 43.132 21.4482 43.132 21.849V41.4977C43.132 41.8985 42.801 42.2254 42.3951 42.2254H37.8305C37.4247 42.2254 37.0936 41.8985 37.0936 41.4977V21.849C37.0938 21.4482 37.4247 21.1213 37.8305 21.1213Z" fill="#3E66F3"/>
<defs>
<linearGradient id="paint0_linear_724_781" x1="30" y1="60" x2="30" y2="0" gradientUnits="userSpaceOnUse">
<stop stop-color="white" stop-opacity="0"/>
<stop offset="1" stop-color="#486FFA"/>
</linearGradient>
</defs>
</svg>
