<svg width="60" height="54" viewBox="0 0 60 54" fill="none" xmlns="http://www.w3.org/2000/svg">
<path d="M53.055 43.0386C53.055 31.5102 59.0267 23.5936 59.0267 18.0386C59.0267 12.4836 55.8333 0.816895 30.2783 0.816895C4.72335 0.816895 0.97168 16.5119 0.97168 22.6219C0.97168 51.2336 53.055 63.4552 53.055 43.0386Z" fill="url(#paint0_linear_724_773)"/>
<path d="M19.9512 10.8682L22.3082 8.51114L23.4867 9.68965L21.1297 12.0467L19.9512 10.8682Z" fill="#3E66F3"/>
<path d="M13.1743 17.6436L15.5313 15.2865L16.7099 16.465L14.3528 18.8221L13.1743 17.6436Z" fill="#3E66F3"/>
<path d="M13.4702 9.69238L14.6487 8.51387L17.0057 10.8709L15.8272 12.0494L13.4702 9.69238Z" fill="#3E66F3"/>
<path d="M43.1501 20.8001L22.1835 41.7834L15.2168 34.8168L36.2001 13.8501L43.1501 20.8001Z" fill="#C5C6CF"/>
<path d="M48.7502 13.1667C48.7502 14.4333 48.2669 15.7 47.3002 16.65L43.1502 20.8L36.2002 13.85L40.3502 9.7C42.2669 7.76667 45.3835 7.76667 47.3002 9.7C48.2669 10.6667 48.7502 11.9167 48.7502 13.1667Z" fill="#5D82FF"/>
<path d="M22.1833 41.7836L11.25 45.7502L15.2167 34.8169L22.1833 41.7836Z" fill="#5D82FF"/>
<path d="M39.1668 45.7502C44.4596 45.7502 48.7502 41.4596 48.7502 36.1668C48.7502 30.8741 44.4596 26.5835 39.1668 26.5835C33.8741 26.5835 29.5835 30.8741 29.5835 36.1668C29.5835 41.4596 33.8741 45.7502 39.1668 45.7502Z" fill="#5E82FF"/>
<path d="M39.9502 13.8498L44.1002 9.6998C44.5719 9.22313 45.1185 8.86646 45.7002 8.62479C43.9202 7.88479 41.7952 8.24146 40.3502 9.6998L36.2002 13.8498L43.1502 20.7998L45.0252 18.9248L39.9502 13.8498Z" fill="#1C3EB7"/>
<path d="M17.9683 37.5686L15.2167 34.8169L11.25 45.7502L15.5683 44.1836L17.9683 37.5686Z" fill="#1C3EB7"/>
<path d="M33.3335 36.1668C33.3335 31.5168 36.6468 27.6418 41.0418 26.7702C40.4352 26.6502 39.8085 26.5835 39.1668 26.5835C33.8735 26.5835 29.5835 30.8735 29.5835 36.1668C29.5835 41.4602 33.8735 45.7502 39.1668 45.7502C39.8085 45.7502 40.4352 45.6852 41.0418 45.5635C36.6468 44.6918 33.3335 40.8168 33.3335 36.1668Z" fill="#1C3EB7"/>
<path d="M18.9668 34.8168L38.0751 15.7251L36.2001 13.8501L15.2168 34.8168L22.1835 41.7834L24.0585 39.9084L18.9668 34.8168Z" fill="#D5DBE1"/>
<path d="M39.1668 47.0002C33.1935 47.0002 28.3335 42.1402 28.3335 36.1668C28.3335 30.1935 33.1935 25.3335 39.1668 25.3335C45.1402 25.3335 50.0002 30.1935 50.0002 36.1668C50.0002 42.1402 45.1402 47.0002 39.1668 47.0002ZM39.1668 27.8335C34.5718 27.8335 30.8335 31.5718 30.8335 36.1668C30.8335 40.7618 34.5718 44.5002 39.1668 44.5002C43.7618 44.5002 47.5002 40.7618 47.5002 36.1668C47.5002 31.5718 43.7618 27.8335 39.1668 27.8335Z" fill="#3E66F3"/>
<path d="M37.9165 31.5835H40.4165V40.7502H37.9165V31.5835Z" fill="white"/>
<path d="M34.5835 34.9165H43.7502V37.4165H34.5835V34.9165Z" fill="white"/>
<path d="M35.3403 14.7681L37.1081 13.0003L43.9989 19.8911L42.2311 21.6588L35.3403 14.7681Z" fill="#C5C6CF"/>
<path d="M11.2502 47.0002C10.9252 47.0002 10.6052 46.8735 10.3668 46.6335C10.0235 46.2902 9.91016 45.7785 10.0752 45.3235L14.0418 34.3902C14.1052 34.2169 14.2035 34.0619 14.3335 33.9335L39.4668 8.81687C41.7868 6.47687 45.8602 6.47354 48.1885 8.8202C49.3552 9.98853 50.0002 11.5335 50.0002 13.1669C50.0002 14.8319 49.3518 16.3852 48.1768 17.5419L42.9518 22.7669L41.1835 20.9985L46.4168 15.7652C47.1185 15.0752 47.5002 14.1535 47.5002 13.1652C47.5002 12.1985 47.1152 11.2819 46.4168 10.5819C45.0285 9.18187 42.6185 9.1852 41.2385 10.5785L16.2968 35.5052L13.3368 43.6652L21.4968 40.7052L24.0002 38.2002L25.7685 39.9685L23.0685 42.6685C22.9385 42.7985 22.7835 42.8985 22.6118 42.9602L11.6785 46.9269C11.5368 46.9752 11.3935 47.0002 11.2502 47.0002Z" fill="#3E66F3"/>
<path d="M14.3257 35.7051L16.0935 33.9373L23.0573 40.9011L21.2895 42.6689L14.3257 35.7051Z" fill="#C5C6CF"/>
<defs>
<linearGradient id="paint0_linear_724_773" x1="30" y1="-12" x2="30" y2="49" gradientUnits="userSpaceOnUse">
<stop stop-color="#486FFB"/>
<stop offset="1" stop-color="white" stop-opacity="0"/>
</linearGradient>
</defs>
</svg>
