<svg width="60" height="60" viewBox="0 0 60 60" fill="none" xmlns="http://www.w3.org/2000/svg">
<path opacity="0.5" d="M30 60C46.5685 60 60 46.5685 60 30C60 13.4315 46.5685 0 30 0C13.4315 0 0 13.4315 0 30C0 46.5685 13.4315 60 30 60Z" fill="url(#paint0_linear_724_730)"/>
<path d="M44.0625 30.9375H41.25C41.0014 30.9375 40.7629 30.8387 40.5871 30.6629C40.4113 30.4871 40.3125 30.2486 40.3125 30C40.3125 29.7514 40.4113 29.5129 40.5871 29.3371C40.7629 29.1613 41.0014 29.0625 41.25 29.0625H44.0625C46.0516 29.0625 47.9593 28.2723 49.3658 26.8658C50.7723 25.4593 51.5625 23.5516 51.5625 21.5625C51.5625 19.5734 50.7723 17.6657 49.3658 16.2592C47.9593 14.8527 46.0516 14.0625 44.0625 14.0625H37.5C37.2514 14.0625 37.0129 13.9637 36.8371 13.7879C36.6613 13.6121 36.5625 13.3736 36.5625 13.125C36.5625 12.8764 36.6613 12.6379 36.8371 12.4621C37.0129 12.2863 37.2514 12.1875 37.5 12.1875H44.0625C46.5489 12.1875 48.9335 13.1752 50.6916 14.9334C52.4498 16.6915 53.4375 19.0761 53.4375 21.5625C53.4375 24.0489 52.4498 26.4335 50.6916 28.1916C48.9335 29.9498 46.5489 30.9375 44.0625 30.9375Z" fill="#3E66F3"/>
<path d="M43.5938 33.2812C43.0688 33.2812 43.0876 33.1593 40.5844 30.6656C40.4966 30.5784 40.4268 30.4747 40.3792 30.3605C40.3316 30.2462 40.3071 30.1237 40.3071 29.9999C40.3071 29.8762 40.3316 29.7536 40.3792 29.6394C40.4268 29.5251 40.4966 29.4215 40.5844 29.3343L42.9282 26.9906C43.1047 26.814 43.3442 26.7148 43.5938 26.7148C43.8435 26.7148 44.0829 26.814 44.2594 26.9906C44.436 27.1671 44.5352 27.4065 44.5352 27.6562C44.5352 27.9058 44.436 28.1453 44.2594 28.3218L42.5719 29.9999L44.2594 31.6781C44.3917 31.8092 44.4818 31.9767 44.5185 32.1593C44.5551 32.3419 44.5365 32.5312 44.4651 32.7032C44.3937 32.8752 44.2727 33.022 44.1175 33.1249C43.9623 33.2279 43.78 33.2823 43.5938 33.2812Z" fill="#3E66F3"/>
<path d="M18.7502 47.8123C15.5439 47.8123 12.3939 48.1685 9.30957 45.056C7.90916 43.6545 6.98879 41.8453 6.68056 39.8881C6.37233 37.9309 6.69209 35.9264 7.59394 34.1623C7.70832 33.941 7.90591 33.7742 8.14326 33.6986C8.38061 33.623 8.63828 33.6448 8.85957 33.7592C9.08086 33.8735 9.24765 34.0711 9.32325 34.3085C9.39885 34.5458 9.37707 34.8035 9.26269 35.0248C8.54206 36.4351 8.28636 38.0373 8.53224 39.6018C8.77812 41.1664 9.51296 42.6129 10.6314 43.7342C13.1252 46.2748 15.7971 45.9373 18.7502 45.9373C18.9988 45.9373 19.2373 46.0361 19.4131 46.2119C19.5889 46.3877 19.6877 46.6261 19.6877 46.8748C19.6877 47.1234 19.5889 47.3619 19.4131 47.5377C19.2373 47.7135 18.9988 47.8123 18.7502 47.8123Z" fill="#3E66F3"/>
<path d="M9.37496 31.7624C12.7781 28.3874 16.35 29.0624 22.5 29.0624C22.7486 29.0624 22.9871 29.1612 23.1629 29.337C23.3387 29.5128 23.4375 29.7513 23.4375 29.9999C23.4375 30.2486 23.3387 30.487 23.1629 30.6628C22.9871 30.8387 22.7486 30.9374 22.5 30.9374C16.1625 30.9374 13.4343 30.3749 10.6781 33.0937C10.4964 33.235 10.269 33.3045 10.0393 33.289C9.80958 33.2735 9.59363 33.174 9.43259 33.0094C9.27154 32.8449 9.17667 32.6269 9.16604 32.3969C9.15541 32.1669 9.22978 31.9411 9.37496 31.7624Z" fill="#3E66F3"/>
<path d="M16.4063 50.1562C16.2201 50.1573 16.0378 50.1029 15.8826 49.9999C15.7275 49.897 15.6065 49.7502 15.535 49.5782C15.4636 49.4062 15.4451 49.2169 15.4817 49.0343C15.5183 48.8517 15.6085 48.6842 15.7407 48.5531L17.4282 46.8749L15.7407 45.1968C15.6533 45.1094 15.584 45.0056 15.5367 44.8914C15.4893 44.7772 15.465 44.6548 15.465 44.5312C15.465 44.4076 15.4893 44.2852 15.5367 44.1709C15.584 44.0567 15.6533 43.953 15.7407 43.8656C15.8281 43.7781 15.9319 43.7088 16.0461 43.6615C16.1603 43.6142 16.2827 43.5898 16.4063 43.5898C16.5299 43.5898 16.6524 43.6142 16.7666 43.6615C16.8808 43.7088 16.9845 43.7781 17.072 43.8656L19.4157 46.2093C19.5036 46.2965 19.5733 46.4001 19.6209 46.5144C19.6685 46.6286 19.693 46.7512 19.693 46.8749C19.693 46.9987 19.6685 47.1212 19.6209 47.2355C19.5733 47.3497 19.5036 47.4534 19.4157 47.5406C16.8751 50.0718 16.922 50.1562 16.4063 50.1562Z" fill="#3E66F3"/>
<path d="M16.4063 16.4062C16.2201 16.4073 16.0378 16.3529 15.8826 16.2499C15.7275 16.147 15.6065 16.0002 15.535 15.8282C15.4636 15.6562 15.4451 15.4669 15.4817 15.2843C15.5183 15.1017 15.6085 14.9342 15.7407 14.8031L17.4282 13.1249L15.7407 11.4468C15.6533 11.3594 15.584 11.2556 15.5367 11.1414C15.4893 11.0272 15.465 10.9048 15.465 10.7812C15.465 10.5315 15.5642 10.2921 15.7407 10.1156C15.9172 9.93902 16.1567 9.83984 16.4063 9.83984C16.5299 9.83984 16.6524 9.86419 16.7666 9.9115C16.8808 9.9588 16.9845 10.0281 17.072 10.1156L19.4157 12.4593C19.5036 12.5465 19.5733 12.6501 19.6209 12.7644C19.6685 12.8786 19.693 13.0012 19.693 13.1249C19.693 13.2487 19.6685 13.3712 19.6209 13.4855C19.5733 13.5997 19.5036 13.7034 19.4157 13.7906C16.8751 16.3218 16.922 16.4062 16.4063 16.4062Z" fill="#3E66F3"/>
<path d="M18.75 14.0625H7.5C7.25136 14.0625 7.0129 13.9637 6.83709 13.7879C6.66127 13.6121 6.5625 13.3736 6.5625 13.125C6.5625 12.8764 6.66127 12.6379 6.83709 12.4621C7.0129 12.2863 7.25136 12.1875 7.5 12.1875H18.75C18.9986 12.1875 19.2371 12.2863 19.4129 12.4621C19.5887 12.6379 19.6875 12.8764 19.6875 13.125C19.6875 13.3736 19.5887 13.6121 19.4129 13.7879C19.2371 13.9637 18.9986 14.0625 18.75 14.0625Z" fill="#3E66F3"/>
<path d="M35.625 24.375H24.375C23.3395 24.375 22.5 25.2145 22.5 26.25V33.75C22.5 34.7855 23.3395 35.625 24.375 35.625H35.625C36.6605 35.625 37.5 34.7855 37.5 33.75V26.25C37.5 25.2145 36.6605 24.375 35.625 24.375Z" fill="#C5C6CF"/>
<path d="M35.625 41.25H24.375C23.3395 41.25 22.5 42.0895 22.5 43.125V50.625C22.5 51.6605 23.3395 52.5 24.375 52.5H35.625C36.6605 52.5 37.5 51.6605 37.5 50.625V43.125C37.5 42.0895 36.6605 41.25 35.625 41.25Z" fill="#C5C6CF"/>
<path d="M35.625 7.5H24.375C23.3395 7.5 22.5 8.33947 22.5 9.375V16.875C22.5 17.9105 23.3395 18.75 24.375 18.75H35.625C36.6605 18.75 37.5 17.9105 37.5 16.875V9.375C37.5 8.33947 36.6605 7.5 35.625 7.5Z" fill="#C5C6CF"/>
<path d="M35.625 36.5626H24.375C23.6291 36.5626 22.9137 36.2663 22.3863 35.7388C21.8588 35.2114 21.5625 34.496 21.5625 33.7501V26.2501C21.5625 25.5042 21.8588 24.7888 22.3863 24.2614C22.9137 23.7339 23.6291 23.4376 24.375 23.4376H31.875C32.1236 23.4376 32.3621 23.5364 32.5379 23.7122C32.7137 23.888 32.8125 24.1265 32.8125 24.3751C32.8125 24.6238 32.7137 24.8622 32.5379 25.038C32.3621 25.2138 32.1236 25.3126 31.875 25.3126H24.375C24.1264 25.3126 23.8879 25.4114 23.7121 25.5872C23.5363 25.763 23.4375 26.0015 23.4375 26.2501V33.7501C23.4375 33.9988 23.5363 34.2372 23.7121 34.413C23.8879 34.5888 24.1264 34.6876 24.375 34.6876H35.625C35.8736 34.6876 36.1121 34.5888 36.2879 34.413C36.4637 34.2372 36.5625 33.9988 36.5625 33.7501V26.2501C36.5625 26.0015 36.4637 25.763 36.2879 25.5872C36.1121 25.4114 35.8736 25.3126 35.625 25.3126C35.3764 25.3126 35.1379 25.2138 34.9621 25.038C34.7863 24.8622 34.6875 24.6238 34.6875 24.3751C34.6875 22.5845 38.4375 23.4376 38.4375 26.2501V33.7501C38.4375 34.496 38.1412 35.2114 37.6137 35.7388C37.0863 36.2663 36.3709 36.5626 35.625 36.5626Z" fill="#3E66F3"/>
<path d="M35.625 53.4375H33.75C33.5014 53.4375 33.2629 53.3387 33.0871 53.1629C32.9113 52.9871 32.8125 52.7486 32.8125 52.5C32.8125 52.2514 32.9113 52.0129 33.0871 51.8371C33.2629 51.6613 33.5014 51.5625 33.75 51.5625H35.625C35.8736 51.5625 36.1121 51.4637 36.2879 51.2879C36.4637 51.1121 36.5625 50.8736 36.5625 50.625V43.125C36.5625 42.8764 36.4637 42.6379 36.2879 42.4621C36.1121 42.2863 35.8736 42.1875 35.625 42.1875H24.375C24.1264 42.1875 23.8879 42.2863 23.7121 42.4621C23.5363 42.6379 23.4375 42.8764 23.4375 43.125V50.625C23.4375 50.8736 23.5363 51.1121 23.7121 51.2879C23.8879 51.4637 24.1264 51.5625 24.375 51.5625H30C30.2486 51.5625 30.4871 51.6613 30.6629 51.8371C30.8387 52.0129 30.9375 52.2514 30.9375 52.5C30.9375 52.7486 30.8387 52.9871 30.6629 53.1629C30.4871 53.3387 30.2486 53.4375 30 53.4375H24.375C23.6291 53.4375 22.9137 53.1412 22.3863 52.6137C21.8588 52.0863 21.5625 51.3709 21.5625 50.625V43.125C21.5625 42.3791 21.8588 41.6637 22.3863 41.1363C22.9137 40.6088 23.6291 40.3125 24.375 40.3125H35.625C36.3709 40.3125 37.0863 40.6088 37.6137 41.1363C38.1412 41.6637 38.4375 42.3791 38.4375 43.125V50.625C38.4375 51.3709 38.1412 52.0863 37.6137 52.6137C37.0863 53.1412 36.3709 53.4375 35.625 53.4375Z" fill="#3E66F3"/>
<path d="M35.6251 19.6875H24.3751C23.6292 19.6875 22.9138 19.3912 22.3864 18.8637C21.8589 18.3363 21.5626 17.6209 21.5626 16.875V13.125C21.5626 12.8764 21.6614 12.6379 21.8372 12.4621C22.013 12.2863 22.2515 12.1875 22.5001 12.1875C22.7488 12.1875 22.9872 12.2863 23.163 12.4621C23.3388 12.6379 23.4376 12.8764 23.4376 13.125V16.875C23.4376 17.1236 23.5364 17.3621 23.7122 17.5379C23.888 17.7137 24.1265 17.8125 24.3751 17.8125H35.6251C35.8738 17.8125 36.1122 17.7137 36.288 17.5379C36.4638 17.3621 36.5626 17.1236 36.5626 16.875V9.375C36.5626 9.12636 36.4638 8.8879 36.288 8.71209C36.1122 8.53627 35.8738 8.4375 35.6251 8.4375H24.3751C24.1265 8.4375 23.888 8.53627 23.7122 8.71209C23.5364 8.8879 23.4376 9.12636 23.4376 9.375C23.4376 9.62364 23.3388 9.8621 23.163 10.0379C22.9872 10.2137 22.7488 10.3125 22.5001 10.3125C20.7095 10.3125 21.5626 6.5625 24.3751 6.5625H35.6251C36.371 6.5625 37.0864 6.85882 37.6138 7.38626C38.1413 7.91371 38.4376 8.62908 38.4376 9.375V16.875C38.4376 17.6209 38.1413 18.3363 37.6138 18.8637C37.0864 19.3912 36.371 19.6875 35.6251 19.6875Z" fill="#3E66F3"/>
<path d="M33.75 12.1875H30C29.7514 12.1875 29.5129 12.0887 29.3371 11.9129C29.1613 11.7371 29.0625 11.4986 29.0625 11.25C29.0625 11.0014 29.1613 10.7629 29.3371 10.5871C29.5129 10.4113 29.7514 10.3125 30 10.3125H33.75C33.9986 10.3125 34.2371 10.4113 34.4129 10.5871C34.5887 10.7629 34.6875 11.0014 34.6875 11.25C34.6875 11.4986 34.5887 11.7371 34.4129 11.9129C34.2371 12.0887 33.9986 12.1875 33.75 12.1875Z" fill="white"/>
<path d="M27.1875 11.25C27.1875 11.4986 27.0887 11.7371 26.9129 11.9129C26.7371 12.0887 26.4986 12.1875 26.25 12.1875C26.0014 12.1875 25.7629 12.0887 25.5871 11.9129C25.4113 11.7371 25.3125 11.4986 25.3125 11.25C25.3125 11.0014 25.4113 10.7629 25.5871 10.5871C25.7629 10.4113 26.0014 10.3125 26.25 10.3125C26.4986 10.3125 26.7371 10.4113 26.9129 10.5871C27.0887 10.7629 27.1875 11.0014 27.1875 11.25Z" fill="white"/>
<path d="M33.75 29.0625H30C29.7514 29.0625 29.5129 28.9637 29.3371 28.7879C29.1613 28.6121 29.0625 28.3736 29.0625 28.125C29.0625 27.8764 29.1613 27.6379 29.3371 27.4621C29.5129 27.2863 29.7514 27.1875 30 27.1875H33.75C33.9986 27.1875 34.2371 27.2863 34.4129 27.4621C34.5887 27.6379 34.6875 27.8764 34.6875 28.125C34.6875 28.3736 34.5887 28.6121 34.4129 28.7879C34.2371 28.9637 33.9986 29.0625 33.75 29.0625Z" fill="white"/>
<path d="M27.1875 28.125C27.1875 28.3736 27.0887 28.6121 26.9129 28.7879C26.7371 28.9637 26.4986 29.0625 26.25 29.0625C26.0014 29.0625 25.7629 28.9637 25.5871 28.7879C25.4113 28.6121 25.3125 28.3736 25.3125 28.125C25.3125 27.8764 25.4113 27.6379 25.5871 27.4621C25.7629 27.2863 26.0014 27.1875 26.25 27.1875C26.4986 27.1875 26.7371 27.2863 26.9129 27.4621C27.0887 27.6379 27.1875 27.8764 27.1875 28.125Z" fill="white"/>
<path d="M29.0626 49.9217C28.5376 49.9217 28.5563 49.7998 26.0532 47.3061C25.8717 47.1295 25.7678 46.8881 25.7643 46.635C25.7607 46.3818 25.8579 46.1376 26.0345 45.9561C26.211 45.7746 26.4524 45.6706 26.7056 45.6671C26.9588 45.6636 27.203 45.7608 27.3845 45.9373L29.0626 47.6623L32.6157 44.0623C32.7031 43.9749 32.8069 43.9056 32.9211 43.8583C33.0353 43.811 33.1577 43.7866 33.2813 43.7866C33.405 43.7866 33.5274 43.811 33.6416 43.8583C33.7558 43.9056 33.8596 43.9749 33.947 44.0623C34.0344 44.1497 34.1037 44.2535 34.151 44.3677C34.1983 44.4819 34.2227 44.6043 34.2227 44.728C34.2227 44.8516 34.1983 44.974 34.151 45.0882C34.1037 45.2024 34.0344 45.3062 33.947 45.3936C29.6157 49.753 29.6157 49.9217 29.0626 49.9217Z" fill="white"/>
<path d="M33.75 15.9375H26.25C26.0014 15.9375 25.7629 15.8387 25.5871 15.6629C25.4113 15.4871 25.3125 15.2486 25.3125 15C25.3125 14.7514 25.4113 14.5129 25.5871 14.3371C25.7629 14.1613 26.0014 14.0625 26.25 14.0625H33.75C33.9986 14.0625 34.2371 14.1613 34.4129 14.3371C34.5887 14.5129 34.6875 14.7514 34.6875 15C34.6875 15.2486 34.5887 15.4871 34.4129 15.6629C34.2371 15.8387 33.9986 15.9375 33.75 15.9375Z" fill="white"/>
<path d="M33.75 32.8125H26.25C26.0014 32.8125 25.7629 32.7137 25.5871 32.5379C25.4113 32.3621 25.3125 32.1236 25.3125 31.875C25.3125 31.6264 25.4113 31.3879 25.5871 31.2121C25.7629 31.0363 26.0014 30.9375 26.25 30.9375H33.75C33.9986 30.9375 34.2371 31.0363 34.4129 31.2121C34.5887 31.3879 34.6875 31.6264 34.6875 31.875C34.6875 32.1236 34.5887 32.3621 34.4129 32.5379C34.2371 32.7137 33.9986 32.8125 33.75 32.8125Z" fill="white"/>
<defs>
<linearGradient id="paint0_linear_724_730" x1="30" y1="60" x2="30" y2="0" gradientUnits="userSpaceOnUse">
<stop stop-color="white" stop-opacity="0"/>
<stop offset="1" stop-color="#486FFA"/>
</linearGradient>
</defs>
</svg>
