<svg width="67" height="60" viewBox="0 0 67 60" fill="none" xmlns="http://www.w3.org/2000/svg">
<path d="M59.6754 48.3763C59.6754 35.1675 66.5176 26.0968 66.5176 19.732C66.5176 13.3673 62.8588 0 33.5787 0C4.29854 0 0 17.9828 0 24.9835C0 57.7658 59.6754 71.769 59.6754 48.3763Z" fill="url(#paint0_linear_3186_553)"/>
<path d="M24.862 47.8766C24.862 49.0444 23.9065 49.9998 22.7388 49.9998H13.963C12.7953 49.9998 11.8398 49.0444 11.8398 47.8766V38.2516C11.8398 37.0838 12.7953 36.1284 13.963 36.1284H22.7388C23.9065 36.1284 24.862 37.0838 24.862 38.2516V47.8766Z" fill="#3E66F3"/>
<path d="M40.467 47.877C40.467 49.0448 39.5115 50.0002 38.3438 50.0002H29.568C28.4003 50.0002 27.4448 49.0448 27.4448 47.877V33.1564C27.4448 31.9886 28.4003 31.0332 29.568 31.0332H38.3438C39.5115 31.0332 40.467 31.9886 40.467 33.1564V47.877Z" fill="#3E66F3"/>
<path d="M56.0724 47.8767C56.0724 49.0445 55.117 49.9999 53.9493 49.9999H45.1735C44.0057 49.9999 43.0503 49.0445 43.0503 47.8767V27.4943C43.0503 26.3265 44.0057 25.3711 45.1735 25.3711H53.9493C55.117 25.3711 56.0724 26.3265 56.0724 27.4943V47.8767Z" fill="#3E66F3"/>
<path d="M54.236 10.0396L44.6994 12.3598C43.9427 12.543 43.7741 13.1433 44.3246 13.6937L46.3596 15.6812C46.5304 15.8759 46.3277 16.135 46.1669 16.2447C44.8855 17.1194 42.8519 18.4029 40.041 19.8695C24.7379 27.8536 12.123 27.3639 11.9333 27.3552C10.9207 27.3038 10.0548 28.0839 10.0025 29.0982C9.95025 30.1131 10.7304 30.9783 11.7453 31.0306C11.8199 31.0344 12.1232 31.0481 12.6332 31.0481C15.9039 31.0481 27.6527 30.4838 41.7434 23.1324C45.0774 21.3929 47.3883 19.8927 48.7377 18.9429C48.9285 18.8086 49.2609 18.577 49.5678 18.8894L51.7936 21.1151C52.3441 21.6655 52.9414 21.4961 53.1214 20.7387L55.285 11.0838C55.4647 10.3262 54.9925 9.85645 54.236 10.0396Z" fill="#1C3EB7"/>
<defs>
<linearGradient id="paint0_linear_3186_553" x1="33.2597" y1="-14.6852" x2="33.2597" y2="55.2067" gradientUnits="userSpaceOnUse">
<stop stop-color="#486FFB"/>
<stop offset="1" stop-color="white" stop-opacity="0"/>
</linearGradient>
</defs>
</svg>
