<svg width="50" height="50" viewBox="0 0 50 50" fill="none" xmlns="http://www.w3.org/2000/svg">
<path d="M45.2952 22.5151H44.8709C44.3331 18.25 42.4543 14.4091 39.6664 11.4318L42.3558 8.74239L46.7194 8.28027C47.0982 8.24239 47.3709 7.90149 47.3331 7.5227C47.2952 7.14391 46.9543 6.87876 46.5755 6.90906L43.9012 7.18936L45.6891 5.40149C45.9543 5.13633 45.9543 4.69694 45.6891 4.43179C45.424 4.16664 44.9846 4.16664 44.7194 4.43179L42.9315 6.21967L43.2119 3.54542C43.2497 3.16664 42.977 2.8333 42.5982 2.78785C42.2194 2.74997 41.8861 3.0227 41.8406 3.40149L41.3785 7.76512L38.6816 10.4621C35.6664 7.65149 31.78 5.75755 27.477 5.24239V4.71209C27.477 3.37118 26.3861 2.28027 25.0452 2.28027H24.9391C23.5982 2.28027 22.5073 3.37118 22.5073 4.71209V5.2727C13.53 6.41664 6.42398 13.5303 5.28761 22.5151H4.70428C3.36337 22.5151 2.27246 23.606 2.27246 24.9469V25.053C2.27246 26.3939 3.36337 27.4848 4.70428 27.4848H5.25731C6.35579 36.5303 13.477 43.6894 22.5149 44.8485V45.2954C22.5149 46.6363 23.6058 47.7272 24.9467 47.7272H25.0528C26.3937 47.7272 27.4846 46.6363 27.4846 45.2954V44.8636C36.5982 43.7651 43.7725 36.5985 44.8785 27.4848H45.2876C46.6285 27.4848 47.7194 26.3939 47.7194 25.053V24.9469C47.727 23.606 46.6361 22.5151 45.2952 22.5151ZM43.4694 22.5151H39.1285C38.6437 19.8182 37.4088 17.3939 35.6437 15.4545L38.6816 12.4166C41.2194 15.1439 42.9391 18.6288 43.4694 22.5151ZM37.3634 27.4848H37.7497C36.7573 32.6818 32.6816 36.7424 27.4846 37.7272V37.356C27.4846 36.0151 26.3937 34.9242 25.0528 34.9242H24.9467C23.6058 34.9242 22.5149 36.0151 22.5149 37.356V37.6969C17.3937 36.6666 13.3785 32.6136 12.3937 27.4772H12.6437C13.9846 27.4772 15.0755 26.3863 15.0755 25.0454V24.9394C15.0755 23.5985 13.9846 22.5075 12.6437 22.5075H12.4164C13.4316 17.4242 17.4391 13.4166 22.5225 12.3863V12.6288C22.5225 13.9697 23.6134 15.0606 24.9543 15.0606H25.0603C26.4013 15.0606 27.4922 13.9697 27.4922 12.6288V12.356C29.8558 12.803 31.9846 13.8939 33.7043 15.4394L30.1588 18.9848C28.78 17.8257 27.0073 17.1288 25.0755 17.1288C20.7119 17.1288 17.1588 20.6818 17.1588 25.0454C17.1588 29.4091 20.7119 32.9621 25.0755 32.9621C29.4391 32.9621 32.9922 29.4091 32.9922 25.0454C32.9922 23.1136 32.2952 21.3333 31.1361 19.9621L34.6815 16.4166C36.1967 18.106 37.28 20.1894 37.7422 22.5075H37.3709C36.03 22.5075 34.9391 23.5985 34.9391 24.9394V25.0454C34.9315 26.3939 36.0225 27.4848 37.3634 27.4848ZM26.6512 25.053C26.6512 25.9242 25.9391 26.6363 25.0679 26.6363C24.1967 26.6363 23.4846 25.9242 23.4846 25.053C23.4846 24.1818 24.1967 23.4697 25.0679 23.4697C25.2497 23.4697 25.424 23.5075 25.5831 23.5606L24.5831 24.5606C24.3179 24.8257 24.3179 25.2651 24.5831 25.5303C24.7194 25.6666 24.8937 25.7348 25.0679 25.7348C25.2422 25.7348 25.4164 25.6666 25.5528 25.5303L26.5528 24.5303C26.6134 24.6969 26.6512 24.8712 26.6512 25.053ZM26.6134 22.5378C26.1664 22.2575 25.6437 22.0909 25.0755 22.0909C23.4467 22.0909 22.1209 23.4166 22.1209 25.0454C22.1209 26.6742 23.4467 28 25.0755 28C26.7043 28 28.03 26.6742 28.03 25.0454C28.03 24.4772 27.8634 23.9545 27.5831 23.5075L30.1512 20.9394C31.0603 22.0606 31.6134 23.4924 31.6134 25.0454C31.6134 28.6515 28.6816 31.5833 25.0755 31.5833C21.4694 31.5833 18.5376 28.6515 18.5376 25.0454C18.5376 21.4394 21.4694 18.5075 25.0755 18.5075C26.6285 18.5075 28.0603 19.053 29.1891 19.9697L26.6134 22.5378ZM37.7119 11.4394L34.674 14.4772C32.7043 12.6818 30.227 11.4394 27.4922 10.9697V6.63633C31.4088 7.14391 34.9467 8.87118 37.7119 11.4394ZM23.8861 4.70452C23.8861 4.12118 24.3634 3.64391 24.9467 3.64391H25.0528C25.6361 3.64391 26.1134 4.12118 26.1134 4.70452V12.6363C26.1134 13.2197 25.6361 13.6969 25.0528 13.6969H24.9467C24.3634 13.6969 23.8861 13.2197 23.8861 12.6363V4.70452ZM22.5149 6.65148V10.9924C16.674 12.053 12.0679 16.6666 11.0149 22.5075H6.67398C7.79519 14.2878 14.2876 7.78785 22.5149 6.65148ZM3.64367 25.053V24.9469C3.64367 24.3636 4.12095 23.8863 4.70428 23.8863H12.6361C13.2194 23.8863 13.6967 24.3636 13.6967 24.9469V25.053C13.6967 25.6363 13.2194 26.1136 12.6361 26.1136H4.70428C4.12095 26.1136 3.64367 25.6363 3.64367 25.053ZM6.65882 27.4848H10.9997C12.0149 33.3788 16.6361 38.0303 22.5149 39.0985V43.4394C14.2422 42.3106 7.74216 35.7651 6.65882 27.4848ZM25.0528 46.356H24.9467C24.3634 46.356 23.8861 45.8788 23.8861 45.2954V44.3182C23.8861 44.3106 23.8937 44.303 23.8937 44.303C23.8937 44.2878 23.8861 44.2727 23.8861 44.25V37.3636C23.8861 36.7803 24.3634 36.303 24.9467 36.303H25.0528C25.6361 36.303 26.1134 36.7803 26.1134 37.3636V44.2803C26.1134 44.2954 26.1058 44.303 26.1134 44.3106V44.3257V45.2954C26.1134 45.8788 25.6361 46.356 25.0528 46.356ZM27.4846 43.4621V39.1212C33.4391 38.106 38.1134 33.4394 39.1437 27.4848H43.4846C42.3937 35.8333 35.8331 42.3788 27.4846 43.4621ZM46.3558 25.053C46.3558 25.6363 45.8785 26.1136 45.2952 26.1136H37.3634C36.78 26.1136 36.3028 25.6363 36.3028 25.053V24.9469C36.3028 24.3636 36.78 23.8863 37.3634 23.8863H45.2952C45.8785 23.8863 46.3558 24.3636 46.3558 24.9469V25.053Z" fill="#5E917E"/>
</svg>
