<svg width="50" height="50" viewBox="0 0 50 50" fill="none" xmlns="http://www.w3.org/2000/svg">
<g clip-path="url(#clip0_1066_629)">
<path d="M26.9795 7.37773C31.0121 7.82783 34.6636 9.58555 37.539 12.4609C38.8409 13.7629 39.9223 15.2412 40.7584 16.8598C40.5574 17.0856 40.3764 17.335 40.2193 17.6067C39.6146 18.6544 39.4538 19.8748 39.7669 21.0433C40.08 22.2117 40.8294 23.1884 41.877 23.7932C42.5748 24.196 43.3492 24.4019 44.134 24.4019C44.5272 24.4019 44.9233 24.3501 45.3134 24.2456C46.4819 23.9325 47.4585 23.1832 48.0634 22.1355C49.3119 19.9729 48.5684 17.1978 46.4057 15.949C45.8569 15.6322 45.2687 15.4442 44.6761 15.3746C43.6161 13.2075 42.208 11.2369 40.4854 9.51436C36.8976 5.92656 32.1439 3.68477 27.1004 3.20176C26.9353 3.18604 26.7727 3.24043 26.6505 3.35146C26.5283 3.4625 26.4586 3.61992 26.4586 3.78506V5.99209C26.4586 6.00996 26.4595 6.02793 26.461 6.0457C26.4822 6.27617 26.4822 6.51045 26.461 6.74189C26.4318 7.05967 26.6624 7.34238 26.9795 7.37773ZM45.8199 16.964C47.423 17.8896 47.9742 19.9466 47.0486 21.5497C46.6003 22.3263 45.8764 22.8817 45.0103 23.1138C44.1443 23.3458 43.2396 23.2268 42.463 22.7783C41.6864 22.33 41.131 21.6062 40.8988 20.7399C40.6668 19.8738 40.7859 18.9692 41.2343 18.1927C41.8553 17.1169 42.986 16.5148 44.1472 16.5148C44.7162 16.5148 45.2926 16.6595 45.8199 16.964ZM27.6306 4.43994C32.1644 5.01855 36.4136 7.09971 39.6569 10.343C41.1596 11.8455 42.4096 13.5467 43.3813 15.4089C42.7747 15.5128 42.1916 15.7398 41.6709 16.0777C40.798 14.4472 39.6893 12.9542 38.3675 11.6323C35.4305 8.69531 31.7339 6.85205 27.6477 6.28076C27.6453 6.17559 27.6396 6.07051 27.6306 5.96611V4.43994ZM49.1797 33.9293C48.9024 33.6521 48.5345 33.4993 48.1435 33.4993H47.362C47.1301 32.6916 46.809 31.9154 46.4034 31.1823L46.9551 30.6306C47.2315 30.3541 47.3839 29.9859 47.3839 29.5938C47.3839 29.2018 47.2315 28.8335 46.9551 28.5571L44.6435 26.2454C44.367 25.9689 43.9987 25.8166 43.6067 25.8166C43.2147 25.8166 42.8465 25.9689 42.5701 26.2453L42.0183 26.7972C41.285 26.3914 40.5087 26.0701 39.7013 25.8384V25.057C39.7013 24.6661 39.5486 24.298 39.2714 24.0208C38.9941 23.7436 38.6261 23.5909 38.2352 23.5909H34.9658C34.5749 23.5909 34.2069 23.7436 33.9297 24.0208C33.6524 24.298 33.4998 24.666 33.4998 25.057V25.838C32.6922 26.0697 31.9159 26.3909 31.1824 26.7968L30.6311 26.2454C30.0594 25.6737 29.1293 25.674 28.5577 26.2454L26.246 28.5571C25.6743 29.1287 25.6743 30.0588 26.246 30.6305L26.7978 31.1823C26.3919 31.9157 26.0707 32.6919 25.839 33.4993H25.0577C24.2493 33.4993 23.5915 34.157 23.5915 34.9654V38.2348C23.5915 39.0432 24.2492 39.7009 25.0577 39.7009H25.8386C26.0702 40.5084 26.3914 41.2847 26.7974 42.0183L26.2459 42.5697C25.6743 43.1414 25.6743 44.0714 26.2459 44.6431L28.5576 46.9548C29.1293 47.5265 30.0595 47.5264 30.631 46.9548L31.1823 46.4034C31.9161 46.8094 32.6924 47.1306 33.4997 47.3623V48.1432C33.4997 48.5342 33.6523 48.9021 33.9296 49.1794C34.2068 49.4566 34.5749 49.6093 34.9658 49.6093H38.2352C38.6261 49.6093 38.994 49.4566 39.2713 49.1794C39.5485 48.9021 39.7012 48.5342 39.7012 48.1432V47.3617C40.5089 47.1298 41.2851 46.8087 42.0182 46.4031L42.5699 46.9549C42.8464 47.2313 43.2146 47.3837 43.6066 47.3837C43.9986 47.3837 44.3669 47.2313 44.6433 46.955L46.955 44.6434C47.2314 44.3669 47.3838 43.9986 47.3838 43.6066C47.3838 43.2146 47.2314 42.8463 46.9551 42.5699L46.4037 42.0186C46.8097 41.2849 47.1309 40.5086 47.3626 39.7012H48.1434C48.5344 39.7012 48.9023 39.5485 49.1796 39.2713C49.4568 38.994 49.6095 38.626 49.6094 38.2351V34.9658C49.6094 34.5749 49.4568 34.2068 49.1796 33.9296L49.1797 33.9293ZM48.4376 38.2349C48.4376 38.34 48.3833 38.41 48.351 38.4424C48.3186 38.4748 48.2485 38.5291 48.1434 38.5291H46.9117C46.6413 38.5291 46.4061 38.7141 46.3424 38.9768C46.0992 39.9783 45.7049 40.9313 45.1702 41.8092C45.0297 42.04 45.0652 42.3371 45.2563 42.5282L46.1265 43.3983C46.2009 43.4728 46.2119 43.5606 46.2119 43.6064C46.2119 43.6522 46.2009 43.7401 46.1265 43.8144L43.8147 46.1262C43.7403 46.2005 43.6524 46.2116 43.6066 46.2116C43.5608 46.2116 43.4729 46.2005 43.3985 46.1262L42.528 45.2557C42.3369 45.0645 42.0399 45.029 41.809 45.1695C40.932 45.7036 39.9792 46.0979 38.9769 46.3414C38.7143 46.4052 38.5293 46.6404 38.5293 46.9107V48.1431C38.5293 48.2482 38.475 48.3183 38.4426 48.3506C38.4103 48.383 38.3402 48.4372 38.235 48.4372H34.9656C34.8605 48.4372 34.7904 48.3829 34.7581 48.3506C34.7257 48.3182 34.6714 48.2482 34.6714 48.1431V46.9114C34.6714 46.641 34.4863 46.4059 34.2237 46.342C33.2222 46.0988 32.2691 45.7045 31.3911 45.1699C31.2968 45.1125 31.1913 45.0845 31.0866 45.0845C30.9352 45.0845 30.7851 45.1432 30.6722 45.2561L29.8021 46.1261C29.6873 46.2407 29.5007 46.2408 29.3858 46.1261L27.0742 43.8144C26.9595 43.6997 26.9595 43.513 27.0742 43.3982L27.9443 42.5281C28.1355 42.337 28.1711 42.0398 28.0305 41.8091C27.4959 40.9313 27.1017 39.9783 26.8586 38.9767C26.7948 38.714 26.5596 38.5289 26.2892 38.5289H25.0574C24.8951 38.5289 24.7631 38.3969 24.7631 38.2347V34.9653C24.7631 34.803 24.8951 34.6711 25.0574 34.6711H26.2895C26.5599 34.6711 26.795 34.4861 26.8588 34.2235C27.1022 33.2219 27.4965 32.269 28.031 31.3914C28.1715 31.1605 28.1359 30.8635 27.9447 30.6724L27.0743 29.8019C26.9596 29.6871 26.9596 29.5005 27.0743 29.3857L29.386 27.074C29.5009 26.9594 29.6876 26.9592 29.8022 27.074L30.6723 27.9441C30.8634 28.1353 31.1605 28.1709 31.3914 28.0303C32.269 27.4958 33.2221 27.1015 34.2238 26.8583C34.4865 26.7945 34.6716 26.5593 34.6716 26.2889V25.057C34.6716 24.9519 34.7259 24.8818 34.7583 24.8495C34.7906 24.8172 34.8606 24.7629 34.9659 24.7629H38.2353C38.3404 24.7629 38.4104 24.8172 38.4428 24.8495C38.4752 24.8819 38.5295 24.9519 38.5295 25.057V26.2892C38.5295 26.5595 38.7145 26.7947 38.9771 26.8586C39.979 27.102 40.9318 27.4963 41.8092 28.0307C42.0399 28.1711 42.3371 28.1356 42.5282 27.9445L43.3988 27.0739C43.4731 26.9996 43.561 26.9885 43.6068 26.9885C43.6526 26.9885 43.7405 26.9996 43.8149 27.0739L46.1267 29.3857C46.2011 29.4601 46.2121 29.5479 46.2121 29.5937C46.2121 29.6395 46.2011 29.7274 46.1266 29.8019L45.2562 30.6724C45.065 30.8635 45.0295 31.1605 45.1701 31.3914C45.7041 32.2683 46.0984 33.2212 46.342 34.2235C46.4058 34.4861 46.641 34.6711 46.9113 34.6711H48.1436C48.2487 34.6711 48.3188 34.7254 48.3512 34.7578C48.3835 34.7901 48.4378 34.8602 48.4378 34.9653V38.2348L48.4376 38.2349ZM31.7176 31.7173C30.4133 33.0216 29.695 34.7557 29.695 36.6001C29.695 38.4445 30.4132 40.1787 31.7176 41.4829C33.0639 42.8293 34.8319 43.5022 36.6004 43.5022C38.3689 43.5022 40.1372 42.8289 41.4832 41.4829C42.7875 40.1787 43.5058 38.4445 43.5058 36.6001C43.5058 34.7557 42.7876 33.0215 41.4832 31.7173C38.7908 29.0249 34.41 29.0249 31.7176 31.7173ZM40.6547 40.6544C39.5717 41.7373 38.1319 42.3337 36.6004 42.3337C35.0689 42.3337 33.6291 41.7373 32.5461 40.6544C31.4632 39.5715 30.8668 38.1316 30.8668 36.6002C30.8668 35.0687 31.4632 33.6289 32.5461 32.546C33.6291 31.4631 35.0689 30.8667 36.6004 30.8667C38.1319 30.8667 39.5717 31.4631 40.6547 32.546C41.7376 33.6289 42.334 35.0687 42.334 36.6002C42.334 38.1316 41.7376 39.5715 40.6547 40.6544ZM23.5393 43.2586C23.5685 42.9408 23.3379 42.6582 23.0209 42.6228C18.9876 42.1719 15.3361 40.4139 12.4609 37.5389C11.1593 36.2371 10.0779 34.759 9.2418 33.1404C9.44287 32.9145 9.62402 32.665 9.78105 32.3931C11.0296 30.2305 10.286 27.4553 8.12334 26.2065C7.07559 25.6018 5.85508 25.4411 4.68682 25.7541C3.51826 26.0672 2.5417 26.8166 1.93691 27.8642C1.33213 28.9117 1.17139 30.1322 1.48447 31.3007C1.79756 32.4691 2.54697 33.4458 3.59453 34.0507C4.14307 34.3674 4.73086 34.5546 5.32334 34.6243C6.3833 36.7917 7.79141 38.7625 9.51445 40.4854C13.1023 44.0733 17.8561 46.3152 22.8999 46.798C22.9185 46.7998 22.9372 46.8007 22.9557 46.8007C23.1007 46.8007 23.2414 46.7468 23.3497 46.6483C23.4719 46.5373 23.5416 46.3799 23.5416 46.2147V44.008C23.5416 43.99 23.5407 43.9721 23.5392 43.9542C23.518 43.7241 23.518 43.49 23.5392 43.2584L23.5393 43.2586ZM4.18057 33.0359C3.404 32.5876 2.84854 31.8638 2.61641 30.9976C2.38438 30.1314 2.50352 29.2268 2.95186 28.4502C3.4002 27.6736 4.12402 27.1182 4.99014 26.8861C5.27939 26.8087 5.57285 26.7703 5.86445 26.7703C6.44609 26.7703 7.02021 26.9229 7.5375 27.2216C9.14053 28.1472 9.6918 30.2042 8.76621 31.8072C7.84062 33.4103 5.7835 33.9614 4.18057 33.0359ZM22.3699 45.56C17.8359 44.9814 13.5866 42.9003 10.3432 39.6569C8.84004 38.1538 7.58975 36.452 6.61787 34.5894C7.22471 34.4855 7.80879 34.2611 8.32969 33.9231C9.20254 35.5534 10.311 37.0461 11.6325 38.3676C14.5691 41.3042 18.266 43.1478 22.3528 43.7197C22.3552 43.8249 22.3608 43.9299 22.3699 44.0343V45.56ZM2.63779 16.5004C2.86953 17.3079 3.19082 18.0843 3.59668 18.8178L3.04521 19.3692C2.47363 19.9409 2.47363 20.8709 3.04521 21.4426L5.35693 23.7543C5.92861 24.326 6.85869 24.3258 7.43037 23.7543L7.98174 23.2029C8.71543 23.6089 9.4918 23.9302 10.2991 24.1618V24.9426C10.2991 25.751 10.9567 26.4087 11.7652 26.4087H15.0346C15.843 26.4087 16.5008 25.751 16.5008 24.9426V24.1611C17.3083 23.9293 18.0845 23.6082 18.8178 23.2025L19.3695 23.7543C19.646 24.0308 20.0143 24.1831 20.4062 24.1831C20.7982 24.1831 21.1665 24.0308 21.4429 23.7544L23.7546 21.4428C24.0311 21.1663 24.1834 20.798 24.1834 20.4061C24.1834 20.0141 24.0311 19.6457 23.7546 19.3693L23.2032 18.818C23.6092 18.0842 23.9304 17.3079 24.1621 16.5005H24.9429C25.7513 16.5005 26.4091 15.8428 26.4091 15.0344V11.765C26.4091 10.9566 25.7514 10.2989 24.9429 10.2989H24.1613C23.9295 9.49121 23.6084 8.71504 23.2028 7.98184L23.7545 7.43008C24.031 7.15361 24.1833 6.78545 24.1833 6.39336C24.1833 6.00127 24.031 5.63311 23.7545 5.35664L21.4428 3.04492C20.8711 2.47324 19.9411 2.47324 19.3695 3.04492L18.8177 3.59678C18.0843 3.19102 17.3081 2.86982 16.5007 2.63799V1.85674C16.5007 1.04834 15.843 0.390625 15.0345 0.390625H11.7651C10.9567 0.390625 10.299 1.04834 10.299 1.85674V2.6377C9.4915 2.86943 8.71514 3.19063 7.98164 3.59648L7.43027 3.04502C6.85859 2.47354 5.92852 2.47354 5.35693 3.04502L3.04512 5.35684C2.47354 5.92852 2.47354 6.85859 3.04512 7.43018L3.59688 7.98203C3.19111 8.71543 2.86992 9.4916 2.63809 10.299H1.85674C1.04834 10.299 0.390625 10.9567 0.390625 11.7651V15.0345C0.390625 15.8429 1.04824 16.5006 1.85674 16.5006H2.6376L2.63779 16.5004ZM1.5627 15.0343V11.7649C1.5627 11.6026 1.69473 11.4707 1.85693 11.4707H3.08906C3.35947 11.4707 3.59463 11.2857 3.6584 11.0231C3.90176 10.0215 4.29609 9.06855 4.83057 8.19102C4.97109 7.96016 4.93555 7.66309 4.74434 7.47197L3.87383 6.60146C3.75918 6.48672 3.75918 6.3001 3.87383 6.18535L6.18555 3.87363C6.30039 3.75898 6.48711 3.75879 6.60176 3.87363L7.47178 4.74375C7.66289 4.93486 7.96016 4.97051 8.19082 4.82988C9.06855 4.29541 10.0216 3.90117 11.0234 3.65791C11.286 3.59414 11.4711 3.35889 11.4711 3.08848V1.85674C11.4711 1.69443 11.6031 1.5625 11.7653 1.5625H15.0347C15.197 1.5625 15.329 1.69453 15.329 1.85674V3.08887C15.329 3.35918 15.514 3.59443 15.7766 3.6582C16.7783 3.90166 17.7313 4.296 18.6088 4.83027C18.8395 4.9708 19.1367 4.93525 19.3277 4.74414L20.1982 3.87363C20.2727 3.79932 20.3605 3.78818 20.4063 3.78818C20.4521 3.78818 20.54 3.79932 20.6145 3.87363L22.9262 6.18535C23.0006 6.25977 23.0116 6.34766 23.0116 6.39336C23.0116 6.43906 23.0006 6.52705 22.9261 6.60146L22.0557 7.47197C21.8646 7.66309 21.829 7.96016 21.9695 8.19102C22.5037 9.06807 22.8979 10.021 23.1414 11.0231C23.2052 11.2858 23.4404 11.4707 23.7107 11.4707H24.9431C25.1054 11.4707 25.2374 11.6027 25.2374 11.7649V15.0343C25.2374 15.1965 25.1054 15.3285 24.9431 15.3285H23.7114C23.441 15.3285 23.2058 15.5135 23.1421 15.7762C22.8989 16.7776 22.5046 17.7307 21.9699 18.6088C21.8294 18.8396 21.865 19.1367 22.0562 19.3278L22.9262 20.1979C23.0006 20.2723 23.0116 20.3602 23.0116 20.406C23.0116 20.4518 23.0006 20.5396 22.9262 20.614L20.6144 22.9257C20.54 23 20.4521 23.0111 20.4063 23.0111C20.3605 23.0111 20.2727 23 20.1982 22.9257L19.3277 22.0552C19.1366 21.864 18.8395 21.8285 18.6088 21.969C17.7314 22.5032 16.7786 22.8975 15.7767 23.1409C15.514 23.2048 15.329 23.4399 15.329 23.7104V24.9427C15.329 25.105 15.197 25.2369 15.0347 25.2369H11.7653C11.6031 25.2369 11.4711 25.1049 11.4711 24.9427V23.711C11.4711 23.4406 11.286 23.2054 11.0233 23.1416C10.0219 22.8985 9.06885 22.5042 8.19082 21.9695C8.09648 21.912 7.99102 21.8841 7.88633 21.8841C7.73486 21.8841 7.58477 21.9428 7.47178 22.0557L6.60186 22.9258C6.48701 23.0404 6.30039 23.0406 6.18555 22.9258L3.87393 20.6142C3.75918 20.4994 3.75918 20.3127 3.87393 20.1979L4.74404 19.3278C4.93525 19.1367 4.9708 18.8396 4.83018 18.6088C4.2957 17.7312 3.90137 16.7781 3.65811 15.7763C3.59443 15.5136 3.35908 15.3286 3.08877 15.3286H1.85703C1.69482 15.3286 1.56279 15.1966 1.56279 15.0344L1.5627 15.0343ZM13.4 20.3018C15.1683 20.3018 16.9366 19.6286 18.2828 18.2824C20.9752 15.59 20.9752 11.2091 18.2828 8.5167C15.5904 5.82432 11.2096 5.82432 8.51719 8.5167C5.8248 11.2091 5.8248 15.59 8.51719 18.2824C9.86338 19.6286 11.6317 20.3018 13.4 20.3018ZM9.3457 9.34541C10.4287 8.2625 11.8685 7.66611 13.4 7.66611C14.9315 7.66611 16.3713 8.2625 17.4543 9.34541C18.5372 10.4283 19.1336 11.8682 19.1336 13.3996C19.1336 14.9311 18.5372 16.3709 17.4543 17.4538C16.3713 18.5367 14.9315 19.1331 13.4 19.1331C11.8685 19.1331 10.4287 18.5367 9.3457 17.4538C8.26279 16.3709 7.66641 14.9311 7.66641 13.3996C7.66641 11.8682 8.26279 10.4283 9.3457 9.34541Z" fill="#5E917E"/>
</g>
<defs>
<clipPath id="clip0_1066_629">
<rect width="50" height="50" fill="white"/>
</clipPath>
</defs>
</svg>
