<svg width="50" height="50" viewBox="0 0 50 50" fill="none" xmlns="http://www.w3.org/2000/svg">
<g clip-path="url(#clip0_1066_618)">
<path fill-rule="evenodd" clip-rule="evenodd" d="M14.167 24.1667C14.6272 24.1667 15.0003 23.7936 15.0003 23.3333C15.0003 22.8731 14.6272 22.5 14.167 22.5C12.7863 22.5 11.667 23.6193 11.667 25C11.667 25.4602 12.0401 25.8333 12.5003 25.8333C12.9606 25.8333 13.3337 25.4602 13.3337 25C13.3337 24.5398 13.7068 24.1667 14.167 24.1667Z" fill="#5E917E"/>
<path fill-rule="evenodd" clip-rule="evenodd" d="M37.5 37.5C37.0398 37.5 36.6667 37.8731 36.6667 38.3333C36.6667 38.7936 36.2936 39.1667 35.8333 39.1667C35.3731 39.1667 35 39.5398 35 40C35 40.4602 35.3731 40.8333 35.8333 40.8333C37.214 40.8333 38.3333 39.714 38.3333 38.3333C38.3333 37.8731 37.9602 37.5 37.5 37.5Z" fill="#5E917E"/>
<path fill-rule="evenodd" clip-rule="evenodd" d="M35.833 30.833H14.1663C13.7061 30.833 13.333 31.2061 13.333 31.6663C13.333 32.1266 13.7061 32.4997 14.1663 32.4997H35.833C36.2932 32.4997 36.6663 32.1266 36.6663 31.6663C36.6663 31.2061 36.2932 30.833 35.833 30.833Z" fill="#5E917E"/>
<path fill-rule="evenodd" clip-rule="evenodd" d="M13.333 27.4998C13.333 27.9601 13.7061 28.3332 14.1663 28.3332H17.4997C17.9599 28.3332 18.333 27.9601 18.333 27.4998C18.333 27.0396 17.9599 26.6665 17.4997 26.6665H14.1663C13.7061 26.6665 13.333 27.0396 13.333 27.4998Z" fill="#5E917E"/>
<path fill-rule="evenodd" clip-rule="evenodd" d="M20.8333 28.3332H35.8333C36.2936 28.3332 36.6667 27.9601 36.6667 27.4998C36.6667 27.0396 36.2936 26.6665 35.8333 26.6665H20.8333C20.3731 26.6665 20 27.0396 20 27.4998C20 27.9601 20.3731 28.3332 20.8333 28.3332Z" fill="#5E917E"/>
<path fill-rule="evenodd" clip-rule="evenodd" d="M30.833 35H14.1663C13.7061 35 13.333 35.3731 13.333 35.8333C13.333 36.2936 13.7061 36.6667 14.1663 36.6667H30.833C31.2932 36.6667 31.6663 36.2936 31.6663 35.8333C31.6663 35.3731 31.2932 35 30.833 35Z" fill="#5E917E"/>
<path d="M41.5341 13.3598C41.6208 12.7995 41.6651 12.2334 41.6666 11.6665C41.6617 6.26532 37.9501 1.57371 32.6951 0.325983C27.44 -0.921741 22.0156 1.60068 19.5833 6.42312C18.6609 6.03143 17.6687 5.83073 16.6666 5.83312C12.5264 5.83771 9.1712 9.19289 9.1666 13.3331C4.28449 13.3582 0.27873 17.2054 0.0565284 22.0825C-0.165674 26.9596 3.47367 31.155 8.33327 31.624V38.3331C8.33694 41.5533 10.9465 44.1628 14.1666 44.1665H18.7883L22.9274 48.9048C23.3949 49.5898 24.1706 49.9995 24.9999 49.9995C25.8292 49.9995 26.605 49.5898 27.0724 48.9048L31.2116 44.1665H35.8333C39.0534 44.1628 41.6629 41.5533 41.6666 38.3331V31.624C46.401 31.1784 50.0086 27.1863 49.9741 22.4311C49.9396 17.6759 46.2745 13.7367 41.5341 13.3598ZM39.9999 38.3331C39.9972 40.6332 38.1333 42.497 35.8333 42.4998H30.8333C30.5928 42.4998 30.364 42.6037 30.2058 42.7848L25.7816 47.8498C25.7545 47.8804 25.7297 47.913 25.7074 47.9473C25.5458 48.1786 25.2813 48.3164 24.9991 48.3164C24.7169 48.3164 24.4524 48.1786 24.2908 47.9473C24.2685 47.9132 24.244 47.8806 24.2174 47.8498L19.7924 42.7848C19.6346 42.6041 19.4065 42.5003 19.1666 42.4998H14.1666C11.8666 42.497 10.0027 40.6332 9.99994 38.3331V24.9998C10.0027 22.6997 11.8666 20.8359 14.1666 20.8331H35.8333C38.1333 20.8359 39.9972 22.6997 39.9999 24.9998V38.3331ZM41.6666 29.9506V24.9998C41.6629 21.7796 39.0534 19.1701 35.8333 19.1665H14.1666C10.9465 19.1701 8.33694 21.7796 8.33327 24.9998V29.9506C4.38846 29.4969 1.48095 26.047 1.70194 22.0824C1.92292 18.1177 5.1958 15.0123 9.1666 14.9998C9.43667 14.9998 9.70653 15.0149 9.97494 15.0448H9.9816C11.3331 15.1907 12.6192 15.703 13.7008 16.5265C14.0671 16.8051 14.59 16.7341 14.8687 16.3677C15.1474 16.0014 15.0763 15.4785 14.7099 15.1998C13.5718 14.3423 12.2487 13.7632 10.8466 13.509C10.8466 13.4531 10.8333 13.389 10.8333 13.334C10.8299 11.3752 11.8116 9.54594 13.4458 8.46591C15.0799 7.38588 17.1475 7.19977 18.9483 7.97062C18.5491 9.15217 18.3423 10.3902 18.3358 11.6373C18.3358 12.0975 18.7089 12.4706 19.1691 12.4706C19.6293 12.4706 20.0024 12.0975 20.0024 11.6373C20.0056 10.3436 20.2604 9.06289 20.7524 7.86645L20.7574 7.85812C22.5789 3.44873 27.2614 0.940032 31.9414 1.86626C36.6214 2.79249 39.9954 6.89568 39.9999 11.6665C39.9918 12.2447 39.9327 12.8211 39.8233 13.389C38.1875 13.5668 36.6306 14.1849 35.3183 15.1773C34.9501 15.4546 34.8764 15.9778 35.1537 16.346C35.431 16.7142 35.9543 16.7879 36.3224 16.5106C37.5445 15.5873 39.0217 15.0635 40.5524 15.0106C40.5683 15.0106 40.5833 15.019 40.5999 15.0181C40.6833 15.0115 40.7574 15.0048 40.8333 15.0048C44.8041 15.0173 48.077 18.1227 48.2979 22.0874C48.5189 26.052 45.6114 29.5019 41.6666 29.9556V29.9506Z" fill="#5E917E"/>
<path fill-rule="evenodd" clip-rule="evenodd" d="M36.6663 35.8333C36.6663 35.3731 36.2932 35 35.833 35H34.1663C33.7061 35 33.333 35.3731 33.333 35.8333C33.333 36.2936 33.7061 36.6667 34.1663 36.6667H35.833C36.2932 36.6667 36.6663 36.2936 36.6663 35.8333Z" fill="#5E917E"/>
</g>
<defs>
<clipPath id="clip0_1066_618">
<rect width="50" height="50" fill="white"/>
</clipPath>
</defs>
</svg>
