<svg width="51" height="37" viewBox="0 0 51 37" fill="none" xmlns="http://www.w3.org/2000/svg">
<path fill-rule="evenodd" clip-rule="evenodd" d="M10.7662 26.8513C8.92098 29.477 5.43328 32.3036 0.685169 34.6567C-0.548744 35.2683 0.00790492 37.1636 1.37001 36.9886C11.3462 35.7069 17.8124 31.269 21.3435 24.6694C22.6568 22.2149 23.4819 19.6022 23.9213 16.9352C24.211 15.1767 24.2875 13.857 24.2875 12.3328C24.2875 5.52158 18.8513 0 12.1455 0C5.43961 0 0.00343873 5.52158 0.00343873 12.3328C0.00343873 19.144 5.52635 24.6694 11.8731 24.6694C11.5382 25.6032 11.4578 25.8671 10.7662 26.8513ZM37.4786 26.8513C35.6335 29.477 32.1458 32.3036 27.3977 34.6567C26.1637 35.2683 26.7204 37.1636 28.0825 36.9886C38.0587 35.7069 44.5249 31.269 48.0559 24.6694C49.3692 22.2149 50.1943 19.6022 50.6338 16.9352C50.9235 15.1767 51 13.857 51 12.3328C51 5.52158 45.5638 0 38.858 0C32.1521 0 26.7159 5.52158 26.7159 12.3328C26.7159 19.144 32.2388 24.6694 38.5855 24.6694C38.2507 25.6032 38.1703 25.8671 37.4786 26.8513Z" fill="#3E66F3" fill-opacity="0.13"/>
</svg>
