<svg width="75" height="54" viewBox="0 0 75 54" fill="none" xmlns="http://www.w3.org/2000/svg">
<path fill-rule="evenodd" clip-rule="evenodd" d="M59.1675 14.8115C61.881 10.9795 67.0099 6.85413 73.9925 3.41983C75.807 2.52734 74.9884 -0.238888 72.9853 0.0165215C58.3144 1.88717 48.8054 8.36404 43.6126 17.9959C41.6813 21.5783 40.4679 25.3913 39.8217 29.2838C39.3957 31.8502 39.2831 33.7762 39.2831 36.0007C39.2831 45.9414 47.2775 53.9999 57.1391 53.9999C67.0006 53.9999 74.995 45.9414 74.995 36.0007C74.995 26.06 66.8731 17.9959 57.5397 17.9959C58.0321 16.6331 58.1503 16.248 59.1675 14.8115ZM19.8844 14.8115C22.5979 10.9795 27.7269 6.85413 34.7094 3.41983C36.524 2.52734 35.7054 -0.238888 33.7023 0.0165215C19.0313 1.88717 9.52229 8.36404 4.32956 17.9959C2.39824 21.5783 1.18484 25.3913 0.538658 29.2838C0.112602 31.8502 6.10352e-05 33.7762 6.10352e-05 36.0007C6.10352e-05 45.9414 7.99444 53.9999 17.856 53.9999C27.7176 53.9999 35.7119 45.9414 35.7119 36.0007C35.7119 26.06 27.59 17.9959 18.2566 17.9959C18.749 16.6331 18.8673 16.248 19.8844 14.8115Z" fill="white"/>
</svg>
