<svg width="31" height="22" viewBox="0 0 31 22" fill="none" xmlns="http://www.w3.org/2000/svg">
<path fill-rule="evenodd" clip-rule="evenodd" d="M6.54414 15.9656C5.42256 17.5269 3.30258 19.2076 0.416475 20.6067C-0.33355 20.9703 0.00480495 22.0973 0.832752 21.9932C6.89674 21.2311 10.8271 18.5924 12.9735 14.6683C13.7718 13.2088 14.2733 11.6554 14.5404 10.0696C14.7165 9.02398 14.763 8.2393 14.763 7.33301C14.763 3.2831 11.4587 0 7.38255 0C3.30643 0 0.00209021 3.2831 0.00209021 7.33301C0.00209021 11.3829 3.35915 14.6683 7.21695 14.6683C7.01343 15.2235 6.96455 15.3804 6.54414 15.9656ZM22.7811 15.9656C21.6596 17.5269 19.5396 19.2076 16.6535 20.6067C15.9035 20.9703 16.2418 22.0973 17.0698 21.9932C23.1337 21.2311 27.0641 18.5924 29.2105 14.6683C30.0088 13.2088 30.5103 11.6554 30.7774 10.0696C30.9535 9.02398 31 8.2393 31 7.33301C31 3.2831 27.6957 0 23.6195 0C19.5434 0 16.2391 3.2831 16.2391 7.33301C16.2391 11.3829 19.5962 14.6683 23.454 14.6683C23.2504 15.2235 23.2016 15.3804 22.7811 15.9656Z" fill="url(#paint0_linear_1_7433)"/>
<defs>
<linearGradient id="paint0_linear_1_7433" x1="15.5" y1="0" x2="15.5" y2="22" gradientUnits="userSpaceOnUse">
<stop stop-color="#3E66F3"/>
<stop offset="1" stop-color="#0031DD"/>
</linearGradient>
</defs>
</svg>
