<svg width="40" height="40" viewBox="0 0 40 40" fill="none" xmlns="http://www.w3.org/2000/svg">
<path d="M19.8932 37.9653C22.4587 37.9653 24.5385 36.1779 24.5385 33.9729C24.5385 31.7679 22.4587 29.9805 19.8932 29.9805C17.3276 29.9805 15.2478 31.7679 15.2478 33.9729C15.2478 36.1779 17.3276 37.9653 19.8932 37.9653Z" fill="#3E66F3"/>
<path d="M18.5871 29.5469H21.199C21.452 29.5469 21.657 29.3418 21.657 29.0889C21.657 28.836 21.4521 28.6309 21.199 28.6309H18.5871C18.3341 28.6309 18.129 28.836 18.129 29.0889C18.129 29.3418 18.3341 29.5469 18.5871 29.5469Z" fill="#3E66F3"/>
<path d="M24.3753 13.4267C24.9152 12.887 24.9155 12.0137 24.3754 11.4736L22.0038 9.10196C22.7994 8.16549 22.7572 6.75356 21.8732 5.86629C20.9894 4.98231 19.5829 4.93079 18.6386 5.73668L16.2686 3.36652C16.2686 3.36652 16.2686 3.36652 16.2685 3.3662C15.7303 2.82824 14.854 2.82856 14.3154 3.36652C13.9257 3.75631 13.8221 4.32203 13.9967 4.8095C13.1566 7.59057 12.0001 10.1007 10.556 12.2711L8.45192 14.3753C7.50585 15.3211 7.50569 16.8528 8.45192 17.7988L9.94314 19.2903C10.7713 20.118 12.0611 20.2259 13.0114 19.5824L16.6606 23.2315C17.382 23.9529 18.5546 23.9525 19.2757 23.2315C19.9967 22.5105 19.9967 21.3377 19.2757 20.6167L15.7058 17.0468C17.8788 15.7235 20.3082 14.6137 22.9373 13.7468C23.4747 13.937 24.0174 13.7844 24.3753 13.4267ZM21.2248 6.51322C21.7518 7.0423 21.7892 7.87051 21.3492 8.44719L19.2931 6.39097C19.9038 5.92126 20.7189 6.00742 21.2248 6.51322ZM14.963 4.01448C15.1444 3.83343 15.4392 3.83303 15.621 4.01416L23.7278 12.1213C23.9086 12.3024 23.9106 12.5956 23.7278 12.7788C23.5465 12.9601 23.2513 12.9601 23.07 12.7788L14.9632 4.67197C14.7819 4.49068 14.7819 4.19546 14.963 4.01448ZM10.5909 18.6426L9.09964 17.1511C8.51176 16.5635 8.51136 15.6109 9.09964 15.0229L10.9151 13.2073L14.5348 16.827L12.7193 18.6426C12.1325 19.2288 11.1777 19.2288 10.5909 18.6426ZM18.6281 22.5838C18.2643 22.9476 17.6721 22.9476 17.3083 22.5838L13.6908 18.9665C13.7229 18.9344 15.0649 17.5923 15.0105 17.6467L18.6281 21.2643C18.9919 21.628 18.9919 22.22 18.6281 22.5838ZM15.2509 16.247L11.5029 12.4991C12.8061 10.4822 13.8738 8.19582 14.6838 5.6882L22.068 13.0722C19.6043 13.9265 17.3157 14.9924 15.2509 16.247Z" fill="#3E66F3"/>
<path d="M27.391 5.52563C27.6369 5.46627 27.7881 5.21881 27.7287 4.97311C27.6695 4.7271 27.421 4.57653 27.176 4.63525L24.5698 5.26409C24.324 5.32346 24.1728 5.57091 24.2321 5.81661C24.2912 6.06175 24.5376 6.21368 24.7848 6.15448L27.391 5.52563Z" fill="#3E66F3"/>
<path d="M23.0313 4.71048C23.2101 4.88921 23.5002 4.88953 23.679 4.71048L25.2964 3.09285C25.4753 2.91396 25.4753 2.6241 25.2964 2.4452C25.1175 2.26631 24.8273 2.26631 24.6487 2.4452L23.0313 4.06284C22.8524 4.24173 22.8524 4.53159 23.0313 4.71048Z" fill="#3E66F3"/>
<path d="M22.7689 0.0129734C22.5213 -0.0466307 22.2756 0.10482 22.2163 0.350837L21.5874 2.95702C21.5181 3.244 21.7353 3.52242 22.0329 3.52242C22.2397 3.52242 22.4272 3.38169 22.4778 3.17175L23.1066 0.565572C23.1659 0.319795 23.0148 0.0722576 22.7689 0.0129734Z" fill="#3E66F3"/>
<path d="M35.986 15.8612V13.5133C36.4764 13.3292 36.8279 12.8594 36.8279 12.3056V8.47957C36.8279 7.76632 36.2476 7.18604 35.5342 7.18604H28.0144C27.301 7.18604 26.7207 7.76632 26.7207 8.47957V10.6412H25.7998C25.5468 10.6412 25.3418 10.8463 25.3418 11.0992C25.3418 11.3521 25.5467 11.5572 25.7998 11.5572H26.7207V12.3057C26.7207 13.0189 27.301 13.5992 28.0144 13.5992H28.5257L28.3717 15.3436C28.3312 15.8029 28.9228 16.0275 29.1969 15.6552L30.7087 13.5992H35.07V15.8616C32.903 16.0916 31.2089 17.9296 31.2089 20.1566C31.2089 22.3837 32.903 24.2216 35.07 24.4516V26.3407H4.71585V23.7098C6.61166 23.3827 8.05984 21.7305 8.05984 19.7427C8.05984 17.7549 6.61166 16.1027 4.71585 15.7755V12.8548C4.71585 12.1392 5.29805 11.5571 6.01354 11.5571H9.67764C9.93061 11.5571 10.1357 11.352 10.1357 11.0991C10.1357 10.8462 9.93069 10.6411 9.67764 10.6411H6.01354C4.79289 10.6411 3.79979 11.634 3.79979 12.8548V15.7243C1.68492 15.8446 0 17.5982 0 19.7427C0 21.8871 1.685 23.6407 3.79979 23.761C3.79979 23.7926 3.79907 29.592 3.79907 29.624C3.79907 30.8413 4.78985 31.8383 6.01354 31.8383H16.0227C16.4599 33.2868 16.4597 34.6607 16.0222 36.1092H14.7779C13.7052 36.1092 12.8324 36.982 12.8324 38.0546C12.8324 39.1271 13.7052 39.9999 14.7779 39.9999H25.0084C26.0811 39.9999 26.9537 39.1271 26.9537 38.0546C26.9537 36.982 26.0811 36.1092 25.0084 36.1092H23.7639C23.3265 34.6607 23.3263 33.2868 23.7634 31.8383H33.7754C35.0088 31.8383 35.9871 30.8231 35.9871 29.624C35.987 29.0949 35.9875 31.5401 35.986 24.452C38.1541 24.2229 39.8493 22.3844 39.8493 20.1566C39.8493 17.9289 38.1541 16.0903 35.986 15.8612ZM30.477 12.6831C30.3313 12.6831 30.1943 12.7523 30.108 12.8698L29.428 13.7945L29.4821 13.1814C29.5057 12.914 29.2947 12.6831 29.0259 12.6831H28.0144C27.8062 12.6831 27.6368 12.5138 27.6368 12.3057C27.6368 11.6476 27.6368 10.4475 27.6368 8.47965C27.6368 8.27147 27.8062 8.10218 28.0144 8.10218H35.5342C35.7425 8.10218 35.9119 8.27155 35.9119 8.47965V12.3057C35.9119 12.5138 35.7425 12.6831 35.5342 12.6831H30.477ZM35.07 27.2567V29.6246C35.07 30.3425 34.487 30.9209 33.7742 30.9209C30.6584 30.9209 8.81254 30.9209 6.01194 30.9209C5.29837 30.9209 4.71585 30.341 4.71585 29.6246V27.2567H35.07ZM0.916064 19.7427C0.916064 18.0257 2.31296 16.6288 4.02988 16.6288C5.74696 16.6288 7.14386 18.0257 7.14386 19.7427C7.14386 21.4597 5.74696 22.8567 4.02988 22.8567C2.31288 22.8566 0.916064 21.4597 0.916064 19.7427ZM26.0377 38.0547C26.0377 38.6221 25.576 39.084 25.0084 39.084H14.7779C14.2104 39.084 13.7484 38.6221 13.7484 38.0547C13.7484 37.4872 14.2103 37.0253 14.7779 37.0253H25.0084C25.576 37.0253 26.0377 37.4873 26.0377 38.0547ZM22.8055 36.1093H16.9805C17.3651 34.6776 17.3651 33.27 16.9809 31.8384H22.8051C22.4209 33.27 22.421 34.6776 22.8055 36.1093ZM35.5303 23.5606C35.5295 23.5606 35.5288 23.5604 35.528 23.5604C35.5274 23.5604 35.527 23.5605 35.5264 23.5605C33.6505 23.5591 32.125 22.0327 32.125 20.1565C32.125 18.2794 33.6519 16.7525 35.529 16.7525C37.4061 16.7525 38.9333 18.2794 38.9333 20.1565C38.9333 22.0332 37.4069 23.56 35.5303 23.5606Z" fill="#3E66F3"/>
<path d="M35.526 18.1352C34.8976 17.7551 34.0541 17.829 33.501 18.3908C32.0296 19.8813 34.206 21.301 35.0322 22.2144C35.3092 22.4872 35.7609 22.4888 36.0392 22.2117C36.8103 21.3489 39.055 19.8812 37.5492 18.3761C37.0005 17.8269 36.1622 17.7441 35.526 18.1352ZM35.5336 21.4224C34.6553 20.4979 33.4401 19.7563 34.1535 19.0336C34.4294 18.7531 34.8861 18.7279 35.2068 19.0438C35.3863 19.2182 35.6884 19.2009 35.8655 19.0235C36.1424 18.7468 36.6244 18.7462 36.9013 19.0235C37.7097 19.832 36.1535 20.6301 35.5336 21.4224Z" fill="#3E66F3"/>
<path d="M34.6988 8.85693H28.85C28.597 8.85693 28.392 9.06207 28.392 9.31497C28.392 9.56786 28.5969 9.773 28.85 9.773H34.6988C34.9518 9.773 35.1568 9.56786 35.1568 9.31497C35.1568 9.06207 34.9518 8.85693 34.6988 8.85693Z" fill="#3E66F3"/>
<path d="M6.19485 19.0756L3.54203 17.5683C3.02935 17.2772 2.39539 17.6472 2.39539 18.2353V21.25C2.39539 21.8383 3.03031 22.2082 3.54203 21.917L6.19437 20.4099C6.71177 20.117 6.71209 19.3691 6.19485 19.0756ZM3.31145 20.9948V18.4906L5.51488 19.7427L3.31145 20.9948Z" fill="#3E66F3"/>
<path d="M34.6988 10.6411H30.7628C30.5099 10.6411 30.3048 10.8462 30.3048 11.0991C30.3048 11.352 30.5098 11.5572 30.7628 11.5572H34.6988C34.9518 11.5572 35.1568 11.352 35.1568 11.0991C35.1568 10.8462 34.9518 10.6411 34.6988 10.6411Z" fill="#3E66F3"/>
</svg>
