<svg width="30" height="30" viewBox="0 0 30 30" fill="none" xmlns="http://www.w3.org/2000/svg">
<path d="M27.6939 9.67742H27.0968V2.41935C27.0968 1.08532 26.0115 0 24.6774 0H22.7419C21.4079 0 20.3226 1.08532 20.3226 2.41935V3.87097H13.5484V1.45161C13.5484 0.65129 12.8971 0 12.0968 0H4.35484C3.55452 0 2.90323 0.65129 2.90323 1.45161V7.25806C2.90323 8.05839 3.55452 8.70968 4.35484 8.70968H7.74194V9.67742H2.30613C1.03452 9.67742 0 10.7119 0 11.9835C0 12.0794 0.00629029 12.1752 0.0179032 12.2695L1.74 26.0448C1.88371 27.1965 2.86742 28.0645 4.02774 28.0645H6.62758L9.2221 29.7944C9.42484 29.9289 9.66 30 9.90242 30C10.5784 30 11.129 29.4494 11.129 28.7729V28.0645H25.9723C27.1326 28.0645 28.1168 27.1965 28.2605 26.0448L29.9826 12.27C29.9937 12.1747 30 12.0794 30 11.9835C30 10.7119 28.9655 9.67742 27.6939 9.67742ZM21.2903 2.41935C21.2903 1.61903 21.9416 0.967742 22.7419 0.967742H24.6774C25.4777 0.967742 26.129 1.61903 26.129 2.41935V4.83871H21.2903V2.41935ZM21.2903 5.80645H26.129V6.77419H21.2903V5.80645ZM24.1935 14.5161V7.74194H26.129V14.5161H24.1935ZM25.83 15.4839L23.9773 19.1894C23.8752 19.394 23.5442 19.3935 23.4426 19.1894L21.5894 15.4839H25.83ZM21.2903 7.74194H23.2258V14.5161H21.2903V7.74194ZM13.5484 7.25806V4.83871H20.3226V9.67742H8.70968V8.70968H12.0968C12.8971 8.70968 13.5484 8.05839 13.5484 7.25806ZM4.35484 7.74194C4.08774 7.74194 3.87097 7.52468 3.87097 7.25806V1.45161C3.87097 1.185 4.08774 0.967742 4.35484 0.967742H12.0968C12.3639 0.967742 12.5806 1.185 12.5806 1.45161V7.25806C12.5806 7.52468 12.3639 7.74194 12.0968 7.74194H4.35484ZM29.0221 12.149L27.3 25.9244C27.2163 26.5926 26.6453 27.0968 25.9723 27.0968H10.1613V28.7729C10.1613 28.9669 9.91887 29.0952 9.75823 28.9887L6.92081 27.0968H4.02774C3.35419 27.0968 2.78371 26.5926 2.7 25.9248L0.977903 12.149C0.971129 12.0939 0.967742 12.0387 0.967742 11.9835C0.967742 11.2456 1.56774 10.6452 2.30613 10.6452H20.3226V15.1142L22.4429 19.3548H19.8387V20.3226H23.7097C24.1926 20.3226 24.6266 20.054 24.8429 19.6224L27.0968 15.1142V10.6452H27.6939C28.4323 10.6452 29.0323 11.2456 29.0323 11.9835C29.0323 12.0387 29.0289 12.0939 29.0221 12.149Z" fill="url(#paint0_linear_1_4426)"/>
<path d="M16.4517 16.0165V13.0644C16.4517 12.2641 15.8004 11.6128 15.0001 11.6128C14.2883 11.6128 13.6975 12.1286 13.5746 12.8051C11.8124 14.2184 9.61219 14.9999 7.34961 14.9999H5.32267C3.98864 14.9999 2.90332 16.0852 2.90332 17.4192V19.3547C2.90332 20.6888 3.98864 21.7741 5.32267 21.7741H5.90235L6.87058 26.1289H9.67751V22.0586C11.0938 22.4002 12.4274 23.0481 13.5746 23.9684C13.6975 24.6454 14.2883 25.1612 15.0001 25.1612C15.8004 25.1612 16.4517 24.5099 16.4517 23.7096V20.7575C17.5544 20.5325 18.3872 19.5555 18.3872 18.387C18.3872 17.2184 17.5544 16.2415 16.4517 16.0165ZM6.77429 20.8063H5.32267C4.69268 20.8063 4.16042 20.4004 3.96009 19.8386H5.80655V18.8709H3.87106V17.9031H5.80655V16.9354H3.96009C4.16042 16.3736 4.69268 15.9676 5.32267 15.9676H6.77429V20.8063ZM8.70977 25.1612H7.64622L6.8938 21.7741H7.35009C7.80735 21.7741 8.26074 21.8147 8.71026 21.8771L8.70977 25.1612ZM13.5485 22.738C11.8404 21.5617 9.82122 20.8988 7.74203 20.8238V15.9502C9.82122 15.8747 11.8404 15.2123 13.5485 14.036V22.738ZM15.484 23.7096C15.484 23.9762 15.2672 24.1934 15.0001 24.1934C14.733 24.1934 14.5162 23.9762 14.5162 23.7096V13.0644C14.5162 12.7978 14.733 12.5805 15.0001 12.5805C15.2672 12.5805 15.484 12.7978 15.484 13.0644V23.7096ZM16.4517 19.7496V17.0249C17.0135 17.2252 17.4194 17.7575 17.4194 18.3875C17.4194 19.0175 17.0135 19.5492 16.4517 19.7496Z" fill="url(#paint1_linear_1_4426)"/>
<path d="M9.94494 3.22168L7.63978 2.0691C7.46511 1.982 7.26865 1.93555 7.07317 1.93555C6.37494 1.93555 5.8064 2.50361 5.8064 3.20232V5.50748C5.8064 6.20619 6.37494 6.77426 7.07317 6.77426C7.26865 6.77426 7.46511 6.72781 7.63978 6.64071L9.94494 5.48813C10.3766 5.27232 10.6451 4.83781 10.6451 4.3549C10.6451 3.872 10.3766 3.43748 9.94494 3.22168ZM9.51188 4.62248L7.20672 5.77506C7.01994 5.8699 6.77414 5.71893 6.77365 5.50748V3.20232C6.77414 3.03732 6.90817 2.90329 7.07317 2.90329C7.11962 2.90329 7.16559 2.91393 7.20672 2.93474L9.51188 4.08732C9.61398 4.13861 9.67736 4.24071 9.67736 4.3549C9.67736 4.4691 9.61398 4.57119 9.51188 4.62248Z" fill="url(#paint2_linear_1_4426)"/>
<path d="M19.8386 21.2903H26.6128V22.258H19.8386V21.2903Z" fill="url(#paint3_linear_1_4426)"/>
<path d="M19.8386 23.2258H26.6128V24.1936H19.8386V23.2258Z" fill="url(#paint4_linear_1_4426)"/>
<path d="M23.71 25.1611H24.6777V26.1289H23.71V25.1611Z" fill="url(#paint5_linear_1_4426)"/>
<path d="M25.6455 25.1611H26.6132V26.1289H25.6455V25.1611Z" fill="url(#paint6_linear_1_4426)"/>
<path d="M19.8386 25.1614H20.8064V26.1291H19.8386V25.1614Z" fill="url(#paint7_linear_1_4426)"/>
<path d="M21.7742 25.1614H22.7419V26.1291H21.7742V25.1614Z" fill="url(#paint8_linear_1_4426)"/>
<defs>
<linearGradient id="paint0_linear_1_4426" x1="15" y1="0" x2="15" y2="30" gradientUnits="userSpaceOnUse">
<stop stop-color="#3E66F3"/>
<stop offset="1" stop-color="#0031DD"/>
</linearGradient>
<linearGradient id="paint1_linear_1_4426" x1="10.6453" y1="11.6128" x2="10.6453" y2="26.1289" gradientUnits="userSpaceOnUse">
<stop stop-color="#3E66F3"/>
<stop offset="1" stop-color="#0031DD"/>
</linearGradient>
<linearGradient id="paint2_linear_1_4426" x1="8.22575" y1="1.93555" x2="8.22575" y2="6.77426" gradientUnits="userSpaceOnUse">
<stop stop-color="#3E66F3"/>
<stop offset="1" stop-color="#0031DD"/>
</linearGradient>
<linearGradient id="paint3_linear_1_4426" x1="23.2257" y1="21.2903" x2="23.2257" y2="22.258" gradientUnits="userSpaceOnUse">
<stop stop-color="#3E66F3"/>
<stop offset="1" stop-color="#0031DD"/>
</linearGradient>
<linearGradient id="paint4_linear_1_4426" x1="23.2257" y1="23.2258" x2="23.2257" y2="24.1936" gradientUnits="userSpaceOnUse">
<stop stop-color="#3E66F3"/>
<stop offset="1" stop-color="#0031DD"/>
</linearGradient>
<linearGradient id="paint5_linear_1_4426" x1="24.1938" y1="25.1611" x2="24.1938" y2="26.1289" gradientUnits="userSpaceOnUse">
<stop stop-color="#3E66F3"/>
<stop offset="1" stop-color="#0031DD"/>
</linearGradient>
<linearGradient id="paint6_linear_1_4426" x1="26.1294" y1="25.1611" x2="26.1294" y2="26.1289" gradientUnits="userSpaceOnUse">
<stop stop-color="#3E66F3"/>
<stop offset="1" stop-color="#0031DD"/>
</linearGradient>
<linearGradient id="paint7_linear_1_4426" x1="20.3225" y1="25.1614" x2="20.3225" y2="26.1291" gradientUnits="userSpaceOnUse">
<stop stop-color="#3E66F3"/>
<stop offset="1" stop-color="#0031DD"/>
</linearGradient>
<linearGradient id="paint8_linear_1_4426" x1="22.258" y1="25.1614" x2="22.258" y2="26.1291" gradientUnits="userSpaceOnUse">
<stop stop-color="#3E66F3"/>
<stop offset="1" stop-color="#0031DD"/>
</linearGradient>
</defs>
</svg>
