<svg width="30" height="30" viewBox="0 0 30 30" fill="none" xmlns="http://www.w3.org/2000/svg">
<path d="M3.43717 24.003C3.47851 24.0028 3.51941 23.9944 3.5575 23.9783C3.59559 23.9622 3.6301 23.9388 3.65904 23.9092L4.68717 22.8811C4.74537 22.8226 4.77804 22.7434 4.77804 22.6608C4.77804 22.5782 4.74537 22.499 4.68717 22.4405C4.62862 22.3823 4.54941 22.3496 4.46685 22.3496C4.3843 22.3496 4.30509 22.3823 4.24654 22.4405L3.21842 23.4686C3.17453 23.5121 3.14454 23.5677 3.13224 23.6283C3.11993 23.6888 3.12586 23.7517 3.14927 23.8089C3.17268 23.8661 3.21253 23.915 3.26378 23.9496C3.31502 23.9841 3.37536 24.0027 3.43717 24.003Z" fill="url(#paint0_linear_834_3139)"/>
<path d="M19.5908 13.6592C19.5908 13.7421 19.6237 13.8215 19.6824 13.8802C19.741 13.9388 19.8204 13.9717 19.9033 13.9717H21.3627C21.4456 13.9717 21.5251 13.9388 21.5837 13.8802C21.6423 13.8215 21.6752 13.7421 21.6752 13.6592C21.6752 13.5763 21.6423 13.4968 21.5837 13.4382C21.5251 13.3796 21.4456 13.3467 21.3627 13.3467H19.9033C19.8204 13.3467 19.741 13.3796 19.6824 13.4382C19.6237 13.4968 19.5908 13.5763 19.5908 13.6592Z" fill="url(#paint1_linear_834_3139)"/>
<path d="M18.4157 10.8251C18.4447 10.8544 18.4793 10.8776 18.5174 10.8935C18.5555 10.9093 18.5963 10.9175 18.6376 10.9175C18.6788 10.9175 18.7197 10.9093 18.7577 10.8935C18.7958 10.8776 18.8304 10.8544 18.8594 10.8251L19.8876 9.79383C19.9464 9.7354 19.9796 9.65598 19.9799 9.57306C19.9802 9.49013 19.9475 9.41049 19.8891 9.35164C19.8307 9.2928 19.7513 9.25957 19.6683 9.25928C19.5854 9.25899 19.5058 9.29165 19.4469 9.35008L18.4157 10.3813C18.3864 10.4104 18.3631 10.4449 18.3473 10.483C18.3314 10.5211 18.3232 10.5619 18.3232 10.6032C18.3232 10.6445 18.3314 10.6853 18.3473 10.7234C18.3631 10.7615 18.3864 10.796 18.4157 10.8251Z" fill="url(#paint2_linear_834_3139)"/>
<path d="M15.2686 7.87793V9.3373C15.2686 9.42018 15.3015 9.49967 15.3601 9.55828C15.4187 9.61688 15.4982 9.6498 15.5811 9.6498C15.6639 9.6498 15.7434 9.61688 15.802 9.55828C15.8606 9.49967 15.8936 9.42018 15.8936 9.3373V7.87793C15.8936 7.79505 15.8606 7.71556 15.802 7.65696C15.7434 7.59835 15.6639 7.56543 15.5811 7.56543C15.4982 7.56543 15.4187 7.59835 15.3601 7.65696C15.3015 7.71556 15.2686 7.79505 15.2686 7.87793Z" fill="url(#paint3_linear_834_3139)"/>
<path d="M26.5375 13.7498V13.9498H26.4375C26.3546 13.9498 26.2751 13.9828 26.2165 14.0414C26.1579 14.1 26.125 14.1794 26.125 14.2623C26.125 14.3452 26.1579 14.4247 26.2165 14.4833C26.2751 14.5419 26.3546 14.5748 26.4375 14.5748H26.5375V15.4936C26.5375 15.5765 26.5704 15.6559 26.629 15.7145C26.6876 15.7732 26.7671 15.8061 26.85 15.8061C26.9329 15.8061 27.0124 15.7732 27.071 15.7145C27.1296 15.6559 27.1625 15.5765 27.1625 15.4936V14.5686H27.4187C27.5016 14.5686 27.5811 14.5357 27.6397 14.477C27.6983 14.4184 27.7312 14.339 27.7312 14.2561C27.7312 14.1732 27.6983 14.0937 27.6397 14.0351C27.5811 13.9765 27.5016 13.9436 27.4187 13.9436H27.1625V13.7498C27.1625 13.5998 27.2221 13.4559 27.3282 13.3499C27.4342 13.2438 27.5781 13.1842 27.7281 13.1842C27.811 13.1842 27.8905 13.1513 27.9491 13.0927C28.0077 13.0341 28.0406 12.9546 28.0406 12.8717C28.0406 12.2217 26.5375 12.5967 26.5375 13.7498Z" fill="url(#paint4_linear_834_3139)"/>
<path d="M18.9752 19.2034C19.2351 19.4462 19.5807 19.5759 19.9362 19.5639C20.2916 19.5518 20.6277 19.3991 20.8705 19.1393C21.1134 18.8795 21.2431 18.5338 21.2311 18.1784C21.219 17.8229 21.0663 17.4868 20.8065 17.244L11.7252 8.18149C11.4732 7.92959 11.1315 7.78809 10.7752 7.78809C10.4189 7.78809 10.0772 7.92959 9.82523 8.18149C9.58567 8.42012 9.44615 8.74114 9.43512 9.0791C9.42409 9.41705 9.54237 9.74649 9.76586 10.0002L5.58773 18.2909C5.36343 18.248 5.13213 18.2592 4.91301 18.3235C4.69388 18.3878 4.49324 18.5034 4.32768 18.6607C4.16213 18.818 4.03644 19.0125 3.96102 19.2281C3.8856 19.4436 3.86262 19.674 3.89398 19.9002C1.66898 22.1284 1.76273 22.019 1.59086 22.2377C1.27289 22.6443 1.07291 23.1305 1.01283 23.6431C0.952752 24.1557 1.03488 24.6749 1.25023 25.144L0.72836 25.6596C0.48132 25.9012 0.329561 26.2237 0.300866 26.568C0.272172 26.9123 0.368463 27.2555 0.57211 27.5346C0.77578 27.7915 1.00279 28.029 1.25023 28.244C1.5236 28.5153 1.89317 28.6676 2.27836 28.6676C2.66355 28.6676 3.03311 28.5153 3.30648 28.244L3.82211 27.7284C4.34538 27.966 4.92862 28.0385 5.49415 27.9363C6.05968 27.8342 6.58067 27.5622 6.98773 27.1565L12.6127 29.8127C12.983 29.9866 13.3978 30.0424 13.8009 29.9726C14.2039 29.9027 14.5757 29.7105 14.8659 29.4221C15.0293 29.2582 15.151 29.0574 15.2208 28.8367C15.2906 28.616 15.3064 28.3818 15.2669 28.1537C15.2274 27.9256 15.1337 27.7103 14.9938 27.526C14.8539 27.3416 14.6718 27.1934 14.4627 27.094L12.244 26.0471L12.7221 25.569C12.949 25.3386 13.0762 25.0283 13.0762 24.7049C13.0762 24.3816 12.949 24.0712 12.7221 23.8409L11.7284 22.8502L18.9752 19.2034ZM12.5002 21.769L11.0846 20.3534L14.5221 18.6159L15.9377 20.0284L12.5002 21.769ZM10.2659 8.60649C10.3324 8.5395 10.4115 8.48633 10.4986 8.45005C10.5858 8.41377 10.6793 8.39509 10.7737 8.39509C10.8681 8.39509 10.9615 8.41377 11.0487 8.45005C11.1359 8.48633 11.215 8.5395 11.2815 8.60649L20.3627 17.6877C20.4305 17.754 20.4843 17.8333 20.5208 17.9208C20.5573 18.0083 20.5758 18.1023 20.5752 18.1971C20.5736 18.3387 20.5304 18.4766 20.451 18.5938C20.3715 18.711 20.2594 18.8023 20.1285 18.8562C19.9976 18.9102 19.8538 18.9244 19.7148 18.8973C19.5759 18.8701 19.448 18.8027 19.3471 18.7034L10.2659 9.62211C10.1989 9.5556 10.1457 9.47648 10.1094 9.38933C10.0731 9.30217 10.0545 9.2087 10.0545 9.1143C10.0545 9.0199 10.0731 8.92642 10.1094 8.83927C10.1457 8.75212 10.1989 8.673 10.2659 8.60649ZM10.2252 10.4815L18.5034 18.7502L16.5346 19.7409L14.8159 18.0221C14.7694 17.9752 14.7094 17.9442 14.6443 17.9335C14.5791 17.9229 14.5123 17.9331 14.4534 17.9627L10.4159 20.0002C10.3717 20.0224 10.3333 20.0547 10.3041 20.0946C10.2748 20.1344 10.2554 20.1807 10.2475 20.2295C10.2395 20.2783 10.2433 20.3283 10.2584 20.3753C10.2736 20.4224 10.2997 20.4652 10.3346 20.5002L11.8971 22.0627L10.4471 22.794L6.16586 18.5127L10.2252 10.4815ZM4.74398 19.1315C4.89866 18.9771 5.10826 18.8904 5.3268 18.8904C5.54533 18.8904 5.75494 18.9771 5.90961 19.1315L9.84086 23.0627C9.98496 23.2191 10.0631 23.425 10.0591 23.6376C10.0551 23.8501 9.96911 24.0529 9.81918 24.2037C9.66924 24.3544 9.4669 24.4415 9.25435 24.4466C9.0418 24.4518 8.83546 24.3747 8.67836 24.2315C8.64086 24.194 4.95023 20.5065 4.74398 20.3127C4.66479 20.2361 4.60181 20.1443 4.55881 20.0429C4.5158 19.9414 4.49363 19.8323 4.49363 19.7221C4.49363 19.6119 4.5158 19.5028 4.55881 19.4014C4.60181 19.2999 4.66479 19.2081 4.74398 19.1315ZM12.7034 26.944L12.6159 27.0346C12.5013 27.1478 12.3548 27.2232 12.1962 27.2506C12.0375 27.2779 11.8742 27.256 11.7284 27.1877L8.48148 25.6565L8.95961 25.1784L12.7034 26.944ZM4.11898 20.5596L6.69711 23.1252L4.83773 25.0002C3.06898 26.7752 0.512734 24.1784 2.26586 22.4284L4.11898 20.5596ZM3.27211 27.4002L2.86898 27.8127C2.71325 27.9675 2.50261 28.0544 2.28305 28.0544C2.06349 28.0544 1.85285 27.9675 1.69711 27.8127C1.11273 27.2284 1.13773 27.2596 1.09086 27.1877C0.972809 27.0293 0.916012 26.8336 0.930944 26.6366C0.945876 26.4396 1.03153 26.2547 1.17211 26.1159L1.56273 25.6971C1.71586 25.9127 1.89398 26.0721 2.97211 27.1502C3.06273 27.2284 3.21898 27.3596 3.27211 27.4002ZM3.91898 27.0877C3.5042 26.8141 3.13153 26.4814 2.81273 26.1002C3.11765 26.1966 3.43925 26.2286 3.75717 26.1941C4.07509 26.1597 4.38239 26.0596 4.65961 25.9002C5.12836 25.6346 5.22836 25.4784 7.13148 23.5752L8.40648 24.8502L6.53148 26.7065C6.19336 27.0403 5.75673 27.2565 5.28621 27.3229C4.8157 27.3893 4.33631 27.3025 3.91898 27.0752V27.0877ZM14.6627 28.2721C14.8065 29.094 13.7096 29.6502 12.8877 29.2627L7.45648 26.6877L8.01273 26.1346C11.7065 27.8752 11.6346 27.894 12.0752 27.894C12.7002 27.894 13.0127 27.5315 13.3252 27.2346L14.2284 27.6565C14.3435 27.7152 14.443 27.8006 14.5186 27.9055C14.5941 28.0104 14.6435 28.1318 14.6627 28.2596V28.2721ZM12.2877 24.2815C12.3988 24.3938 12.4611 24.5454 12.4611 24.7034C12.4611 24.8613 12.3988 25.0129 12.2877 25.1252L11.6627 25.7502L9.91273 24.9284C10.1809 24.7914 10.4004 24.5751 10.5413 24.3089C10.6822 24.0428 10.7377 23.7397 10.7002 23.4409C10.9002 23.244 10.7971 23.3127 11.1596 23.1284L12.2877 24.2815Z" fill="url(#paint5_linear_834_3139)"/>
<path d="M24.3965 23.506H21.409L19.009 21.0685C18.9655 21.0246 18.9099 20.9946 18.8493 20.9823C18.7888 20.97 18.7259 20.976 18.6687 20.9994C18.6115 21.0228 18.5626 21.0626 18.528 21.1139C18.4934 21.1651 18.4749 21.2255 18.4746 21.2873V23.506H17.6434C17.3997 23.506 17.166 23.6028 16.9937 23.7751C16.8214 23.9474 16.7246 24.1811 16.7246 24.4248V27.3685C16.7246 27.6122 16.8214 27.8459 16.9937 28.0182C17.166 28.1905 17.3997 28.2873 17.6434 28.2873H24.3965C24.6396 28.2864 24.8725 28.1893 25.0441 28.0171C25.2157 27.8449 25.3121 27.6116 25.3121 27.3685V24.4248C25.3121 24.1816 25.2157 23.9484 25.0441 23.7762C24.8725 23.604 24.6396 23.5068 24.3965 23.506ZM24.6871 27.3685C24.6871 27.4464 24.6562 27.5211 24.6011 27.5762C24.546 27.6313 24.4713 27.6623 24.3934 27.6623H17.6434C17.5655 27.6623 17.4907 27.6313 17.4356 27.5762C17.3806 27.5211 17.3496 27.4464 17.3496 27.3685V24.4248C17.3496 24.3469 17.3806 24.2721 17.4356 24.2171C17.4907 24.162 17.5655 24.131 17.6434 24.131H18.7871C18.87 24.131 18.9495 24.0981 19.0081 24.0395C19.0667 23.9809 19.0996 23.9014 19.0996 23.8185V22.0498L21.0559 24.0373C21.0848 24.0668 21.1193 24.0903 21.1574 24.1064C21.1955 24.1225 21.2364 24.1308 21.2777 24.131H24.4027C24.4806 24.131 24.5554 24.162 24.6104 24.2171C24.6655 24.2721 24.6965 24.3469 24.6965 24.4248L24.6871 27.3685Z" fill="url(#paint6_linear_834_3139)"/>
<path d="M1.93438 11.4937L4.33437 13.928C4.3779 13.9719 4.43345 14.0019 4.49402 14.0142C4.55459 14.0265 4.61744 14.0206 4.67464 13.9972C4.73184 13.9738 4.78081 13.9339 4.81536 13.8827C4.84991 13.8314 4.86849 13.7711 4.86875 13.7093V11.4937H5.7C5.94538 11.4887 6.17904 11.3878 6.35082 11.2125C6.52261 11.0372 6.6188 10.8016 6.61875 10.5562V7.63115C6.61875 7.38748 6.52195 7.1538 6.34965 6.9815C6.17736 6.8092 5.94367 6.7124 5.7 6.7124H0.91875C0.675082 6.7124 0.441395 6.8092 0.269096 6.9815C0.0967966 7.1538 1.87795e-08 7.38748 1.87795e-08 7.63115V10.5718C-4.90712e-05 10.8172 0.096145 11.0529 0.267925 11.2281C0.439706 11.4034 0.673373 11.5044 0.91875 11.5093L1.93438 11.4937ZM0.625 10.5718V7.63115C0.625 7.55325 0.655949 7.47853 0.711037 7.42344C0.766126 7.36835 0.840843 7.3374 0.91875 7.3374H5.7C5.77791 7.3374 5.85262 7.36835 5.90771 7.42344C5.9628 7.47853 5.99375 7.55325 5.99375 7.63115V10.5718C5.99389 10.6515 5.96356 10.7283 5.90895 10.7864C5.85434 10.8445 5.77959 10.8795 5.7 10.8843H4.55625C4.47337 10.8843 4.39388 10.9172 4.33528 10.9758C4.27667 11.0344 4.24375 11.1139 4.24375 11.1968V12.9624L2.2875 10.9624C2.25856 10.9329 2.22404 10.9094 2.18596 10.8933C2.14787 10.8772 2.10697 10.8688 2.06563 10.8687H0.91875C0.84179 10.8641 0.769223 10.8313 0.714999 10.7765C0.660775 10.7217 0.628721 10.6488 0.625 10.5718Z" fill="url(#paint7_linear_834_3139)"/>
<path d="M29.0876 11.25H24.947C24.8251 11.25 24.7043 11.2744 24.5919 11.3218C24.4796 11.3692 24.3779 11.4386 24.2928 11.526C24.2077 11.6134 24.141 11.717 24.0967 11.8306C24.0523 11.9442 24.0312 12.0656 24.0345 12.1875V16.3125C24.0345 16.5548 24.1306 16.7872 24.3016 16.9588C24.4726 17.1305 24.7047 17.2273 24.947 17.2281H29.0876C29.3299 17.2273 29.562 17.1305 29.7331 16.9588C29.9041 16.7872 30.0001 16.5548 30.0001 16.3125V12.1875C30.0035 12.0656 29.9824 11.9442 29.938 11.8306C29.8936 11.717 29.827 11.6134 29.7419 11.526C29.6568 11.4386 29.5551 11.3692 29.4427 11.3218C29.3303 11.2744 29.2096 11.25 29.0876 11.25ZM29.3751 16.3125C29.3752 16.389 29.345 16.4625 29.2911 16.5169C29.2373 16.5713 29.1642 16.6023 29.0876 16.6031H24.947C24.8705 16.6023 24.7974 16.5713 24.7435 16.5169C24.6897 16.4625 24.6595 16.389 24.6595 16.3125V12.1875C24.6595 12.1113 24.6898 12.0381 24.7437 11.9842C24.7976 11.9303 24.8708 11.9 24.947 11.9H29.0876C29.1639 11.9 29.237 11.9303 29.2909 11.9842C29.3449 12.0381 29.3751 12.1113 29.3751 12.1875V16.3125Z" fill="url(#paint8_linear_834_3139)"/>
<path d="M14.1969 5.9625H18.3344C18.5767 5.96167 18.8088 5.86484 18.9798 5.69322C19.1508 5.52159 19.2469 5.28917 19.2469 5.04687V0.909375C19.246 0.667907 19.1495 0.436611 18.9785 0.266159C18.8075 0.0957076 18.5758 -1.41577e-06 18.3344 2.48832e-10L14.1969 2.48832e-10C13.9551 -5.63203e-06 13.7232 0.0956033 13.5516 0.265967C13.3801 0.43633 13.2829 0.667621 13.2812 0.909375V5.04687C13.2821 5.28946 13.3788 5.52187 13.5503 5.69341C13.7219 5.86494 13.9543 5.96168 14.1969 5.9625ZM13.9062 0.909375C13.9079 0.833385 13.9392 0.761059 13.9936 0.707901C14.0479 0.654742 14.1209 0.624982 14.1969 0.625H18.3344C18.4106 0.625 18.4838 0.65529 18.5377 0.709207C18.5916 0.763124 18.6219 0.83625 18.6219 0.9125V5.04687C18.6219 5.12342 18.5917 5.19687 18.5379 5.25128C18.484 5.30569 18.4109 5.33668 18.3344 5.3375H14.1969C14.1198 5.3375 14.0459 5.30688 13.9914 5.25238C13.9369 5.19788 13.9062 5.12395 13.9062 5.04687V0.909375Z" fill="url(#paint9_linear_834_3139)"/>
<path d="M15.5224 4.37512L17.338 3.25637C17.3832 3.22834 17.4205 3.18924 17.4464 3.14275C17.4723 3.09627 17.4859 3.04395 17.4859 2.99074C17.4859 2.93754 17.4723 2.88522 17.4464 2.83874C17.4205 2.79225 17.3832 2.75315 17.338 2.72512L15.5224 1.59699C15.4741 1.56676 15.4185 1.55029 15.3616 1.54936C15.3046 1.54842 15.2485 1.56306 15.1993 1.59169C15.1501 1.62032 15.1096 1.66186 15.0823 1.71181C15.055 1.76176 15.0418 1.81823 15.0442 1.87512V4.10949C15.0441 4.16533 15.059 4.22018 15.0872 4.26833C15.1155 4.31648 15.1562 4.35618 15.205 4.38329C15.2538 4.41041 15.309 4.42395 15.3648 4.42252C15.4206 4.42108 15.475 4.40471 15.5224 4.37512ZM15.6692 2.43449L16.563 2.97824L15.6567 3.53762L15.6692 2.43449Z" fill="url(#paint10_linear_834_3139)"/>
<path d="M22.7348 8.6873H26.8754C27.1174 8.6873 27.3495 8.59117 27.5206 8.42004C27.6918 8.24891 27.7879 8.01681 27.7879 7.7748V3.6373C27.7879 3.39501 27.6919 3.16259 27.5208 2.99096C27.3498 2.81934 27.1177 2.72251 26.8754 2.72168H22.7348C22.4925 2.72251 22.2604 2.81934 22.0893 2.99096C21.9183 3.16259 21.8223 3.39501 21.8223 3.6373V7.7748C21.8223 8.01681 21.9184 8.24891 22.0895 8.42004C22.2607 8.59117 22.4928 8.6873 22.7348 8.6873ZM22.4473 3.6373C22.4473 3.56076 22.4775 3.48731 22.5313 3.4329C22.5851 3.37848 22.6582 3.3475 22.7348 3.34668H26.8754C26.9519 3.3475 27.025 3.37848 27.0789 3.4329C27.1327 3.48731 27.1629 3.56076 27.1629 3.6373V7.7748C27.1629 7.85105 27.1326 7.92418 27.0787 7.9781C27.0248 8.03201 26.9516 8.0623 26.8754 8.0623H22.7348C22.6585 8.0623 22.5854 8.03201 22.5315 7.9781C22.4776 7.92418 22.4473 7.85105 22.4473 7.7748V3.6373Z" fill="url(#paint11_linear_834_3139)"/>
<path d="M24.8059 7.36563C25.1341 7.36563 25.4549 7.26831 25.7278 7.08597C26.0006 6.90364 26.2133 6.64448 26.3389 6.34127C26.4645 6.03805 26.4974 5.70441 26.4333 5.38252C26.3693 5.06064 26.2113 4.76496 25.9792 4.5329C25.7471 4.30083 25.4515 4.14279 25.1296 4.07876C24.8077 4.01473 24.4741 4.04759 24.1708 4.17319C23.8676 4.29878 23.6085 4.51147 23.4261 4.78435C23.2438 5.05723 23.1465 5.37806 23.1465 5.70625C23.1473 6.14609 23.3224 6.56768 23.6334 6.87869C23.9444 7.18971 24.366 7.3648 24.8059 7.36563ZM24.8059 4.67188C25.0104 4.67188 25.2104 4.73254 25.3805 4.8462C25.5506 4.95986 25.6832 5.12141 25.7615 5.31041C25.8398 5.49942 25.8603 5.7074 25.8204 5.90805C25.7804 6.1087 25.6819 6.293 25.5373 6.43766C25.3926 6.58232 25.2083 6.68084 25.0077 6.72075C24.807 6.76066 24.599 6.74018 24.41 6.66189C24.221 6.5836 24.0595 6.45102 23.9458 6.28092C23.8322 6.11082 23.7715 5.91083 23.7715 5.70625C23.7756 5.43463 23.8864 5.17553 24.0799 4.98492C24.2735 4.7943 24.5342 4.68747 24.8059 4.6875V4.67188Z" fill="url(#paint12_linear_834_3139)"/>
<path d="M23.8564 24.8467H18.2314C18.1486 24.8467 18.0691 24.8796 18.0105 24.9382C17.9519 24.9968 17.9189 25.0763 17.9189 25.1592C17.9189 25.2421 17.9519 25.3215 18.0105 25.3802C18.0691 25.4388 18.1486 25.4717 18.2314 25.4717H23.8564C23.9393 25.4717 24.0188 25.4388 24.0774 25.3802C24.136 25.3215 24.1689 25.2421 24.1689 25.1592C24.1689 25.0763 24.136 24.9968 24.0774 24.9382C24.0188 24.8796 23.9393 24.8467 23.8564 24.8467Z" fill="url(#paint13_linear_834_3139)"/>
<path d="M23.8564 26.3564H18.2314C18.1486 26.3564 18.0691 26.3894 18.0105 26.448C17.9519 26.5066 17.9189 26.5861 17.9189 26.6689C17.9189 26.7518 17.9519 26.8313 18.0105 26.8899C18.0691 26.9485 18.1486 26.9814 18.2314 26.9814H23.8564C23.9393 26.9814 24.0188 26.9485 24.0774 26.8899C24.136 26.8313 24.1689 26.7518 24.1689 26.6689C24.1689 26.5861 24.136 26.5066 24.0774 26.448C24.0188 26.3894 23.9393 26.3564 23.8564 26.3564Z" fill="url(#paint14_linear_834_3139)"/>
<path d="M1.64062 8.62207H4.97813C5.06101 8.62207 5.14049 8.58915 5.1991 8.53054C5.2577 8.47194 5.29063 8.39245 5.29063 8.30957C5.29063 8.22669 5.2577 8.1472 5.1991 8.0886C5.14049 8.02999 5.06101 7.99707 4.97813 7.99707H1.64062C1.55774 7.99707 1.47826 8.02999 1.41965 8.0886C1.36105 8.1472 1.32812 8.22669 1.32812 8.30957C1.32812 8.39245 1.36105 8.47194 1.41965 8.53054C1.47826 8.58915 1.55774 8.62207 1.64062 8.62207Z" fill="url(#paint15_linear_834_3139)"/>
<path d="M1.64062 10.1313H4.97813C5.06101 10.1313 5.14049 10.0984 5.1991 10.0398C5.2577 9.98121 5.29063 9.90173 5.29063 9.81885C5.29063 9.73597 5.2577 9.65648 5.1991 9.59788C5.14049 9.53927 5.06101 9.50635 4.97813 9.50635H1.64062C1.55774 9.50635 1.47826 9.53927 1.41965 9.59788C1.36105 9.65648 1.32812 9.73597 1.32812 9.81885C1.32812 9.90173 1.36105 9.98121 1.41965 10.0398C1.47826 10.0984 1.55774 10.1313 1.64062 10.1313Z" fill="url(#paint16_linear_834_3139)"/>
<defs>
<linearGradient id="paint0_linear_834_3139" x1="3.95201" y1="22.3496" x2="3.95201" y2="24.003" gradientUnits="userSpaceOnUse">
<stop stop-color="#3E66F3"/>
<stop offset="1" stop-color="#0031DD"/>
</linearGradient>
<linearGradient id="paint1_linear_834_3139" x1="20.633" y1="13.3467" x2="20.633" y2="13.9717" gradientUnits="userSpaceOnUse">
<stop stop-color="#3E66F3"/>
<stop offset="1" stop-color="#0031DD"/>
</linearGradient>
<linearGradient id="paint2_linear_834_3139" x1="19.1516" y1="9.25928" x2="19.1516" y2="10.9175" gradientUnits="userSpaceOnUse">
<stop stop-color="#3E66F3"/>
<stop offset="1" stop-color="#0031DD"/>
</linearGradient>
<linearGradient id="paint3_linear_834_3139" x1="15.5811" y1="7.56543" x2="15.5811" y2="9.6498" gradientUnits="userSpaceOnUse">
<stop stop-color="#3E66F3"/>
<stop offset="1" stop-color="#0031DD"/>
</linearGradient>
<linearGradient id="paint4_linear_834_3139" x1="27.0828" y1="12.5542" x2="27.0828" y2="15.8061" gradientUnits="userSpaceOnUse">
<stop stop-color="#3E66F3"/>
<stop offset="1" stop-color="#0031DD"/>
</linearGradient>
<linearGradient id="paint5_linear_834_3139" x1="10.7639" y1="7.78809" x2="10.7639" y2="30.0019" gradientUnits="userSpaceOnUse">
<stop stop-color="#3E66F3"/>
<stop offset="1" stop-color="#0031DD"/>
</linearGradient>
<linearGradient id="paint6_linear_834_3139" x1="21.0184" y1="20.9761" x2="21.0184" y2="28.2873" gradientUnits="userSpaceOnUse">
<stop stop-color="#3E66F3"/>
<stop offset="1" stop-color="#0031DD"/>
</linearGradient>
<linearGradient id="paint7_linear_834_3139" x1="3.30938" y1="6.7124" x2="3.30938" y2="14.0205" gradientUnits="userSpaceOnUse">
<stop stop-color="#3E66F3"/>
<stop offset="1" stop-color="#0031DD"/>
</linearGradient>
<linearGradient id="paint8_linear_834_3139" x1="27.0173" y1="11.25" x2="27.0173" y2="17.2281" gradientUnits="userSpaceOnUse">
<stop stop-color="#3E66F3"/>
<stop offset="1" stop-color="#0031DD"/>
</linearGradient>
<linearGradient id="paint9_linear_834_3139" x1="16.2641" y1="0" x2="16.2641" y2="5.9625" gradientUnits="userSpaceOnUse">
<stop stop-color="#3E66F3"/>
<stop offset="1" stop-color="#0031DD"/>
</linearGradient>
<linearGradient id="paint10_linear_834_3139" x1="16.2649" y1="1.54932" x2="16.2649" y2="4.42262" gradientUnits="userSpaceOnUse">
<stop stop-color="#3E66F3"/>
<stop offset="1" stop-color="#0031DD"/>
</linearGradient>
<linearGradient id="paint11_linear_834_3139" x1="24.8051" y1="2.72168" x2="24.8051" y2="8.6873" gradientUnits="userSpaceOnUse">
<stop stop-color="#3E66F3"/>
<stop offset="1" stop-color="#0031DD"/>
</linearGradient>
<linearGradient id="paint12_linear_834_3139" x1="24.8059" y1="4.04688" x2="24.8059" y2="7.36563" gradientUnits="userSpaceOnUse">
<stop stop-color="#3E66F3"/>
<stop offset="1" stop-color="#0031DD"/>
</linearGradient>
<linearGradient id="paint13_linear_834_3139" x1="21.0439" y1="24.8467" x2="21.0439" y2="25.4717" gradientUnits="userSpaceOnUse">
<stop stop-color="#3E66F3"/>
<stop offset="1" stop-color="#0031DD"/>
</linearGradient>
<linearGradient id="paint14_linear_834_3139" x1="21.0439" y1="26.3564" x2="21.0439" y2="26.9814" gradientUnits="userSpaceOnUse">
<stop stop-color="#3E66F3"/>
<stop offset="1" stop-color="#0031DD"/>
</linearGradient>
<linearGradient id="paint15_linear_834_3139" x1="3.30938" y1="7.99707" x2="3.30938" y2="8.62207" gradientUnits="userSpaceOnUse">
<stop stop-color="#3E66F3"/>
<stop offset="1" stop-color="#0031DD"/>
</linearGradient>
<linearGradient id="paint16_linear_834_3139" x1="3.30938" y1="9.50635" x2="3.30938" y2="10.1313" gradientUnits="userSpaceOnUse">
<stop stop-color="#3E66F3"/>
<stop offset="1" stop-color="#0031DD"/>
</linearGradient>
</defs>
</svg>
