<svg width="58" height="58" viewBox="0 0 58 58" fill="none" xmlns="http://www.w3.org/2000/svg">
<g clip-path="url(#clip0_549_2183)">
<path d="M32.8716 26.1903C32.8716 24.0386 31.1264 22.2881 28.9813 22.2881C26.836 22.2881 25.0908 24.0386 25.0908 26.1903C25.0908 28 26.3253 29.5254 27.9938 29.965L28.0135 34.0999C28.0161 34.6458 28.4595 35.0726 29.0048 35.0726H29.0097C29.5572 35.0726 29.9989 34.6436 29.9964 34.096L29.9767 29.9627C31.6412 29.5204 32.8716 27.997 32.8716 26.1903ZM28.9814 28.1098C27.9296 28.1098 27.0739 27.2487 27.0739 26.1903C27.0739 25.1319 27.9295 24.271 28.9814 24.271C30.0331 24.271 30.8888 25.1319 30.8888 26.1903C30.8888 27.2487 30.0331 28.1098 28.9814 28.1098Z" fill="#3E66F3"/>
<path d="M54.2785 25.0347C52.5701 25.0347 51.1279 26.1494 50.6924 27.7605H44.0189C44.4104 25.9015 44.6951 24.0425 44.9164 22.0596H49.7587C50.3062 22.0596 50.688 21.6542 50.688 21.1067V11.6383C52.2991 11.2054 53.4546 9.76325 53.4546 8.05461C53.4546 6.0049 51.8007 4.3374 49.7485 4.3374C47.6964 4.3374 46.0038 6.0049 46.0038 8.05461C46.0038 9.75941 47.2179 11.1989 48.7051 11.6354V20.0767H45.1214C45.2655 18.5895 45.3804 16.9877 45.4871 15.4087C45.5299 14.7758 44.9597 14.2933 44.3455 14.3888C43.1681 14.6139 41.9776 14.7836 40.7766 14.7836C36.7872 14.7833 33.1216 12.9744 29.6298 9.30867C29.1334 8.88569 28.6451 8.89474 28.1651 9.33581C24.457 13.6859 19.3118 15.4943 13.6553 14.3884C13.0388 14.2678 12.4329 14.7757 12.4758 15.409C12.5845 17.013 12.6989 18.5895 12.8386 20.0767H9.54274V11.6354C11.0299 11.1989 12.257 9.75953 12.257 8.05461C12.257 6.0049 10.5823 4.3374 8.53021 4.3374C6.47815 4.3374 4.81648 6.0049 4.81648 8.05461C4.81648 9.76338 5.94872 11.2054 7.55983 11.6383V21.1066C7.55983 21.6541 7.98268 22.0595 8.53021 22.0595H13.0391C13.2582 24.0424 13.5377 25.9014 13.9232 27.7603H7.30775C6.87213 26.1492 5.43006 25.0346 3.72167 25.0346C1.66948 25.0347 0 26.7023 0 28.7521C0 30.8016 1.66948 32.4691 3.72154 32.4691C5.42994 32.4691 6.87201 31.3545 7.30763 29.7434H14.396C14.9269 31.7306 15.6775 33.5739 16.5136 35.4442H8.53021C7.98268 35.4442 7.55983 35.8497 7.55983 36.3973V46.3627C5.94872 46.7974 4.81933 48.2382 4.81933 49.945C4.81933 51.9947 6.48348 53.6622 8.53554 53.6622C10.5877 53.6622 12.265 51.9947 12.265 49.945C12.265 48.2382 11.1538 46.7974 9.54274 46.3627V37.4271H17.6486C20.1877 41.3929 23.8176 44.1861 28.6489 45.9878C28.8821 46.0577 29.1158 46.0584 29.3495 45.9896C34.1361 44.1582 37.7404 41.269 40.2713 37.4271H48.7051V46.3627C47.2179 46.7974 46.006 48.2382 46.006 49.945C46.006 51.9947 47.691 53.6622 49.7432 53.6622C51.7954 53.6622 53.4414 51.9947 53.4414 49.945C53.4414 48.2382 52.2991 46.7974 50.688 46.3627V36.3974C50.688 35.8499 50.3062 35.4444 49.7587 35.4444H41.4129C42.2651 33.5796 43.0137 31.7283 43.5435 29.7435H50.6922C51.1279 31.3546 52.5699 32.4693 54.2783 32.4693C56.3305 32.4691 58 30.8016 58 28.7519C58 26.7022 56.3305 25.0347 54.2785 25.0347ZM48.0255 8.05461C48.0255 7.09823 48.8054 6.32031 49.764 6.32031C50.7226 6.32031 51.5026 7.09823 51.5026 8.05461C51.5026 9.01099 50.7226 9.78891 49.764 9.78891C48.8054 9.78891 48.0255 9.01099 48.0255 8.05461ZM6.78625 8.05461C6.78625 7.09823 7.56627 6.32031 8.52489 6.32031C9.4835 6.32031 10.2635 7.09823 10.2635 8.05461C10.2635 9.01099 9.4835 9.78891 8.52489 9.78891C7.56627 9.78891 6.78625 9.01099 6.78625 8.05461ZM3.72154 30.4862C2.76293 30.4862 1.98291 29.7083 1.98291 28.7521C1.98291 27.7957 2.76293 27.0178 3.72154 27.0178C4.68015 27.0178 5.46018 27.7957 5.46018 28.7521C5.4603 29.7083 4.68028 30.4862 3.72154 30.4862ZM10.2689 49.945C10.2689 50.9014 9.48882 51.6793 8.53021 51.6793C7.5716 51.6793 6.7917 50.9014 6.7917 49.945C6.7917 48.9886 7.5716 48.2107 8.53021 48.2107C9.48882 48.2107 10.2689 48.9886 10.2689 49.945ZM51.4973 49.945C51.4973 50.9014 50.7173 51.6793 49.7587 51.6793C48.8001 51.6793 48.02 50.9014 48.02 49.945C48.02 48.9886 48.8001 48.2107 49.7587 48.2107C50.7173 48.2107 51.4973 48.9886 51.4973 49.945ZM14.5416 16.5395C19.8911 17.2289 25.3568 15.5624 28.9579 11.441C32.8551 15.2197 37.9377 17.4465 43.422 16.5319C42.4952 29.2732 40.5853 39.3571 28.9908 43.9769C17.3895 39.4658 15.475 29.3458 14.5416 16.5395ZM54.2785 30.4862C53.3198 30.4862 52.5398 29.7083 52.5398 28.7521C52.5398 27.7957 53.3198 27.0178 54.2785 27.0178C55.2371 27.0178 56.0171 27.7957 56.0171 28.7521C56.0171 29.7083 55.2371 30.4862 54.2785 30.4862Z" fill="#3E66F3"/>
</g>
<defs>
<clipPath id="clip0_549_2183">
<rect width="58" height="58" fill="white"/>
</clipPath>
</defs>
</svg>
