<svg width="58" height="58" viewBox="0 0 58 58" fill="none" xmlns="http://www.w3.org/2000/svg">
<path d="M53.4688 1.8125H4.53125C3.81045 1.81332 3.1194 2.10003 2.60971 2.60971C2.10003 3.1194 1.81332 3.81045 1.8125 4.53125V44.4062C1.81332 45.1271 2.10003 45.8181 2.60971 46.3278C3.1194 46.8375 3.81045 47.1242 4.53125 47.125H23.2507L21.0757 54.375H18.125V56.1875H39.875V54.375H36.9243L34.7493 47.125H53.4688C54.1896 47.1242 54.8806 46.8375 55.3903 46.3278C55.9 45.8181 56.1867 45.1271 56.1875 44.4062V4.53125C56.1867 3.81045 55.9 3.1194 55.3903 2.60971C54.8806 2.10003 54.1896 1.81332 53.4688 1.8125ZM35.032 54.375H22.968L25.143 47.125H32.857L35.032 54.375ZM54.375 44.4062C54.3747 44.6465 54.2792 44.8769 54.1093 45.0468C53.9394 45.2167 53.709 45.3122 53.4688 45.3125H4.53125C4.29098 45.3122 4.06063 45.2167 3.89074 45.0468C3.72084 44.8769 3.62527 44.6465 3.625 44.4062V41.6875H54.375V44.4062ZM54.375 39.875H3.625V4.53125C3.62527 4.29098 3.72084 4.06063 3.89074 3.89074C4.06063 3.72084 4.29098 3.62527 4.53125 3.625H53.4688C53.709 3.62527 53.9394 3.72084 54.1093 3.89074C54.2792 4.06063 54.3747 4.29098 54.375 4.53125V39.875Z" fill="#3E66F3"/>
<path d="M49.8438 17.2188H37.907C37.7879 17.2191 37.67 17.1958 37.56 17.1502C37.45 17.1046 37.3501 17.0377 37.2662 16.9533L34.7029 14.39C34.4511 14.1368 34.1515 13.936 33.8215 13.7993C33.4915 13.6627 33.1377 13.5928 32.7805 13.5938H22.6562C21.9354 13.5946 21.2444 13.8813 20.7347 14.391C20.225 14.9007 19.9383 15.5917 19.9375 16.3125V35.3438C19.9383 36.0646 20.225 36.7556 20.7347 37.2653C21.2444 37.775 21.9354 38.0617 22.6562 38.0625H49.8438C50.5646 38.0617 51.2556 37.775 51.7653 37.2653C52.275 36.7556 52.5617 36.0646 52.5625 35.3438V19.9375C52.5617 19.2167 52.275 18.5257 51.7653 18.016C51.2556 17.5063 50.5646 17.2196 49.8438 17.2188ZM50.75 35.3438C50.7497 35.584 50.6542 35.8144 50.4843 35.9843C50.3144 36.1542 50.084 36.2497 49.8438 36.25H22.6562C22.416 36.2497 22.1856 36.1542 22.0157 35.9843C21.8458 35.8144 21.7503 35.584 21.75 35.3438V16.3125C21.7503 16.0722 21.8458 15.8419 22.0157 15.672C22.1856 15.5021 22.416 15.4065 22.6562 15.4063H32.7805C32.8996 15.4059 33.0175 15.4292 33.1275 15.4748C33.2375 15.5204 33.3374 15.5873 33.4213 15.6718L35.9846 18.235C36.2364 18.4882 36.536 18.689 36.866 18.8257C37.196 18.9624 37.5498 19.0322 37.907 19.0313H49.8438C50.084 19.0315 50.3144 19.1271 50.4843 19.297C50.6542 19.4669 50.7497 19.6972 50.75 19.9375V35.3438Z" fill="#3E66F3"/>
<path d="M30.172 22.0156L25 27.1877L30.172 32.3598L31.4536 31.0781L27.5631 27.1877L31.4536 23.2973L30.172 22.0156Z" fill="#3E66F3"/>
<path d="M33.6533 31.2949L38.1879 23.1401L39.7719 24.021L35.2373 32.1757L33.6533 31.2949Z" fill="#3E66F3"/>
<path d="M41.0469 23.2973L44.9374 27.1877L41.0469 31.0781L42.3285 32.3598L47.5005 27.1877L42.3285 22.0156L41.0469 23.2973Z" fill="#3E66F3"/>
<path d="M22.9728 7.25L24.4403 10.6732L27.6768 12.0143L31.1408 10.6301L32.9328 12.4221L34.2143 11.1404L31.5777 8.50357L27.6892 10.0574L25.8156 9.28113L24.1678 5.4375H19.3322L17.6846 9.28113L15.8108 10.0574L11.9224 8.50357L8.50368 11.9224L10.0574 15.8108L9.28113 17.6844L5.4375 19.3322V24.1678L9.28102 25.8156L10.0574 27.6892L8.50357 31.5776L11.9223 34.9964L15.8108 33.4426L17.778 34.2577L18.472 32.5833L15.8232 31.4857L12.3592 32.8699L10.6301 31.1408L12.0143 27.6768L10.6731 24.4402L7.25 22.9728V20.5272L10.6732 19.0598L12.0143 15.8232L10.6301 12.3592L12.3593 10.6301L15.8232 12.0143L19.0597 10.6732L20.5272 7.25H22.9728Z" fill="#3E66F3"/>
<path d="M18.5283 15.253L17.7217 13.6299C16.2099 14.3805 14.9376 15.5383 14.0482 16.9729C13.1587 18.4075 12.6875 20.0619 12.6875 21.7498C12.6875 23.4378 13.1587 25.0922 14.0482 26.5268C14.9376 27.9614 16.2099 29.1192 17.7217 29.8698L18.5283 28.2467C17.3185 27.6462 16.3005 26.7199 15.5888 25.572C14.8771 24.4242 14.5 23.1004 14.5 21.7498C14.5 20.3993 14.8771 19.0755 15.5888 17.9277C16.3005 16.7798 17.3185 15.8535 18.5283 15.253Z" fill="#3E66F3"/>
</svg>
