<svg width="40" height="40" viewBox="0 0 40 40" fill="none" xmlns="http://www.w3.org/2000/svg">
<path d="M20.625 35H19.375V36.25H20.625V35Z" fill="#3E66F3"/>
<path d="M4.375 15H6.67484L10.8869 18.0088C10.9889 18.0816 11.1104 18.122 11.2357 18.1249C11.361 18.1277 11.4843 18.0929 11.5895 18.0248C11.6947 17.9567 11.777 17.8586 11.8258 17.7431C11.8745 17.6277 11.8874 17.5002 11.8628 17.3773L11.3873 15H15.625C16.4535 14.999 17.2478 14.6695 17.8336 14.0836C18.4195 13.4978 18.749 12.7035 18.75 11.875V4.375C18.749 3.5465 18.4195 2.75221 17.8336 2.16636C17.2478 1.58052 16.4535 1.25097 15.625 1.25H4.375C3.5465 1.25097 2.75221 1.58052 2.16636 2.16636C1.58052 2.75221 1.25097 3.5465 1.25 4.375V11.875C1.25097 12.7035 1.58052 13.4978 2.16636 14.0836C2.75221 14.6695 3.5465 14.999 4.375 15ZM2.5 4.375C2.50056 3.87789 2.69828 3.4013 3.04979 3.04979C3.4013 2.69828 3.87789 2.50056 4.375 2.5H15.625C16.1221 2.50056 16.5987 2.69828 16.9502 3.04979C17.3017 3.4013 17.4994 3.87789 17.5 4.375V11.875C17.4994 12.3721 17.3017 12.8487 16.9502 13.2002C16.5987 13.5517 16.1221 13.7494 15.625 13.75H10.625C10.5325 13.75 10.4412 13.7705 10.3576 13.8101C10.274 13.8497 10.2003 13.9073 10.1417 13.9788C10.083 14.0503 10.041 14.134 10.0186 14.2237C9.99624 14.3134 9.99404 14.407 10.0122 14.4977L10.3272 16.0727L7.23813 13.8663C7.13215 13.7906 7.0052 13.75 6.875 13.75H4.375C3.87789 13.7494 3.4013 13.5517 3.04979 13.2002C2.69828 12.8487 2.50056 12.3721 2.5 11.875V4.375Z" fill="#3E66F3"/>
<path d="M5.62505 7.50003V11.25C5.62505 11.4158 5.6909 11.5748 5.80811 11.692C5.92532 11.8092 6.08429 11.875 6.25005 11.875H11.2501C11.4158 11.875 11.5748 11.8092 11.692 11.692C11.8092 11.5748 11.8751 11.4158 11.8751 11.25V11.0114L13.4705 11.8091C13.5658 11.8567 13.6717 11.8792 13.7781 11.8745C13.8846 11.8697 13.988 11.8378 14.0786 11.7817C14.1693 11.7257 14.2441 11.6475 14.296 11.5544C14.3478 11.4614 14.3751 11.3566 14.3751 11.25V7.50003C14.3751 7.39349 14.3478 7.28871 14.296 7.19565C14.2441 7.10259 14.1693 7.02434 14.0786 6.96833C13.988 6.91231 13.8846 6.88039 13.7781 6.87561C13.6717 6.87082 13.5658 6.89332 13.4705 6.94097L11.8751 7.7387V7.50003C11.8751 7.48964 11.8697 7.48097 11.8691 7.47073C12.0722 7.26641 12.2329 7.02392 12.3419 6.75723C12.451 6.49054 12.5062 6.20492 12.5043 5.91682C12.5025 5.62872 12.4437 5.34382 12.3313 5.07853C12.219 4.81324 12.0552 4.5728 11.8495 4.37106C11.6438 4.16931 11.4003 4.01025 11.1329 3.90302C10.8655 3.7958 10.5795 3.74253 10.2914 3.74628C10.0033 3.75003 9.7188 3.81073 9.45427 3.92489C9.18975 4.03905 8.95041 4.2044 8.75005 4.41144C8.54969 4.2044 8.31036 4.03905 8.04583 3.92489C7.7813 3.81073 7.4968 3.75003 7.20872 3.74628C6.92063 3.74253 6.63465 3.7958 6.36724 3.90302C6.09982 4.01025 5.85626 4.16931 5.65058 4.37106C5.44489 4.5728 5.28114 4.81324 5.16876 5.07853C5.05638 5.34382 4.99759 5.62872 4.99577 5.91682C4.99395 6.20492 5.04914 6.49054 5.15816 6.75723C5.26717 7.02392 5.42787 7.26641 5.63099 7.47073C5.63044 7.48097 5.62505 7.48964 5.62505 7.50003ZM10.6251 10.625H6.87505V8.12503H10.6251V10.625ZM13.1251 8.51136V10.2387L11.8751 9.6137V9.13636L13.1251 8.51136ZM10.3126 5.00003C10.498 5.00003 10.6792 5.05501 10.8334 5.15803C10.9876 5.26104 11.1077 5.40746 11.1787 5.57877C11.2496 5.75007 11.2682 5.93857 11.232 6.12043C11.1959 6.30229 11.1066 6.46933 10.9755 6.60044C10.8444 6.73156 10.6773 6.82084 10.4954 6.85702C10.3136 6.89319 10.1251 6.87463 9.95378 6.80367C9.78248 6.73271 9.63606 6.61255 9.53305 6.45838C9.43003 6.30421 9.37505 6.12295 9.37505 5.93753C9.37532 5.68897 9.47418 5.45067 9.64993 5.27492C9.82569 5.09916 10.064 5.0003 10.3126 5.00003ZM7.18755 5.00003C7.37297 5.00003 7.55423 5.05501 7.7084 5.15803C7.86257 5.26104 7.98273 5.40746 8.05369 5.57877C8.12464 5.75007 8.14321 5.93857 8.10704 6.12043C8.07086 6.30229 7.98158 6.46933 7.85046 6.60044C7.71935 6.73156 7.55231 6.82084 7.37045 6.85702C7.18859 6.89319 7.00009 6.87463 6.82879 6.80367C6.65748 6.73271 6.51106 6.61255 6.40805 6.45838C6.30503 6.30421 6.25005 6.12295 6.25005 5.93753C6.25032 5.68897 6.34918 5.45067 6.52493 5.27492C6.70069 5.09916 6.93899 5.0003 7.18755 5.00003Z" fill="#3E66F3"/>
<path d="M35.625 6.25H29.9368C29.7918 5.54472 29.4081 4.91097 28.8504 4.45558C28.2927 4.00019 27.595 3.751 26.875 3.75H20V5H26.875C27.2615 5.00118 27.6381 5.12197 27.9532 5.34578C28.2683 5.56959 28.5064 5.88546 28.6348 6.25H23.125C22.2965 6.25097 21.5022 6.58052 20.9164 7.16636C20.3305 7.75221 20.001 8.5465 20 9.375V16.875C20.001 17.7035 20.3305 18.4978 20.9164 19.0836C21.5022 19.6695 22.2965 19.999 23.125 20H27.9877L27.5122 22.3773C27.4876 22.5002 27.5005 22.6277 27.5492 22.7431C27.598 22.8586 27.6803 22.9567 27.7855 23.0248C27.8907 23.0929 28.014 23.1277 28.1393 23.1249C28.2646 23.122 28.3861 23.0816 28.4881 23.0087L28.75 22.8217V25.3662L27.0044 23.6206C26.7412 23.3574 26.4287 23.1486 26.0848 23.0062C25.7408 22.8637 25.3722 22.7904 25 22.7904C24.6278 22.7904 24.2592 22.8637 23.9152 23.0062C23.5713 23.1486 23.2588 23.3574 22.9956 23.6206C22.7324 23.8838 22.5236 24.1963 22.3812 24.5402C22.2387 24.8842 22.1654 25.2528 22.1654 25.625C22.1654 25.9972 22.2387 26.3658 22.3812 26.7098C22.5236 27.0537 22.7324 27.3662 22.9956 27.6294L26.6944 31.3281C26.4556 31.6956 26.2587 32.0887 26.1074 32.5H10V35.625C10.001 36.4535 10.3305 37.2478 10.9164 37.8336C11.5022 38.4195 12.2965 38.749 13.125 38.75H35C35.1658 38.75 35.3247 38.6842 35.4419 38.5669C35.5592 38.4497 35.625 38.2908 35.625 38.125V26.275C35.6275 24.6241 35.0331 23.0279 33.9514 21.7807L32.6216 20.0562L32.7002 20H35.625C36.4535 19.999 37.2478 19.6695 37.8336 19.0836C38.4195 18.4978 38.749 17.7035 38.75 16.875V9.375C38.749 8.5465 38.4195 7.75221 37.8336 7.16636C37.2478 6.58052 36.4535 6.25097 35.625 6.25ZM23.125 7.5H35.625C36.1221 7.50056 36.5987 7.69828 36.9502 8.04979C37.3017 8.4013 37.4994 8.87789 37.5 9.375V15.7072L34.7217 13.855C34.619 13.7866 34.4984 13.7502 34.375 13.7502C34.2516 13.7502 34.131 13.7866 34.0283 13.855L30.6463 16.1094L26 12.625C25.8919 12.5439 25.7604 12.5 25.6252 12.5C25.4901 12.5 25.3586 12.5439 25.2505 12.625L21.25 15.625V9.375C21.2506 8.87789 21.4483 8.4013 21.7998 8.04979C22.1513 7.69828 22.6279 7.50056 23.125 7.5ZM11.25 35.625V33.75H25.7591C25.5571 35.0331 25.7708 36.3471 26.3689 37.5H13.125C12.6279 37.4994 12.1513 37.3017 11.7998 36.9502C11.4483 36.5987 11.2506 36.1221 11.25 35.625ZM32.9859 22.5735C33.8815 23.5986 34.3751 24.9137 34.375 26.275V37.5H27.8155C27.3905 36.8981 27.1085 36.2071 26.9909 35.4798C26.8733 34.7524 26.9232 34.0077 27.1369 33.3026C27.2707 32.8461 27.4732 32.4127 27.7374 32.0172L28.0187 31.5985C28.0994 31.4783 28.1359 31.3337 28.1219 31.1895C28.1078 31.0454 28.0441 30.9105 27.9417 30.8081L23.8792 26.7456C23.7321 26.5985 23.6154 26.4238 23.5357 26.2315C23.4561 26.0392 23.4151 25.8332 23.4152 25.625C23.4152 25.2048 23.5822 24.8017 23.8794 24.5045C24.1766 24.2074 24.5797 24.0404 25 24.0405C25.2081 24.0405 25.4141 24.0815 25.6064 24.1611C25.7986 24.2408 25.9733 24.3575 26.1205 24.5047L31.433 29.8172L32.3167 28.9334L30 26.6162V21.9287L31.6038 20.7832L32.9859 22.5735ZM35.625 18.75H32.5C32.3698 18.75 32.2429 18.7906 32.1369 18.8663L29.0478 21.0727L29.3628 19.4977C29.381 19.407 29.3788 19.3134 29.3564 19.2237C29.334 19.134 29.292 19.0503 29.2333 18.9788C29.1747 18.9073 29.101 18.8497 29.0174 18.8101C28.9338 18.7705 28.8425 18.75 28.75 18.75H23.125C22.6791 18.7488 22.2482 18.5886 21.9098 18.2981C21.5715 18.0076 21.3479 17.6059 21.2793 17.1652L25.625 13.9062L30.25 17.375C30.3534 17.4527 30.4783 17.4963 30.6075 17.4999C30.7368 17.5035 30.8639 17.4669 30.9715 17.3952L34.375 15.126L37.4688 17.1885C37.395 17.6245 37.1695 18.0203 36.8321 18.3061C36.4947 18.5918 36.0671 18.7491 35.625 18.75Z" fill="#3E66F3"/>
<path d="M30.625 13.75C31.1195 13.75 31.6028 13.6034 32.0139 13.3287C32.425 13.054 32.7455 12.6635 32.9347 12.2067C33.1239 11.7499 33.1734 11.2472 33.077 10.7623C32.9805 10.2773 32.7424 9.83187 32.3928 9.48223C32.0431 9.1326 31.5977 8.8945 31.1127 8.79804C30.6278 8.70157 30.1251 8.75108 29.6683 8.9403C29.2115 9.12952 28.821 9.44995 28.5463 9.86108C28.2716 10.2722 28.125 10.7555 28.125 11.25C28.1257 11.9128 28.3893 12.5483 28.858 13.017C29.3267 13.4857 29.9622 13.7493 30.625 13.75ZM30.625 10C30.8722 10 31.1139 10.0733 31.3195 10.2107C31.525 10.348 31.6852 10.5432 31.7798 10.7716C31.8745 11.0001 31.8992 11.2514 31.851 11.4939C31.8028 11.7363 31.6837 11.9591 31.5089 12.1339C31.3341 12.3087 31.1113 12.4278 30.8689 12.476C30.6264 12.5242 30.3751 12.4995 30.1466 12.4049C29.9182 12.3102 29.723 12.15 29.5857 11.9445C29.4483 11.7389 29.375 11.4972 29.375 11.25C29.3754 10.9186 29.5072 10.6009 29.7415 10.3666C29.9759 10.1322 30.2936 10.0004 30.625 10Z" fill="#3E66F3"/>
<path d="M4.375 31.2502H14.375C15.2035 31.2493 15.9978 30.9197 16.5836 30.3339C17.1695 29.748 17.499 28.9537 17.5 28.1252V24.3752C17.499 23.5467 17.1695 22.7524 16.5836 22.1666C15.9978 21.5808 15.2035 21.2512 14.375 21.2502H13.9258L14.3561 19.5269C14.3858 19.4081 14.3799 19.2832 14.3392 19.1677C14.2985 19.0523 14.2248 18.9513 14.1272 18.8773C14.0296 18.8034 13.9124 18.7597 13.7903 18.7518C13.6681 18.7439 13.5463 18.772 13.4399 18.8327L9.20898 21.2502H4.375C3.5465 21.2512 2.75221 21.5808 2.16636 22.1666C1.58052 22.7524 1.25097 23.5467 1.25 24.3752V28.1252C1.25097 28.9537 1.58052 29.748 2.16636 30.3339C2.75221 30.9197 3.5465 31.2493 4.375 31.2502ZM2.5 24.3752C2.50056 23.8781 2.69828 23.4015 3.04979 23.05C3.4013 22.6985 3.87789 22.5008 4.375 22.5002H9.375C9.48377 22.5002 9.59065 22.4718 9.68508 22.4178L12.7887 20.6444L12.5189 21.7235C12.4959 21.8157 12.4941 21.9118 12.5138 22.0047C12.5335 22.0977 12.574 22.1849 12.6325 22.2597C12.6909 22.3346 12.7656 22.3952 12.851 22.4369C12.9363 22.4785 13.03 22.5002 13.125 22.5002H14.375C14.8721 22.5008 15.3487 22.6985 15.7002 23.05C16.0517 23.4015 16.2494 23.8781 16.25 24.3752V28.1252C16.2494 28.6224 16.0517 29.0989 15.7002 29.4505C15.3487 29.802 14.8721 29.9997 14.375 30.0002H4.375C3.87789 29.9997 3.4013 29.802 3.04979 29.4505C2.69828 29.0989 2.50056 28.6224 2.5 28.1252V24.3752Z" fill="#3E66F3"/>
<path d="M10.625 24.375H3.75V25.625H10.625V24.375Z" fill="#3E66F3"/>
<path d="M15 24.375H11.875V25.625H15V24.375Z" fill="#3E66F3"/>
<path d="M15 26.875H3.75V28.125H15V26.875Z" fill="#3E66F3"/>
</svg>
