<svg width="40" height="40" viewBox="0 0 40 40" fill="none" xmlns="http://www.w3.org/2000/svg">
<path d="M35.4756 39.6266H31.6622C31.4133 39.6266 31.2178 39.4311 31.2178 39.1822V31.3155C31.2178 31.0666 31.4133 30.8711 31.6622 30.8711H35.4756C35.7244 30.8711 35.92 31.0666 35.92 31.3155V39.1822C35.92 39.4222 35.7244 39.6266 35.4756 39.6266ZM32.1067 38.7378H35.0311V31.76H32.1067V38.7378Z" fill="#3E66F3"/>
<path d="M28.9421 39.6266H25.1288C24.8799 39.6266 24.6843 39.431 24.6843 39.1822V28.711C24.6843 28.4622 24.8799 28.2666 25.1288 28.2666H28.9421C29.191 28.2666 29.3865 28.4622 29.3865 28.711V39.1822C29.3865 39.4222 29.1821 39.6266 28.9421 39.6266ZM25.5732 38.7377H28.4977V29.1555H25.5732V38.7377Z" fill="#3E66F3"/>
<path d="M22.3999 39.627H18.5865C18.3376 39.627 18.1421 39.4314 18.1421 39.1825V25.2447C18.1421 24.9958 18.3376 24.8003 18.5865 24.8003H22.3999C22.6488 24.8003 22.8443 24.9958 22.8443 25.2447V39.1825C22.8443 39.4225 22.6488 39.627 22.3999 39.627ZM19.031 38.7381H21.9554V25.6892H19.031V38.7381Z" fill="#3E66F3"/>
<path d="M29.3599 25.3869C24.1333 25.3869 19.8755 21.1291 19.8755 15.9024C19.8755 10.6757 24.1333 6.41797 29.3599 6.41797C34.5866 6.41797 38.8444 10.6757 38.8444 15.9024C38.8444 21.1291 34.5866 25.3869 29.3599 25.3869ZM29.3599 7.30686C24.6222 7.30686 20.7644 11.1646 20.7644 15.9024C20.7644 20.6402 24.6222 24.498 29.3599 24.498C34.0977 24.498 37.9555 20.6402 37.9555 15.9024C37.9555 11.1646 34.0977 7.30686 29.3599 7.30686Z" fill="#3E66F3"/>
<path d="M5.95545 12.0002H3.65323C3.40434 12.0002 3.20878 11.8046 3.20878 11.5557V5.63573H1.65323C1.48434 5.63573 1.33323 5.53795 1.25323 5.38684C1.18212 5.23572 1.19101 5.05795 1.29767 4.92461L4.45323 0.684614C4.53323 0.569058 4.66656 0.506836 4.80878 0.506836C4.95101 0.506836 5.08434 0.577947 5.16434 0.684614L8.31989 4.92461C8.41767 5.05795 8.43545 5.23572 8.35545 5.38684C8.28434 5.53795 8.12434 5.63573 7.95545 5.63573H6.39989V11.5557C6.39989 11.8046 6.20434 12.0002 5.95545 12.0002ZM4.09767 11.1113H5.51101V5.19128C5.51101 4.94239 5.70656 4.74684 5.95545 4.74684H7.07545L4.80878 1.69795L2.53323 4.74684H3.65323C3.90212 4.74684 4.09767 4.94239 4.09767 5.19128V11.1113Z" fill="#3E66F3"/>
<path d="M14.6667 12.0002H12.3644C12.1156 12.0002 11.92 11.8046 11.92 11.5557V5.63573H10.3644C10.1956 5.63573 10.0444 5.53795 9.96444 5.38684C9.88444 5.23572 9.90222 5.05795 10 4.92461L13.1556 0.684614C13.2356 0.569058 13.3689 0.506836 13.5111 0.506836C13.6533 0.506836 13.7867 0.577947 13.8667 0.684614L17.0222 4.92461C17.12 5.05795 17.1378 5.23572 17.0578 5.38684C16.9778 5.53795 16.8267 5.63573 16.6578 5.63573H15.1111V11.5557C15.1111 11.8046 14.9067 12.0002 14.6667 12.0002ZM12.8089 11.1113H14.2222V5.19128C14.2222 4.94239 14.4178 4.74684 14.6667 4.74684H15.7867L13.5111 1.69795L11.2444 4.74684H12.3644C12.6133 4.74684 12.8089 4.94239 12.8089 5.19128V11.1113Z" fill="#3E66F3"/>
<path d="M29.36 22.738C25.5911 22.738 22.5244 19.6713 22.5244 15.9024C22.5244 12.1336 25.5911 9.06689 29.36 9.06689C33.1289 9.06689 36.1955 12.1336 36.1955 15.9024C36.1866 19.6713 33.12 22.738 29.36 22.738ZM29.36 9.95578C26.08 9.95578 23.4133 12.6224 23.4133 15.9024C23.4133 19.1824 26.08 21.8491 29.36 21.8491C32.64 21.8491 35.3066 19.1824 35.3066 15.9024C35.3066 12.6224 32.6311 9.95578 29.36 9.95578Z" fill="#3E66F3"/>
<path d="M29.36 12.2136C29.1111 12.2136 28.9155 12.018 28.9155 11.7691V9.51134C28.9155 9.26245 29.1111 9.06689 29.36 9.06689C29.6089 9.06689 29.8044 9.26245 29.8044 9.51134V11.7602C29.8044 12.0091 29.6 12.2136 29.36 12.2136Z" fill="#3E66F3"/>
<path d="M27.2889 12.7647C27.1378 12.7647 26.9867 12.6847 26.9067 12.5425L25.7778 10.5959C25.6533 10.3825 25.7245 10.1159 25.9378 9.99141C26.1511 9.86697 26.4267 9.93808 26.5422 10.1514L27.6711 12.0981C27.7956 12.3114 27.7245 12.5781 27.5111 12.7025C27.44 12.747 27.36 12.7647 27.2889 12.7647Z" fill="#3E66F3"/>
<path d="M25.7777 14.2756C25.6977 14.2756 25.6266 14.2578 25.5555 14.2134L23.5999 13.0845C23.3866 12.96 23.3155 12.6934 23.4399 12.48C23.5643 12.2667 23.831 12.1956 24.0443 12.32L25.9999 13.4489C26.2132 13.5734 26.2843 13.84 26.1599 14.0534C26.0799 14.1956 25.9288 14.2756 25.7777 14.2756Z" fill="#3E66F3"/>
<path d="M25.2177 16.3469H22.9689C22.72 16.3469 22.5244 16.1513 22.5244 15.9025C22.5244 15.6536 22.72 15.458 22.9689 15.458H25.2177C25.4666 15.458 25.6622 15.6536 25.6622 15.9025C25.6622 16.1513 25.4666 16.3469 25.2177 16.3469Z" fill="#3E66F3"/>
<path d="M23.8221 19.5378C23.671 19.5378 23.5199 19.4578 23.4399 19.3156C23.3155 19.1022 23.3866 18.8356 23.5999 18.7111L25.5555 17.5822C25.7688 17.4578 26.0443 17.5289 26.1599 17.7422C26.2843 17.9556 26.2132 18.2222 25.9999 18.3467L24.0443 19.4756C23.9732 19.52 23.9021 19.5378 23.8221 19.5378Z" fill="#3E66F3"/>
<path d="M26.16 21.8844C26.08 21.8844 26.0089 21.8666 25.9378 21.8222C25.7245 21.6977 25.6533 21.431 25.7778 21.2177L26.9067 19.271C27.0311 19.0577 27.2978 18.9866 27.5111 19.111C27.7245 19.2355 27.7956 19.5022 27.6711 19.7155L26.5422 21.6621C26.4622 21.8044 26.3111 21.8844 26.16 21.8844Z" fill="#3E66F3"/>
<path d="M29.36 22.7379C29.1111 22.7379 28.9155 22.5423 28.9155 22.2934V20.0445C28.9155 19.7957 29.1111 19.6001 29.36 19.6001C29.6089 19.6001 29.8044 19.7957 29.8044 20.0445V22.2934C29.8044 22.5334 29.6 22.7379 29.36 22.7379Z" fill="#3E66F3"/>
<path d="M32.5511 21.8844C32.4 21.8844 32.2489 21.8044 32.1689 21.6621L31.04 19.7155C30.9156 19.5022 30.9867 19.2355 31.2 19.111C31.4133 18.9866 31.6889 19.0577 31.8044 19.271L32.9333 21.2177C33.0578 21.431 32.9867 21.7066 32.7733 21.8222C32.7022 21.8577 32.6222 21.8844 32.5511 21.8844Z" fill="#3E66F3"/>
<path d="M34.8888 19.5378C34.8088 19.5378 34.7376 19.52 34.6665 19.4756L32.711 18.3467C32.4976 18.2222 32.4265 17.9556 32.551 17.7422C32.6754 17.5289 32.9421 17.4578 33.1554 17.5822L35.111 18.7111C35.3243 18.8356 35.3954 19.1022 35.271 19.3156C35.191 19.4578 35.0399 19.5378 34.8888 19.5378Z" fill="#3E66F3"/>
<path d="M35.7422 16.3469H33.4933C33.2444 16.3469 33.0488 16.1513 33.0488 15.9025C33.0488 15.6536 33.2444 15.458 33.4933 15.458H35.7422C35.9911 15.458 36.1866 15.6536 36.1866 15.9025C36.1866 16.1513 35.9911 16.3469 35.7422 16.3469Z" fill="#3E66F3"/>
<path d="M32.9422 14.2756C32.7911 14.2756 32.64 14.1956 32.56 14.0534C32.4356 13.84 32.5067 13.5734 32.72 13.4489L34.6756 12.32C34.8889 12.1956 35.1645 12.2667 35.28 12.48C35.4045 12.6934 35.3333 12.96 35.12 13.0845L33.1645 14.2134C33.0933 14.2578 33.0133 14.2756 32.9422 14.2756Z" fill="#3E66F3"/>
<path d="M31.4222 12.7647C31.3422 12.7647 31.2711 12.747 31.2 12.7025C30.9867 12.5781 30.9156 12.3114 31.04 12.0981L32.1689 10.1514C32.2933 9.93808 32.56 9.86697 32.7733 9.99141C32.9867 10.1159 33.0578 10.3825 32.9333 10.5959L31.8044 12.5425C31.7244 12.6847 31.5822 12.7647 31.4222 12.7647Z" fill="#3E66F3"/>
<path d="M30.7555 16.3468H29.3511C29.1911 16.3468 29.0489 16.2668 28.9689 16.1246L27.5644 13.6979C27.44 13.4846 27.5111 13.2179 27.7244 13.0935C27.9377 12.969 28.2133 13.0401 28.3289 13.2535L29.6 15.4579H30.7466C30.9955 15.4579 31.1911 15.6535 31.1911 15.9023C31.1911 16.1512 31.0044 16.3468 30.7555 16.3468Z" fill="#3E66F3"/>
<path d="M13.9466 39.627H3.91991C3.05769 39.627 2.35547 38.9248 2.35547 38.0626V36.0093C2.35547 35.147 3.05769 34.4448 3.91991 34.4448H13.9466C14.8088 34.4448 15.511 35.147 15.511 36.0093V38.0626C15.511 38.9248 14.8088 39.627 13.9466 39.627ZM3.91991 35.3426C3.54658 35.3426 3.24436 35.6448 3.24436 36.0182V38.0715C3.24436 38.4448 3.54658 38.747 3.91991 38.747H13.9466C14.3199 38.747 14.6221 38.4448 14.6221 38.0715V36.0182C14.6221 35.6448 14.3199 35.3426 13.9466 35.3426H3.91991Z" fill="#3E66F3"/>
<path d="M13.9466 35.3424C13.6977 35.3424 13.5021 35.1468 13.5021 34.8979C13.5021 34.649 13.6977 34.4535 13.9466 34.4535C14.3199 34.4535 14.6221 34.1513 14.6221 33.7779V31.7246C14.6221 31.3513 14.3199 31.049 13.9466 31.049H3.91991C3.54658 31.049 3.24436 31.3513 3.24436 31.7246V33.7779C3.24436 34.1513 3.54658 34.4535 3.91991 34.4535C4.1688 34.4535 4.36436 34.649 4.36436 34.8979C4.36436 35.1468 4.1688 35.3424 3.91991 35.3424C3.05769 35.3424 2.35547 34.6402 2.35547 33.7779V31.7246C2.35547 30.8624 3.05769 30.1602 3.91991 30.1602H13.9466C14.8088 30.1602 15.511 30.8624 15.511 31.7246V33.7779C15.511 34.6402 14.8088 35.3424 13.9466 35.3424Z" fill="#3E66F3"/>
<path d="M13.9466 31.0577C13.6977 31.0577 13.5021 30.8622 13.5021 30.6133C13.5021 30.3644 13.6977 30.1688 13.9466 30.1688C14.3199 30.1688 14.6221 29.8666 14.6221 29.4933V27.4399C14.6221 27.0666 14.3199 26.7644 13.9466 26.7644H3.91991C3.54658 26.7644 3.24436 27.0666 3.24436 27.4399V29.4933C3.24436 29.8666 3.54658 30.1688 3.91991 30.1688C4.1688 30.1688 4.36436 30.3644 4.36436 30.6133C4.36436 30.8622 4.1688 31.0577 3.91991 31.0577C3.05769 31.0577 2.35547 30.3555 2.35547 29.4933V27.4399C2.35547 26.5777 3.05769 25.8755 3.91991 25.8755H13.9466C14.8088 25.8755 15.511 26.5777 15.511 27.4399V29.4933C15.511 30.3555 14.8088 31.0577 13.9466 31.0577Z" fill="#3E66F3"/>
<path d="M13.9466 26.7647C13.6977 26.7647 13.5021 26.5692 13.5021 26.3203C13.5021 26.0714 13.6977 25.8759 13.9466 25.8759C14.3199 25.8759 14.6221 25.5736 14.6221 25.2003V23.147C14.6221 22.7736 14.3199 22.4714 13.9466 22.4714H3.91991C3.54658 22.4714 3.24436 22.7736 3.24436 23.147V25.2003C3.24436 25.5736 3.54658 25.8759 3.91991 25.8759C4.1688 25.8759 4.36436 26.0714 4.36436 26.3203C4.36436 26.5692 4.1688 26.7647 3.91991 26.7647C3.05769 26.7647 2.35547 26.0625 2.35547 25.2003V23.147C2.35547 22.2847 3.05769 21.5825 3.91991 21.5825H13.9466C14.8088 21.5825 15.511 22.2847 15.511 23.147V25.2003C15.511 26.0714 14.8088 26.7647 13.9466 26.7647Z" fill="#3E66F3"/>
<path d="M13.9466 22.4801C13.6977 22.4801 13.5021 22.2845 13.5021 22.0356C13.5021 21.7867 13.6977 21.5912 13.9466 21.5912C14.3199 21.5912 14.6221 21.289 14.6221 20.9156V18.8623C14.6221 18.489 14.3199 18.1867 13.9466 18.1867H3.91991C3.54658 18.1867 3.24436 18.489 3.24436 18.8623V20.9156C3.24436 21.289 3.54658 21.5912 3.91991 21.5912C4.1688 21.5912 4.36436 21.7867 4.36436 22.0356C4.36436 22.2845 4.1688 22.4801 3.91991 22.4801C3.05769 22.4801 2.35547 21.7779 2.35547 20.9156V18.8623C2.35547 18.0001 3.05769 17.2979 3.91991 17.2979H13.9466C14.8088 17.2979 15.511 18.0001 15.511 18.8623V20.9156C15.511 21.7867 14.8088 22.4801 13.9466 22.4801Z" fill="#3E66F3"/>
<path d="M13.9466 18.1958C13.6977 18.1958 13.5021 18.0002 13.5021 17.7513C13.5021 17.5025 13.6977 17.3069 13.9466 17.3069C14.3199 17.3069 14.6221 17.0047 14.6221 16.6314V14.5869C14.6221 14.2136 14.3199 13.9113 13.9466 13.9113H3.91991C3.54658 13.9113 3.24436 14.2136 3.24436 14.5869V16.6402C3.24436 17.0136 3.54658 17.3158 3.91991 17.3158C4.1688 17.3158 4.36436 17.5113 4.36436 17.7602C4.36436 18.0091 4.1688 18.2047 3.91991 18.2047C3.05769 18.2047 2.35547 17.5025 2.35547 16.6402V14.5869C2.35547 13.7247 3.05769 13.0225 3.91991 13.0225H13.9466C14.8088 13.0225 15.511 13.7247 15.511 14.5869V16.6402C15.511 17.5025 14.8088 18.1958 13.9466 18.1958Z" fill="#3E66F3"/>
</svg>
