<svg width="30" height="30" viewBox="0 0 30 30" fill="none" xmlns="http://www.w3.org/2000/svg">
<g clip-path="url(#clip0_1_2343)">
<path d="M12.3166 6.73529C12.7772 7.19584 13.3822 7.42617 13.9872 7.42617C14.5921 7.42617 15.1971 7.1959 15.6577 6.73529C15.8294 6.56367 15.8294 6.28547 15.6578 6.11385C15.4861 5.94222 15.2079 5.94217 15.0363 6.11385C14.4578 6.69234 13.5165 6.69222 12.9381 6.11385C12.7666 5.94222 12.4883 5.94217 12.3166 6.11385C12.1449 6.28547 12.1449 6.56373 12.3166 6.73529Z" fill="url(#paint0_linear_1_2343)"/>
<path d="M13.0338 5.01124C13.2766 5.01124 13.4733 4.81448 13.4733 4.57179V3.83374C13.4733 3.59104 13.2766 3.39429 13.0338 3.39429C12.7911 3.39429 12.5944 3.59104 12.5944 3.83374V4.57185C12.5944 4.81448 12.7911 5.01124 13.0338 5.01124Z" fill="url(#paint1_linear_1_2343)"/>
<path d="M15.38 4.57179V3.83374C15.38 3.59104 15.1833 3.39429 14.9406 3.39429C14.6978 3.39429 14.5011 3.59104 14.5011 3.83374V4.57185C14.5011 4.81454 14.6978 5.0113 14.9406 5.0113C15.1833 5.01124 15.38 4.81448 15.38 4.57179Z" fill="url(#paint2_linear_1_2343)"/>
<path d="M27.8455 23.8547L26.6379 23.325C26.4156 23.2275 26.1564 23.3287 26.0589 23.5509C25.9614 23.7731 26.0626 24.0324 26.2848 24.1299L27.4924 24.6596C27.5102 24.6674 27.54 24.6805 27.5315 24.7315C27.5229 24.7828 27.4904 24.7856 27.4713 24.7872L25.874 24.9202C25.412 24.9587 25.0488 25.322 25.0103 25.784L24.8772 27.3814C24.8757 27.4007 24.873 27.4328 24.8219 27.4414C24.7703 27.4499 24.7575 27.4202 24.7498 27.4024L23.0904 23.6178C22.9712 23.3458 23.1352 23.1514 23.1883 23.0983C23.2415 23.0451 23.4361 22.8809 23.7086 23.0003L24.6777 23.4251C24.8999 23.5226 25.1592 23.4214 25.2566 23.199C25.3541 22.9768 25.2529 22.7176 25.0306 22.6201L24.0615 22.1953C23.8308 22.0942 23.5851 22.0616 23.3485 22.0917C23.3578 21.9893 23.3633 21.8858 23.3633 21.781C23.3633 19.9178 21.8475 18.4019 19.9843 18.4019C18.7502 18.4019 17.669 19.0672 17.0792 20.0577L14.4384 18.9258C14.4473 18.8574 14.4523 18.788 14.4523 18.7173C14.4523 17.9787 13.9539 17.3546 13.276 17.1627V13.184L16.8837 13.7793C17.0553 14.4873 17.694 15.0147 18.4539 15.0147C19.3448 15.0147 20.0696 14.2898 20.0696 13.3989C20.0696 13.1455 20.0109 12.9057 19.9065 12.6921L22.8212 9.64268C23.4112 9.02545 23.4 8.03212 22.7963 7.42831L22.7624 7.39444C22.5907 7.22282 22.3125 7.22282 22.1409 7.39444C21.9693 7.56606 21.9693 7.84432 22.1409 8.01589L22.1748 8.04975C22.4436 8.31846 22.4485 8.76055 22.1859 9.0353L19.3186 12.0351C19.0684 11.8759 18.7718 11.7832 18.4538 11.7832C17.739 11.7832 17.1316 12.2499 16.9191 12.8944L13.2759 12.2933V11.9366C13.8927 11.762 14.3605 11.2297 14.4399 10.5788C16.6982 9.88256 18.2477 7.80495 18.2477 5.41053C18.2477 2.42712 15.8203 0 12.8366 0C11.3388 0 9.94585 0.598123 8.91448 1.68433C8.74732 1.86034 8.75458 2.13849 8.93054 2.3056C9.10644 2.47276 9.38464 2.46556 9.5518 2.28954C10.4156 1.37988 11.5822 0.878903 12.8366 0.878903C15.3356 0.878903 17.3688 2.91175 17.3688 5.41053C17.3688 7.37312 16.1265 9.082 14.3012 9.7008C14.0436 9.14944 13.4841 8.76623 12.8365 8.76623C12.1889 8.76623 11.6294 9.14938 11.3719 9.70074C9.54694 9.08194 8.30499 7.37312 8.30499 5.41053C8.30499 4.78897 8.42851 4.18709 8.67226 3.62155C8.76835 3.39866 8.66546 3.14014 8.44257 3.04411C8.21951 2.94802 7.96111 3.05096 7.86513 3.2738C7.5738 3.94979 7.42615 4.66873 7.42615 5.41058C7.42615 7.80501 8.9753 9.88256 11.2331 10.5788C11.3125 11.2297 11.7802 11.7619 12.397 11.9366V12.335L7.46031 13.7501C7.1817 13.2631 6.65728 12.9339 6.05717 12.9339C5.16626 12.9339 4.4414 13.6588 4.4414 14.5498C4.4414 15.1558 4.77696 15.6847 5.27184 15.9611L4.52466 19.1177C4.45645 19.4056 4.20222 19.6067 3.90638 19.6067H3.66251C3.41976 19.6067 3.22306 19.8034 3.22306 20.0461C3.22306 20.2888 3.41976 20.4856 3.66251 20.4856H3.90638C4.61149 20.4856 5.21741 20.0063 5.37983 19.3202L6.12696 16.1638C6.96765 16.1279 7.64365 15.4466 7.67154 14.6038L12.397 13.2494V17.1629C11.7191 17.3548 11.2207 17.9788 11.2207 18.7174C11.2207 19.2246 11.4558 19.6777 11.8225 19.9741L10.2778 23.598C10.2104 23.5895 10.1418 23.5845 10.0721 23.5845C9.411 23.5845 8.84159 23.9838 8.59175 24.5538L4.8035 24.0344C4.69393 23.2492 4.01841 22.6428 3.20367 22.6428C2.31275 22.6428 1.58789 23.3677 1.58789 24.2587C1.58789 24.7211 1.78348 25.1384 2.0959 25.4333L1.69019 26.2115C1.57799 26.4267 1.66154 26.6922 1.87676 26.8043C1.94162 26.8382 2.01105 26.8542 2.07955 26.8542C2.23804 26.8542 2.39121 26.7681 2.46955 26.6177L2.87466 25.8407C2.98095 25.8627 3.09099 25.8744 3.20372 25.8744C3.86483 25.8744 4.43425 25.4751 4.68415 24.9051L8.47239 25.4245C8.58196 26.2097 9.25743 26.8161 10.0722 26.8161C10.9631 26.8161 11.688 26.0912 11.688 25.2003C11.688 24.693 11.4529 24.2398 11.0861 23.9434L12.6308 20.3196C12.6983 20.3282 12.7668 20.3331 12.8366 20.3331C13.3428 20.3331 13.7952 20.0989 14.0917 19.7334L16.7323 20.8653C16.6501 21.1568 16.6052 21.4636 16.6052 21.781C16.6052 23.2276 17.5192 24.4643 18.7999 24.9453L18.3767 26.7702C17.5215 26.8106 16.8381 27.519 16.8381 28.384C16.8381 29.275 17.5629 29.9998 18.4539 29.9998C18.9548 29.9998 19.4033 29.7706 19.6999 29.4115L20.9542 29.9627C21.0117 29.988 21.0717 29.9999 21.1308 29.9999C21.2998 29.9999 21.461 29.9019 21.5333 29.7371C21.6309 29.515 21.53 29.2557 21.3078 29.1581L20.0539 28.6071C20.064 28.5342 20.0696 28.4598 20.0696 28.384C20.0696 27.7754 19.7313 27.2445 19.2328 26.969L19.656 25.1439C19.7641 25.1544 19.8735 25.1601 19.9843 25.1601C20.9159 25.1601 21.7606 24.7811 22.3725 24.1692L23.9449 27.7553C24.0995 28.1077 24.4325 28.3219 24.804 28.3219C24.8575 28.3219 24.9119 28.3174 24.9665 28.3083C25.4007 28.2359 25.7169 27.8926 25.7533 27.4542L25.8863 25.8569C25.889 25.8249 25.9151 25.7987 25.9471 25.796L27.5447 25.663C27.9833 25.6262 28.3265 25.3097 28.3986 24.8756C28.4707 24.4416 28.2484 24.0314 27.8455 23.8547ZM18.4538 12.6621C18.8601 12.6621 19.1907 12.9926 19.1907 13.3989C19.1907 13.8052 18.8601 14.1359 18.4538 14.1359C18.0475 14.1359 17.7169 13.8053 17.7169 13.3989C17.7169 12.9926 18.0475 12.6621 18.4538 12.6621ZM6.05711 15.2866C5.65077 15.2866 5.32024 14.956 5.32024 14.5497C5.32024 14.1434 5.65082 13.8128 6.05711 13.8128C6.4634 13.8128 6.79398 14.1434 6.79398 14.5497C6.79398 14.9561 6.4634 15.2866 6.05711 15.2866ZM3.20367 24.9955C2.79732 24.9955 2.46679 24.6649 2.46679 24.2586C2.46679 23.8523 2.79738 23.5217 3.20367 23.5217C3.60995 23.5217 3.94054 23.8523 3.94054 24.2586C3.94054 24.6649 3.60995 24.9955 3.20367 24.9955ZM10.0721 25.9371C9.66577 25.9371 9.33524 25.6065 9.33524 25.2002C9.33524 24.7938 9.66583 24.4633 10.0721 24.4633C10.4784 24.4633 10.809 24.7938 10.809 25.2002C10.809 25.6065 10.4785 25.9371 10.0721 25.9371ZM12.0996 10.3821C12.0996 9.97572 12.4302 9.64514 12.8365 9.64514C13.2428 9.64514 13.5734 9.97572 13.5734 10.3821C13.5734 10.7884 13.2428 11.1189 12.8365 11.1189C12.4302 11.1189 12.0996 10.7884 12.0996 10.3821ZM12.8365 19.4542C12.4302 19.4542 12.0996 19.1236 12.0996 18.7173C12.0996 18.3111 12.4302 17.9804 12.8365 17.9804C13.2428 17.9804 13.5734 18.311 13.5734 18.7173C13.5734 19.1237 13.2428 19.4542 12.8365 19.4542ZM18.4538 29.121C18.0475 29.121 17.7169 28.7904 17.7169 28.384C17.7169 27.9777 18.0475 27.6472 18.4538 27.6472C18.8601 27.6472 19.1907 27.9778 19.1907 28.384C19.1907 28.7903 18.8601 29.121 18.4538 29.121ZM17.484 21.781C17.484 21.5865 17.5071 21.3974 17.5493 21.2155L18.3823 21.5726C18.3735 21.6409 18.3684 21.7104 18.3684 21.781C18.3684 22.3896 18.7069 22.9206 19.2053 23.1961L19.0005 24.0792C18.1097 23.6964 17.484 22.8105 17.484 21.781ZM19.9842 22.5179C19.5779 22.5179 19.2473 22.1873 19.2473 21.781C19.2473 21.3746 19.5779 21.044 19.9842 21.044C20.3906 21.044 20.7211 21.3746 20.7211 21.781C20.7211 22.1873 20.3906 22.5179 19.9842 22.5179ZM19.9842 24.2812C19.9415 24.2812 19.899 24.28 19.8567 24.2779L20.0615 23.3949C20.9167 23.3544 21.6 22.646 21.6 21.781C21.6 20.8901 20.8752 20.1652 19.9842 20.1652C19.478 20.1652 19.0255 20.3995 18.729 20.765L17.8962 20.4081C18.3438 19.7297 19.1124 19.2808 19.9842 19.2808C21.3628 19.2808 22.4844 20.4024 22.4844 21.781C22.4844 23.1596 21.3629 24.2812 19.9842 24.2812Z" fill="url(#paint3_linear_1_2343)"/>
</g>
<defs>
<linearGradient id="paint0_linear_1_2343" x1="13.9872" y1="5.98511" x2="13.9872" y2="7.42617" gradientUnits="userSpaceOnUse">
<stop stop-color="#02CE80"/>
<stop offset="1" stop-color="#7BD706"/>
</linearGradient>
<linearGradient id="paint1_linear_1_2343" x1="13.0338" y1="3.39429" x2="13.0338" y2="5.01124" gradientUnits="userSpaceOnUse">
<stop stop-color="#02CE80"/>
<stop offset="1" stop-color="#7BD706"/>
</linearGradient>
<linearGradient id="paint2_linear_1_2343" x1="14.9406" y1="3.39429" x2="14.9406" y2="5.0113" gradientUnits="userSpaceOnUse">
<stop stop-color="#02CE80"/>
<stop offset="1" stop-color="#7BD706"/>
</linearGradient>
<linearGradient id="paint3_linear_1_2343" x1="15" y1="0" x2="15" y2="29.9999" gradientUnits="userSpaceOnUse">
<stop stop-color="#02CE80"/>
<stop offset="1" stop-color="#7BD706"/>
</linearGradient>
<clipPath id="clip0_1_2343">
<rect width="30" height="30" fill="white"/>
</clipPath>
</defs>
</svg>
