<svg width="28" height="30" viewBox="0 0 28 30" fill="none" xmlns="http://www.w3.org/2000/svg">
<path d="M8.40845 15.084C8.4794 15.084 8.55142 15.0673 8.61862 15.0321L9.6132 14.5114C9.83527 14.3951 9.92106 14.1208 9.80475 13.8988C9.68849 13.6767 9.41414 13.5909 9.1921 13.7071L8.19753 14.2279C7.97546 14.3441 7.88971 14.6185 8.00597 14.8405C8.08705 14.9954 8.24495 15.084 8.40845 15.084Z" fill="url(#paint0_linear_1_4446)"/>
<path d="M8.83231 15.4405C8.61024 15.5569 8.52445 15.8311 8.64076 16.0532C8.72184 16.2081 8.87974 16.2966 9.04324 16.2966C9.11419 16.2966 9.18621 16.28 9.25341 16.2448L10.2479 15.7241C10.47 15.6077 10.5558 15.3335 10.4395 15.1114C10.3232 14.8893 10.0489 14.8035 9.82686 14.9198L8.83231 15.4405Z" fill="url(#paint1_linear_1_4446)"/>
<path d="M27.5649 6.13326C27.4655 5.9031 27.1983 5.79693 26.9683 5.89656L23.1705 7.53689C22.9404 7.63625 22.8344 7.90343 22.9338 8.13351C23.0079 8.30502 23.1751 8.40758 23.3507 8.40758C23.4108 8.40758 23.4719 8.39558 23.5305 8.37021L27.3282 6.72988C27.5584 6.63052 27.6643 6.36334 27.5649 6.13326Z" fill="url(#paint2_linear_1_4446)"/>
<path d="M22.1316 6.22962C22.2388 6.22962 22.3464 6.19185 22.4328 6.11506L23.8231 4.88014C24.0106 4.71368 24.0275 4.42679 23.8611 4.23939C23.6946 4.05193 23.4077 4.03501 23.2203 4.20147L21.83 5.43639C21.6425 5.60286 21.6256 5.88975 21.792 6.07714C21.8817 6.17814 22.0063 6.22962 22.1316 6.22962Z" fill="url(#paint3_linear_1_4446)"/>
<path d="M24.0999 10.788C24.1134 10.788 24.1271 10.7874 24.1408 10.7862L26.0255 10.6177C26.2752 10.5953 26.4595 10.3749 26.4372 10.1251C26.4148 9.87548 26.1943 9.69149 25.9447 9.71345L24.06 9.88196C23.8103 9.90432 23.626 10.1248 23.6483 10.3745C23.6694 10.6105 23.8675 10.788 24.0999 10.788Z" fill="url(#paint4_linear_1_4446)"/>
<path d="M5.99231 0C2.68812 0 0 2.68812 0 5.99231C0 8.503 1.55275 10.6566 3.7478 11.5468L1.90857 12.7192C1.90723 12.7201 1.90606 12.7211 1.90473 12.722C1.89438 12.7287 1.88444 12.736 1.87469 12.7436C1.8717 12.7459 1.86851 12.748 1.86559 12.7504C1.85333 12.7604 1.84161 12.771 1.83047 12.7823C1.82776 12.785 1.82538 12.788 1.82274 12.7907C1.81448 12.7995 1.80644 12.8084 1.7989 12.8178C1.7955 12.822 1.79241 12.8264 1.78917 12.8308C1.78282 12.8393 1.77666 12.8479 1.77092 12.8568C1.76793 12.8615 1.76514 12.8662 1.76233 12.871C1.75687 12.8802 1.75173 12.8895 1.74692 12.8991C1.74457 12.9038 1.74229 12.9085 1.7401 12.9133C1.73542 12.9235 1.7312 12.9339 1.72727 12.9445C1.72561 12.949 1.72386 12.9535 1.72234 12.958C1.71853 12.9694 1.71534 12.981 1.71243 12.9928C1.71141 12.9968 1.71019 13.0008 1.70929 13.0049C1.70639 13.0182 1.70424 13.0318 1.70252 13.0455C1.70222 13.0479 1.7016 13.0502 1.70133 13.0526C1.7013 13.053 1.70132 13.0533 1.70127 13.0536C1.69959 13.0695 1.69864 13.0856 1.69864 13.102V27.7236C1.69864 28.3993 1.99487 29.0068 2.46394 29.4241C2.47812 29.438 2.49291 29.451 2.50851 29.4627C2.90497 29.7976 3.41672 30 3.97507 30H23.4844C24.0464 30 24.5612 29.7948 24.9587 29.456C24.9693 29.4477 24.9794 29.4388 24.9893 29.4295C25.4619 29.0121 25.7608 28.4022 25.7608 27.7236V13.102C25.7608 13.0856 25.7599 13.0695 25.7582 13.0536C25.7581 13.0533 25.7582 13.0529 25.7581 13.0526C25.7579 13.0502 25.7572 13.0479 25.7569 13.0454C25.7552 13.0318 25.7531 13.0182 25.7502 13.0049C25.7493 13.0008 25.7481 12.9968 25.747 12.9928C25.7441 12.981 25.7409 12.9694 25.7371 12.958C25.7356 12.9534 25.7338 12.949 25.7322 12.9445C25.7283 12.9339 25.724 12.9235 25.7194 12.9133C25.7172 12.9085 25.7149 12.9038 25.7125 12.8991C25.7077 12.8895 25.7026 12.8802 25.6971 12.8709C25.6943 12.8662 25.6915 12.8615 25.6885 12.8568C25.6828 12.8479 25.6766 12.8393 25.6703 12.8308C25.667 12.8264 25.664 12.822 25.6606 12.8178C25.653 12.8084 25.645 12.7995 25.6367 12.7907C25.6341 12.788 25.6317 12.785 25.629 12.7822C25.6179 12.771 25.6061 12.7604 25.5939 12.7504C25.5909 12.748 25.5878 12.7459 25.5848 12.7436C25.575 12.736 25.5651 12.7287 25.5547 12.722C25.5534 12.7211 25.5522 12.72 25.5509 12.7192L22.9121 11.0371C22.8943 11.0258 22.876 11.0164 22.8574 11.0079C22.615 10.2671 22.2946 9.50857 21.9036 8.76179C21.5499 8.08619 21.1534 7.44769 20.7251 6.86409C18.9551 4.45167 16.9467 3.34585 15.6085 4.04633C15.0642 4.33133 14.6971 4.87718 14.5255 5.63187C14.516 5.65744 14.5059 5.68409 14.4953 5.71169C13.8961 5.46669 13.2024 5.52034 12.6458 5.87508L11.9767 6.3016C11.9819 6.19913 11.9846 6.09603 11.9846 5.9923C11.9846 2.68812 9.2965 0 5.99231 0ZM0.907794 5.99231C0.907794 3.18867 3.1887 0.907794 5.99231 0.907794C8.79592 0.907794 11.0768 3.18867 11.0768 5.99231C11.0768 8.79595 8.79592 11.0768 5.99231 11.0768C3.1887 11.0768 0.907794 8.79595 0.907794 5.99231ZM6.00445 16.2981C5.92447 15.8414 6.10414 15.3928 6.45801 15.129C6.59759 15.9283 6.98123 16.6902 7.53841 17.281C7.36576 17.3324 7.18391 17.342 7.00169 17.3092L6.00639 16.3139C6.00566 16.3087 6.00538 16.3034 6.00445 16.2981ZM17.0411 8.99755C17.1335 8.99872 17.3108 9.05924 17.5457 9.24412C17.9008 9.52351 18.2642 9.989 18.5429 10.5214C18.8216 11.0536 18.9972 11.6175 19.0245 12.0685C19.0407 12.3366 19.001 12.5091 18.9553 12.597L17.2643 12.4648C17.068 12.1514 16.8795 11.8246 16.7019 11.4853C16.4643 11.0315 16.2608 10.5855 16.0874 10.1517L17.0411 8.99755ZM14.5043 7.84131C14.6935 9.11186 15.1766 10.5292 15.8977 11.9063C16.5148 13.0849 17.2555 14.1369 18.0432 14.9672C18.0155 14.9618 17.988 14.9563 17.9601 14.951C16.0961 14.5978 14.4232 14.728 13.0639 15.3235C11.7144 14.7818 10.8608 13.0663 11.2872 11.6723C12.8034 10.4906 13.8362 9.04257 14.5043 7.84131ZM24.853 27.7236C24.853 28.0102 24.7641 28.2763 24.6128 28.4964L16.3924 22.6584L24.853 14.1978V27.7236ZM12.1793 21.8684L11.8177 22.1252L7.8326 18.1401C7.94805 18.1038 8.06062 18.0575 8.16858 18.001C8.218 17.9751 8.26603 17.9466 8.31317 17.9169C8.51185 18.0397 8.72241 18.1439 8.94343 18.2257C9.00463 18.2483 9.06802 18.2624 9.13192 18.2687L10.3801 19.8605C10.4694 19.9743 10.6026 20.0343 10.7376 20.0343C10.8188 20.0343 10.9002 20.0114 10.9735 19.9665L12.2891 21.7967C12.2523 21.8202 12.2152 21.8429 12.1793 21.8684ZM12.273 16.7656L12.7287 17.6308L10.8291 18.9619L10.0285 17.9409L12.273 16.7656ZM13.1473 21.4392C13.1399 21.4264 13.1318 21.4137 13.123 21.4015L11.7183 19.4473L12.9303 18.598L15.9498 21.8171L15.6417 22.1252L15.2802 21.8684C14.6497 21.4207 13.8721 21.2781 13.1473 21.4392ZM20.5424 16.7045C20.5502 16.7073 20.5582 16.7094 20.5661 16.7117C20.7015 16.7526 20.8344 16.7829 20.9644 16.8026L16.5921 21.1749L13.668 18.0576C13.7797 17.9196 13.8046 17.7254 13.7183 17.5615L13.0772 16.3445L13.3118 16.2218C13.338 16.208 13.3618 16.1912 13.3843 16.1731C15.7647 15.0989 18.7178 15.993 19.9345 16.4537C20.1417 16.5595 20.3446 16.6431 20.5424 16.7045ZM10.2695 12.3499C10.2398 13.7071 10.9618 15.0859 12.094 15.8346L9.19789 17.351C7.89635 16.8307 7.05948 15.2325 7.37343 13.8663L10.2695 12.3499ZM11.067 22.6583L2.8466 28.4964C2.69537 28.2763 2.60643 28.0102 2.60643 27.7236V14.1977L11.067 22.6583ZM3.97507 29.0922C3.85835 29.0922 3.74561 29.076 3.63736 29.0483L12.0046 23.1059C12.0236 23.0944 12.0421 23.0815 12.0596 23.0669L12.7049 22.6086C13.3179 22.1733 14.1415 22.1732 14.7545 22.6086L23.8221 29.0483C23.7138 29.076 23.6011 29.0922 23.4844 29.0922H3.97507ZM24.5862 13.1808L23.3692 14.3977C23.391 14.119 23.3927 13.8209 23.3716 13.5028C23.3461 13.1181 23.2888 12.7147 23.2034 12.2994L24.5862 13.1808ZM16.0296 4.85061C16.1653 4.77948 16.32 4.74525 16.4899 4.74525C17.4162 4.74525 18.7927 5.76481 19.9932 7.40104C20.3946 7.9481 20.7667 8.54758 21.0994 9.18281C22.7913 12.4143 22.8117 15.273 21.7717 15.8175C21.5265 15.9459 21.2134 15.9538 20.8557 15.8513C20.7793 15.8161 20.5814 15.7274 20.2876 15.6145C20.0438 15.484 19.7876 15.314 19.5233 15.1036C18.9751 14.6672 18.4339 14.0957 17.9271 13.4272L19.0766 13.5171C19.0878 13.518 19.0989 13.5183 19.1099 13.5184C19.1107 13.5184 19.1115 13.5186 19.1124 13.5186C19.1143 13.5186 19.1162 13.5182 19.1181 13.5182C19.1325 13.518 19.1468 13.5172 19.1609 13.5157C19.1663 13.5151 19.1717 13.5141 19.1771 13.5133C19.1884 13.5117 19.1995 13.5098 19.2105 13.5073C19.216 13.5061 19.2214 13.5048 19.2269 13.5034C19.239 13.5002 19.2509 13.4965 19.2626 13.4924C19.2665 13.491 19.2705 13.4898 19.2744 13.4883C19.2902 13.4822 19.3056 13.4754 19.3205 13.4676C19.3212 13.4673 19.3219 13.4671 19.3225 13.4667C19.5746 13.3348 19.9887 12.9705 19.9307 12.0135C19.8953 11.4309 19.6881 10.7514 19.3472 10.1003C19.0063 9.4491 18.5658 8.89169 18.1071 8.53074C17.3572 7.94066 16.8236 8.06954 16.57 8.20073C16.5552 8.20829 16.5408 8.21664 16.5268 8.2259C16.5236 8.228 16.5207 8.23042 16.5176 8.23258C16.5086 8.23884 16.4996 8.24511 16.491 8.2521C16.4818 8.2596 16.4731 8.26763 16.4646 8.27575C16.4624 8.27778 16.4601 8.27957 16.458 8.28163C16.4463 8.29322 16.4353 8.30534 16.425 8.31799L15.7344 9.15371C15.3285 7.82322 15.2381 6.67216 15.4039 5.88149C15.49 5.64277 15.5341 5.49333 15.5428 5.46298C15.5489 5.44181 15.5528 5.42057 15.5558 5.39936C15.6727 5.14181 15.8318 4.95416 16.0296 4.85061ZM13.1337 6.64062C13.4361 6.44794 13.8121 6.41677 14.1388 6.54595C13.4995 7.90831 12.2315 10.0183 10.0581 11.4359L6.89379 13.0927C6.70302 13.1927 6.56295 13.3694 6.50952 13.5774C6.46283 13.759 6.43188 13.9432 6.41483 14.1283C6.33912 14.1573 6.26432 14.1891 6.19245 14.2268C5.68418 14.4929 5.32395 14.947 5.16653 15.4741L2.87326 13.1808L4.90724 11.8843C5.25943 11.9491 5.62169 11.9846 5.9923 11.9846C8.77776 11.9846 11.1253 10.0742 11.7937 7.49485L13.1337 6.64062Z" fill="url(#paint5_linear_1_4446)"/>
<path d="M8.5553 8.25822C8.80598 8.25822 9.0092 8.055 9.0092 7.80433V3.54618C9.0092 3.29551 8.80598 3.09229 8.5553 3.09229H6.63054C6.37987 3.09229 6.17665 3.29551 6.17665 3.54618V4.36839H4.70578C4.4551 4.36839 4.25188 4.57161 4.25188 4.82229V5.64989H2.78105C2.53037 5.64989 2.32715 5.85311 2.32715 6.10379V7.80433C2.32715 8.055 2.53037 8.25822 2.78105 8.25822H4.70578H6.63054H8.5553ZM7.08444 4.00008H8.10141V7.35043H7.08444V4.82229V4.00008ZM3.23494 6.55768H4.25188V7.35043H3.23494V6.55768ZM5.15967 6.10379V5.27619H6.17665V7.35043H5.15967V6.10379Z" fill="url(#paint6_linear_1_4446)"/>
<path d="M18.9009 27.2612H17.4256C17.1749 27.2612 16.9717 27.4645 16.9717 27.7151C16.9717 27.9658 17.1749 28.169 17.4256 28.169H18.9009C19.1516 28.169 19.3548 27.9658 19.3548 27.7151C19.3548 27.4645 19.1516 27.2612 18.9009 27.2612Z" fill="url(#paint7_linear_1_4446)"/>
<defs>
<linearGradient id="paint0_linear_1_4446" x1="8.90537" y1="13.6553" x2="8.90537" y2="15.084" gradientUnits="userSpaceOnUse">
<stop stop-color="#3E66F3"/>
<stop offset="1" stop-color="#0031DD"/>
</linearGradient>
<linearGradient id="paint1_linear_1_4446" x1="9.54013" y1="14.8679" x2="9.54013" y2="16.2966" gradientUnits="userSpaceOnUse">
<stop stop-color="#3E66F3"/>
<stop offset="1" stop-color="#0031DD"/>
</linearGradient>
<linearGradient id="paint2_linear_1_4446" x1="25.2494" y1="5.85913" x2="25.2494" y2="8.40758" gradientUnits="userSpaceOnUse">
<stop stop-color="#3E66F3"/>
<stop offset="1" stop-color="#0031DD"/>
</linearGradient>
<linearGradient id="paint3_linear_1_4446" x1="22.8266" y1="4.08691" x2="22.8266" y2="6.22962" gradientUnits="userSpaceOnUse">
<stop stop-color="#3E66F3"/>
<stop offset="1" stop-color="#0031DD"/>
</linearGradient>
<linearGradient id="paint4_linear_1_4446" x1="25.0427" y1="9.71167" x2="25.0427" y2="10.788" gradientUnits="userSpaceOnUse">
<stop stop-color="#3E66F3"/>
<stop offset="1" stop-color="#0031DD"/>
</linearGradient>
<linearGradient id="paint5_linear_1_4446" x1="12.8804" y1="0" x2="12.8804" y2="30" gradientUnits="userSpaceOnUse">
<stop stop-color="#3E66F3"/>
<stop offset="1" stop-color="#0031DD"/>
</linearGradient>
<linearGradient id="paint6_linear_1_4446" x1="5.66817" y1="3.09229" x2="5.66817" y2="8.25822" gradientUnits="userSpaceOnUse">
<stop stop-color="#3E66F3"/>
<stop offset="1" stop-color="#0031DD"/>
</linearGradient>
<linearGradient id="paint7_linear_1_4446" x1="18.1632" y1="27.2612" x2="18.1632" y2="28.169" gradientUnits="userSpaceOnUse">
<stop stop-color="#3E66F3"/>
<stop offset="1" stop-color="#0031DD"/>
</linearGradient>
</defs>
</svg>
