<svg width="38" height="40" viewBox="0 0 38 40" fill="none" xmlns="http://www.w3.org/2000/svg">
<path d="M36.4911 20.9087H34.7807V13.8573C34.7807 13.3144 34.3391 12.8727 33.7962 12.8727H30.6231C30.0802 12.8727 29.6386 13.3144 29.6386 13.8573V20.9087H26.0061V11.1786C26.0061 10.6357 25.5644 10.1941 25.0215 10.1941H21.8484C21.3055 10.1941 20.8638 10.6357 20.8638 11.1786V20.9087H18.7778V13.4753C18.7778 12.7562 18.1928 12.1712 17.4737 12.1712H17.2311V8.5002C17.2311 7.95699 16.7896 7.51504 16.2468 7.51504H13.0733C12.5305 7.51504 12.0889 7.95699 12.0889 8.5002V12.1712H8.45691V5.82129C8.45691 5.27855 8.01496 4.83691 7.47176 4.83691H4.2991C3.7559 4.83691 3.31395 5.27848 3.31395 5.82129V12.1711H2.22691C1.50785 12.1711 0.922852 12.7561 0.922852 13.4752V18.1304C0.922852 18.4539 1.1852 18.7163 1.50879 18.7163C1.83238 18.7163 2.09473 18.4539 2.09473 18.1304V13.4752C2.09473 13.4023 2.15402 13.343 2.22691 13.343H17.4736C17.5465 13.343 17.6058 13.4023 17.6058 13.4752V35.8314C17.6058 35.9043 17.5465 35.9636 17.4736 35.9636H2.22691C2.15402 35.9636 2.09473 35.9043 2.09473 35.8314V20.8647C2.09473 20.5411 1.83238 20.2788 1.50879 20.2788C1.1852 20.2788 0.922852 20.5411 0.922852 20.8647V35.8315C0.922852 36.5506 1.50785 37.1356 2.22691 37.1356H17.4736C18.1927 37.1356 18.7777 36.5506 18.7777 35.8315V22.0806H36.4911C36.8146 22.0806 37.077 21.8182 37.077 21.4946C37.0771 21.1711 36.8147 20.9087 36.4911 20.9087ZM13.2607 8.68691H16.0592V12.1711H13.2607V8.68691ZM4.48582 6.00879H7.28504V12.1711H4.48582V6.00879ZM30.8104 14.0446H33.6089V20.9087H30.8104V14.0446ZM22.0356 11.3659H24.8341V20.9087H22.0356V11.3659Z" fill="#3E66F3"/>
<path d="M5.29 20.0832H14.4105C14.9818 20.0832 15.4466 19.6184 15.4466 19.0471V16.9072C15.4466 16.3359 14.9819 15.8711 14.4105 15.8711H5.29C4.71875 15.8711 4.25391 16.3359 4.25391 16.9072V19.0471C4.25391 19.6184 4.71875 20.0832 5.29 20.0832ZM5.42578 17.043H14.2748V18.9113H5.42578V17.043Z" fill="#3E66F3"/>
<path d="M4.25391 32.3993C4.25391 32.9706 4.71867 33.4354 5.29 33.4354H14.4105C14.9818 33.4354 15.4466 32.9706 15.4466 32.3993V23.2788C15.4466 22.7075 14.9819 22.2427 14.4105 22.2427H5.29C4.71867 22.2427 4.25391 22.7074 4.25391 23.2788V32.3993ZM5.42578 28.425H9.26437V32.2636H5.42578V28.425ZM10.4362 32.2636V28.425H14.2748V32.2636H10.4362ZM14.2748 27.2531H10.4362V23.4146H14.2748V27.2531ZM9.2643 23.4146V27.2532H5.42578V23.4146H9.2643Z" fill="#3E66F3"/>
<path d="M27.5044 26.7183C23.8427 26.7183 20.8635 29.6973 20.8635 33.359C20.8635 37.0208 23.8427 39.9999 27.5044 39.9999C29.0351 39.9999 30.529 39.4665 31.7109 38.4979C31.9613 38.2929 31.9978 37.9237 31.7927 37.6733C31.5877 37.423 31.2185 37.3865 30.9681 37.5915C29.9952 38.3889 28.765 38.828 27.5044 38.828C24.4888 38.828 22.0354 36.3747 22.0354 33.359C22.0354 30.3434 24.4888 27.8901 27.5044 27.8901C30.52 27.8901 32.9734 30.3435 32.9734 33.359C32.9734 34.1593 32.8046 34.9301 32.4719 35.6502C32.3361 35.944 32.4642 36.2922 32.758 36.4279C33.052 36.5637 33.3999 36.4356 33.5357 36.1419C33.9402 35.2665 34.1453 34.3303 34.1453 33.3591C34.1452 29.6973 31.1662 26.7183 27.5044 26.7183Z" fill="#3E66F3"/>
<path d="M27.5044 37.5415C27.828 37.5415 28.0903 37.2792 28.0903 36.9556V36.4814C28.9368 36.3175 29.601 35.714 29.7419 34.925C29.8663 34.2286 29.5474 33.3172 28.2785 32.8498C27.6957 32.6351 27.1875 32.4577 26.8534 32.2757C26.6896 32.1864 26.6808 32.0216 26.6901 31.9313C26.7092 31.7461 26.8428 31.514 27.16 31.4185C27.9199 31.1898 28.6182 31.7433 28.6364 31.7581C28.8841 31.9638 29.2517 31.9311 29.4592 31.6843C29.6675 31.4367 29.6354 31.067 29.3878 30.8588C29.356 30.832 28.8397 30.4068 28.0903 30.249V29.7627C28.0903 29.4391 27.828 29.1768 27.5044 29.1768C27.1808 29.1768 26.9185 29.4391 26.9185 29.7627V30.2701C26.8864 30.2784 26.8543 30.2867 26.822 30.2964C26.1066 30.5119 25.5973 31.1064 25.5245 31.8108C25.4595 32.4389 25.754 33.0114 26.2929 33.3049C27.3675 33.89 28.7167 33.9994 28.5883 34.7189C28.5325 35.0318 28.1577 35.3554 27.6273 35.3554C27.0974 35.3554 26.5868 35.1411 26.2616 34.7823C26.0443 34.5425 25.6738 34.5243 25.4339 34.7416C25.1942 34.9589 25.1759 35.3294 25.3932 35.5693C25.7844 36.0009 26.3267 36.3064 26.9185 36.4444V36.9557C26.9185 37.2792 27.1808 37.5415 27.5044 37.5415Z" fill="#3E66F3"/>
<path d="M5.44045 1.15335L33.3989 8.39006L31.5854 9.37561C31.3011 9.53014 31.1959 9.88592 31.3504 10.1702C31.5053 10.4553 31.8614 10.5594 32.145 10.4053L34.8572 8.93131C35.1043 8.79702 35.2864 8.56389 35.3569 8.2917C35.4273 8.01952 35.3812 7.72725 35.2303 7.48999L33.5738 4.88514C33.4001 4.61194 33.0379 4.53147 32.765 4.70514C32.4919 4.87881 32.4113 5.24092 32.585 5.51397L33.6926 7.25561L5.73412 0.0188919C5.42076 -0.062358 5.10107 0.126001 5.02006 0.439283C4.93896 0.752564 5.12724 1.07225 5.44045 1.15335Z" fill="#3E66F3"/>
</svg>
