<svg width="40" height="40" viewBox="0 0 40 40" fill="none" xmlns="http://www.w3.org/2000/svg">
<path d="M24.4916 18.0645H35.4839C37.9742 18.0645 40 16.0387 40 13.5484C40 11.0581 37.9742 9.03226 35.4839 9.03226C35.1 9.03226 34.7232 9.08 34.3568 9.17484C33.3768 6.78129 31.0103 5.16129 28.3871 5.16129C28.1006 5.16129 27.8187 5.18387 27.5406 5.22C26.0606 2.03355 22.9052 0 19.3548 0C15.2974 0 11.8013 2.66387 10.6884 6.54129C4.68 7.24387 0 12.3581 0 18.5516C0 22.4968 1.92968 26.2026 5.16129 28.4652C5.96903 29.0303 6.45161 29.9574 6.45161 30.9432V31.0864C5.70258 31.3535 5.16129 32.0632 5.16129 32.9032C5.16129 33.7529 5.71548 34.469 6.47871 34.7284C6.74968 37.68 9.23677 40 12.2581 40C15.2794 40 17.7665 37.68 18.0374 34.7284C18.8006 34.469 19.3548 33.7529 19.3548 32.9032C19.3548 32.0632 18.8135 31.3535 18.0645 31.0864V30.9432C18.0645 29.9574 18.5471 29.0303 19.3548 28.4652C22.5865 26.2026 24.5161 22.4968 24.5161 18.5516C24.5161 18.3871 24.4981 18.2277 24.4916 18.0645ZM12.2581 38.7097C9.98774 38.7097 8.10839 37.0232 7.79355 34.8387H16.7226C16.4077 37.0232 14.5284 38.7097 12.2581 38.7097ZM17.4194 33.5484H7.09677C6.74129 33.5484 6.45161 33.2594 6.45161 32.9032C6.45161 32.5471 6.74129 32.2581 7.09677 32.2581H17.4194C17.7748 32.2581 18.0645 32.5471 18.0645 32.9032C18.0645 33.2594 17.7748 33.5484 17.4194 33.5484ZM6.94065 21.0387C6.91161 20.971 6.88323 20.9026 6.85548 20.8323C6.64516 20.291 6.20129 19.8742 5.63806 19.6897C5.3529 19.5961 5.16129 19.331 5.16129 19.031V18.3884C5.16129 18.0884 5.3529 17.8239 5.63806 17.7297C6.20129 17.5452 6.64516 17.1284 6.85548 16.5865C6.88258 16.5174 6.91097 16.4484 6.94 16.3813C7.16968 15.8523 7.14968 15.2477 6.88387 14.7219C6.74839 14.4542 6.8 14.131 7.01226 13.9187L7.46645 13.4645C7.67935 13.2516 8.00064 13.2 8.26968 13.3361C8.79548 13.6019 9.40065 13.6219 9.92839 13.3923C9.99677 13.3626 10.0658 13.3342 10.1348 13.3077C10.6761 13.0968 11.0929 12.6529 11.2781 12.0903C11.3716 11.8045 11.6368 11.6129 11.9368 11.6129H12.5794C12.8794 11.6129 13.1439 11.8045 13.2381 12.0903C13.4232 12.6529 13.8394 13.0968 14.3806 13.3071C14.4497 13.3342 14.5187 13.3626 14.5865 13.3916C15.1148 13.6213 15.72 13.6013 16.2458 13.3355C16.5135 13.2 16.8368 13.2516 17.049 13.4639L17.5032 13.9181C17.7155 14.1303 17.7671 14.4535 17.6316 14.7213C17.3658 15.2471 17.3458 15.8516 17.5755 16.38C17.6045 16.4477 17.6329 16.5168 17.6606 16.5871C17.871 17.1284 18.3148 17.5445 18.8781 17.7297C19.1632 17.8232 19.3548 18.0884 19.3548 18.3884V19.031C19.3548 19.331 19.1632 19.5955 18.8774 19.6897C18.3148 19.8742 17.871 20.291 17.66 20.8335C17.6329 20.9026 17.6052 20.971 17.5761 21.0381C17.3465 21.5671 17.3665 22.1723 17.6323 22.6974C17.7677 22.9652 17.7161 23.2877 17.5032 23.5L17.049 23.9548C16.8368 24.1658 16.5148 24.2174 16.2458 24.0826C15.7206 23.8174 15.1161 23.7968 14.5871 24.0258C14.5187 24.0561 14.449 24.0845 14.38 24.1116C13.8387 24.3219 13.4226 24.7664 13.2374 25.329C13.1445 25.6148 12.8794 25.8064 12.5794 25.8064H11.9368C11.6368 25.8064 11.3723 25.6142 11.2781 25.3297C11.0935 24.7665 10.6768 24.3226 10.1368 24.1129C10.0671 24.0852 9.99742 24.0568 9.92903 24.0271C9.68516 23.9213 9.42516 23.8684 9.16387 23.8684C8.85871 23.8684 8.5529 23.94 8.26903 24.0832C8 24.2181 7.67742 24.1665 7.46645 23.9555L7.01161 23.5006C6.79935 23.2884 6.74774 22.9658 6.88323 22.6981C7.14968 22.1723 7.17032 21.5677 6.94065 21.0387ZM14.6594 25.4445L13.6548 30.9677H12.9032V27.0697C13.6239 26.951 14.2303 26.4432 14.4639 25.7316C14.5026 25.6148 14.5742 25.5219 14.6594 25.4445ZM10.0523 25.7329C10.2858 26.4445 10.8923 26.9516 11.6129 27.0703V30.9677H10.8613L9.85677 25.4445C9.94194 25.5219 10.0142 25.6155 10.0523 25.7329ZM18.6155 27.4077C17.4626 28.2142 16.7742 29.5361 16.7742 30.9432V30.9677H14.9665L15.9858 25.3619C16.6774 25.5723 17.4368 25.3916 17.9613 24.8677L18.4155 24.4129C19.0232 23.8058 19.171 22.8826 18.7832 22.1155C18.691 21.9335 18.6826 21.7277 18.7587 21.5516C18.7948 21.4684 18.8297 21.3839 18.8626 21.2994C18.9323 21.1194 19.0852 20.9794 19.2806 20.9148C20.0968 20.6471 20.6452 19.8897 20.6452 19.031V18.3884C20.6452 17.5297 20.0968 16.7723 19.28 16.5039C19.0852 16.44 18.9329 16.3 18.8632 16.1206C18.8303 16.0355 18.7961 15.951 18.7594 15.8671C18.6832 15.691 18.6923 15.4858 18.7839 15.3039C19.1716 14.5374 19.0239 13.6135 18.4161 13.0065L17.9619 12.5523C17.3548 11.9445 16.4316 11.7974 15.6645 12.1845C15.4832 12.2768 15.2781 12.2858 15.1006 12.209C15.0181 12.1729 14.9335 12.1387 14.849 12.1052C14.669 12.0355 14.5284 11.8826 14.4645 11.6871C14.1955 10.871 13.4381 10.3226 12.5794 10.3226H11.9368C11.0781 10.3226 10.3206 10.871 10.0523 11.6877C9.98839 11.8826 9.84839 12.0348 9.66774 12.1045C9.58323 12.1374 9.49935 12.1716 9.41548 12.2084C9.24 12.2845 9.03419 12.2761 8.85226 12.1839C8.08516 11.7968 7.16258 11.9439 6.55484 12.5516L6.10065 13.0058C5.4929 13.6129 5.34516 14.5368 5.7329 15.3032C5.82516 15.4852 5.83355 15.6903 5.75742 15.8671C5.72129 15.9503 5.68645 16.0348 5.65355 16.1187C5.58387 16.2994 5.43097 16.4394 5.23548 16.5032C4.41935 16.7723 3.87097 17.5297 3.87097 18.3884V19.031C3.87097 19.8897 4.41935 20.6471 5.23613 20.9155C5.43097 20.98 5.58323 21.1194 5.6529 21.2987C5.68581 21.3845 5.72064 21.469 5.75742 21.5529C5.83355 21.7284 5.82452 21.9342 5.7329 22.1161C5.34516 22.8826 5.4929 23.8058 6.10065 24.4135L6.55548 24.8684C7.08 25.3929 7.83935 25.5735 8.53097 25.3626L9.54968 30.9677H7.74194V30.9432C7.74194 29.5361 7.05355 28.2148 5.90129 27.4084C3.01419 25.3871 1.29032 22.0761 1.29032 18.5516C1.29032 12.5916 6.14 7.74194 12.1 7.74194H12.4155C18.3761 7.74194 23.2258 12.5916 23.2258 18.5516C23.2258 22.0761 21.5019 25.3871 18.6155 27.4077ZM14.7555 6.68323C15.6168 4.98129 17.3645 3.87097 19.3548 3.87097V2.58065C16.7123 2.58065 14.4103 4.14645 13.4168 6.50258C13.0858 6.47484 12.7535 6.45161 12.4161 6.45161H12.1006C12.089 6.45161 12.0781 6.45355 12.0665 6.45355C13.1452 3.37677 16.031 1.29032 19.3548 1.29032C22.311 1.29032 24.9484 2.93484 26.26 5.5329C24.6955 6.07613 23.3755 7.19871 22.6065 8.74452L23.7619 9.31935C24.6413 7.55032 26.4135 6.45161 28.3871 6.45161C30.6665 6.45161 32.7032 7.98064 33.3394 10.1703L33.5432 10.8703L34.2135 10.5832C34.6168 10.4103 35.0439 10.3226 35.4839 10.3226C37.2626 10.3226 38.7097 11.7697 38.7097 13.5484C38.7097 15.3271 37.2626 16.7742 35.4839 16.7742H24.3703C23.62 11.7135 19.7381 7.66387 14.7555 6.68323Z" fill="#3E66F3"/>
<path d="M28.3871 7.7417V9.03202C29.8103 9.03202 30.9677 10.1894 30.9677 11.6127H32.2581C32.2581 9.47783 30.5219 7.7417 28.3871 7.7417Z" fill="#3E66F3"/>
<path d="M12.2581 23.2256C14.7484 23.2256 16.7742 21.1992 16.7742 18.7095C16.7742 16.2192 14.7484 14.1934 12.2581 14.1934C9.76775 14.1934 7.74194 16.2192 7.74194 18.7095C7.74194 21.1992 9.76775 23.2256 12.2581 23.2256ZM12.2581 15.4837C14.0368 15.4837 15.4839 16.9308 15.4839 18.7095C15.4839 20.4882 14.0368 21.9353 12.2581 21.9353C10.4794 21.9353 9.03227 20.4882 9.03227 18.7095C9.03227 16.9308 10.4794 15.4837 12.2581 15.4837Z" fill="#3E66F3"/>
<path d="M12.2581 20.6454C13.3252 20.6454 14.1936 19.777 14.1936 18.7099C14.1936 17.6428 13.3252 16.7744 12.2581 16.7744C11.191 16.7744 10.3226 17.6428 10.3226 18.7099C10.3226 19.777 11.191 20.6454 12.2581 20.6454ZM12.2581 18.0647C12.6136 18.0647 12.9033 18.3544 12.9033 18.7099C12.9033 19.0654 12.6136 19.3551 12.2581 19.3551C11.9026 19.3551 11.613 19.0654 11.613 18.7099C11.613 18.3544 11.9026 18.0647 12.2581 18.0647Z" fill="#3E66F3"/>
<path d="M30.9678 19.355H32.2581V20.6453H30.9678V19.355Z" fill="#3E66F3"/>
<path d="M32.258 21.9355H30.9677V25.8065H29.0322V30.9678H34.1935V25.8065H32.258V21.9355ZM32.9032 27.0968V29.6775H30.3225V27.0968H32.9032Z" fill="#3E66F3"/>
<path d="M26.4516 21.9355H25.1613V32.2581H23.2258V37.4194H28.3871V32.2581H26.4516V21.9355ZM27.0968 33.5484V36.1291H24.5162V33.5484H27.0968Z" fill="#3E66F3"/>
<path d="M25.1613 19.355H26.4516V20.6453H25.1613V19.355Z" fill="#3E66F3"/>
<path d="M38.0646 21.9355H36.7742V32.2581H34.8387V37.4194H40V32.2581H38.0646V21.9355ZM38.7097 33.5484V36.1291H36.1291V33.5484H38.7097Z" fill="#3E66F3"/>
<path d="M36.7742 19.355H38.0645V20.6453H36.7742V19.355Z" fill="#3E66F3"/>
</svg>
