<svg width="30" height="30" viewBox="0 0 30 30" fill="none" xmlns="http://www.w3.org/2000/svg">
<g clip-path="url(#clip0_1_2312)">
<path d="M25.9293 4.65958H29.4138C29.7375 4.65958 29.9998 4.39728 29.9998 4.07364V0.585938C29.9998 0.262299 29.7375 0 29.4138 0H25.9293C25.6057 0 25.3434 0.262299 25.3434 0.585938V1.74385H17.3279V0.585938C17.3279 0.262299 17.0656 0 16.742 0H13.2575C12.9339 0 12.6716 0.262299 12.6716 0.585938V1.74385H4.65613V0.585938C4.65613 0.262299 4.39383 0 4.07019 0H0.585693C0.262054 0 -0.000244141 0.262299 -0.000244141 0.585938V4.07364C-0.000244141 4.39728 0.262054 4.65958 0.585693 4.65958H4.07019C4.39383 4.65958 4.65613 4.39728 4.65613 4.07364V2.91573H9.5304C7.81401 3.69392 6.26654 4.83696 5.00563 6.28235C3.02855 8.54874 1.88551 11.4166 1.75345 14.4141H0.585693C0.262054 14.4141 -0.000244141 14.6764 -0.000244141 15V18.4877C-0.000244141 18.8113 0.262054 19.0736 0.585693 19.0736H4.07019C4.39383 19.0736 4.65613 18.8113 4.65613 18.4877V15C4.65613 14.6764 4.39383 14.4141 4.07019 14.4141H2.9267C3.19678 8.89229 7.25874 4.19037 12.6716 3.13339V4.07387C12.6716 4.39751 12.9339 4.65981 13.2575 4.65981H16.742C17.0656 4.65981 17.3279 4.39751 17.3279 4.07387V3.13339C22.7408 4.19037 26.8027 8.89229 27.0728 14.4141H25.9293C25.6057 14.4141 25.3434 14.6764 25.3434 15V18.4877C25.3434 18.8113 25.6057 19.0736 25.9293 19.0736H29.4138C29.7375 19.0736 29.9998 18.8113 29.9998 18.4877V15C29.9998 14.6764 29.7375 14.4141 29.4138 14.4141H28.2461C28.114 11.4166 26.971 8.54874 24.9939 6.28235C23.733 4.83696 22.1855 3.69392 20.4691 2.91573H25.3434V4.07387C25.3434 4.39728 25.6057 4.65958 25.9293 4.65958ZM3.48425 3.4877H1.17163V1.17188H3.48425V3.4877ZM3.48425 17.9018H1.17163V15.5859H3.48425V17.9018ZM28.8279 17.9018H26.5153V15.5859H28.8279V17.9018ZM16.1561 3.4877H13.8434V1.17188H16.1561V3.4877ZM26.5153 1.17188H28.8279V3.4877H26.5153V1.17188Z" fill="url(#paint0_linear_1_2312)"/>
<path d="M15.5129 6.45561C15.4099 6.26862 15.2133 6.15234 14.9997 6.15234C14.7862 6.15234 14.5896 6.26862 14.4866 6.45561L12.0529 10.8739C11.8968 11.1575 12 11.5139 12.2836 11.6698C12.5667 11.8259 12.9233 11.7229 13.0794 11.4393L14.4138 9.01657V13.3376C13.6003 13.5885 13.0075 14.3472 13.0075 15.2419C13.0075 16.3403 13.9013 17.2341 14.9997 17.2341C16.0981 17.2341 16.9919 16.3403 16.9919 15.2419C16.9919 14.3472 16.3991 13.5885 15.5857 13.3376V9.01657L19.6055 16.3152C18.2849 17.6509 17.3847 19.3643 17.0349 21.2109H12.9645C12.6145 19.3643 11.7143 17.6509 10.3939 16.3152L11.0655 15.0959C11.2216 14.8125 11.1183 14.4562 10.835 14.3001C10.5516 14.144 10.195 14.247 10.0389 14.5306L9.15087 16.1433C9.02041 16.3799 9.06893 16.6754 9.26829 16.8581C10.5301 18.0137 11.4063 19.5444 11.7688 21.2109H11.2232C10.2539 21.2109 9.46535 21.9997 9.46535 22.9688C9.46535 23.6526 9.85789 24.2459 10.4294 24.5364V29.4141C10.4294 29.7377 10.6917 30 11.0153 30C11.339 30 11.6013 29.7377 11.6013 29.4141V24.7266H18.3982V29.4141C18.3982 29.7377 18.6605 30 18.9841 30C19.3077 30 19.57 29.7377 19.57 29.4141V24.5364C20.1415 24.2459 20.5341 23.6524 20.5341 22.9688C20.5341 21.9994 19.7456 21.2109 18.7763 21.2109H18.2306C18.5932 19.5442 19.4693 18.0137 20.7311 16.8578C20.9305 16.6752 20.979 16.3799 20.8486 16.143L15.5129 6.45561ZM14.9997 16.0622C14.5474 16.0622 14.1794 15.6942 14.1794 15.2419C14.1794 14.7894 14.5474 14.4216 14.9997 14.4216C15.452 14.4216 15.82 14.7894 15.82 15.2419C15.82 15.6942 15.452 16.0622 14.9997 16.0622ZM19.3622 22.9688C19.3622 23.2919 19.0994 23.5547 18.7763 23.5547H11.2232C10.9 23.5547 10.6372 23.2919 10.6372 22.9688C10.6372 22.6456 10.9 22.3828 11.2232 22.3828H18.7763C19.0994 22.3828 19.3622 22.6456 19.3622 22.9688Z" fill="url(#paint1_linear_1_2312)"/>
<path d="M11.521 13.6008C11.6753 13.6008 11.8263 13.5386 11.9353 13.4296C12.0442 13.32 12.1069 13.1696 12.1069 13.0149C12.1069 12.8606 12.0442 12.7103 11.9353 12.6006C11.8263 12.4917 11.6753 12.429 11.521 12.429C11.3663 12.429 11.2152 12.4917 11.1063 12.6006C10.9973 12.7103 10.9351 12.8606 10.9351 13.0149C10.9351 13.1696 10.9973 13.32 11.1063 13.4296C11.2152 13.5386 11.3663 13.6008 11.521 13.6008Z" fill="url(#paint2_linear_1_2312)"/>
</g>
<defs>
<linearGradient id="paint0_linear_1_2312" x1="14.9998" y1="0" x2="14.9998" y2="19.0736" gradientUnits="userSpaceOnUse">
<stop stop-color="#02CE80"/>
<stop offset="1" stop-color="#7BD706"/>
</linearGradient>
<linearGradient id="paint1_linear_1_2312" x1="14.9997" y1="6.15234" x2="14.9997" y2="30" gradientUnits="userSpaceOnUse">
<stop stop-color="#02CE80"/>
<stop offset="1" stop-color="#7BD706"/>
</linearGradient>
<linearGradient id="paint2_linear_1_2312" x1="11.521" y1="12.429" x2="11.521" y2="13.6008" gradientUnits="userSpaceOnUse">
<stop stop-color="#02CE80"/>
<stop offset="1" stop-color="#7BD706"/>
</linearGradient>
<clipPath id="clip0_1_2312">
<rect width="30" height="30" fill="white" transform="translate(-0.000244141)"/>
</clipPath>
</defs>
</svg>
