<svg width="60" height="60" viewBox="0 0 60 60" fill="none" xmlns="http://www.w3.org/2000/svg">
<path fill-rule="evenodd" clip-rule="evenodd" d="M3.17847 48.144C3.17847 52.9287 7.06998 56.8202 11.8546 56.8202C16.6392 56.8202 20.5306 52.9287 20.5306 48.144C20.5306 43.36 16.6386 39.4685 11.8546 39.4685C7.07047 39.4685 3.17847 43.3599 3.17847 48.144ZM52.293 7.56219C52.293 10.9949 49.5021 13.7916 46.0689 13.7942C46.0647 13.7942 46.0606 13.7942 46.0594 13.7942C42.6266 13.7916 39.8324 10.9983 39.8324 7.56219C39.8324 4.12551 42.6254 1.32959 46.0627 1.32959C49.5 1.32959 52.293 4.12551 52.293 7.56219ZM4.95487 20.9569H1.33105V10.3975H4.95487V20.9569ZM1.33105 48.144C1.33105 42.3428 6.05325 37.6201 11.8545 37.6201C17.6587 37.6201 22.3779 42.3402 22.3779 48.144C22.3779 53.9479 17.6587 58.6679 11.8545 58.6679C6.05325 58.6679 1.33105 53.9453 1.33105 48.144Z" fill="#B6DCFE"/>
<path fill-rule="evenodd" clip-rule="evenodd" d="M47.0307 29.9569V48.144C47.0307 48.6787 46.598 49.112 46.0628 49.112H31.9138L32.1757 49.2897C32.6141 49.5898 32.7337 50.191 32.4319 50.6334C32.2441 50.9095 31.9423 51.0581 31.6291 51.0581C31.4412 51.0581 31.2532 51.0034 31.0882 50.8913L28.2185 48.9446C27.9566 48.7647 27.7972 48.4646 27.7972 48.144C27.7972 47.8234 27.9566 47.5234 28.2185 47.3434L31.0882 45.3967C31.5323 45.0966 32.1301 45.2116 32.4319 45.6546C32.7337 46.097 32.6141 46.6983 32.1757 46.9983L31.9138 47.1765H45.0949V29.9568C45.0949 29.4221 45.5276 28.9888 46.0629 28.9888C46.598 28.9889 47.0307 29.4223 47.0307 29.9569ZM31.6804 12.9968H25.8841C25.3489 12.9968 24.9161 12.5641 24.9161 12.0295C24.9161 11.4948 25.3488 11.0615 25.8841 11.0615H31.6804L31.4128 10.8838C30.9744 10.5837 30.8606 9.98245 31.1566 9.53947C31.4584 9.09709 32.0619 8.98205 32.5003 9.28217L35.3699 11.2283C35.6374 11.4088 35.7969 11.7089 35.7969 12.0295C35.7969 12.35 35.6374 12.6495 35.3699 12.83L32.5003 14.7767C32.3352 14.8889 32.1473 14.9436 31.9593 14.9436C31.6518 14.9436 31.3444 14.7944 31.1564 14.5187C30.8604 14.0763 30.9743 13.475 31.4127 13.175L31.6804 12.9968ZM10.8866 34.5797V28.7868L10.7101 29.0493C10.4083 29.4912 9.81044 29.6073 9.36637 29.3061C8.9223 29.0061 8.80835 28.4048 9.11016 27.9618L11.0518 25.0939C11.234 24.8291 11.5358 24.6692 11.8547 24.6692C12.1735 24.6692 12.4752 24.8292 12.6575 25.0939L14.6049 27.9618C14.9009 28.4048 14.787 29.0061 14.343 29.3061C14.1778 29.4195 13.99 29.4729 13.802 29.4729C13.4945 29.4729 13.1871 29.3255 12.9991 29.0482L12.8226 28.7869V34.5798C12.8226 35.1151 12.3899 35.5478 11.8547 35.5478C11.3194 35.5476 10.8866 35.1148 10.8866 34.5797ZM34.2197 24.8302C35.3244 19.227 40.2381 15.1263 46.0628 15.1245C51.8875 15.1262 56.8013 19.2269 57.9058 24.829L34.2197 24.8302ZM40.4374 7.56214C40.4374 4.45897 42.9597 1.93438 46.0629 1.93438C49.1659 1.93438 51.6883 4.45897 51.6883 7.56214C51.6883 10.6635 49.166 13.187 46.0686 13.1893C46.0629 13.1893 46.0629 13.1893 46.0629 13.1893C42.9597 13.187 40.4374 10.6635 40.4374 7.56214ZM59.9955 25.6934C59.6312 22.2766 58.0198 19.1206 55.4576 16.8054C53.9487 15.4417 52.1836 14.4367 50.2819 13.8378C52.2974 12.4781 53.6242 10.1727 53.6242 7.56214C53.6242 3.39143 50.2364 -0.000976562 46.0629 -0.000976562C41.8949 -0.000976562 38.5015 3.39143 38.5015 7.56214C38.5015 10.1727 39.8281 12.4781 41.8495 13.8378C39.9421 14.4367 38.177 15.4417 36.6681 16.8054C34.1116 19.1204 32.5003 22.2766 32.1301 25.6934C32.1017 25.9673 32.1928 26.2395 32.3749 26.4439C32.5571 26.6484 32.819 26.7657 33.0924 26.7657L59.0332 26.7645C59.3065 26.7645 59.5684 26.6484 59.7507 26.4439C59.9385 26.2395 60.0239 25.9673 59.9955 25.6934ZM11.8545 55.4895C7.80626 55.4895 4.50954 52.194 4.50954 48.1439C4.50954 44.0938 7.80626 40.7989 11.8545 40.7989C15.9028 40.7989 19.1996 44.0939 19.1996 48.1439C19.1996 52.1939 15.9028 55.4895 11.8545 55.4895ZM11.8545 38.8636C6.73582 38.8636 2.5737 43.027 2.5737 48.1439C2.5737 53.262 6.73582 57.4247 11.8545 57.4247C16.9733 57.4247 21.1354 53.262 21.1354 48.1439C21.1354 43.027 16.9733 38.8636 11.8545 38.8636ZM15.4701 49.9728C15.2823 48.4514 14.1207 47.504 12.0197 47.1594C10.4709 46.9038 10.4425 46.3498 10.4311 46.142C10.3913 45.3522 11.2624 45.1148 11.4389 45.0749C11.9799 44.9525 12.999 45.0095 13.409 45.9933C13.6197 46.4853 14.1833 46.7175 14.6786 46.5108C15.1683 46.3042 15.4018 45.7365 15.1968 45.2445C14.7071 44.0864 13.7961 43.4515 12.8224 43.2084V42.8828C12.8224 42.3481 12.3897 41.9154 11.8544 41.9154C11.3191 41.9154 10.8864 42.3481 10.8864 42.8828V43.2182C9.38331 43.6088 8.42682 44.8078 8.50073 46.2348C8.54053 47.1037 9.01315 48.6268 11.7064 49.0698C13.443 49.3539 13.517 49.9511 13.5454 50.2062C13.5795 50.4898 13.4885 50.6372 13.403 50.7352C13.1468 51.0352 12.5547 51.2466 11.9397 51.2613C11.2336 51.2767 10.3398 50.9965 10.1234 50.1459C9.99818 49.6272 9.47427 49.3123 8.95617 49.4404C8.43238 49.5702 8.1192 50.0952 8.25009 50.6139C8.56327 51.8722 9.57105 52.7844 10.8863 53.0878V53.405C10.8863 53.9397 11.319 54.3724 11.8543 54.3724C12.3895 54.3724 12.8223 53.9397 12.8223 53.405V53.1038C13.6649 52.9353 14.3938 52.5457 14.8664 52.0003C15.3562 51.4407 15.5612 50.7386 15.4701 49.9728ZM11.8545 58.0632C17.3263 58.0632 21.7731 53.6129 21.7731 48.144C21.7731 42.6751 17.3263 38.2248 11.8545 38.2248C6.38852 38.2248 1.93596 42.6751 1.93596 48.144C1.93596 53.6129 6.38852 58.0632 11.8545 58.0632ZM11.8545 36.289C5.31808 36.289 0.000120958 41.6069 0.000120958 48.144C0.000120958 54.6811 5.31808 59.999 11.8545 59.999C18.391 59.999 23.709 54.6811 23.709 48.144C23.709 41.6069 18.391 36.289 11.8545 36.289ZM1.93596 11.0023H4.3501V20.3521H1.93596V11.0023ZM6.28606 10.5257C6.45687 10.3999 6.63905 10.2752 6.82134 10.1448C8.70601 8.81524 10.8469 7.30641 10.8469 4.39292V2.08692C12.1052 2.49567 13.0219 3.68115 13.0219 5.07505V7.65661C12.9478 8.04831 12.6632 8.64104 12.1622 9.1404C11.8319 9.46955 11.7864 9.98765 12.0483 10.3708C12.4924 11.0205 12.6462 11.6143 12.5153 12.1877C12.2534 13.3395 10.9154 14.2141 10.3573 14.537C9.8904 14.8029 9.73097 15.3945 9.99867 15.858C10.2662 16.3214 10.8584 16.482 11.3196 16.2149C11.5815 16.0646 11.8947 15.8676 12.2193 15.6234C12.3901 15.928 12.6179 16.1956 12.8911 16.4097C12.6976 16.7736 12.5837 17.1909 12.5837 17.6316C12.5837 18.2494 12.8001 18.8181 13.1645 19.2645C12.8001 19.7109 12.5837 20.2791 12.5837 20.8974C12.5837 21.2157 12.6464 21.5192 12.7489 21.8022C9.77669 22.2935 8.0344 22.3863 6.28643 20.8912V10.5257H6.28606ZM19.2507 10.4363C19.6151 10.4363 19.9169 10.7409 19.9169 11.1014C19.9169 11.4681 19.6208 11.767 19.2507 11.767H15.1854C14.821 11.767 14.5192 11.4681 14.5192 11.1014C14.5192 10.7352 14.821 10.4363 15.1854 10.4363H19.2507ZM20.6059 14.3662C20.6059 14.7328 20.3098 15.0317 19.9398 15.0317H14.4965C14.1378 15.0317 13.8303 14.7271 13.8303 14.3662C13.8303 14.0058 14.1378 13.7023 14.4965 13.7023H19.9398C20.2984 13.7023 20.6059 14.0057 20.6059 14.3662ZM18.7953 18.2965H15.1855C14.8268 18.2965 14.5193 17.9919 14.5193 17.6316C14.5193 17.2717 14.8268 16.9671 15.1855 16.9671H18.7953C19.1596 16.9671 19.4615 17.2649 19.4615 17.6316C19.4615 17.9976 19.1596 18.2965 18.7953 18.2965ZM17.8216 21.5614H15.1854C14.821 21.5614 14.5192 21.2636 14.5192 20.8976C14.5192 20.5371 14.8267 20.232 15.1854 20.232H17.8216C18.186 20.232 18.4878 20.5309 18.4878 20.8976C18.4878 21.2579 18.1804 21.5614 17.8216 21.5614ZM0.96798 22.2874H4.94224C6.45675 23.6243 7.97706 24.0593 9.73073 24.0593C11.0801 24.0593 12.5719 23.7997 14.3199 23.4985L14.6444 23.4415C14.8209 23.4779 14.9974 23.4967 15.1854 23.4967H17.8216C19.2564 23.4967 20.4179 22.3312 20.4179 20.8974C20.4179 20.5154 20.3382 20.1522 20.1902 19.8259C20.9133 19.3636 21.3916 18.5529 21.3916 17.6316C21.3916 17.282 21.3233 16.9465 21.1981 16.6419C21.9952 16.1979 22.5418 15.3437 22.5418 14.3662C22.5418 13.5389 22.1489 12.7998 21.5454 12.3233C21.7389 11.9595 21.8527 11.5433 21.8527 11.1014C21.8527 9.6683 20.6855 8.50048 19.2507 8.50048H15.1854C15.0487 8.50048 14.9121 8.51524 14.7811 8.5358C14.8608 8.30972 14.9178 8.08484 14.9462 7.86564C14.9519 7.82064 14.9576 7.77734 14.9576 7.73234V5.07505C14.9576 2.27599 12.6802 -0.000976562 9.87879 -0.000976562C9.34351 -0.000976562 8.91081 0.432328 8.91081 0.967003V4.39292C8.91081 6.30372 7.42473 7.35032 5.70518 8.56363C5.47171 8.72705 5.23824 8.89616 4.99921 9.06697H0.96798C0.432821 9.06697 0 9.49967 0 10.035V21.3195C0.000120967 21.8541 0.432821 22.2874 0.96798 22.2874Z" fill="#3E66F3"/>
</svg>
