<svg width="29" height="30" viewBox="0 0 29 30" fill="none" xmlns="http://www.w3.org/2000/svg">
<path d="M16.2931 0H12.6724C11.9594 0 11.3793 0.580086 11.3793 1.2931V3.53457C10.5248 3.77586 9.70526 4.11491 8.93457 4.54578L7.35078 2.96198C7.10664 2.71784 6.78181 2.58336 6.43629 2.58336C6.09078 2.58336 5.76621 2.71784 5.52207 2.96198L2.96198 5.52207C2.71784 5.76621 2.5831 6.09103 2.5831 6.43655C2.5831 6.78207 2.71759 7.10664 2.96198 7.35103L4.54578 8.93483C4.11491 9.70552 3.77586 10.5251 3.53457 11.3796H1.2931C0.580086 11.3796 0 11.9597 0 12.6727V16.2934C0 17.0064 0.580086 17.5865 1.2931 17.5865H2.32759C2.6131 17.5865 2.84483 17.3547 2.84483 17.0692C2.84483 16.7837 2.6131 16.552 2.32759 16.552H1.2931C1.1506 16.552 1.03448 16.4361 1.03448 16.2934V12.6724C1.03448 12.5297 1.1506 12.4138 1.2931 12.4138H3.9331C4.17155 12.4138 4.37897 12.2509 4.4356 12.0194C4.68672 10.9919 5.09043 10.0161 5.63534 9.11922C5.75922 8.91543 5.72741 8.65345 5.55905 8.48483L3.69362 6.6194C3.62767 6.55345 3.61784 6.47664 3.61784 6.43655C3.61784 6.39647 3.62767 6.31965 3.69362 6.25371L6.25397 3.69336C6.31965 3.62767 6.39672 3.61784 6.43681 3.61784C6.4769 3.61784 6.55397 3.62767 6.61991 3.69336L8.48534 5.55905C8.65397 5.72767 8.91621 5.75922 9.11974 5.63534C10.0166 5.09043 10.9924 4.68672 12.0199 4.4356C12.2509 4.37897 12.4138 4.17129 12.4138 3.9331V1.2931C12.4138 1.15034 12.5299 1.03448 12.6724 1.03448H16.2931C16.4356 1.03448 16.5517 1.15034 16.5517 1.2931V3.9331C16.5517 4.17129 16.7147 4.37897 16.9461 4.43535C17.9736 4.68647 18.9494 5.08991 19.8463 5.63509C20.0503 5.75897 20.3123 5.72741 20.4807 5.55879L22.3461 3.69336C22.4121 3.62741 22.4891 3.61759 22.5292 3.61759C22.5693 3.61759 22.6461 3.62741 22.7121 3.69336L25.2722 6.25371C25.3381 6.31965 25.3479 6.39647 25.3479 6.43655C25.3479 6.47664 25.3381 6.55345 25.2722 6.61966L23.4067 8.48509C23.2381 8.65371 23.2066 8.91569 23.3304 9.11948C23.8753 10.0164 24.2791 10.9922 24.5302 12.0197C24.5868 12.2514 24.7942 12.4141 25.0327 12.4141H27.6724C27.8149 12.4141 27.931 12.5299 27.931 12.6727V16.2934C27.931 16.4361 27.8149 16.552 27.6724 16.552H26.6379C26.3524 16.552 26.1207 16.7837 26.1207 17.0692C26.1207 17.3547 26.3524 17.5865 26.6379 17.5865H27.6724C28.3854 17.5865 28.9655 17.0064 28.9655 16.2934V12.6724C28.9655 11.9594 28.3854 11.3793 27.6724 11.3793H25.4309C25.1897 10.5248 24.8506 9.70526 24.4197 8.93457L26.0035 7.35078C26.2479 7.10664 26.3824 6.78181 26.3824 6.43629C26.3824 6.09078 26.2477 5.76621 26.0035 5.52181L23.4434 2.96172C23.1993 2.71759 22.8745 2.5831 22.529 2.5831C22.1834 2.5831 21.8589 2.71759 21.6145 2.96172L20.0307 4.54552C19.26 4.11466 18.4404 3.7756 17.5859 3.53431V1.2931C17.5862 0.580086 17.0061 0 16.2931 0Z" fill="url(#paint0_linear_781_769)"/>
<path d="M17.0914 10.8398C17.1923 10.941 17.3247 10.9914 17.4571 10.9914C17.5895 10.9914 17.7219 10.941 17.8228 10.8398L19.3745 9.28811C19.5765 9.08612 19.5765 8.75871 19.3745 8.55673L17.8228 7.005C17.6211 6.80302 17.2932 6.80302 17.0914 7.005C16.8894 7.20699 16.8894 7.5344 17.0914 7.73638L18.2772 8.92242L17.0914 10.1085C16.8894 10.3104 16.8894 10.6378 17.0914 10.8398Z" fill="url(#paint1_linear_781_769)"/>
<path d="M11.8745 7.005C11.6728 6.80302 11.3449 6.80302 11.1432 7.005L9.59143 8.55673C9.38945 8.75871 9.38945 9.08612 9.59143 9.28811L11.1432 10.8398C11.244 10.941 11.3764 10.9914 11.5088 10.9914C11.6413 10.9914 11.7737 10.941 11.8745 10.8398C12.0765 10.6378 12.0765 10.3104 11.8745 10.1085L10.6888 8.92242L11.8745 7.73638C12.0765 7.5344 12.0765 7.20699 11.8745 7.005Z" fill="url(#paint2_linear_781_769)"/>
<path d="M12.931 12.1557C13.1105 12.1557 13.2851 12.0621 13.3805 11.895L16.4839 6.46397C16.6257 6.21595 16.5396 5.89991 16.2915 5.75819C16.0435 5.61647 15.7277 5.70259 15.5858 5.9506L12.4823 11.3816C12.3406 11.6297 12.4267 11.9457 12.6747 12.0874C12.7559 12.1337 12.8441 12.1557 12.931 12.1557Z" fill="url(#paint3_linear_781_769)"/>
<path d="M12.4136 18.6206H10.6033V16.8102C10.6033 16.5247 10.3716 16.293 10.086 16.293C9.80052 16.293 9.5688 16.5247 9.5688 16.8102V18.6206H7.75845C7.47294 18.6206 7.24121 18.8523 7.24121 19.1378C7.24121 19.4233 7.47294 19.655 7.75845 19.655H9.5688V21.4654C9.5688 21.7509 9.80052 21.9826 10.086 21.9826C10.3716 21.9826 10.6033 21.7509 10.6033 21.4654V19.655H12.4136C12.6991 19.655 12.9309 19.4233 12.9309 19.1378C12.9309 18.8523 12.6991 18.6206 12.4136 18.6206Z" fill="url(#paint4_linear_781_769)"/>
<path d="M17.0688 18.3623C16.6411 18.3623 16.293 18.7104 16.293 19.1382C16.293 19.5659 16.6411 19.914 17.0688 19.914C17.4966 19.914 17.8447 19.5659 17.8447 19.1382C17.8447 18.7104 17.4966 18.3623 17.0688 18.3623Z" fill="url(#paint5_linear_781_769)"/>
<path d="M21.2065 19.914C21.6343 19.914 21.9824 19.5659 21.9824 19.1382C21.9824 18.7104 21.6343 18.3623 21.2065 18.3623C20.7788 18.3623 20.4307 18.7104 20.4307 19.1382C20.4307 19.5659 20.7788 19.914 21.2065 19.914Z" fill="url(#paint6_linear_781_769)"/>
<path d="M19.1382 17.8447C19.5659 17.8447 19.914 17.4966 19.914 17.0688C19.914 16.6411 19.5659 16.293 19.1382 16.293C18.7104 16.293 18.3623 16.6411 18.3623 17.0688C18.3623 17.4966 18.7104 17.8447 19.1382 17.8447Z" fill="url(#paint7_linear_781_769)"/>
<path d="M19.1382 21.9824C19.5659 21.9824 19.914 21.6343 19.914 21.2065C19.914 20.7788 19.5659 20.4307 19.1382 20.4307C18.7104 20.4307 18.3623 20.7788 18.3623 21.2065C18.3623 21.6343 18.7104 21.9824 19.1382 21.9824Z" fill="url(#paint8_linear_781_769)"/>
<path d="M19.6553 27.4139C19.856 27.4139 20.0497 27.3857 20.2354 27.3379L20.306 27.5013C20.9608 29.0194 22.4523 30.0001 24.1054 30.0001H24.7168C25.8174 30.0001 26.8152 29.486 27.4543 28.5898C28.0933 27.6935 28.2539 26.5827 27.8949 25.542L25.0452 17.2775C24.4224 15.4716 22.8149 14.2092 20.9481 13.9998V13.1898C20.9481 12.6192 20.4842 12.1553 19.9136 12.1553H18.3619C17.7914 12.1553 17.3274 12.6192 17.3274 13.1898V13.9656H11.8967V13.1898C11.8967 12.6192 11.4327 12.1553 10.8622 12.1553H9.31046C8.73994 12.1553 8.27598 12.6192 8.27598 13.1898V13.977C6.29986 14.0934 4.57175 15.3885 3.92029 17.2775L1.07055 25.542C0.711582 26.5827 0.872186 27.6935 1.51124 28.5898C2.15029 29.486 3.14805 30.0001 4.24874 30.0001H4.86012C6.51322 30.0001 8.00469 29.0194 8.65951 27.5013L8.73012 27.3379C8.91606 27.3857 9.10977 27.4139 9.31046 27.4139C10.5937 27.4139 11.638 26.3698 11.638 25.0863C11.638 24.9076 11.6161 24.7343 11.5775 24.5673C12.0655 24.3979 12.5748 24.3104 13.098 24.3104H15.8678C16.391 24.3104 16.9002 24.3979 17.3882 24.5673C17.3497 24.7343 17.3277 24.9076 17.3277 25.0863C17.3277 26.3698 18.372 27.4139 19.6553 27.4139ZM18.3622 25.0863C18.3622 24.3733 18.9423 23.7932 19.6553 23.7932C20.3683 23.7932 20.9484 24.3733 20.9484 25.0863C20.9484 25.7993 20.3683 26.3794 19.6553 26.3794C18.9423 26.3794 18.3622 25.7993 18.3622 25.0863ZM18.3622 13.1898H19.9139V13.9656H18.3622V13.1898ZM10.8622 13.1898V13.9656H9.31046V13.1898H10.8622ZM9.31046 26.3794C8.59744 26.3794 8.01736 25.7993 8.01736 25.0863C8.01736 24.3733 8.59744 23.7932 9.31046 23.7932C10.0235 23.7932 10.6036 24.3733 10.6036 25.0863C10.6036 25.7993 10.0235 26.3794 9.31046 26.3794ZM15.8678 23.276H13.098C12.4173 23.276 11.7557 23.3965 11.1242 23.631C10.6972 23.0998 10.0431 22.7587 9.31046 22.7587C8.02719 22.7587 6.98288 23.8028 6.98288 25.0863C6.98288 25.7975 7.30434 26.4345 7.80891 26.8617L7.70986 27.0917C7.21874 28.2298 6.1002 28.9656 4.86012 28.9656H4.24874C3.48658 28.9656 2.79581 28.6098 2.35356 27.9893C1.91132 27.3689 1.79986 26.5998 2.04839 25.8792L4.89813 17.6148C5.43762 16.0509 6.9115 15.0001 8.56563 15.0001H20.4001C22.0543 15.0001 23.5281 16.0509 24.0676 17.6148L26.9174 25.8792C27.1656 26.5995 27.0544 27.3686 26.6122 27.9891C26.1699 28.6095 25.4789 28.9656 24.7168 28.9656H24.1054C22.8655 28.9656 21.747 28.2298 21.2556 27.0917L21.1566 26.862C21.6609 26.4348 21.9826 25.7978 21.9826 25.0863C21.9826 23.8028 20.9383 22.7587 19.655 22.7587C18.9224 22.7587 18.2683 23.0998 17.8413 23.631C17.2103 23.3965 16.5487 23.276 15.8678 23.276Z" fill="url(#paint9_linear_781_769)"/>
<defs>
<linearGradient id="paint0_linear_781_769" x1="14.4828" y1="0" x2="14.4828" y2="17.5865" gradientUnits="userSpaceOnUse">
<stop stop-color="#02CE80"/>
<stop offset="1" stop-color="#7BD706"/>
</linearGradient>
<linearGradient id="paint1_linear_781_769" x1="18.233" y1="6.85352" x2="18.233" y2="10.9914" gradientUnits="userSpaceOnUse">
<stop stop-color="#02CE80"/>
<stop offset="1" stop-color="#7BD706"/>
</linearGradient>
<linearGradient id="paint2_linear_781_769" x1="10.733" y1="6.85352" x2="10.733" y2="10.9914" gradientUnits="userSpaceOnUse">
<stop stop-color="#02CE80"/>
<stop offset="1" stop-color="#7BD706"/>
</linearGradient>
<linearGradient id="paint3_linear_781_769" x1="14.4831" y1="5.68994" x2="14.4831" y2="12.1557" gradientUnits="userSpaceOnUse">
<stop stop-color="#02CE80"/>
<stop offset="1" stop-color="#7BD706"/>
</linearGradient>
<linearGradient id="paint4_linear_781_769" x1="10.086" y1="16.293" x2="10.086" y2="21.9826" gradientUnits="userSpaceOnUse">
<stop stop-color="#02CE80"/>
<stop offset="1" stop-color="#7BD706"/>
</linearGradient>
<linearGradient id="paint5_linear_781_769" x1="17.0688" y1="18.3623" x2="17.0688" y2="19.914" gradientUnits="userSpaceOnUse">
<stop stop-color="#02CE80"/>
<stop offset="1" stop-color="#7BD706"/>
</linearGradient>
<linearGradient id="paint6_linear_781_769" x1="21.2065" y1="18.3623" x2="21.2065" y2="19.914" gradientUnits="userSpaceOnUse">
<stop stop-color="#02CE80"/>
<stop offset="1" stop-color="#7BD706"/>
</linearGradient>
<linearGradient id="paint7_linear_781_769" x1="19.1382" y1="16.293" x2="19.1382" y2="17.8447" gradientUnits="userSpaceOnUse">
<stop stop-color="#02CE80"/>
<stop offset="1" stop-color="#7BD706"/>
</linearGradient>
<linearGradient id="paint8_linear_781_769" x1="19.1382" y1="20.4307" x2="19.1382" y2="21.9824" gradientUnits="userSpaceOnUse">
<stop stop-color="#02CE80"/>
<stop offset="1" stop-color="#7BD706"/>
</linearGradient>
<linearGradient id="paint9_linear_781_769" x1="14.4827" y1="12.1553" x2="14.4827" y2="30.0001" gradientUnits="userSpaceOnUse">
<stop stop-color="#02CE80"/>
<stop offset="1" stop-color="#7BD706"/>
</linearGradient>
</defs>
</svg>
