<svg width="30" height="30" viewBox="0 0 30 30" fill="none" xmlns="http://www.w3.org/2000/svg">
<g clip-path="url(#clip0_1_4372)">
<path d="M13.5488 29.9999H16.452V29.0321H14.5166V28.0644H16.452V27.0967H14.5166V26.1289H16.452V25.1611H13.5488V29.9999Z" fill="url(#paint0_linear_1_4372)"/>
<path d="M9.67773 28.0644H11.6133V29.0321H9.67773V29.9999H12.581V27.0967H10.6455V26.1289H12.581V25.1611H9.67773V28.0644Z" fill="url(#paint1_linear_1_4372)"/>
<path d="M17.4189 29.9999H20.3221V25.1611H17.4189V29.9999ZM18.3867 26.1289H19.3544V29.0321H18.3867V26.1289Z" fill="url(#paint2_linear_1_4372)"/>
<path d="M15.0004 10.6449C15.8009 10.6449 16.452 9.99375 16.452 9.1933C16.452 8.39285 15.8009 7.7417 15.0004 7.7417C14.2 7.7417 13.5488 8.39285 13.5488 9.1933C13.5488 9.99375 14.2 10.6449 15.0004 10.6449ZM15.0004 8.70943C15.2672 8.70943 15.4843 8.92652 15.4843 9.1933C15.4843 9.46008 15.2672 9.67717 15.0004 9.67717C14.7337 9.67717 14.5166 9.46008 14.5166 9.1933C14.5166 8.92652 14.7337 8.70943 15.0004 8.70943Z" fill="url(#paint3_linear_1_4372)"/>
<path d="M15.0004 12.5808C16.868 12.5808 18.3874 11.0614 18.3874 9.19377C18.3874 7.32615 16.868 5.80664 15.0004 5.80664C13.1327 5.80664 11.6133 7.32609 11.6133 9.19371C11.6133 11.0613 13.1327 12.5808 15.0004 12.5808ZM15.0004 6.77437C16.3344 6.77437 17.4197 7.85971 17.4197 9.19371C17.4197 10.5277 16.3344 11.613 15.0004 11.613C13.6663 11.613 12.581 10.5277 12.581 9.19371C12.581 7.85971 13.6663 6.77437 15.0004 6.77437Z" fill="url(#paint4_linear_1_4372)"/>
<path d="M27.5807 25.1613H26.1425C25.1829 23.9691 23.7138 23.2258 22.1225 23.2258H22.0605C21.3429 22.0246 20.0595 21.2903 18.6425 21.2903H18.5447L18.8212 20.3226H23.0254C23.6694 20.3226 24.1935 19.7986 24.1935 19.1545C24.1935 18.8424 24.072 18.549 23.8513 18.3284L23.7259 18.203C22.113 16.5901 20.9372 14.5782 20.3219 12.3822C20.3076 8.59342 19.1613 4.94584 17.0037 1.8293L16.1571 0.606387C15.8943 0.226641 15.4617 0 15 0C14.5383 0 14.1057 0.226641 13.8429 0.60627L12.9962 1.82918C10.8386 4.94572 9.69234 8.59336 9.67805 12.3821C9.0627 14.5781 7.88695 16.5899 6.27404 18.2029L6.14859 18.3283C5.92793 18.549 5.80646 18.8422 5.80646 19.1544C5.80646 19.7985 6.33047 20.3225 6.97459 20.3225H11.1788L11.4552 21.2903H11.3574C9.94055 21.2903 8.65705 22.0246 7.93939 23.2257H7.8774C6.28623 23.2257 4.81699 23.969 3.85746 25.1612H2.41934C1.08533 25.1613 0 26.2466 0 27.5807C0 28.9147 1.08533 30 2.41934 30H8.70967V29.0323H2.41934C1.61889 29.0323 0.967734 28.3811 0.967734 27.5807C0.967734 26.7803 1.61889 26.1291 2.41934 26.1291H3.24264C3.11314 26.3946 3.00486 26.6732 2.92184 26.9638L3.85236 27.2297C4.36307 25.4421 6.01822 24.1936 7.87746 24.1936H8.52486L8.65857 23.9261C9.17297 22.8972 10.2071 22.2581 11.3574 22.2581H18.6424C19.7927 22.2581 20.8269 22.8972 21.3413 23.9261L21.475 24.1936H22.1224C23.9816 24.1936 25.6368 25.4421 26.1475 27.2297L27.078 26.9638C26.995 26.6732 26.8867 26.3946 26.7572 26.1291H27.5805C28.3809 26.1291 29.0321 26.7803 29.0321 27.5807C29.0321 28.3811 28.3809 29.0323 27.5805 29.0323H21.2903V30H27.5807C28.9147 30 30 28.9147 30 27.5807C30 26.2467 28.9147 25.1613 27.5807 25.1613ZM23.1671 19.0127C23.2049 19.0505 23.2258 19.1009 23.2258 19.1545C23.2258 19.265 23.1359 19.3549 23.0254 19.3549H19.0977L19.6044 17.5814C19.8671 16.662 20.058 15.725 20.1768 14.7787C20.8806 16.301 21.85 17.6956 23.0417 18.8873L23.1671 19.0127ZM14.6385 1.15711C14.7206 1.03852 14.8557 0.967734 15 0.967734C15.1443 0.967734 15.2794 1.03852 15.3615 1.15711L16.2081 2.38002C16.3277 2.55264 16.4436 2.72719 16.5565 2.9032H13.4436C13.5566 2.72719 13.6725 2.55264 13.792 2.38002L14.6385 1.15711ZM12.8649 3.871H17.135C18.5916 6.49119 19.3548 9.42557 19.3548 12.4536C19.3548 13.4707 19.2669 14.4844 19.0932 15.4839H16.4245L16.0863 14.3567C15.9413 13.8732 15.5048 13.5484 15 13.5484C14.4952 13.5484 14.0587 13.8732 13.9137 14.3567L13.5755 15.4839H10.9068C10.7331 14.4844 10.6452 13.4707 10.6452 12.4536C10.6451 9.42557 11.4084 6.49119 12.8649 3.871ZM13.5636 18.8914L14.8406 14.6348C14.8615 14.5649 14.9271 14.5161 15 14.5161C15.0729 14.5161 15.1385 14.5649 15.1594 14.6347L16.4364 18.8914C16.4464 18.9249 16.4515 18.9596 16.4515 18.9947C16.4515 19.1933 16.2901 19.3547 16.0915 19.3547H13.9083C13.7098 19.3547 13.5483 19.1933 13.5483 18.9947C13.5484 18.9598 13.5535 18.925 13.5636 18.8914ZM6.97459 19.3549C6.86408 19.3549 6.7742 19.265 6.7742 19.1545C6.7742 19.1009 6.795 19.0506 6.83285 19.0127L6.9583 18.8873C8.14998 17.6955 9.11936 16.301 9.82318 14.7787C9.94195 15.725 10.1329 16.6619 10.3956 17.5814L10.9022 19.3549H6.97459ZM11.3261 17.3154C11.2443 17.0292 11.1701 16.7412 11.1029 16.4516H13.2852L12.6367 18.6132C12.5995 18.737 12.5807 18.8655 12.5807 18.9949C12.5807 19.7269 13.1763 20.3226 13.9084 20.3226H16.0916C16.8237 20.3226 17.4193 19.7269 17.4193 18.9949C17.4193 18.8655 17.4005 18.7371 17.3633 18.6133L16.7148 16.4516H18.8971C18.8299 16.7411 18.7557 17.0292 18.6739 17.3154L17.5382 21.2903H12.4618L11.3261 17.3154Z" fill="url(#paint5_linear_1_4372)"/>
<path d="M2.90273 13.5483H3.87053V5.80635H2.41887L4.35439 3.22564L6.28986 5.80635H4.83826V12.5805H5.806V6.77408H8.22533L4.35439 1.61279L0.483398 6.77408H2.90273V13.5483Z" fill="url(#paint6_linear_1_4372)"/>
<path d="M2.90332 14.5161H3.87105V15.4838H2.90332V14.5161Z" fill="url(#paint7_linear_1_4372)"/>
<path d="M2.90332 16.4517H3.87105V17.4194H2.90332V16.4517Z" fill="url(#paint8_linear_1_4372)"/>
<path d="M24.1938 12.5805H25.1615V5.80635H23.7099L25.6454 3.22564L27.5809 5.80635H26.1292V13.5483H27.097V6.77408H29.5163L25.6454 1.61279L21.7744 6.77408H24.1938V12.5805Z" fill="url(#paint9_linear_1_4372)"/>
<path d="M26.1289 14.5161H27.0966V15.4838H26.1289V14.5161Z" fill="url(#paint10_linear_1_4372)"/>
<path d="M26.1289 16.4517H27.0966V17.4194H26.1289V16.4517Z" fill="url(#paint11_linear_1_4372)"/>
</g>
<defs>
<linearGradient id="paint0_linear_1_4372" x1="15.0004" y1="25.1611" x2="15.0004" y2="29.9999" gradientUnits="userSpaceOnUse">
<stop stop-color="#3E66F3"/>
<stop offset="1" stop-color="#0031DD"/>
</linearGradient>
<linearGradient id="paint1_linear_1_4372" x1="11.1294" y1="25.1611" x2="11.1294" y2="29.9999" gradientUnits="userSpaceOnUse">
<stop stop-color="#3E66F3"/>
<stop offset="1" stop-color="#0031DD"/>
</linearGradient>
<linearGradient id="paint2_linear_1_4372" x1="18.8705" y1="25.1611" x2="18.8705" y2="29.9999" gradientUnits="userSpaceOnUse">
<stop stop-color="#3E66F3"/>
<stop offset="1" stop-color="#0031DD"/>
</linearGradient>
<linearGradient id="paint3_linear_1_4372" x1="15.0004" y1="7.7417" x2="15.0004" y2="10.6449" gradientUnits="userSpaceOnUse">
<stop stop-color="#3E66F3"/>
<stop offset="1" stop-color="#0031DD"/>
</linearGradient>
<linearGradient id="paint4_linear_1_4372" x1="15.0004" y1="5.80664" x2="15.0004" y2="12.5808" gradientUnits="userSpaceOnUse">
<stop stop-color="#3E66F3"/>
<stop offset="1" stop-color="#0031DD"/>
</linearGradient>
<linearGradient id="paint5_linear_1_4372" x1="15" y1="0" x2="15" y2="30" gradientUnits="userSpaceOnUse">
<stop stop-color="#3E66F3"/>
<stop offset="1" stop-color="#0031DD"/>
</linearGradient>
<linearGradient id="paint6_linear_1_4372" x1="4.35437" y1="1.61279" x2="4.35437" y2="13.5483" gradientUnits="userSpaceOnUse">
<stop stop-color="#3E66F3"/>
<stop offset="1" stop-color="#0031DD"/>
</linearGradient>
<linearGradient id="paint7_linear_1_4372" x1="3.38719" y1="14.5161" x2="3.38719" y2="15.4838" gradientUnits="userSpaceOnUse">
<stop stop-color="#3E66F3"/>
<stop offset="1" stop-color="#0031DD"/>
</linearGradient>
<linearGradient id="paint8_linear_1_4372" x1="3.38719" y1="16.4517" x2="3.38719" y2="17.4194" gradientUnits="userSpaceOnUse">
<stop stop-color="#3E66F3"/>
<stop offset="1" stop-color="#0031DD"/>
</linearGradient>
<linearGradient id="paint9_linear_1_4372" x1="25.6454" y1="1.61279" x2="25.6454" y2="13.5483" gradientUnits="userSpaceOnUse">
<stop stop-color="#3E66F3"/>
<stop offset="1" stop-color="#0031DD"/>
</linearGradient>
<linearGradient id="paint10_linear_1_4372" x1="26.6128" y1="14.5161" x2="26.6128" y2="15.4838" gradientUnits="userSpaceOnUse">
<stop stop-color="#3E66F3"/>
<stop offset="1" stop-color="#0031DD"/>
</linearGradient>
<linearGradient id="paint11_linear_1_4372" x1="26.6128" y1="16.4517" x2="26.6128" y2="17.4194" gradientUnits="userSpaceOnUse">
<stop stop-color="#3E66F3"/>
<stop offset="1" stop-color="#0031DD"/>
</linearGradient>
<clipPath id="clip0_1_4372">
<rect width="30" height="30" fill="white"/>
</clipPath>
</defs>
</svg>
