<svg width="40" height="40" viewBox="0 0 40 40" fill="none" xmlns="http://www.w3.org/2000/svg">
<g clip-path="url(#clip0_560_1009)">
<path d="M34.6562 8.38827H25.6094C26.3695 6.84218 27.0664 5.14296 27.5 3.77343C28.1797 1.62656 28.1688 0.536712 27.4633 0.12968C26.757 -0.277351 25.8086 0.257024 24.2891 1.91874C23.2445 3.06093 22.0234 4.65859 21.0211 6.19296C20.5125 6.9703 20.107 7.68906 19.7563 8.38827H5.34609C3.78281 8.38827 2.51172 9.65859 2.51172 11.2203V32.4297C2.51172 33.993 3.78359 35.2641 5.34609 35.2641H16.2562L15.0086 38.7516H12.6164C12.2711 38.7516 11.9922 39.0312 11.9922 39.3758C11.9922 39.7203 12.2719 40 12.6164 40H27.3852C27.7305 40 28.0094 39.7203 28.0094 39.3758C28.0094 39.0312 27.7297 38.7516 27.3852 38.7516H24.9922L23.7445 35.2641H34.6562C36.218 35.2641 37.4891 33.9922 37.4891 32.4297V11.2203C37.4883 9.65859 36.218 8.38827 34.6562 8.38827ZM17.468 19.0187C16.8234 19.2266 16.1063 19.457 15.425 19.9203C15.2555 17.7055 15.8461 16.3773 17.3555 15.5812L19.2539 16.6797C19.2828 16.6961 19.3125 16.7117 19.3422 16.7258C19.4383 18.3836 18.7492 18.607 17.468 19.0187ZM20.3633 14.7578C20.3906 14.7734 20.4016 14.7977 20.4063 14.8148C20.4109 14.832 20.4133 14.8578 20.3984 14.8836L20.0086 15.5601C19.982 15.6055 19.9219 15.6227 19.8797 15.5984L17.8625 14.4312C17.8617 14.4312 17.8609 14.4305 17.8609 14.4305C17.8344 14.4148 17.8234 14.3914 17.8187 14.375C17.8141 14.3578 17.8117 14.332 17.8273 14.3055L18.2187 13.6266C18.2352 13.5976 18.268 13.5812 18.3 13.5812C18.3164 13.5812 18.332 13.5851 18.3469 13.5937L20.3633 14.7578ZM17.1359 13.0016L16.7445 13.6812C16.5859 13.9562 16.5312 14.2711 16.5859 14.5812C14.0578 16.0351 14.0148 18.6023 14.2219 20.4602C14.257 20.8039 14.4625 21.1031 14.7687 21.2586C14.9195 21.3367 15.0797 21.375 15.2398 21.375C15.4117 21.375 15.5828 21.3305 15.7414 21.2406C15.7758 21.2211 15.8078 21.1984 15.8383 21.1734C16.443 20.6617 17.1594 20.4312 17.8516 20.2086C19.1977 19.7758 20.7117 19.2875 20.5891 16.682C20.7898 16.568 20.9641 16.4016 21.0891 16.1883L21.4805 15.5086C21.6594 15.1992 21.7063 14.8375 21.6125 14.4898C21.6016 14.4484 21.5883 14.4078 21.5734 14.3687C21.7266 14.1758 21.8766 13.9867 22.0242 13.8016C22.4039 13.3242 22.7687 12.8672 23.1219 12.4016H33.2836V31.25H6.71953V12.4008H17.8789C17.5758 12.5 17.307 12.7047 17.1359 13.0016ZM22.0664 6.87577C22.9484 5.52577 23.9977 4.13437 24.9438 3.05937C25.9055 1.9664 26.4688 1.53202 26.7523 1.36093C26.7453 1.69218 26.6508 2.39687 26.1852 3.77656C25.7273 5.13281 25.0477 6.73671 24.3195 8.17734C23.3008 10.193 22.2563 11.5047 21.0469 13.0226C20.9234 13.1773 20.7984 13.3344 20.6719 13.4937L19.2844 12.693C19.3594 12.5031 19.4328 12.3164 19.5055 12.132C20.2164 10.325 20.8305 8.76484 22.0664 6.87577ZM23.6664 38.7516H16.3359L17.5836 35.2641H22.4195L23.6664 38.7516ZM36.2391 32.4297C36.2391 33.3039 35.5289 34.0156 34.6555 34.0156H5.34609C4.47187 34.0156 3.76016 33.3047 3.76016 32.4297V11.2203C3.76016 10.3469 4.47109 9.63671 5.34609 9.63671H19.1727C18.9555 10.1351 18.7539 10.6359 18.5492 11.1516H6.09453C5.74922 11.1516 5.47031 11.4312 5.47031 11.7758V31.8727C5.47031 32.218 5.75 32.4969 6.09453 32.4969H33.907C34.2523 32.4969 34.5312 32.2172 34.5312 31.8727V11.7766C34.5312 11.432 34.2516 11.1523 33.907 11.1523H24.0203C24.3375 10.6828 24.6477 10.1859 24.9563 9.63749H34.6562C35.5297 9.63749 36.2398 10.3476 36.2398 11.2211V32.4297H36.2391ZM18.582 28.2859L20.2141 22.1961C20.3031 21.8633 20.6453 21.6648 20.9789 21.7547C21.3117 21.8437 21.5094 22.1867 21.4203 22.5195L19.7883 28.6094C19.7133 28.8883 19.4609 29.0727 19.1852 29.0727C19.132 29.0727 19.0773 29.0656 19.0234 29.0516C18.6898 28.9617 18.4922 28.6187 18.582 28.2859ZM12.8648 25.2305C12.8719 25.032 12.9719 24.8484 13.1359 24.7367L15.9992 22.7742C16.2836 22.5789 16.6727 22.6516 16.8672 22.9367C17.0625 23.2211 16.9898 23.6102 16.7047 23.8047L14.5414 25.2875L16.7391 27.0227C17.0094 27.2367 17.0562 27.6289 16.8422 27.9C16.7187 28.0562 16.5359 28.1375 16.3516 28.1375C16.2156 28.1375 16.0797 28.0937 15.9648 28.0031L13.1016 25.7422C12.9461 25.6187 12.8586 25.4289 12.8648 25.2305ZM23.1344 22.9367C23.3297 22.6523 23.718 22.5797 24.0023 22.775L26.8633 24.7375C27.0273 24.85 27.1273 25.0328 27.1344 25.2312C27.1414 25.4297 27.0531 25.6195 26.8977 25.7422L24.0367 28.0031C23.9219 28.0937 23.7852 28.1375 23.65 28.1375C23.4656 28.1375 23.2828 28.0562 23.1594 27.9C22.9453 27.6297 22.9914 27.2367 23.2625 27.0227L25.4586 25.2875L23.2969 23.8047C23.0117 23.6102 22.9398 23.2211 23.1344 22.9367Z" fill="#3E66F3"/>
</g>
<defs>
<clipPath id="clip0_560_1009">
<rect width="40" height="40" fill="white"/>
</clipPath>
</defs>
</svg>
