<svg width="58" height="58" viewBox="0 0 58 58" fill="none" xmlns="http://www.w3.org/2000/svg">
<path d="M56.1875 22.6563C56.1845 25.2992 55.1333 27.8331 53.2644 29.7019C51.3956 31.5708 48.8617 32.622 46.2188 32.625H44.4062C44.1659 32.625 43.9354 32.5295 43.7654 32.3596C43.5955 32.1896 43.5 31.9591 43.5 31.7188C43.5 31.4784 43.5955 31.2479 43.7654 31.0779C43.9354 30.908 44.1659 30.8125 44.4062 30.8125H46.2188C48.3819 30.8125 50.4565 29.9532 51.9861 28.4236C53.5157 26.894 54.375 24.8194 54.375 22.6563C54.375 20.4931 53.5157 18.4185 51.9861 16.8889C50.4565 15.3593 48.3819 14.5 46.2188 14.5L46.0356 14.5102C45.8254 14.5179 45.6193 14.4514 45.4534 14.3222C45.2875 14.1931 45.1724 14.0095 45.1284 13.8039C44.8553 12.596 44.2771 11.4783 43.4491 10.5574C42.6211 9.63647 41.5709 8.94317 40.3987 8.54365C39.2265 8.14413 37.9715 8.05173 36.7534 8.27527C35.5353 8.4988 34.3949 9.03082 33.441 9.82052C33.3302 9.91235 33.1991 9.97646 33.0586 10.0076C32.9181 10.0387 32.7723 10.0358 32.6331 9.99933C32.4939 9.96282 32.3654 9.89369 32.2583 9.79765C32.1511 9.7016 32.0684 9.58142 32.017 9.44704C31.2607 7.4695 29.8355 5.8194 27.9891 4.78341C26.1426 3.74743 23.9916 3.39104 21.9097 3.77617C19.8278 4.1613 17.9466 5.26361 16.593 6.89157C15.2393 8.51954 14.4988 10.5703 14.5 12.6875C14.5008 13.0223 14.5206 13.3568 14.5593 13.6893C14.5753 13.8319 14.5573 13.9762 14.5067 14.1105C14.4561 14.2447 14.3743 14.365 14.2681 14.4615C14.1619 14.558 14.0343 14.6279 13.8959 14.6654C13.7574 14.7029 13.612 14.7071 13.4716 14.6774C12.3537 14.4406 11.1984 14.4413 10.0808 14.6795C8.96311 14.9178 7.90799 15.3882 6.9838 16.0604C6.05962 16.7326 5.287 17.5914 4.71603 18.5813C4.14506 19.5712 3.78849 20.6701 3.66942 21.8066C3.55035 22.9432 3.67145 24.092 4.02486 25.1788C4.37827 26.2655 4.95611 27.2659 5.72092 28.115C6.48573 28.9641 7.42044 29.643 8.46445 30.1077C9.50847 30.5724 10.6385 30.8125 11.7812 30.8125H13.5938C13.8341 30.8125 14.0646 30.908 14.2346 31.0779C14.4045 31.2479 14.5 31.4784 14.5 31.7188C14.5 31.9591 14.4045 32.1896 14.2346 32.3596C14.0646 32.5295 13.8341 32.625 13.5938 32.625H11.7812C9.13737 32.625 6.60178 31.5747 4.73228 29.7052C2.86278 27.8357 1.8125 25.3001 1.8125 22.6563C1.8125 20.0124 2.86278 17.4768 4.73228 15.6073C6.60178 13.7378 9.13737 12.6875 11.7812 12.6875C12.0821 12.6875 12.3848 12.7017 12.6875 12.7295V12.6875C12.686 10.2466 13.5062 7.87628 15.016 5.95834C16.5258 4.04041 18.6373 2.68654 21.0103 2.11483C23.3833 1.54312 25.8796 1.78686 28.0972 2.80679C30.3148 3.82672 32.1245 5.56345 33.2348 7.7372C34.4087 6.99787 35.7368 6.53807 37.1166 6.39326C38.4964 6.24844 39.891 6.42249 41.1929 6.90197C42.4947 7.38145 43.6691 8.15355 44.6253 9.15873C45.5816 10.1639 46.2942 11.3753 46.7081 12.6994C49.2632 12.8281 51.6713 13.9328 53.4353 15.7857C55.1993 17.6385 56.1845 20.098 56.1875 22.6563ZM41.6875 28.0938C41.6875 39.3037 29.4036 43.4155 29.2797 43.4558C29.0979 43.5148 28.9021 43.5148 28.7203 43.4558C28.5964 43.4155 16.3125 39.3037 16.3125 28.0938V19.0313C16.3125 18.9122 16.3359 18.7944 16.3814 18.6844C16.427 18.5744 16.4937 18.4745 16.5779 18.3904C16.662 18.3062 16.7619 18.2395 16.8719 18.1939C16.9819 18.1484 17.0997 18.125 17.2188 18.125C21.2194 18.0604 25.1199 16.8633 28.4681 14.6726C28.6229 14.5608 28.809 14.5007 29 14.5007C29.191 14.5007 29.3771 14.5608 29.5319 14.6726C32.8801 16.8633 36.7806 18.0604 40.7812 18.125C40.9003 18.125 41.0181 18.1484 41.1281 18.1939C41.2381 18.2395 41.338 18.3062 41.4221 18.3904C41.5063 18.4745 41.573 18.5744 41.6186 18.6844C41.6641 18.7944 41.6875 18.9122 41.6875 19.0313V28.0938ZM39.875 19.9171C36.0201 19.7085 32.28 18.5318 29 16.4957C25.72 18.5318 21.9799 19.7085 18.125 19.9171V28.0938C18.125 37.0855 27.2689 40.9751 29 41.6304C30.7311 40.9751 39.875 37.0855 39.875 28.0938V19.9171ZM32.625 52.5625C32.6275 53.2411 32.4396 53.9067 32.0825 54.4837C31.7254 55.0608 31.2135 55.5259 30.605 55.8264C29.9966 56.1268 29.3161 56.2505 28.6408 56.1832C27.9656 56.116 27.3228 55.8606 26.7856 55.4461C26.2483 55.0315 25.8382 54.4745 25.6019 53.8384C25.3656 53.2023 25.3126 52.5127 25.4489 51.8479C25.5852 51.1832 25.9054 50.57 26.3729 50.0783C26.8405 49.5865 27.4367 49.2358 28.0938 49.0662V46.2188C28.0938 45.9784 28.1892 45.7479 28.3592 45.5779C28.5291 45.408 28.7596 45.3125 29 45.3125C29.2404 45.3125 29.4709 45.408 29.6408 45.5779C29.8108 45.7479 29.9062 45.9784 29.9062 46.2188V49.0662C30.6824 49.2659 31.3704 49.7176 31.8624 50.3503C32.3544 50.983 32.6226 51.761 32.625 52.5625ZM30.8125 52.5625C30.8125 52.204 30.7062 51.8536 30.507 51.5555C30.3079 51.2575 30.0248 51.0252 29.6936 50.888C29.3624 50.7508 28.998 50.7149 28.6464 50.7848C28.2948 50.8548 27.9719 51.0274 27.7184 51.2809C27.4649 51.5344 27.2923 51.8573 27.2223 52.2089C27.1524 52.5605 27.1883 52.9249 27.3255 53.2561C27.4627 53.5873 27.695 53.8704 27.993 54.0695C28.2911 54.2687 28.6415 54.375 29 54.375C29.4805 54.3745 29.9412 54.1833 30.281 53.8435C30.6208 53.5037 30.812 53.043 30.8125 52.5625ZM52.5625 52.5625C52.5644 53.4441 52.2442 54.2961 51.6622 54.9583C51.0802 55.6205 50.2764 56.0474 49.4018 56.1587C48.5273 56.27 47.6421 56.058 46.9128 55.5627C46.1835 55.0674 45.6602 54.3228 45.4412 53.4688H42.5938C41.3924 53.4673 40.2407 52.9895 39.3912 52.14C38.5418 51.2906 38.0639 50.1388 38.0625 48.9375V40.7813C38.0625 40.5409 38.158 40.3104 38.3279 40.1404C38.4979 39.9705 38.7284 39.875 38.9688 39.875C39.2091 39.875 39.4396 39.9705 39.6096 40.1404C39.7795 40.3104 39.875 40.5409 39.875 40.7813V48.9375C39.8758 49.6583 40.1625 50.3494 40.6722 50.8591C41.1819 51.3688 41.8729 51.6555 42.5938 51.6563H45.4412C45.6602 50.8023 46.1835 50.0576 46.9128 49.5623C47.6421 49.067 48.5273 48.8551 49.4018 48.9664C50.2764 49.0776 51.0802 49.5045 51.6622 50.1667C52.2442 50.8289 52.5644 51.6809 52.5625 52.5625ZM50.75 52.5625C50.75 52.204 50.6437 51.8536 50.4445 51.5555C50.2454 51.2575 49.9623 51.0252 49.6311 50.888C49.2999 50.7508 48.9355 50.7149 48.5839 50.7848C48.2323 50.8548 47.9094 51.0274 47.6559 51.2809C47.4024 51.5344 47.2298 51.8573 47.1598 52.2089C47.0899 52.5605 47.1258 52.9249 47.263 53.2561C47.4002 53.5873 47.6325 53.8704 47.9305 54.0695C48.2286 54.2687 48.579 54.375 48.9375 54.375C49.418 54.3745 49.8787 54.1833 50.2185 53.8435C50.5583 53.5037 50.7495 53.043 50.75 52.5625ZM19.9375 40.7813V48.9375C19.9361 50.1388 19.4582 51.2906 18.6088 52.14C17.7593 52.9895 16.6076 53.4673 15.4062 53.4688H12.5588C12.3382 54.323 11.8137 55.0676 11.0834 55.5627C10.3532 56.0579 9.46742 56.2698 8.59216 56.1586C7.71689 56.0474 6.91221 55.6209 6.32896 54.9588C5.74571 54.2968 5.42392 53.4448 5.42392 52.5625C5.42392 51.6802 5.74571 50.8282 6.32896 50.1662C6.91221 49.5042 7.71689 49.0776 8.59216 48.9664C9.46742 48.8552 10.3532 49.0671 11.0834 49.5623C11.8137 50.0575 12.3382 50.802 12.5588 51.6563H15.4062C16.1271 51.6555 16.8181 51.3688 17.3278 50.8591C17.8375 50.3494 18.1242 49.6583 18.125 48.9375V40.7813C18.125 40.5409 18.2205 40.3104 18.3904 40.1404C18.5604 39.9705 18.7909 39.875 19.0312 39.875C19.2716 39.875 19.5021 39.9705 19.6721 40.1404C19.842 40.3104 19.9375 40.5409 19.9375 40.7813ZM10.875 52.5625C10.875 52.204 10.7687 51.8536 10.5695 51.5555C10.3704 51.2575 10.0873 51.0252 9.75611 50.888C9.42492 50.7508 9.06049 50.7149 8.7089 50.7848C8.35731 50.8548 8.03435 51.0274 7.78087 51.2809C7.52739 51.5344 7.35476 51.8573 7.28483 52.2089C7.21489 52.5605 7.25078 52.9249 7.38797 53.2561C7.52515 53.5873 7.75746 53.8704 8.05553 54.0695C8.35359 54.2687 8.70402 54.375 9.0625 54.375C9.54304 54.3745 10.0037 54.1833 10.3435 53.8435C10.6833 53.5037 10.8745 53.043 10.875 52.5625ZM23.297 28.3593C23.2131 28.2739 23.1132 28.206 23.0029 28.1594C22.8926 28.1129 22.7742 28.0886 22.6546 28.0881C22.5349 28.0875 22.4163 28.1107 22.3056 28.1562C22.1949 28.2018 22.0943 28.2688 22.0097 28.3535C21.9251 28.4381 21.858 28.5387 21.8125 28.6493C21.7669 28.76 21.7438 28.8786 21.7443 28.9983C21.7448 29.118 21.7691 29.2364 21.8156 29.3466C21.8622 29.4569 21.9301 29.5569 22.0155 29.6407L26.5468 34.172C26.6309 34.2561 26.7308 34.3229 26.8407 34.3685C26.9507 34.414 27.0685 34.4375 27.1875 34.4375C27.3065 34.4375 27.4244 34.414 27.5343 34.3685C27.6443 34.3229 27.7441 34.2561 27.8283 34.172L35.9845 26.0157C36.0695 25.9318 36.1371 25.8318 36.1833 25.7217C36.2296 25.6115 36.2536 25.4933 36.254 25.3738C36.2543 25.2543 36.2311 25.136 36.1855 25.0255C36.14 24.9151 36.073 24.8147 35.9885 24.7302C35.9041 24.6457 35.8037 24.5788 35.6932 24.5332C35.5828 24.4877 35.4644 24.4644 35.3449 24.4648C35.2255 24.4652 35.1072 24.4892 34.9971 24.5355C34.8869 24.5817 34.787 24.6493 34.703 24.7343L27.1875 32.2498L23.297 28.3593Z" fill="#3E66F3"/>
</svg>
