<svg width="60" height="60" viewBox="0 0 60 60" fill="none" xmlns="http://www.w3.org/2000/svg">
<path d="M55.0954 48.6122C57.433 49.6184 59.0625 51.946 59.0625 54.6698V55.768C59.0625 57.5932 57.5991 59.0626 55.7813 59.0626H49.2187C47.401 59.0626 45.9375 57.5932 45.9375 55.768V54.6698C45.9375 51.9452 47.5679 49.6171 49.9066 48.6113L55.0954 48.6122Z" fill="#B6DCFE"/>
<path d="M56.25 45.9375C56.25 48.0086 54.5711 49.6875 52.5 49.6875C50.4289 49.6875 48.75 48.0086 48.75 45.9375C48.75 43.8664 50.4289 42.1875 52.5 42.1875C54.5711 42.1875 56.25 43.8664 56.25 45.9375Z" fill="#DFF0FE"/>
<path d="M55.0954 27.9872C57.433 28.9934 59.0625 31.321 59.0625 34.0448V35.143C59.0625 36.9682 57.5991 38.4376 55.7813 38.4376H49.2187C47.401 38.4376 45.9375 36.9682 45.9375 35.143V34.0448C45.9375 31.3202 47.5679 28.9921 49.9066 27.9863L55.0954 27.9872Z" fill="#98CCFD"/>
<path d="M56.25 25.3125C56.25 27.3836 54.5711 29.0625 52.5 29.0625C50.4289 29.0625 48.75 27.3836 48.75 25.3125C48.75 23.2414 50.4289 21.5625 52.5 21.5625C54.5711 21.5625 56.25 23.2414 56.25 25.3125Z" fill="#DFF0FE"/>
<path d="M55.0954 7.36218C57.433 8.36837 59.0625 10.696 59.0625 13.4198V14.518C59.0625 16.3432 57.5991 17.8126 55.7813 17.8126H49.2187C47.401 17.8126 45.9375 16.3432 45.9375 14.518V13.4198C45.9375 10.6952 47.5679 8.36706 49.9066 7.36133L55.0954 7.36218Z" fill="#B6DCFE"/>
<path d="M56.25 4.6875C56.25 6.75857 54.5711 8.4375 52.5 8.4375C50.4289 8.4375 48.75 6.75857 48.75 4.6875C48.75 2.61643 50.4289 0.9375 52.5 0.9375C54.5711 0.9375 56.25 2.61643 56.25 4.6875Z" fill="#DFF0FE"/>
<path d="M7.5 2.8125C3.86439 2.8125 0.9375 5.73936 0.9375 9.375V50.625C0.9375 54.2606 3.86439 57.1875 7.5 57.1875H24.375C28.0106 57.1875 30.9375 54.2606 30.9375 50.625V9.375C30.9375 5.73936 28.0106 2.8125 24.375 2.8125H7.5Z" fill="#98CCFD"/>
<path d="M4.68652 17.4447V9.375C4.68652 7.81687 5.94089 6.5625 7.49902 6.5625H24.374C25.9322 6.5625 27.1865 7.81687 27.1865 9.375V50.625C27.1865 52.1831 25.9322 53.4375 24.374 53.4375L4.6873 52.5L4.68652 17.4447Z" fill="#DFF0FE"/>
<path d="M13.8281 30C13.8281 25.3256 17.5912 21.5625 22.2656 21.5625H34.6875V15.9375H22.0037C14.488 15.9375 8.4375 21.988 8.4375 29.5037V30L13.8281 30Z" fill="#B6DCFE"/>
<path d="M13.8281 30C13.8281 34.6744 17.5912 38.4375 22.2656 38.4375H34.6875V44.0625H22.0037C14.488 44.0625 8.4375 38.012 8.4375 30.4963V30L13.8281 30Z" fill="#98CCFD"/>
<path d="M30.9375 38.4375H34.6875V44.0625H30.9375V38.4375Z" fill="#B6DCFE"/>
<path d="M30.9375 15.9375H34.6875V21.5625H30.9375V15.9375Z" fill="#98CCFD"/>
<path d="M25.3125 25.3125H30.9375L28.125 28.125L30 30L23.4375 34.6875L25.3125 30L23.4375 28.125L25.3125 25.3125Z" fill="#B6DCFE"/>
<path d="M52.4984 0C49.8923 0.000999213 47.8147 2.10861 47.8147 4.68581C47.8147 5.55538 48.0514 6.36918 48.4647 7.06992C46.3686 8.40566 44.9968 10.7483 44.9968 13.4202V14.5189C44.9968 16.8819 46.8961 18.7487 49.2191 18.7487H55.7777C58.1006 18.7487 60 16.8819 60 14.5189V13.4202C60 10.7483 58.6282 8.40566 56.5321 7.06992C56.9454 6.36918 57.1821 5.55538 57.1821 4.68581C57.1821 2.10861 55.1045 0.000999213 52.4984 0ZM7.50161 1.87506C3.36309 1.87506 0 5.19863 0 9.37712V50.6265C0 54.8095 3.36309 58.1286 7.50161 58.1286H24.3743C28.5522 58.1286 31.8777 54.7656 31.8777 50.6265V44.9977H34.6864C35.2043 44.9997 35.6258 44.5818 35.6276 44.0638V38.4368C35.6258 37.9189 35.2043 37.501 34.6864 37.503H22.2649C18.0939 37.503 14.7707 34.143 14.7707 30.0009C14.7707 25.8589 18.0939 22.4989 22.2649 22.4989H34.6864C35.2043 22.5008 35.6258 22.0829 35.6276 21.565V15.938C35.6296 15.4173 35.207 14.9948 34.6864 14.9968H31.8777V9.37712C31.8777 5.21577 28.5128 1.87506 24.3743 1.87506H7.50161ZM52.4984 1.87506C54.0253 1.87606 55.3145 3.12199 55.3145 4.68581C55.3145 6.24964 54.0412 7.50105 52.4984 7.50206C50.9556 7.50106 49.6823 6.24964 49.6823 4.68581C49.6823 3.12199 50.9715 1.87606 52.4984 1.87506ZM7.50161 3.75012H24.3743C27.5065 3.75012 30.0009 6.27795 30.0009 9.37712V14.9968H28.126V9.37712C28.126 7.28464 26.4354 5.62517 24.3743 5.62517H7.50161C5.39649 5.62517 3.75353 7.31571 3.75353 9.37712V50.6265C3.75353 52.688 5.40889 54.3785 7.50161 54.3785H24.3743C26.4591 54.3785 28.126 52.688 28.126 50.6265V44.9977H30.0009V50.6265C30.0009 53.7592 27.4828 56.2517 24.3743 56.2517H7.50161C4.39133 56.2517 1.87678 53.7592 1.87678 50.6265V9.37712C1.87678 6.26815 4.36936 3.75012 7.50161 3.75012ZM7.50161 7.50206H24.3743C25.4292 7.50206 26.251 8.34796 26.251 9.37712V14.9968H22.0013C13.9827 14.9968 7.50345 21.4545 7.50345 29.5029V30.499C7.50345 38.54 13.9827 44.9977 22.0013 44.9977H26.251V50.6265C26.251 51.6523 25.4292 52.5034 24.3743 52.5034H7.50161C6.44669 52.5034 5.62667 51.6619 5.62667 50.6265V9.37712C5.62667 8.32207 6.476 7.50206 7.50161 7.50206ZM49.7501 8.48537C50.5179 9.04091 51.4709 9.37671 52.4984 9.37712C53.5259 9.37671 54.4789 9.04093 55.2467 8.48537C56.949 9.43579 58.1232 11.286 58.1232 13.4202V14.5189C58.1232 15.8064 57.0902 16.8719 55.7777 16.8719C53.4185 16.8719 51.5661 16.8719 49.2191 16.8719C47.9065 16.8719 46.8736 15.8064 46.8736 14.5189V13.4202C46.8736 11.286 48.0478 9.43579 49.7501 8.48537ZM38.4381 14.0629C37.1871 14.0622 37.1871 15.9372 38.4381 15.938H40.3131C41.5641 15.9388 41.5641 14.0637 40.3131 14.0629H38.4381ZM22.0013 16.8719H30.0009V20.6238H22.2649C17.0876 20.6238 12.8939 24.7793 12.8939 30.0009C12.8939 35.2226 17.0876 39.3799 22.2649 39.3799H30.0009V43.1227H22.0013C14.989 43.1227 9.37839 37.4677 9.37839 30.499V29.5029C9.37839 22.5341 14.989 16.8718 22.0013 16.8719ZM31.8777 16.8719H33.7526V20.6238H31.8777V16.8719ZM41.2506 17.813C39.9995 17.8123 39.9995 19.6873 41.2506 19.6881H43.1255C44.3766 19.6889 44.3766 17.8138 43.1255 17.813H41.2506ZM52.4984 20.6256C49.8923 20.6267 47.8147 22.7342 47.8147 25.3114C47.8147 26.181 48.0514 26.9948 48.4647 27.6955C46.3686 29.0313 44.9968 31.374 44.9968 34.0458V35.1445C44.9968 37.5075 46.8961 39.3744 49.2191 39.3744H55.7777C58.1007 39.3744 60 37.5075 60 35.1445V34.0458C60 31.374 58.6282 29.0313 56.5321 27.6955C56.9454 26.9948 57.1821 26.181 57.1821 25.3114C57.1821 22.7342 55.1045 20.6266 52.4984 20.6256ZM38.4381 21.5632C37.1871 21.5624 37.1871 23.4374 38.4381 23.4382H40.3131C41.5641 23.439 41.5641 21.5639 40.3131 21.5632H38.4381ZM52.4984 22.5007C54.0253 22.5017 55.3145 23.7476 55.3145 25.3114C55.3145 26.8753 54.0412 28.1267 52.4984 28.1277C50.9556 28.1267 49.6823 26.8753 49.6823 25.3114C49.6823 23.7476 50.9715 22.5017 52.4984 22.5007ZM25.3172 24.3739C25.0028 24.3723 24.7086 24.5284 24.5335 24.7896L22.6586 27.6077C22.4108 27.9795 22.4599 28.4746 22.7759 28.7906L24.2169 30.2298L22.569 34.3406C22.2328 35.2049 23.2212 35.9805 23.9807 35.4485L30.5484 30.7627C31.02 30.4256 31.0759 29.7457 30.6657 29.3362L29.4554 28.1259L31.5996 25.9743C32.1904 25.383 31.7706 24.3724 30.9347 24.3739H25.3172ZM25.8153 26.2508H28.6734L27.4613 27.4612C27.0929 27.8277 27.0929 28.424 27.4613 28.7906L28.5544 29.8837L25.4966 32.0701L26.1815 30.347C26.3207 29.999 26.2393 29.6015 25.9745 29.3362L24.6452 28.0087L25.8153 26.2508ZM49.7501 29.111C50.5179 29.6665 51.4709 30.0023 52.4984 30.0027C53.5259 30.0023 54.4789 29.6666 55.2467 29.111C56.949 30.0614 58.1232 31.9116 58.1232 34.0458V35.1445C58.1232 36.432 57.0903 37.4975 55.7777 37.4975C53.5915 37.4975 51.4053 37.4975 49.2191 37.4975C47.9065 37.4975 46.8736 36.432 46.8736 35.1445V34.0458C46.8736 31.9116 48.0478 30.0614 49.7501 29.111ZM38.4381 36.5636C37.1871 36.5628 37.1871 38.4379 38.4381 38.4387H40.3131C41.5641 38.4394 41.5641 36.5644 40.3131 36.5636H38.4381ZM31.8777 39.3799H33.7526V43.1227H31.8777V39.3799ZM41.2506 40.3137C39.9995 40.313 39.9995 42.188 41.2506 42.1888H43.1255C44.3766 42.1896 44.3766 40.3145 43.1255 40.3137H41.2506ZM52.4984 41.2513C49.8923 41.2523 47.8147 43.3599 47.8147 45.9371C47.8147 46.8066 48.0514 47.6204 48.4647 48.3212C46.3686 49.6569 44.9968 51.9996 44.9968 54.6715V55.7701C44.9968 58.1332 46.8961 60 49.2191 60H55.7777C58.1007 60 60 58.1332 60 55.7701V54.6715C60 51.9996 58.6282 49.6569 56.5321 48.3212C56.9454 47.6204 57.1821 46.8066 57.1821 45.9371C57.1821 43.3599 55.1045 41.2523 52.4984 41.2513ZM52.4984 43.1263C54.0253 43.1273 55.3145 44.3732 55.3145 45.9371C55.3145 47.5009 54.0412 48.7523 52.4984 48.7533C50.9556 48.7523 49.6823 47.5009 49.6823 45.9371C49.6823 44.3732 50.9715 43.1273 52.4984 43.1263ZM38.4381 44.0638C37.1871 44.0631 37.1871 45.9381 38.4381 45.9389H40.3131C41.5641 45.9397 41.5641 44.0646 40.3131 44.0638H38.4381ZM8.43906 47.814C7.18884 47.814 7.18884 49.689 8.43906 49.689H10.3122C11.5624 49.689 11.5624 47.814 10.3122 47.814H8.43906ZM14.0639 47.814C12.8137 47.814 12.8137 49.689 14.0639 49.689H17.8138C19.064 49.689 19.064 47.814 17.8138 47.814H14.0639ZM21.5637 47.814C20.3134 47.814 20.3134 49.689 21.5637 49.689H23.4386C24.6888 49.689 24.6888 47.814 23.4386 47.814H21.5637ZM49.7501 49.7366C50.5179 50.2922 51.4709 50.628 52.4984 50.6284C53.5259 50.628 54.4789 50.2922 55.2467 49.7366C56.949 50.687 58.1232 52.5373 58.1232 54.6715V55.7701C58.1232 57.0577 57.0903 58.1231 55.7777 58.1231C53.5915 58.1231 51.4053 58.1231 49.2191 58.1231C47.9065 58.1231 46.8736 57.0577 46.8736 55.7701V54.6715C46.8736 52.5373 48.0478 50.687 49.7501 49.7366Z" fill="#3E66F3"/>
</svg>
