<svg width="40" height="40" viewBox="0 0 40 40" fill="none" xmlns="http://www.w3.org/2000/svg">
<path d="M37.6631 19.0506C37.1181 18.8713 36.6875 18.4681 36.4838 17.9437C36.4575 17.8775 36.43 17.81 36.4006 17.7431C36.1788 17.2319 36.1987 16.6463 36.4556 16.1363C36.5869 15.8763 36.5369 15.5638 36.3313 15.3575L35.8912 14.9181C35.6856 14.7125 35.3737 14.6619 35.1137 14.7931C34.605 15.0506 34.0181 15.07 33.5063 14.8475C33.4413 14.8194 33.375 14.7925 33.3081 14.7662C32.7825 14.5619 32.3794 14.1325 32.2 13.5875C32.1081 13.3106 31.8525 13.125 31.5613 13.125H30.9387C30.6475 13.125 30.3912 13.3106 30.3006 13.5869C30.1212 14.1325 29.7175 14.5625 29.1937 14.7662C29.1256 14.7931 29.0594 14.82 28.9937 14.8487C28.4819 15.0719 27.8969 15.0512 27.3869 14.7944C27.1269 14.6631 26.815 14.7138 26.6094 14.9188L26.1687 15.3594C25.9637 15.565 25.9138 15.8775 26.045 16.1369C26.3019 16.6469 26.3219 17.2325 26.0994 17.7444C26.0706 17.81 26.0431 17.8775 26.0162 17.9456C25.8131 18.4687 25.3831 18.8719 24.8375 19.0513C24.5613 19.1413 24.375 19.3981 24.375 19.6888V20.3113C24.375 20.6019 24.5606 20.8581 24.8369 20.9494C25.3819 21.1288 25.8125 21.5319 26.0162 22.0563C26.0425 22.1225 26.07 22.19 26.0994 22.2569C26.3212 22.7681 26.3013 23.3537 26.0444 23.8637C25.9131 24.1237 25.9631 24.4362 26.1681 24.6419L26.6088 25.0819C26.8144 25.2875 27.1263 25.3388 27.3863 25.2069C27.66 25.0681 27.9569 24.9988 28.2525 24.9988C28.5056 24.9988 28.7581 25.05 28.9944 25.1531C29.0594 25.1812 29.1256 25.2081 29.1925 25.2344C29.7181 25.4388 30.1212 25.8681 30.3006 26.4131C30.3919 26.6894 30.6475 26.875 30.9387 26.875H31.5613C31.8525 26.875 32.1088 26.6894 32.1994 26.4131C32.3788 25.8675 32.7825 25.4375 33.3063 25.2338C33.3744 25.2069 33.4406 25.18 33.5063 25.1513C34.0188 24.9294 34.6038 24.9494 35.1131 25.2056C35.3731 25.3375 35.685 25.2863 35.8906 25.0813L36.3313 24.6406C36.5363 24.4356 36.5862 24.1225 36.455 23.8631C36.1981 23.3531 36.1781 22.7675 36.4006 22.2556C36.4294 22.19 36.4569 22.1225 36.4838 22.0544C36.6869 21.5312 37.1169 21.1281 37.6625 20.9488C37.9387 20.8588 38.125 20.6019 38.125 20.3113V19.6888C38.125 19.3981 37.9394 19.1413 37.6631 19.0506ZM31.25 23.75C29.1788 23.75 27.5 22.0712 27.5 20C27.5 17.9288 29.1788 16.25 31.25 16.25C33.3212 16.25 35 17.9288 35 20C35 22.0712 33.3212 23.75 31.25 23.75Z" fill="#3E66F3"/>
<path d="M31.25 21.25C31.9404 21.25 32.5 20.6904 32.5 20C32.5 19.3096 31.9404 18.75 31.25 18.75C30.5596 18.75 30 19.3096 30 20C30 20.6904 30.5596 21.25 31.25 21.25Z" fill="#3E66F3"/>
<path d="M18.75 1.875H2.5C2.155 1.875 1.875 2.15562 1.875 2.5V5.625H19.375V2.5C19.375 2.15562 19.095 1.875 18.75 1.875ZM4.375 4.375H3.125V3.125H4.375V4.375ZM6.875 4.375H5.625V3.125H6.875V4.375ZM9.375 4.375H8.125V3.125H9.375V4.375Z" fill="#3E66F3"/>
<path d="M1.875 12.5C1.875 12.8444 2.155 13.125 2.5 13.125H10V16.875H2.5C2.155 16.875 1.875 17.1556 1.875 17.5V25C1.875 25.3444 2.155 25.625 2.5 25.625H10V29.375H2.5C2.155 29.375 1.875 29.6556 1.875 30V35C1.875 35.3444 2.155 35.625 2.5 35.625H7.06438L10.7288 38.0688C10.9375 38.2081 11.25 38.0406 11.25 37.79V35.625H18.75C19.095 35.625 19.375 35.3444 19.375 35V30C19.375 29.6556 19.095 29.375 18.75 29.375H11.25V25.625H18.75C19.095 25.625 19.375 25.3444 19.375 25V17.5C19.375 17.1556 19.095 16.875 18.75 16.875H11.25V13.125H18.75C19.095 13.125 19.375 12.8444 19.375 12.5V6.875H1.875V12.5ZM7.5 33.75H3.75V31.25H7.5V33.75ZM18.125 34.375H9.375V33.125H18.125V34.375ZM13.125 30.625H18.125V31.875H13.125V30.625ZM11.875 31.875H9.375V30.625H11.875V31.875ZM8.125 23.75V18.75L13.125 21.25L8.125 23.75ZM13.125 8.125H18.125V9.375H13.125V8.125ZM9.375 8.125H11.875V9.375H9.375V8.125ZM9.375 10.625H18.125V11.875H9.375V10.625ZM3.75 8.75H7.5V11.25H3.75V8.75Z" fill="#3E66F3"/>
<path d="M21.875 31.875H23.125V33.125H21.875V31.875Z" fill="#3E66F3"/>
<path d="M24.375 31.875H25.625V33.125H24.375V31.875Z" fill="#3E66F3"/>
<path d="M30.625 31.25C30.625 31.5944 30.345 31.875 30 31.875H26.875V33.125H30C31.0338 33.125 31.875 32.2838 31.875 31.25V29.375H30.625V31.25Z" fill="#3E66F3"/>
<path d="M21.875 6.875H23.125V8.125H21.875V6.875Z" fill="#3E66F3"/>
<path d="M24.375 6.875H25.625V8.125H24.375V6.875Z" fill="#3E66F3"/>
<path d="M30.625 8.75V10.625H31.875V8.75C31.875 7.71625 31.0338 6.875 30 6.875H26.875V8.125H30C30.345 8.125 30.625 8.40562 30.625 8.75Z" fill="#3E66F3"/>
</svg>
