<svg width="58" height="58" viewBox="0 0 58 58" fill="none" xmlns="http://www.w3.org/2000/svg">
<path d="M51.9848 10.6466H50.6323C50.7183 10.1853 50.7653 9.7107 50.7653 9.22483C50.7653 4.95028 47.2892 1.47266 43.0163 1.47266C38.7435 1.47266 35.2673 4.95028 35.2673 9.22483C35.2673 9.71058 35.3144 10.1853 35.4003 10.6466H33.8302V8.35155C33.8302 7.85107 33.4244 7.4453 32.924 7.4453H29.2442C28.7437 7.4453 28.3379 7.85107 28.3379 8.35155V10.6466H27.6201V2.37891C27.6201 1.87843 27.2144 1.47266 26.7139 1.47266H23.0341C22.5336 1.47266 22.1278 1.87843 22.1278 2.37891V10.6466H21.4101V6.89056C21.4101 6.39008 21.0043 5.98431 20.5038 5.98431H16.824C16.3235 5.98431 15.9177 6.39008 15.9177 6.89056V10.6466H6.01572C3.51175 10.6466 1.47461 12.6852 1.47461 15.191V43.4738C1.47461 45.9778 3.51175 48.0149 6.01572 48.0149H22.7102L21.0945 52.0272H16.8721C16.3717 52.0272 15.9659 52.433 15.9659 52.9335V55.6211C15.9659 56.1216 16.3717 56.5273 16.8721 56.5273H41.1251C41.6256 56.5273 42.0313 56.1216 42.0313 55.6211V52.9335C42.0313 52.433 41.6256 52.0272 41.1251 52.0272H36.903L35.2896 48.0149H51.9848C54.4888 48.0149 56.5259 45.9778 56.5259 43.4738V15.191C56.5259 12.6852 54.4888 10.6466 51.9848 10.6466ZM43.4161 10.1311H48.8837C48.4461 12.9759 45.9817 15.1613 43.0164 15.1613C41.8026 15.1613 40.6731 14.7944 39.7318 14.1667L43.4162 10.1311H43.4161ZM48.8837 8.31858H43.9226V3.35437C46.472 3.74678 48.4918 5.76771 48.8837 8.31858ZM42.1101 3.35426V8.87332L38.3939 12.9437C37.5728 11.9252 37.0798 10.6318 37.0798 9.22472C37.0798 6.25777 39.2652 3.79209 42.1101 3.35414V3.35426ZM32.0177 9.25768V22.1935H30.1504V9.25768H32.0177ZM28.3379 12.459V22.1934H27.6201V12.459H28.3379ZM25.8076 3.28504V22.1934H23.9403V3.28516L25.8076 3.28504ZM22.1278 12.459V22.1934H21.4101V12.459H22.1278ZM19.5976 7.79669V22.1935H17.7302V7.79669H19.5976ZM6.0156 12.459H15.9177V22.1934H15.2V15.8844C15.2 15.3839 14.7942 14.9782 14.2937 14.9782H10.6171C10.1166 14.9782 9.71084 15.3839 9.71084 15.8844V22.1934H9.46434C8.96386 22.1934 8.55809 22.5992 8.55809 23.0996C8.55809 23.6001 8.96386 24.0059 9.46434 24.0059H34.5394C35.0398 24.0059 35.4456 23.6001 35.4456 23.0996C35.4456 22.5992 35.0398 22.1934 34.5394 22.1934H33.8305V12.459H35.9775C37.2054 15.1209 39.8978 16.9737 43.0165 16.9737C46.1353 16.9737 48.8276 15.1208 50.0556 12.459H51.9849C53.4895 12.459 54.7135 13.6845 54.7135 15.1909V40.9201H3.287V15.1909C3.287 13.6845 4.51111 12.459 6.0156 12.459ZM11.5232 22.1934V16.7907H13.3874V22.1934H11.5232ZM40.2187 54.7147H17.7783V53.8396H40.2187V54.7147ZM34.9493 52.0271H23.0483L24.6641 48.0148H33.3361L34.9494 52.0271H34.9493ZM51.9847 46.2023H6.01572C4.51111 46.2023 3.28711 44.9783 3.28711 43.4737V42.7326H54.7136V43.4737C54.7136 44.9783 53.4895 46.2023 51.985 46.2023H51.9847ZM16.3044 44.4658C16.3044 44.9663 15.8986 45.3721 15.3981 45.3721H14.711C14.2105 45.3721 13.8047 44.9663 13.8047 44.4658C13.8047 43.9654 14.2105 43.5596 14.711 43.5596H15.3981C15.8986 43.5596 16.3044 43.9654 16.3044 44.4658ZM13.1255 44.4658C13.1255 44.9663 12.7197 45.3721 12.2192 45.3721H7.04952C6.54904 45.3721 6.14327 44.9663 6.14327 44.4658C6.14327 43.9654 6.54904 43.5596 7.04952 43.5596H12.2192C12.7197 43.5596 13.1255 43.9654 13.1255 44.4658ZM40.6362 24.4386C40.6362 23.9381 41.0419 23.5324 41.5424 23.5324H42.175C42.6754 23.5324 43.0812 23.9381 43.0812 24.4386C43.0812 24.9391 42.6754 25.3449 42.175 25.3449H41.5424C41.0419 25.3449 40.6362 24.9391 40.6362 24.4386ZM49.4616 24.4386C49.4616 24.9391 49.0558 25.3449 48.5553 25.3449H44.9621C44.4617 25.3449 44.0559 24.9391 44.0559 24.4386C44.0559 23.9381 44.4617 23.5324 44.9621 23.5324H48.5553C49.0558 23.5324 49.4616 23.9381 49.4616 24.4386ZM49.4616 27.2611C49.4616 27.7616 49.0558 28.1674 48.5553 28.1674H41.5263C41.0259 28.1674 40.6201 27.7616 40.6201 27.2611C40.6201 26.7607 41.0259 26.3549 41.5263 26.3549H48.5553C49.0558 26.3549 49.4616 26.7607 49.4616 27.2611ZM36.5318 18.6168C36.7819 18.1833 37.3362 18.0347 37.7697 18.2848L41.9714 20.7099H48.5553C49.0558 20.7099 49.4616 21.1156 49.4616 21.6161C49.4616 22.1166 49.0558 22.5224 48.5553 22.5224H41.7286C41.5696 22.5224 41.4134 22.4806 41.2756 22.401L36.8637 19.8547C36.4301 19.6045 36.2816 19.0503 36.5318 18.6168ZM11.5642 34.8014C12.5285 34.8014 13.3876 34.3445 13.938 33.6365L18.2171 35.2159C18.215 35.2624 18.2136 35.3091 18.2136 35.3561C18.2136 37.0137 19.5622 38.3624 21.2199 38.3624C22.8775 38.3624 24.2261 37.0137 24.2261 35.3561C24.2261 35.0229 24.1708 34.7027 24.0704 34.403L29.0921 30.752C29.5914 31.1212 30.2083 31.3399 30.8755 31.3399C31.4493 31.3399 31.9859 31.1782 32.4425 30.8981L37.7733 35.5321C37.6138 35.8987 37.5249 36.3027 37.5249 36.7274C37.5249 38.385 38.8735 39.7336 40.5312 39.7336C42.1888 39.7336 43.5374 38.385 43.5374 36.7274C43.5374 35.0697 42.1888 33.7211 40.5312 33.7211C39.9566 33.7211 39.4193 33.8833 38.9623 34.1642L33.6325 29.531C33.7926 29.1639 33.8819 28.7592 33.8819 28.3338C33.8819 26.6761 32.5333 25.3275 30.8756 25.3275C29.218 25.3275 27.8694 26.6761 27.8694 28.3338C27.8694 28.667 27.9246 28.9873 28.0251 29.2871L23.0034 32.938C22.5041 32.5688 21.8872 32.3501 21.22 32.3501C20.2553 32.3501 19.3959 32.8073 18.8455 33.516L14.5671 31.9368C14.5692 31.8899 14.5707 31.8428 14.5707 31.7953C14.5707 30.1377 13.2221 28.7891 11.5645 28.7891C9.90681 28.7891 8.5582 30.1377 8.5582 31.7953C8.5582 33.453 9.90681 34.8016 11.5645 34.8016L11.5642 34.8014ZM40.531 35.5335C41.1893 35.5335 41.7248 36.069 41.7248 36.7273C41.7248 37.3855 41.1892 37.921 40.531 37.921C39.8729 37.921 39.3373 37.3855 39.3373 36.7273C39.3373 36.069 39.8729 35.5335 40.531 35.5335ZM30.8754 27.1398C31.5337 27.1398 32.0692 27.6753 32.0692 28.3336C32.0692 28.9918 31.5336 29.5273 30.8754 29.5273C30.2172 29.5273 29.6816 28.9918 29.6816 28.3336C29.6816 27.6753 30.2172 27.1398 30.8754 27.1398ZM21.2199 34.1623C21.8781 34.1623 22.4136 34.6978 22.4136 35.3561C22.4136 36.0144 21.878 36.5499 21.2199 36.5499C20.5617 36.5499 20.0261 36.0144 20.0261 35.3561C20.0261 34.6978 20.5617 34.1623 21.2199 34.1623ZM11.5643 30.6013C12.2226 30.6013 12.7581 31.1368 12.7581 31.7951C12.7581 32.4534 12.2225 32.9889 11.5643 32.9889C10.9062 32.9889 10.3706 32.4534 10.3706 31.7951C10.3706 31.1368 10.9062 30.6013 11.5643 30.6013Z" fill="#3E66F3"/>
</svg>
