<svg width="45" height="40" viewBox="0 0 45 40" fill="none" xmlns="http://www.w3.org/2000/svg">
<path d="M18.2841 15.1598H16.5225C16.1189 15.1598 15.7917 14.8327 15.7917 14.429C15.7917 14.0254 16.1189 13.6982 16.5225 13.6982H18.2841C18.6878 13.6982 19.015 14.0254 19.015 14.429C19.015 14.8327 18.6879 15.1598 18.2841 15.1598Z" fill="#3E66F3"/>
<path d="M27.7138 15.1598H25.952C25.5483 15.1598 25.2212 14.8327 25.2212 14.429C25.2212 14.0254 25.5483 13.6982 25.952 13.6982H27.7137C28.1173 13.6982 28.4444 14.0254 28.4444 14.429C28.4444 14.8327 28.1174 15.1598 27.7138 15.1598Z" fill="#3E66F3"/>
<path d="M27.7137 25.9952H27.6274C26.1943 25.9952 24.9338 25.0794 24.4906 23.7171L23.8646 21.7891C23.5609 20.8538 22.7632 20.521 22.1181 20.521C21.4732 20.521 20.6756 20.8538 20.3718 21.7896L19.7455 23.717C19.3025 25.0793 18.0422 25.9951 16.6092 25.9951H16.5226C16.1189 25.9951 15.7918 25.6679 15.7918 25.2643V15.1601H11.3924C11.113 15.1601 10.8581 15.0009 10.7356 14.7497C10.6131 14.4986 10.6445 14.1993 10.8169 13.9792L21.5423 0.265491C21.8198 -0.0884971 22.4163 -0.0884971 22.6938 0.265491L33.4193 13.9792C33.5916 14.1993 33.623 14.4986 33.5005 14.7497C33.3781 15.0009 33.1232 15.1601 32.8437 15.1601H28.4443V25.2644C28.4443 25.668 28.1173 25.9952 27.7137 25.9952ZM12.8917 13.6986H16.5226C16.9262 13.6986 17.2534 14.0257 17.2534 14.4294V24.4176C17.7667 24.2264 18.1783 23.8095 18.3553 23.2648L18.9816 21.3374C19.4316 19.9535 20.6627 19.0593 22.1181 19.0593C23.5736 19.0593 24.8049 19.9535 25.2547 21.3374L25.8808 23.2654C26.0577 23.8095 26.4694 24.2258 26.9827 24.4176V14.4294C26.9827 14.0257 27.3098 13.6986 27.7136 13.6986H31.3444L22.1181 1.90184L12.8917 13.6986Z" fill="#3E66F3"/>
<path d="M26.775 39.9998C26.1001 39.9998 25.4256 39.7863 24.8366 39.3588L23.1975 38.1678C22.5524 37.6985 21.6845 37.6985 21.0388 38.1678L19.3997 39.3588C18.221 40.214 16.6994 40.214 15.5224 39.3582C14.3452 38.5029 13.875 37.0556 14.3246 35.6711L14.9507 33.7441C15.1974 32.9847 14.9293 32.1598 14.2836 31.6911L12.6444 30.5001C11.467 29.6441 10.9968 28.1968 11.4464 26.8129C11.8962 25.4284 13.1275 24.5337 14.5831 24.5337H16.6094C17.4073 24.5337 18.109 24.0239 18.3555 23.2651L18.9818 21.3376C19.4317 19.9537 20.6629 19.0596 22.1183 19.0596C23.5738 19.0596 24.8051 19.9537 25.2549 21.3376L25.881 23.2657C26.1276 24.024 26.8293 24.5337 27.6275 24.5337H29.6536C31.1091 24.5337 32.3403 25.4284 32.7903 26.8129C33.2399 28.1968 32.7698 29.6441 31.5922 30.5001L29.9528 31.691C29.307 32.1597 29.0391 32.9847 29.2857 33.7435L29.9118 35.6715C30.3614 37.0554 29.8913 38.5027 28.7139 39.3581C28.125 39.7863 27.4498 39.9998 26.775 39.9998ZM22.1181 36.3532C22.7975 36.3532 23.4769 36.5639 24.0567 36.9847L25.6958 38.1757C26.4911 38.7541 27.3321 38.5549 27.8545 38.1757C28.3762 37.7967 28.8253 37.0584 28.5213 36.1233L27.8953 34.1953C27.4522 32.8324 27.9338 31.3508 29.0933 30.5081L30.7324 29.3171C31.5284 28.7393 31.5989 27.8778 31.3997 27.2646C31.2005 26.6508 30.6369 25.9954 29.6532 25.9954H27.6271C26.194 25.9954 24.9335 25.0796 24.4903 23.7174L23.8643 21.7893C23.5606 20.8541 22.7629 20.5212 22.1178 20.5212C21.4729 20.5212 20.6753 20.8541 20.3715 21.7898L19.7452 23.7173C19.3022 25.0795 18.0419 25.9953 16.6089 25.9953H14.5826C13.5988 25.9953 13.0354 26.6507 12.836 27.2645C12.6369 27.8777 12.7073 28.7393 13.5031 29.317L15.1424 30.508C16.302 31.3508 16.7836 32.8323 16.3404 34.1957L15.7144 36.1227C15.4104 37.0584 15.8594 37.7967 16.3812 38.1757C16.9034 38.5549 17.7447 38.7547 18.5399 38.1757L20.179 36.9847C20.7592 36.564 21.4387 36.3532 22.1181 36.3532Z" fill="#3E66F3"/>
<path d="M40.1678 14.0079C38.0447 14.0079 36.3176 12.2808 36.3176 10.1577C36.3176 8.0347 38.0447 6.30762 40.1678 6.30762C42.2907 6.30762 44.0179 8.0347 44.0179 10.1577C44.0179 12.2808 42.2907 14.0079 40.1678 14.0079ZM40.1678 7.76928C38.8506 7.76928 37.7792 8.84059 37.7792 10.1577C37.7792 11.4749 38.8506 12.5462 40.1678 12.5462C41.4849 12.5462 42.5562 11.4749 42.5562 10.1577C42.5562 8.84059 41.4849 7.76928 40.1678 7.76928Z" fill="#3E66F3"/>
<path d="M41.2442 39.9993H35.8289C35.4253 39.9993 35.0981 39.6722 35.0981 39.2685V38.4447C35.0981 37.0785 36.2097 35.9668 37.5759 35.9668H37.6427V22.9963L37.2031 23.3839C36.8235 23.7185 36.3357 23.9028 35.8289 23.9028H30.6881C30.2844 23.9028 29.9573 23.5757 29.9573 23.172C29.9573 22.7684 30.2844 22.4412 30.6881 22.4412H35.8288C35.9792 22.4412 36.1239 22.3865 36.2365 22.2877L37.8901 20.8295C38.1062 20.6394 38.4129 20.5931 38.674 20.7112C38.9358 20.8295 39.1043 21.0904 39.1043 21.3774V36.6975C39.1043 37.1011 38.7771 37.4283 38.3735 37.4283H37.5758C37.0155 37.4283 36.5595 37.8845 36.5595 38.4446V38.5376H40.5133V27.739C40.5133 27.3377 40.8373 27.0111 41.239 27.0082C41.4574 27.0065 41.8608 26.6897 41.8608 26.2419V17.2953C41.8608 16.6456 41.3324 16.1169 40.6826 16.1169H39.8476C39.4377 16.1169 39.1044 16.4504 39.1044 16.8602V17.7849C39.1044 17.9947 39.0141 18.1943 38.8568 18.3333L35.8029 21.0253C35.6693 21.1429 35.4974 21.2079 35.3195 21.2079H30.6881C30.2844 21.2079 29.9573 20.8808 29.9573 20.4772C29.9573 20.0735 30.2844 19.7464 30.6881 19.7464H35.0435L37.6427 17.4548V16.8602C37.6427 15.6444 38.6319 14.6553 39.8476 14.6553H40.6826C42.1382 14.6553 43.3224 15.8396 43.3224 17.2953V26.2419C43.3224 27.1514 42.7458 27.9793 41.975 28.3134V39.2685C41.975 39.6722 41.6478 39.9993 41.2442 39.9993Z" fill="#3E66F3"/>
<path d="M38.374 22.1089C38.1716 22.1089 37.9701 22.0249 37.8257 21.861C37.5587 21.5586 37.5879 21.0966 37.8905 20.8299L39.349 19.5441C39.6519 19.2764 40.1132 19.3067 40.3804 19.6092C40.6473 19.9119 40.6182 20.3737 40.3155 20.6404L38.8571 21.9261C38.7181 22.0489 38.5456 22.1089 38.374 22.1089Z" fill="#3E66F3"/>
<path d="M4.06863 14.0079C1.94559 14.0079 0.218506 12.2808 0.218506 10.1577C0.218506 8.0347 1.94559 6.30762 4.06863 6.30762C6.19168 6.30762 7.91876 8.0347 7.91876 10.1577C7.91876 12.2808 6.19168 14.0079 4.06863 14.0079ZM4.06863 7.76928C2.75147 7.76928 1.68007 8.84059 1.68007 10.1577C1.68007 11.4749 2.75147 12.5462 4.06863 12.5462C5.38579 12.5462 6.4571 11.4749 6.4571 10.1577C6.4571 8.84059 5.38569 7.76928 4.06863 7.76928Z" fill="#3E66F3"/>
<path d="M8.40744 39.9993H2.99233C2.5887 39.9993 2.26155 39.6722 2.26155 39.2685V28.3134C1.49076 27.9794 0.913818 27.1514 0.913818 26.2419V17.2953C0.913818 15.8397 2.09797 14.6553 3.55354 14.6553H4.38853C5.60434 14.6553 6.59346 15.6444 6.59346 16.8602V17.4548L9.19278 19.7464H13.5481C13.9518 19.7464 14.279 20.0735 14.279 20.4772C14.279 20.8808 13.9518 21.2079 13.5481 21.2079H8.91665C8.73882 21.2079 8.56699 21.1429 8.43339 21.0253L5.37952 18.3334C5.22214 18.1944 5.13199 17.9948 5.13199 17.785V16.8603C5.13199 16.4504 4.79855 16.117 4.38863 16.117H3.55364C2.90396 16.117 2.37548 16.6457 2.37548 17.2954V26.242C2.37548 26.6897 2.77921 27.0066 2.99754 27.0083C3.39921 27.0112 3.72321 27.3378 3.72321 27.7391V38.5378H7.67676V38.4447C7.67676 37.8846 7.22083 37.4285 6.6604 37.4285H5.86278C5.45914 37.4285 5.13199 37.1013 5.13199 36.6977V21.3775C5.13199 21.0904 5.30038 20.8295 5.56217 20.7113C5.82286 20.5932 6.13036 20.6394 6.34603 20.8296L7.99978 22.2878C8.11234 22.3866 8.25704 22.4413 8.40764 22.4413H13.5481C13.9518 22.4413 14.279 22.7685 14.279 23.1721C14.279 23.5758 13.9518 23.9029 13.5481 23.9029H8.40764C7.90099 23.9029 7.41281 23.7186 7.03307 23.384L6.59346 22.9964V35.9668H6.66031C8.02652 35.9668 9.13813 37.0785 9.13813 38.4447V39.2685C9.13822 39.6722 8.81107 39.9993 8.40744 39.9993Z" fill="#3E66F3"/>
<path d="M5.86235 22.1089C5.69081 22.1089 5.51829 22.0489 5.37929 21.9261L3.92077 20.6404C3.61819 20.3738 3.589 19.9119 3.85599 19.6092C4.12259 19.3067 4.58422 19.2764 4.88738 19.5441L6.3458 20.8299C6.64848 21.0965 6.67748 21.5585 6.41068 21.861C6.26627 22.0249 6.06475 22.1089 5.86235 22.1089Z" fill="#3E66F3"/>
<path d="M43.5055 39.9997H0.730783C0.327152 39.9997 0 39.6725 0 39.2689C0 38.8652 0.327152 38.5381 0.730783 38.5381H43.5055C43.9091 38.5381 44.2363 38.8652 44.2363 39.2689C44.2363 39.6725 43.9091 39.9997 43.5055 39.9997Z" fill="#3E66F3"/>
</svg>
