<svg width="58" height="58" viewBox="0 0 58 58" fill="none" xmlns="http://www.w3.org/2000/svg">
<g clip-path="url(#clip0_549_2162)">
<path d="M43.5 58C43.3405 58 43.181 57.9685 43.0312 57.9057C42.456 57.6616 29 51.8471 29 39.962V29.8627C29 29.3431 29.3311 28.884 29.8217 28.7172L43.1133 24.2295C43.3647 24.1449 43.6377 24.1449 43.8867 24.2295L57.1783 28.7172C57.6689 28.8815 58 29.3431 58 29.8627V39.962C58 51.8471 44.544 57.6616 43.9688 57.9057C43.819 57.9685 43.6595 58 43.5 58ZM31.4167 30.7327V39.962C31.4167 49.1066 41.2163 54.3604 43.5 55.46C45.7813 54.358 55.5833 49.0824 55.5833 39.962V30.7327L43.5 26.651L31.4167 30.7327Z" fill="#3E66F3"/>
<path d="M42.2915 45.9166C42.2697 45.9166 42.2456 45.9166 42.2262 45.9142C41.8807 45.8949 41.5641 45.733 41.349 45.4623L36.5157 39.4206C36.1 38.8986 36.1822 38.1398 36.7042 37.7217C37.2286 37.3109 37.985 37.393 38.4031 37.9102L42.3906 42.8958L49.8943 35.3945C50.3656 34.9232 51.1317 34.9232 51.6029 35.3945C52.0742 35.8657 52.0742 36.6318 51.6029 37.103L43.1446 45.5614C42.9198 45.7885 42.6105 45.9166 42.2915 45.9166Z" fill="#3E66F3"/>
<path d="M44.7083 19.3332H8.45833C3.79417 19.3332 0 15.539 0 10.8748C0 6.21067 3.79417 2.4165 8.45833 2.4165H44.7083C49.3725 2.4165 53.1667 6.21067 53.1667 10.8748C53.1667 15.539 49.3725 19.3332 44.7083 19.3332ZM8.45833 4.83317C5.12575 4.83317 2.41667 7.54225 2.41667 10.8748C2.41667 14.2074 5.12575 16.9165 8.45833 16.9165H44.7083C48.0409 16.9165 50.75 14.2074 50.75 10.8748C50.75 7.54225 48.0409 4.83317 44.7083 4.83317H8.45833Z" fill="#3E66F3"/>
<path d="M10.875 14.5C8.87642 14.5 7.25 12.8736 7.25 10.875C7.25 8.87642 8.87642 7.25 10.875 7.25C12.8736 7.25 14.5 8.87642 14.5 10.875C14.5 12.8736 12.8736 14.5 10.875 14.5ZM10.875 9.66667C10.2104 9.66667 9.66667 10.2104 9.66667 10.875C9.66667 11.5396 10.2104 12.0833 10.875 12.0833C11.5396 12.0833 12.0833 11.5396 12.0833 10.875C12.0833 10.2104 11.5396 9.66667 10.875 9.66667Z" fill="#3E66F3"/>
<path d="M22.958 14.5C20.9594 14.5 19.333 12.8736 19.333 10.875C19.333 8.87642 20.9594 7.25 22.958 7.25C24.9566 7.25 26.583 8.87642 26.583 10.875C26.583 12.8736 24.9566 14.5 22.958 14.5ZM22.958 9.66667C22.2934 9.66667 21.7497 10.2104 21.7497 10.875C21.7497 11.5396 22.2934 12.0833 22.958 12.0833C23.6226 12.0833 24.1663 11.5396 24.1663 10.875C24.1663 10.2104 23.6226 9.66667 22.958 9.66667Z" fill="#3E66F3"/>
<path d="M22.9583 33.8332H8.45833C3.79417 33.8332 0 30.039 0 25.3748C0 23.1177 0.879667 20.9958 2.4795 19.396C4.07933 17.7962 6.20117 16.9165 8.45833 16.9165H44.7083C46.5982 16.9165 48.3793 17.5231 49.851 18.671C50.3778 19.0818 50.4721 19.8407 50.0613 20.3675C49.6504 20.8919 48.8916 20.9862 48.3648 20.5778C47.3208 19.7633 46.0568 19.3332 44.7083 19.3332H8.45833C6.84883 19.3332 5.33117 19.9639 4.18808 21.1046C3.045 22.2453 2.41667 23.7653 2.41667 25.3748C2.41667 28.7074 5.12575 31.4165 8.45833 31.4165H22.9583C23.6253 31.4165 24.1667 31.9578 24.1667 32.6248C24.1667 33.2918 23.6253 33.8332 22.9583 33.8332Z" fill="#3E66F3"/>
<path d="M10.875 29C8.87642 29 7.25 27.3736 7.25 25.375C7.25 23.3764 8.87642 21.75 10.875 21.75C12.8736 21.75 14.5 23.3764 14.5 25.375C14.5 27.3736 12.8736 29 10.875 29ZM10.875 24.1667C10.2104 24.1667 9.66667 24.7104 9.66667 25.375C9.66667 26.0396 10.2104 26.5833 10.875 26.5833C11.5396 26.5833 12.0833 26.0396 12.0833 25.375C12.0833 24.7104 11.5396 24.1667 10.875 24.1667Z" fill="#3E66F3"/>
<path d="M22.958 29C20.9594 29 19.333 27.3736 19.333 25.375C19.333 23.3764 20.9594 21.75 22.958 21.75C24.9566 21.75 26.583 23.3764 26.583 25.375C26.583 27.3736 24.9566 29 22.958 29ZM22.958 24.1667C22.2934 24.1667 21.7497 24.7104 21.7497 25.375C21.7497 26.0396 22.2934 26.5833 22.958 26.5833C23.6226 26.5833 24.1663 26.0396 24.1663 25.375C24.1663 24.7104 23.6226 24.1667 22.958 24.1667Z" fill="#3E66F3"/>
<path d="M22.9583 48.3332H8.45833C3.79417 48.3332 0 44.539 0 39.8748C0 37.6177 0.879667 35.4958 2.4795 33.896C4.07933 32.2962 6.20117 31.4165 8.45833 31.4165H22.9583C23.6253 31.4165 24.1667 31.9578 24.1667 32.6248C24.1667 33.2918 23.6253 33.8332 22.9583 33.8332H8.45833C6.84883 33.8332 5.33117 34.4639 4.18808 35.6046C3.045 36.7453 2.41667 38.2653 2.41667 39.8748C2.41667 43.2074 5.12575 45.9165 8.45833 45.9165H22.9583C23.6253 45.9165 24.1667 46.4578 24.1667 47.1248C24.1667 47.7918 23.6253 48.3332 22.9583 48.3332Z" fill="#3E66F3"/>
<path d="M10.875 43.5C8.87642 43.5 7.25 41.8736 7.25 39.875C7.25 37.8764 8.87642 36.25 10.875 36.25C12.8736 36.25 14.5 37.8764 14.5 39.875C14.5 41.8736 12.8736 43.5 10.875 43.5ZM10.875 38.6667C10.2104 38.6667 9.66667 39.2104 9.66667 39.875C9.66667 40.5396 10.2104 41.0833 10.875 41.0833C11.5396 41.0833 12.0833 40.5396 12.0833 39.875C12.0833 39.2104 11.5396 38.6667 10.875 38.6667Z" fill="#3E66F3"/>
<path d="M22.958 43.5C20.9594 43.5 19.333 41.8736 19.333 39.875C19.333 37.8764 20.9594 36.25 22.958 36.25C24.9566 36.25 26.583 37.8764 26.583 39.875C26.583 41.8736 24.9566 43.5 22.958 43.5ZM22.958 38.6667C22.2934 38.6667 21.7497 39.2104 21.7497 39.875C21.7497 40.5396 22.2934 41.0833 22.958 41.0833C23.6226 41.0833 24.1663 40.5396 24.1663 39.875C24.1663 39.2104 23.6226 38.6667 22.958 38.6667Z" fill="#3E66F3"/>
</g>
<defs>
<clipPath id="clip0_549_2162">
<rect width="58" height="58" fill="white"/>
</clipPath>
</defs>
</svg>
