<svg width="40" height="40" viewBox="0 0 40 40" fill="none" xmlns="http://www.w3.org/2000/svg">
<path d="M36.0571 15.0859C35.8286 15.0859 35.6571 15.2574 35.6571 15.4859V29.9431C35.6571 31.5431 34.3429 32.8574 32.7429 32.8574H19.8857C19.6571 32.8574 19.4857 33.0288 19.4857 33.2574C19.4857 33.4859 19.6571 33.6574 19.8857 33.6574H32.7429C34.8 33.6574 36.5143 31.9431 36.5143 29.8859V15.4859C36.4571 15.2574 36.2857 15.0859 36.0571 15.0859Z" fill="#3E66F3"/>
<path d="M7.48566 34.2859C8.45709 34.2859 9.25709 33.4859 9.25709 32.5145V31.4859C9.25709 31.2574 9.08566 31.0859 8.85709 31.0859C8.62852 31.0859 8.45709 31.2574 8.45709 31.4859V32.5145C8.45709 33.0288 8.05709 33.4288 7.5428 33.4288C7.02852 33.4288 6.62852 33.0288 6.62852 32.5145V31.4859C6.62852 31.2574 6.45709 31.0859 6.22852 31.0859C5.99995 31.0859 5.71423 31.2574 5.71423 31.4859V32.5145C5.71423 33.4859 6.51423 34.2859 7.48566 34.2859Z" fill="#3E66F3"/>
<path d="M14.1714 34.9143C15.0285 34.9143 15.7143 34.2285 15.7143 33.3714V32.5143C15.7143 32.2857 15.5428 32.1143 15.3143 32.1143C15.0857 32.1143 14.9143 32.2857 14.9143 32.5143V33.3714C14.9143 33.7714 14.5714 34.1143 14.1714 34.1143C13.7714 34.1143 13.4285 33.7714 13.4285 33.3714V32.5143C13.4285 32.2857 13.2571 32.1143 13.0285 32.1143C12.8 32.1143 12.6285 32.2857 12.6285 32.5143V33.3714C12.6285 34.2285 13.3143 34.9143 14.1714 34.9143Z" fill="#3E66F3"/>
<path d="M38.1143 10.4572L36.7429 7.94293C36.6857 7.82864 36.5714 7.71436 36.5143 7.60007V4.22864C36.5143 2.85721 35.3714 1.71436 34 1.71436H8.05714C6.68571 1.71436 5.54286 2.85721 5.54286 4.22864V7.60007C5.42857 7.71436 5.37143 7.82864 5.31429 7.94293L3.94286 10.4001C3.94286 10.4572 3.88571 10.5144 3.88571 10.5715V11.5429C3.88571 12.6858 4.57143 13.6572 5.54286 14.1144V28.8001H4.91429C4.17143 28.8001 3.54286 29.3144 3.37143 30.0001L1.88571 36.3429C1.77143 36.8001 1.88571 37.3144 2.17143 37.6572C2.45714 38.0572 2.91429 38.2286 3.37143 38.2286H10.7429H17.5429C17.9429 38.2286 18.3429 38.0572 18.6286 37.7144C18.9143 37.3715 18.9714 36.9715 18.9143 36.5144L17.6571 31.2001C17.4857 30.5715 16.9714 30.1144 16.3429 30.1144H12.0571C11.8857 30.1144 11.7714 30.1144 11.6 30.1715L11.5429 29.8858C11.3714 29.2001 10.7429 28.6858 10 28.6858H6.34286V14.4001C6.45714 14.4001 6.57143 14.4572 6.68571 14.4572C7.71428 14.4572 8.57143 13.8858 9.08571 13.0858C9.6 13.8858 10.4571 14.4572 11.4857 14.4572C12.5143 14.4572 13.3714 13.8858 13.8857 13.0858C14.4 13.8858 15.2571 14.4572 16.2857 14.4572C17.3143 14.4572 18.1714 13.8858 18.6857 13.0858C19.2 13.8858 20.0571 14.4572 21.0857 14.4572C22.1143 14.4572 22.9714 13.8858 23.4857 13.0858C24 13.8858 24.8571 14.4572 25.8857 14.4572C26.9143 14.4572 27.7714 13.8858 28.2857 13.0858C28.8 13.8858 29.6571 14.4572 30.6857 14.4572C31.7143 14.4572 32.5714 13.8858 33.0857 13.0858C33.6 13.8858 34.4571 14.4572 35.4857 14.4572C37.0286 14.4572 38.2857 13.2001 38.2857 11.6572V10.6858C38.1143 10.5715 38.1143 10.5144 38.1143 10.4572ZM16.3429 31.0286C16.5714 31.0286 16.8 31.2001 16.8571 31.4286L18.1143 36.7429C18.1714 36.9144 18.1143 37.0858 18 37.2001C17.8857 37.3144 17.7143 37.4286 17.6 37.4286H10.8C10.6286 37.4286 10.4571 37.3715 10.3429 37.2001C10.2286 37.0858 10.2286 36.9144 10.2286 36.7429L10.3429 36.2286L11.4857 31.4286C11.4857 31.3715 11.4857 31.3715 11.5429 31.3144L11.6 31.2572C11.7143 31.1429 11.8286 31.0286 12 31.0286H16.3429ZM10.7429 30.2286L10.8571 30.8572C10.8 30.9144 10.8 30.9715 10.7429 31.0286V31.0858C10.7429 31.1429 10.6857 31.2001 10.6857 31.2572L9.54286 36.0572L9.42857 36.5715C9.42857 36.6858 9.37143 36.7429 9.37143 36.8572V36.9144V37.1429V37.2001C9.37143 37.2572 9.42857 37.3715 9.42857 37.4286H3.42857C3.2 37.4286 2.97143 37.3144 2.85714 37.1429C2.74286 36.9715 2.68571 36.7429 2.74286 36.5144L4.22857 30.1715C4.28571 29.8286 4.57143 29.6001 4.91429 29.6001H10C10.3429 29.6572 10.6286 29.8858 10.7429 30.2286ZM10.2857 8.68578L10.5143 8.05721H14L13.4857 10.2286H9.71428L10.2857 8.68578ZM19.2571 8.05721H22.8L22.9714 10.2286H19.0857L19.2571 8.05721ZM28.5143 10.2286L28 8.05721H31.4857L31.7143 8.68578L32.2857 10.2286H28.5143ZM6.4 7.20007V4.22864C6.4 3.31436 7.14286 2.51436 8.11428 2.51436H34C34.9143 2.51436 35.7143 3.25721 35.7143 4.22864V7.20007H35.5429H31.8286H27.5429H23.2571H18.8571H14.5714H10.2857H6.57143H6.4ZM11.4857 13.6001C10.4 13.6001 9.54286 12.7429 9.54286 11.6572V11.0858H13.4857V11.6572C13.4286 12.6858 12.5714 13.6001 11.4857 13.6001ZM21.0286 13.6001C19.9429 13.6001 19.0857 12.7429 19.0857 11.6572V11.0858H23.0286V11.6572C22.9714 12.6858 22.1143 13.6001 21.0286 13.6001ZM30.5714 13.6001C29.4857 13.6001 28.6286 12.7429 28.6286 11.6572V11.0858H32.5714V11.6572C32.5143 12.6858 31.6571 13.6001 30.5714 13.6001Z" fill="#3E66F3"/>
<path d="M21.4286 5.31417H33.1429C33.3714 5.31417 33.5429 5.14275 33.5429 4.91417C33.5429 4.6856 33.3714 4.45703 33.1429 4.45703H21.4286C21.2 4.45703 21.0286 4.62846 21.0286 4.85703C21.0286 5.0856 21.2 5.31417 21.4286 5.31417Z" fill="#3E66F3"/>
<path d="M9.14287 4.45703H8.85715C8.62858 4.45703 8.45715 4.62846 8.45715 4.85703C8.45715 5.0856 8.62858 5.25703 8.85715 5.25703H9.14287C9.37144 5.25703 9.54287 5.0856 9.54287 4.85703C9.54287 4.62846 9.37144 4.45703 9.14287 4.45703Z" fill="#3E66F3"/>
<path d="M11.0857 5.31416H11.3714C11.6 5.31416 11.7714 5.14273 11.7714 4.91416C11.7714 4.68559 11.6 4.51416 11.3714 4.51416H11.0857C10.8571 4.51416 10.6857 4.68559 10.6857 4.91416C10.6857 5.14273 10.8571 5.31416 11.0857 5.31416Z" fill="#3E66F3"/>
<path d="M13.2 5.31417H13.4858C13.7143 5.31417 13.8858 5.14275 13.8858 4.91417C13.8858 4.6856 13.7143 4.45703 13.4858 4.45703H13.2C12.9715 4.45703 12.8 4.62846 12.8 4.85703C12.8 5.0856 12.9715 5.31417 13.2 5.31417Z" fill="#3E66F3"/>
<path d="M11.0286 27.5428H13.2H15.6H17.7714C18.7428 27.5428 19.6 26.7428 19.6 25.7142V22.0571H19.6571C20.0571 22.0571 20.3428 21.7714 20.3428 21.3714V19.7714C20.3428 19.3714 20.0571 19.0857 19.6571 19.0857H17.5428C17.7714 18.8 17.8857 18.4 17.8857 18.0571C17.8857 17.0285 17.0286 16.1714 15.9428 16.1714C15.3714 16.1714 14.8 16.4571 14.4571 16.9142C14.1143 16.4571 13.5428 16.1714 12.9143 16.1714C11.8857 16.1714 11.0286 17.0285 11.0286 18.0571C11.0286 18.4571 11.1428 18.8 11.3714 19.0857H9.25713C8.85713 19.0857 8.57141 19.3714 8.57141 19.7714V21.3714C8.57141 21.7714 8.85713 22.0571 9.25713 22.0571H9.31427V25.7142C9.19998 26.7428 9.99998 27.5428 11.0286 27.5428ZM10.0571 25.7142V22.0571H12.8V26.6857H11.0286C10.4571 26.6857 10.0571 26.2285 10.0571 25.7142ZM18.7428 25.7142C18.7428 26.2285 18.2857 26.6857 17.7714 26.6857H16V22.0571H18.7428V25.7142ZM19.4286 21.2H19.1428H16V19.8857H19.4286V21.2ZM15.8857 16.9714C16.4571 16.9714 16.9143 17.4285 16.9143 18C16.9143 18.5714 16.4571 19.0285 15.8857 19.0285H15.5428H14.7428V18C14.8 17.4285 15.2571 16.9714 15.8857 16.9714ZM12.9143 16.9714C13.4857 16.9714 13.9428 17.4285 13.9428 18V19.0285H13.1428H12.8C12.2286 19.0285 11.7714 18.5714 11.7714 18C11.8286 17.4285 12.2857 16.9714 12.9143 16.9714ZM9.31427 19.8857H12.7428V21.2H9.59998H9.31427V19.8857Z" fill="#3E66F3"/>
<path d="M23.4285 17.4855H26.2285C26.4571 17.4855 26.6285 17.3141 26.6285 17.0855C26.6285 16.857 26.4571 16.6855 26.2285 16.6855H23.4285C23.2 16.6855 23.0285 16.857 23.0285 17.0855C22.9714 17.3141 23.2 17.4855 23.4285 17.4855Z" fill="#3E66F3"/>
<path d="M23.4285 19.7717H32.6857C32.9142 19.7717 33.0857 19.6003 33.0857 19.3717C33.0857 19.1431 32.9142 18.9717 32.6857 18.9717H23.4285C23.2 18.9717 23.0285 19.1431 23.0285 19.3717C22.9714 19.5431 23.2 19.7717 23.4285 19.7717Z" fill="#3E66F3"/>
<path d="M23.4285 22.0002H32.6857C32.9142 22.0002 33.0857 21.8288 33.0857 21.6002C33.0857 21.3716 32.9142 21.2002 32.6857 21.2002H23.4285C23.2 21.2002 23.0285 21.3716 23.0285 21.6002C22.9714 21.8288 23.2 22.0002 23.4285 22.0002Z" fill="#3E66F3"/>
<path d="M23.4285 24.2858H23.8285C24.0571 24.2858 24.2285 24.1144 24.2285 23.8858C24.2285 23.6573 24.0571 23.4858 23.8285 23.4858H23.4285C23.2 23.4858 23.0285 23.6573 23.0285 23.8858C22.9714 24.0573 23.2 24.2858 23.4285 24.2858Z" fill="#3E66F3"/>
<path d="M25.6 24.2858H26C26.2285 24.2858 26.4 24.1144 26.4 23.8858C26.4 23.6573 26.2285 23.4858 26 23.4858H25.6C25.3714 23.4858 25.2 23.6573 25.2 23.8858C25.2 24.0573 25.3714 24.2858 25.6 24.2858Z" fill="#3E66F3"/>
<path d="M28.2286 24.2858C28.4572 24.2858 28.6286 24.1144 28.6286 23.8858C28.6286 23.6573 28.4572 23.4858 28.2286 23.4858H27.8286C27.6 23.4858 27.4286 23.6573 27.4286 23.8858C27.4286 24.1144 27.6 24.2858 27.8286 24.2858H28.2286Z" fill="#3E66F3"/>
<path d="M30.0572 24.2858H30.4572C30.6858 24.2858 30.8572 24.1144 30.8572 23.8858C30.8572 23.6573 30.6858 23.4858 30.4572 23.4858H30.0572C29.8286 23.4858 29.6572 23.6573 29.6572 23.8858C29.6001 24.0573 29.8286 24.2858 30.0572 24.2858Z" fill="#3E66F3"/>
<path d="M32.6286 23.4287H32.2286C32 23.4287 31.8286 23.6001 31.8286 23.8287C31.8286 24.0573 32 24.2287 32.2286 24.2287H32.6286C32.8572 24.2287 33.0286 24.0573 33.0286 23.8287C33.0858 23.6001 32.8572 23.4287 32.6286 23.4287Z" fill="#3E66F3"/>
<path d="M26.4 29.0858H29.7142C30.6285 29.0858 31.4285 28.3429 31.4285 27.3715C31.4285 26.4001 30.6857 25.6572 29.7142 25.6572H26.4C25.4857 25.6572 24.6857 26.4001 24.6857 27.3715C24.6857 28.3429 25.4857 29.0858 26.4 29.0858Z" fill="#3E66F3"/>
</svg>
