<svg width="40" height="40" viewBox="0 0 40 40" fill="none" xmlns="http://www.w3.org/2000/svg">
<path fill-rule="evenodd" clip-rule="evenodd" d="M22.8125 28.5156H2.89062C1.32812 28.5156 0 27.1875 0 25.5469V7.1875C0 5.625 1.32812 4.29688 2.89062 4.29688H31.0938C32.7344 4.29688 34.0625 5.625 34.0625 7.1875V9.14062C34.0625 9.375 33.9062 9.53125 33.6719 9.53125C33.4375 9.53125 33.2812 9.375 33.2812 9.14062V7.1875C33.2812 6.01562 32.2656 5.07812 31.0938 5.07812H2.89062C1.79688 5.07812 0.78125 6.09375 0.78125 7.1875V25.5469C0.78125 26.7188 1.79688 27.7344 2.89062 27.7344H22.8125C23.0469 27.7344 23.2031 27.8906 23.2031 28.125C23.2031 28.3594 23.0469 28.5156 22.8125 28.5156Z" fill="#3E66F3"/>
<path fill-rule="evenodd" clip-rule="evenodd" d="M22.8125 24.5312H0.390625C0.15625 24.5312 0 24.375 0 24.1406C0 23.9062 0.15625 23.75 0.390625 23.75H22.8125C23.0469 23.75 23.2031 23.9062 23.2031 24.1406C23.2031 24.375 23.0469 24.5312 22.8125 24.5312Z" fill="#3E66F3"/>
<path fill-rule="evenodd" clip-rule="evenodd" d="M22.2656 33.2029C22.1094 33.2029 21.9531 33.1248 21.875 32.9685L20.2344 28.281C20.1562 28.0467 20.3125 27.8123 20.4687 27.7342C20.7031 27.656 20.9375 27.8123 21.0156 27.9685L22.6562 32.656C22.7344 32.8904 22.5781 33.1248 22.4219 33.2029C22.3437 33.2029 22.2656 33.2029 22.2656 33.2029ZM11.7187 33.2029C11.6406 33.2029 11.6406 33.2029 11.5625 33.2029C11.4062 33.1248 11.25 32.8904 11.3281 32.656L13.0469 27.9685C13.125 27.8123 13.3594 27.656 13.5937 27.7342C13.75 27.8123 13.9062 28.0467 13.8281 28.281L12.1094 32.9685C12.0312 33.1248 11.875 33.2029 11.7187 33.2029ZM14.375 33.2029H14.2969C14.0625 33.1248 13.9062 32.8904 13.9844 32.656L14.6875 30.3904C14.7656 30.2342 14.9219 30.156 15.0781 30.156H18.9844C19.1406 30.156 19.2969 30.2342 19.375 30.4685L20 32.7342C20 32.8904 19.9219 33.1248 19.6875 33.2029C19.5312 33.2029 19.2969 33.1248 19.2187 32.8904L18.6719 30.9373H15.3906L14.7656 32.8904C14.6875 33.0467 14.5312 33.2029 14.375 33.2029Z" fill="#3E66F3"/>
<path fill-rule="evenodd" clip-rule="evenodd" d="M25.4688 35.7031H9.29688C9.0625 35.7031 8.90625 35.5469 8.90625 35.3125V34.0625C8.90625 33.2031 9.6875 32.4219 10.5469 32.4219H22.8125C23.0469 32.4219 23.2031 32.5781 23.2031 32.8125C23.2031 33.0469 23.0469 33.2031 22.8125 33.2031H10.5469C10.0781 33.2031 9.6875 33.6719 9.6875 34.0625V34.9219H25.4688C25.7031 34.9219 25.8594 35.0781 25.8594 35.3125C25.8594 35.5469 25.7031 35.7031 25.4688 35.7031Z" fill="#3E66F3"/>
<path fill-rule="evenodd" clip-rule="evenodd" d="M7.03125 28.5156C6.79688 28.5156 6.64062 28.3594 6.64062 28.125V24.1406C6.64062 23.9062 6.79688 23.75 7.03125 23.75C7.26562 23.75 7.42188 23.9062 7.42188 24.1406V28.125C7.42188 28.3594 7.26562 28.5156 7.03125 28.5156Z" fill="#3E66F3"/>
<path fill-rule="evenodd" clip-rule="evenodd" d="M33.6719 8.28125H0.390625C0.15625 8.28125 0 8.125 0 7.89062C0 7.65625 0.15625 7.5 0.390625 7.5H33.6719C33.9062 7.5 34.0625 7.65625 34.0625 7.89062C34.0625 8.125 33.9062 8.28125 33.6719 8.28125Z" fill="#3E66F3"/>
<path fill-rule="evenodd" clip-rule="evenodd" d="M7.10938 24.5312C6.875 24.5312 6.71875 24.375 6.71875 24.1406V7.89062C6.71875 7.65625 6.875 7.5 7.10938 7.5C7.34375 7.5 7.5 7.65625 7.5 7.89062V24.1406C7.5 24.375 7.34375 24.5312 7.10938 24.5312Z" fill="#3E66F3"/>
<path fill-rule="evenodd" clip-rule="evenodd" d="M5.625 10.5469H1.875C1.64062 10.5469 1.48438 10.3906 1.48438 10.1562C1.48438 9.92188 1.64062 9.76562 1.875 9.76562H5.625C5.85938 9.76562 6.01562 9.92188 6.01562 10.1562C6.01562 10.3906 5.85938 10.5469 5.625 10.5469Z" fill="#3E66F3"/>
<path fill-rule="evenodd" clip-rule="evenodd" d="M5.625 13.4375H1.875C1.64062 13.4375 1.48438 13.2812 1.48438 13.0469C1.48438 12.8125 1.64062 12.6562 1.875 12.6562H5.625C5.85938 12.6562 6.01562 12.8125 6.01562 13.0469C6.01562 13.2812 5.85938 13.4375 5.625 13.4375Z" fill="#3E66F3"/>
<path fill-rule="evenodd" clip-rule="evenodd" d="M4.92188 16.4062H1.875C1.64062 16.4062 1.48438 16.25 1.48438 16.0156C1.48438 15.7812 1.64062 15.625 1.875 15.625H4.92188C5.15625 15.625 5.3125 15.7812 5.3125 16.0156C5.3125 16.25 5.15625 16.4062 4.92188 16.4062Z" fill="#3E66F3"/>
<path fill-rule="evenodd" clip-rule="evenodd" d="M4.92188 19.2969H1.875C1.64062 19.2969 1.48438 19.1406 1.48438 18.9062C1.48438 18.6719 1.64062 18.5156 1.875 18.5156H4.92188C5.15625 18.5156 5.3125 18.6719 5.3125 18.9062C5.3125 19.1406 5.15625 19.2969 4.92188 19.2969Z" fill="#3E66F3"/>
<path fill-rule="evenodd" clip-rule="evenodd" d="M4.92188 22.2656H1.875C1.64062 22.2656 1.48438 22.1094 1.48438 21.875C1.48438 21.6406 1.64062 21.4844 1.875 21.4844H4.92188C5.15625 21.4844 5.3125 21.6406 5.3125 21.875C5.3125 22.1094 5.15625 22.2656 4.92188 22.2656Z" fill="#3E66F3"/>
<path fill-rule="evenodd" clip-rule="evenodd" d="M4.375 6.64062H3.35938C3.125 6.64062 2.96875 6.48438 2.96875 6.25C2.96875 6.01562 3.125 5.85938 3.35938 5.85938H4.375C4.60938 5.85938 4.76562 6.01562 4.76562 6.25C4.76562 6.48438 4.60938 6.64062 4.375 6.64062Z" fill="#3E66F3"/>
<path fill-rule="evenodd" clip-rule="evenodd" d="M6.95312 6.64062H5.85938C5.625 6.64062 5.46875 6.48438 5.46875 6.25C5.46875 6.01562 5.625 5.85938 5.85938 5.85938H6.95312C7.1875 5.85938 7.34375 6.01562 7.34375 6.25C7.34375 6.48438 7.1875 6.64062 6.95312 6.64062Z" fill="#3E66F3"/>
<path fill-rule="evenodd" clip-rule="evenodd" d="M9.53125 6.64062H8.4375C8.20312 6.64062 8.04688 6.48438 8.04688 6.25C8.04688 6.01562 8.20312 5.85938 8.4375 5.85938H9.53125C9.76562 5.85938 9.92188 6.01562 9.92188 6.25C9.92188 6.48438 9.76562 6.64062 9.53125 6.64062Z" fill="#3E66F3"/>
<path fill-rule="evenodd" clip-rule="evenodd" d="M35.9375 35.7031H25.4688C23.75 35.7031 22.4219 34.375 22.4219 32.7344V11.7188C22.4219 10.0781 23.75 8.75 25.4688 8.75H35.9375C37.5781 8.75 38.9844 10.0781 38.9844 11.7188V32.7344C38.9844 34.375 37.5781 35.7031 35.9375 35.7031ZM25.4688 9.53125C24.2188 9.53125 23.2031 10.5469 23.2031 11.7188V32.7344C23.2031 33.9062 24.2188 34.9219 25.4688 34.9219H35.9375C37.1875 34.9219 38.2031 33.9062 38.2031 32.7344V11.7188C38.2031 10.5469 37.1875 9.53125 35.9375 9.53125H25.4688Z" fill="#3E66F3"/>
<path fill-rule="evenodd" clip-rule="evenodd" d="M35.9375 34.5312H25.4688C24.4531 34.5312 23.5938 33.6719 23.5938 32.7344V11.7188C23.5938 10.7812 24.4531 9.92188 25.4688 9.92188H35.9375C36.9531 9.92188 37.8125 10.7812 37.8125 11.7188V32.7344C37.8125 33.6719 36.9531 34.5312 35.9375 34.5312ZM25.4688 10.7031C24.8438 10.7031 24.375 11.1719 24.375 11.7188V32.7344C24.375 33.2812 24.8438 33.75 25.4688 33.75H35.9375C36.4844 33.75 37.0312 33.2812 37.0312 32.7344V11.7188C37.0312 11.1719 36.4844 10.7031 35.9375 10.7031H25.4688Z" fill="#3E66F3"/>
<path fill-rule="evenodd" clip-rule="evenodd" d="M30.7031 13.125C30.0781 13.125 29.6875 12.6562 29.6875 12.0312C29.6875 11.5625 30.0781 11.0156 30.7031 11.0156C31.3281 11.0156 31.7188 11.5625 31.7188 12.0312C31.7188 12.6562 31.25 13.125 30.7031 13.125ZM30.7031 11.7969C30.5469 11.7969 30.4688 11.9531 30.4688 12.0312C30.4688 12.1094 30.4688 12.3438 30.7031 12.3438C30.9375 12.3438 30.9375 12.1094 30.9375 12.0312C30.9375 11.9531 30.8594 11.7969 30.7031 11.7969Z" fill="#3E66F3"/>
<path fill-rule="evenodd" clip-rule="evenodd" d="M39.6094 17.1094H38.5938C38.3594 17.1094 38.2031 16.9531 38.2031 16.7188C38.2031 16.4844 38.3594 16.3281 38.5938 16.3281H39.2188V14.0625H38.5938C38.3594 14.0625 38.2031 13.9062 38.2031 13.6719C38.2031 13.4375 38.3594 13.2812 38.5938 13.2812H39.6094C39.8438 13.2812 40 13.4375 40 13.6719V16.7188C40 16.9531 39.8438 17.1094 39.6094 17.1094Z" fill="#3E66F3"/>
<path fill-rule="evenodd" clip-rule="evenodd" d="M39.6094 21.25H38.5938C38.3594 21.25 38.2031 21.0938 38.2031 20.8594C38.2031 20.625 38.3594 20.4688 38.5938 20.4688H39.2188V18.2812H38.5938C38.3594 18.2812 38.2031 18.125 38.2031 17.8906C38.2031 17.6562 38.3594 17.5 38.5938 17.5H39.6094C39.8438 17.5 40 17.6562 40 17.8906V20.8594C40 21.0938 39.8438 21.25 39.6094 21.25Z" fill="#3E66F3"/>
<path fill-rule="evenodd" clip-rule="evenodd" d="M39.6094 26.7969H38.5938C38.3594 26.7969 38.2031 26.6406 38.2031 26.4062C38.2031 26.1719 38.3594 26.0156 38.5938 26.0156H39.2188V23.8281H38.5938C38.3594 23.8281 38.2031 23.6719 38.2031 23.4375C38.2031 23.2031 38.3594 23.0469 38.5938 23.0469H39.6094C39.8438 23.0469 40 23.2031 40 23.4375V26.4062C40 26.6406 39.8438 26.7969 39.6094 26.7969Z" fill="#3E66F3"/>
<path fill-rule="evenodd" clip-rule="evenodd" d="M35.625 21.875H25.7812C25.5469 21.875 25.3906 21.7188 25.3906 21.4844V15.9375C25.3906 15.7031 25.5469 15.5469 25.7812 15.5469H35.625C35.8594 15.5469 36.0156 15.7031 36.0156 15.9375V21.4844C36.0156 21.7188 35.8594 21.875 35.625 21.875ZM26.1719 21.0938H35.2344V16.3281H26.1719V21.0938Z" fill="#3E66F3"/>
<path fill-rule="evenodd" clip-rule="evenodd" d="M35.625 21.8752C35.5469 21.8752 35.4687 21.8752 35.3906 21.7971L25.625 16.2502C25.3906 16.1721 25.3125 15.9377 25.4687 15.7815C25.5469 15.5471 25.7812 15.469 25.9375 15.6252L35.7812 21.1721C36.0156 21.2502 36.0937 21.4846 35.9375 21.6409C35.8594 21.7971 35.7812 21.8752 35.625 21.8752Z" fill="#3E66F3"/>
<path fill-rule="evenodd" clip-rule="evenodd" d="M25.7812 21.8752C25.625 21.8752 25.5469 21.7971 25.4687 21.6409C25.3125 21.4846 25.3906 21.2502 25.5469 21.1721L35.3906 15.6252C35.625 15.469 35.8594 15.5471 35.9375 15.7815C36.0937 15.9377 36.0156 16.1721 35.7812 16.2502L25.9375 21.7971C25.9375 21.8752 25.8594 21.8752 25.7812 21.8752Z" fill="#3E66F3"/>
<path fill-rule="evenodd" clip-rule="evenodd" d="M30.7031 28.9062H25.7812C25.5469 28.9062 25.3906 28.75 25.3906 28.5156V22.9688C25.3906 22.7344 25.5469 22.5781 25.7812 22.5781H30.7031C30.9375 22.5781 31.0938 22.7344 31.0938 22.9688V28.5156C31.0938 28.75 30.9375 28.9062 30.7031 28.9062ZM26.1719 28.125H30.3125V23.3594H26.1719V28.125Z" fill="#3E66F3"/>
<path fill-rule="evenodd" clip-rule="evenodd" d="M30.7031 28.9065C30.625 28.9065 30.4687 28.8283 30.3906 28.7502L25.4687 23.2033C25.3125 23.0471 25.3906 22.8127 25.5469 22.6565C25.7031 22.5002 25.9375 22.5783 26.0937 22.7346L31.0156 28.2815C31.1719 28.4377 31.0937 28.6721 30.9375 28.8283C30.8594 28.9065 30.7812 28.9065 30.7031 28.9065Z" fill="#3E66F3"/>
<path fill-rule="evenodd" clip-rule="evenodd" d="M25.7812 28.9063C25.7031 28.9063 25.625 28.9063 25.5469 28.8281C25.3906 28.6719 25.3125 28.4375 25.4687 28.2813L30.3906 22.7344C30.5469 22.5 30.7812 22.5 30.9375 22.6563C31.0937 22.8125 31.1719 23.0469 31.0156 23.2031L26.0937 28.75C26.0156 28.8281 25.8594 28.9063 25.7812 28.9063Z" fill="#3E66F3"/>
<path fill-rule="evenodd" clip-rule="evenodd" d="M35.625 23.5938H32.1094C31.875 23.5938 31.7188 23.4375 31.7188 23.2031C31.7188 22.9688 31.875 22.8125 32.1094 22.8125H35.625C35.8594 22.8125 36.0156 22.9688 36.0156 23.2031C36.0156 23.4375 35.8594 23.5938 35.625 23.5938Z" fill="#3E66F3"/>
<path fill-rule="evenodd" clip-rule="evenodd" d="M35.625 25.3906H32.1094C31.875 25.3906 31.7188 25.2344 31.7188 25C31.7188 24.7656 31.875 24.6094 32.1094 24.6094H35.625C35.8594 24.6094 36.0156 24.7656 36.0156 25C36.0156 25.2344 35.8594 25.3906 35.625 25.3906Z" fill="#3E66F3"/>
<path fill-rule="evenodd" clip-rule="evenodd" d="M35.625 27.1094H32.1094C31.875 27.1094 31.7188 26.9531 31.7188 26.7188C31.7188 26.4844 31.875 26.3281 32.1094 26.3281H35.625C35.8594 26.3281 36.0156 26.4844 36.0156 26.7188C36.0156 26.9531 35.8594 27.1094 35.625 27.1094Z" fill="#3E66F3"/>
<path fill-rule="evenodd" clip-rule="evenodd" d="M35.625 28.9062H32.1094C31.875 28.9062 31.7188 28.75 31.7188 28.5156C31.7188 28.2812 31.875 28.125 32.1094 28.125H35.625C35.8594 28.125 36.0156 28.2812 36.0156 28.5156C36.0156 28.75 35.8594 28.9062 35.625 28.9062Z" fill="#3E66F3"/>
</svg>
