<svg width="57" height="61" viewBox="0 0 57 61" fill="none" xmlns="http://www.w3.org/2000/svg">
<path fill-rule="evenodd" clip-rule="evenodd" d="M27.8832 49.5886C28.0693 50.3358 28.3146 51.0681 28.6158 51.7768L28.6923 51.9564H1.68115V49.4906H27.8588L27.8832 49.5886ZM39.238 39.8124C39.238 37.3048 42.2894 36.0408 44.0625 37.8139C45.166 38.9175 45.166 40.7073 44.0625 41.8108C42.2901 43.5833 39.238 42.3196 39.238 39.8124ZM42.0642 44.1906C44.6539 44.1906 46.7756 46.3123 46.7756 48.902V53.6136H37.3528V48.902C37.3527 46.3122 39.4744 44.1906 42.0642 44.1906ZM35.6571 16.768H40.4713V31.551L40.3573 31.5645C38.7927 31.7495 37.266 32.1894 35.8414 32.8615L35.6571 32.9484V16.768ZM10.8415 44.4265H6.02734V38.1962H10.8415V44.4265ZM20.8088 44.4265H15.9946V31.1875H20.8088V44.4265ZM25.8399 24.8068H30.6541V36.9477L30.626 36.983C28.9469 39.0926 27.8888 41.6374 27.5605 44.3131L27.5466 44.4265H25.8399V24.8068ZM15.0768 17.8351C12.0562 14.8145 12.0562 9.91645 15.0768 6.89583C18.0974 3.87522 22.9955 3.87522 26.016 6.89583C29.0366 9.91645 29.0366 14.8146 26.016 17.8351C22.9954 20.8556 18.0974 20.8556 15.0768 17.8351ZM25.0701 16.8891C27.5687 14.3905 27.5687 10.3401 25.0701 7.84158C22.6762 5.44767 18.8378 5.33645 16.3051 7.58009C15.9871 7.86175 15.9568 8.35254 16.2384 8.6708C16.5198 8.98894 17.0109 9.01933 17.329 8.73753C17.7685 8.34801 18.2757 8.04035 18.825 7.83188C20.2943 7.27436 21.9198 7.4637 23.2274 8.33223C24.59 9.23724 25.3919 10.7285 25.3919 12.3653C25.3919 15.0417 23.2226 17.2108 20.5464 17.2108C17.9943 17.2108 15.8724 15.2389 15.7097 12.6889C15.6825 12.2641 15.3136 11.9378 14.8885 11.9644C14.4639 11.9911 14.1366 12.3604 14.1641 12.7854C14.2693 14.4102 14.9913 15.9225 16.179 17.0339C18.6993 19.3928 22.6292 19.3302 25.0701 16.8891ZM22.2585 12.1519C21.6273 11.5206 21.012 11.5894 20.1891 11.5894C19.7094 11.5894 19.7094 10.8592 20.1891 10.8592H21.7551C22.1836 10.8592 22.5311 10.5119 22.5311 10.0831C22.5311 9.65444 22.1838 9.30708 21.7551 9.30708H21.2745V8.96139C21.2745 8.53282 20.9271 8.18532 20.4984 8.18532C20.0697 8.18532 19.7223 8.53269 19.7223 8.96139V9.36217L19.6309 9.3901C18.25 9.81209 17.812 11.5564 18.8344 12.579C19.4656 13.2103 20.081 13.1415 20.9039 13.1415C21.3835 13.1415 21.3835 13.8718 20.9039 13.8718H19.3379C18.9092 13.8718 18.5618 14.2192 18.5618 14.6479C18.5618 15.0765 18.9092 15.424 19.3379 15.424H19.7223V15.7697C19.7223 16.1984 20.0697 16.5457 20.4984 16.5457C20.927 16.5457 21.2745 16.1984 21.2745 15.7697V15.3906L21.372 15.3659C22.8106 15.0025 23.3082 13.2018 22.2585 12.1519ZM15.7447 9.33449C15.3553 9.159 14.8959 9.33294 14.7215 9.71988L14.6115 9.97879C14.4532 10.3736 14.6469 10.8265 15.0417 10.9848C15.4366 11.1431 15.8894 10.9494 16.0492 10.5512L16.1326 10.3587C16.3081 9.96947 16.1341 9.50999 15.7447 9.33449Z" fill="#B6DCFE"/>
<path fill-rule="evenodd" clip-rule="evenodd" d="M29.1603 45.2205C29.1598 45.2497 29.1579 45.2785 29.1545 45.307C29.0889 46.3842 29.1603 47.4494 29.356 48.4814C29.3665 48.5211 29.3745 48.5617 29.3795 48.6033C29.5563 49.7022 30.2454 51.5272 30.8391 52.4979C30.8481 52.5117 30.8568 52.5257 30.8652 52.5402C34.4417 58.7277 42.3511 60.8456 48.5285 57.2749C54.7164 53.6982 56.8337 45.7885 53.2632 39.6114C51.6086 36.7456 48.8605 34.5109 45.4113 33.5867C44.0507 33.2222 42.6828 33.0887 41.3494 33.1618C41.3163 33.1655 41.2828 33.1675 41.2488 33.1675C39.2537 33.2927 37.3383 33.8806 35.6422 34.8506C34.0798 35.8059 33.3586 36.39 32.0966 37.8346C30.9478 39.2227 30.0719 40.8743 29.5751 42.7286C29.3525 43.5598 29.2162 44.3934 29.1603 45.2205ZM42.0643 35.3049C44.5534 35.3049 46.5717 37.3233 46.5717 39.8124C46.5717 41.1704 45.97 42.3974 45.0038 43.2293C47.0802 44.3122 48.457 46.4736 48.457 48.9021V54.3895C48.457 54.8895 48.0517 55.2948 47.5517 55.2948H36.5768C36.0768 55.2948 35.6715 54.8895 35.6715 54.3895V48.9021C35.6715 46.4735 37.0483 44.3123 39.1247 43.2293C37.1381 41.519 37.0214 38.4809 38.8772 36.6252C39.6929 35.8096 40.8197 35.3049 42.0643 35.3049ZM43.9714 37.9053C45.0245 38.9583 45.0245 40.6663 43.9714 41.7194C42.2809 43.4099 39.3673 42.212 39.3673 39.8123C39.3673 37.4165 42.2771 36.211 43.9714 37.9053ZM42.0644 44.3199C44.5828 44.3199 46.6466 46.3836 46.6466 48.9021V53.4843H37.4822V48.9021C37.4821 46.3836 39.5457 44.3199 42.0644 44.3199ZM27.3233 46.1079H25.0639C24.5639 46.1079 24.1586 45.7026 24.1586 45.2026V24.0307C24.1586 23.5308 24.5639 23.1255 25.0639 23.1255H31.4302C31.9302 23.1255 32.3355 23.5308 32.3355 24.0307V35.0043C32.8534 34.5501 33.4018 34.1333 33.9758 33.7567V15.992C33.9758 15.492 34.3811 15.0867 34.8811 15.0867H41.2475C41.7474 15.0867 42.1527 15.492 42.1527 15.992V31.3353C47.47 31.3692 52.2427 34.2384 54.8262 38.7063C58.9022 45.7552 56.4752 54.7661 49.4338 58.8379C42.4658 62.8672 33.5431 60.5448 29.4155 53.6379H0.905267C0.405301 53.6379 0 53.2326 0 52.7326V48.7147C0 48.2147 0.405301 47.8094 0.905267 47.8094H27.4261C27.3594 47.2481 27.3244 46.6801 27.3233 46.1079ZM30.5251 36.9026C28.8527 39.0037 27.7679 41.562 27.4324 44.2975H25.9691V24.936H30.525V36.9026H30.5251ZM28.4972 51.8274C28.1942 51.1143 27.9464 50.3762 27.7581 49.6199H1.81053V51.8274H28.4972ZM35.7865 32.7447C37.2132 32.0717 38.7507 31.6245 40.3423 31.4363V16.8972H35.7865V32.7447ZM21.4039 15.4911C22.9268 15.1065 23.4824 13.1931 22.35 12.0607C21.6795 11.3901 21.0211 11.4602 20.1891 11.4602C19.8797 11.4602 19.8797 10.9884 20.1891 10.9884H21.7552C22.2552 10.9884 22.6605 10.5831 22.6605 10.0832C22.6605 9.5832 22.2552 9.1779 21.7552 9.1779H21.4039V8.96141C21.4039 8.46145 20.9986 8.05615 20.4986 8.05615C19.9986 8.05615 19.5933 8.46145 19.5933 8.96141V9.26662C18.132 9.71317 17.642 11.569 18.7432 12.6703C19.4137 13.3408 20.0721 13.2707 20.904 13.2707C21.2135 13.2707 21.2135 13.7426 20.904 13.7426H19.3381C18.8381 13.7426 18.4328 14.1479 18.4328 14.6479C18.4328 15.1479 18.8381 15.5532 19.3381 15.5532H19.5933V15.7697C19.5933 16.2696 19.9986 16.6749 20.4986 16.6749C20.9986 16.6749 21.4039 16.2696 21.4039 15.7697V15.4911ZM16.1679 10.6027C15.9824 11.0655 15.4568 11.2903 14.9939 11.1048C14.5311 10.9192 14.3063 10.3937 14.4918 9.93083L14.6027 9.66946C14.8077 9.2145 15.3429 9.01185 15.7979 9.21683C16.2529 9.42181 16.4556 9.95695 16.2506 10.412L16.1679 10.6027ZM17.4149 8.83429C17.8383 8.45873 18.3306 8.1578 18.8711 7.95282C21.9284 6.79278 25.263 9.04418 25.263 12.3655C25.263 14.9704 23.1516 17.0818 20.5467 17.0818C18.0484 17.0818 15.9968 15.1487 15.8389 12.6809C15.8076 12.1829 15.3787 11.8045 14.8806 11.8358C14.3826 11.8671 14.0042 12.296 14.0355 12.7941C14.1469 14.5002 14.9156 16.0286 16.0911 17.1286C18.6676 19.5397 22.6741 19.4683 25.1619 16.9807C27.7109 14.4317 27.7109 10.2994 25.1619 7.75043C22.713 5.30155 18.7993 5.19822 16.2198 7.48363C15.8468 7.81366 15.8119 8.38359 16.1419 8.75669C16.4719 9.12954 17.0419 9.16432 17.4149 8.83429ZM20.5466 2.94902C15.3462 2.94902 11.1301 7.16511 11.1301 12.3655C11.1301 17.5658 15.3462 21.7819 20.5466 21.7819C25.747 21.7819 29.963 17.5658 29.963 12.3655C29.963 7.16511 25.747 2.94902 20.5466 2.94902ZM25.9249 6.98716C22.9547 4.01698 18.1386 4.01698 15.1683 6.98716C12.1981 9.95734 12.1981 14.7736 15.1683 17.7438C18.1384 20.714 22.9546 20.714 25.9249 17.7438C28.8951 14.7736 28.8951 9.95721 25.9249 6.98716ZM15.2186 29.5062C14.7186 29.5062 14.3133 29.9115 14.3133 30.4115V45.2026C14.3133 45.7026 14.7186 46.1079 15.2186 46.1079H21.5849C22.0849 46.1079 22.4902 45.7026 22.4902 45.2026V30.4115C22.4902 29.9115 22.0849 29.5062 21.5849 29.5062H15.2186ZM20.6798 31.3167H16.124V44.2973H20.6798V31.3167ZM15.4433 21.805L9.58561 26.021V23.4348L12.7418 21.2079C13.1499 20.9208 13.2481 20.3572 12.961 19.949C12.6739 19.5409 12.1103 19.4427 11.7021 19.7298L8.20599 22.1965C7.94747 22.3559 7.77508 22.6417 7.77508 22.9676V27.7837H7.77844C7.77767 28.4977 8.60456 28.9494 9.20721 28.5157L16.4971 23.2689C16.9013 22.9779 16.9932 22.4143 16.7022 22.0101C16.4112 21.6058 15.8476 21.514 15.4433 21.805ZM30.9648 7.41845C30.5665 7.71732 30.0012 7.63649 29.7023 7.23817C29.4035 6.83986 29.4843 6.27458 29.8826 5.97571L32.5765 3.95981L31.2864 2.44375C30.7912 1.86179 31.2048 0.97114 31.9583 0.959759V0.958466L39.8902 0.815563C40.4789 0.805605 40.9148 1.3542 40.7828 1.92193L40.7849 1.92245L39.0544 9.35236C38.8929 10.0458 37.9677 10.3529 37.4369 9.67089L36.1292 8.13426L32.1714 11.131C31.7731 11.4318 31.2062 11.3525 30.9054 10.9542C30.6046 10.5558 30.6839 9.98902 31.0822 9.68822L35.7169 6.17901L35.7189 6.1816C36.0967 5.89579 36.6365 5.9514 36.9474 6.31687L37.6989 7.19989L38.7609 2.63993L33.8929 2.72762L34.6058 3.56602C34.9045 3.96434 34.8238 4.52961 34.4255 4.82848L30.9648 7.41845ZM5.25145 36.5149C4.75149 36.5149 4.34619 36.9202 4.34619 37.4202V45.2026C4.34619 45.7026 4.75149 46.1079 5.25145 46.1079H11.6178C12.1178 46.1079 12.5231 45.7026 12.5231 45.2026V37.4202C12.5231 36.9202 12.1178 36.5149 11.6178 36.5149H5.25145ZM10.7127 38.3254H6.15672V44.2973H10.7125L10.7127 38.3254Z" fill="#3E66F3"/>
</svg>
