<svg width="185" height="42" viewBox="0 0 185 42" fill="none" xmlns="http://www.w3.org/2000/svg">
<mask id="mask0_1_2119" style="mask-type:luminance" maskUnits="userSpaceOnUse" x="6" y="26" width="27" height="17">
<path d="M8.11049 29.6586L17.5679 26.4219L29.9257 37.2727C30.6753 37.9315 31.8156 37.8554 32.4718 37.1018C32.6892 36.8519 32.826 36.5596 32.885 36.2564H32.887C32.7788 36.8924 32.336 37.4495 31.6847 37.6707L19.3073 41.907L19.3063 41.905C18.717 42.1045 18.0412 41.9929 17.5394 41.5524L7.57824 32.8063C7.30966 32.596 7.09617 32.3076 6.9791 31.9589C6.65837 31.0097 7.16504 29.9796 8.11049 29.6586ZM20.7004 29.1825L12.2327 32.0804L19.1283 38.135L27.5665 35.2469L20.7004 29.1825Z" fill="white"/>
</mask>
<g mask="url(#mask0_1_2119)">
<path d="M32.8888 26.4209H6.66016V42.1055H32.8888V26.4209Z" fill="white"/>
<g filter="url(#filter0_f_1_2119)">
<path d="M26.3433 17.8682L10.5156 25.6514L17.9019 36.5478L34.7847 28.7646L26.3433 17.8682Z" fill="#050E1F" fill-opacity="0.33"/>
</g>
<g filter="url(#filter1_f_1_2119)">
<path d="M36.0542 25.9902L20.2266 33.7734L27.6128 44.6699L44.4957 36.8867L36.0542 25.9902Z" fill="#050E1F" fill-opacity="0.33"/>
</g>
</g>
<mask id="mask1_1_2119" style="mask-type:luminance" maskUnits="userSpaceOnUse" x="13" y="0" width="25" height="16">
<path d="M36.5709 12.0988L27.1961 15.3079L15.0843 4.67137C14.5826 4.23086 13.9067 4.11925 13.3174 4.31877L13.3164 4.31679L25.6535 0.0934035L25.6545 0.0953789C26.2438 -0.104136 26.9197 0.00747396 27.4214 0.447986L37.1042 8.95007C37.3727 9.16045 37.5862 9.44886 37.7033 9.79751C38.023 10.7467 37.5164 11.7769 36.5709 12.0988ZM24.0558 12.5482L32.4487 9.67603L25.8316 3.86541L17.4386 6.73763L24.0558 12.5482Z" fill="white"/>
</mask>
<g mask="url(#mask1_1_2119)">
<path d="M38.023 -0.103516H13.3164V15.3075H38.023V-0.103516Z" fill="white"/>
<g filter="url(#filter2_f_1_2119)">
<path d="M14.6653 -3.24805L-4.85547 6.56554L4.25424 20.3046L25.0764 10.491L14.6653 -3.24805Z" fill="#050E1F" fill-opacity="0.33"/>
</g>
<g filter="url(#filter3_f_1_2119)">
<path d="M27.6107 9.74609L8.08984 19.5597L17.1996 33.2987L38.0218 23.4851L27.6107 9.74609Z" fill="#050E1F" fill-opacity="0.33"/>
</g>
</g>
<mask id="mask2_1_2119" style="mask-type:luminance" maskUnits="userSpaceOnUse" x="0" y="4" width="36" height="34">
<path d="M35.3677 23.6788L32.8924 36.2562L32.8884 36.2552C32.8294 36.5584 32.6927 36.8517 32.4752 37.1006C31.819 37.8533 30.6788 37.9293 29.9291 37.2715L0.694944 11.6013C0.426362 11.3909 0.212873 11.1025 0.0957987 10.7539C-0.223942 9.80467 0.282724 8.77451 1.22817 8.45351L13.3154 4.31704L13.3163 4.31901C13.9057 4.1195 14.5815 4.23111 15.0833 4.67162L34.6829 21.8822C35.2161 22.2872 35.5044 22.9746 35.3677 23.6788ZM29.9488 32.4753L31.6164 24.0018L13.4934 8.08806L5.35037 10.8753L29.9488 32.4753Z" fill="white"/>
</mask>
<g mask="url(#mask2_1_2119)">
<path d="M35.5057 4.11914H-0.222656V37.9309H35.5057V4.11914Z" fill="white"/>
</g>
<path d="M61.2547 32.487L54.6211 10.7861H59.8632L64.0699 26.5095L68.05 10.7861H73.0656L77.0458 26.5095L81.22 10.7861H86.4622L79.861 32.487H74.6512L70.574 17.2509L66.4644 32.487H61.2547Z" fill="white"/>
<path d="M93.4244 32.8119C91.8496 32.8119 90.415 32.5195 89.1207 31.9348C87.8263 31.3283 86.7908 30.4404 86.0142 29.2709C85.2376 28.0797 84.8493 26.607 84.8493 24.8527C84.8493 23.2284 85.2052 21.8207 85.9171 20.6295C86.629 19.4383 87.589 18.5179 88.7971 17.8682C90.0051 17.2184 91.3642 16.8936 92.8743 16.8936C94.4059 16.8936 95.7434 17.1751 96.8868 17.7382C98.0517 18.3013 98.9577 19.0918 99.6049 20.1097C100.252 21.106 100.576 22.2538 100.576 23.5533C100.576 23.9431 100.522 24.3763 100.414 24.8527C100.306 25.3075 100.166 25.6974 99.9932 26.0222H89.4119C89.5197 26.7153 89.757 27.3 90.1238 27.7765C90.4905 28.2313 90.9975 28.5778 91.6446 28.8161C92.2918 29.0543 93.0361 29.1734 93.8774 29.1734C94.7619 29.1734 95.5924 29.0435 96.369 28.7836C97.1456 28.502 97.8791 28.1339 98.5694 27.679L99.9285 30.8302C99.0009 31.4799 97.987 31.9781 96.8868 32.3246C95.8081 32.6495 94.654 32.8119 93.4244 32.8119ZM89.4119 23.0985H95.9807C96.0023 23.0551 96.0131 23.0118 96.0131 22.9685C96.0131 22.9252 96.0131 22.8602 96.0131 22.7736C96.0131 22.2755 95.9052 21.8532 95.6895 21.5066C95.4738 21.1385 95.1394 20.8569 94.6864 20.662C94.2549 20.4454 93.694 20.3371 93.0037 20.3371C92.3781 20.3371 91.8064 20.4562 91.2887 20.6945C90.7925 20.911 90.3827 21.2251 90.0591 21.6366C89.7355 22.0481 89.5197 22.5354 89.4119 23.0985Z" fill="white"/>
<path d="M112.793 32.8119C111.672 32.8119 110.701 32.6061 109.881 32.1946C109.061 31.7832 108.414 31.2309 107.94 30.5378V32.487H103.701V10.7861H108.166V18.8752C108.641 18.2688 109.266 17.7924 110.043 17.4458C110.82 17.0777 111.736 16.8936 112.793 16.8936C114.174 16.8936 115.404 17.2184 116.482 17.8682C117.583 18.4962 118.456 19.4058 119.103 20.597C119.751 21.7882 120.074 23.2068 120.074 24.8527C120.074 26.4987 119.751 27.9173 119.103 29.1084C118.456 30.2996 117.583 31.2201 116.482 31.8698C115.404 32.4979 114.174 32.8119 112.793 32.8119ZM111.758 28.9135C112.491 28.9135 113.139 28.7511 113.699 28.4262C114.282 28.1014 114.724 27.6357 115.026 27.0293C115.35 26.4012 115.512 25.6757 115.512 24.8527C115.512 24.0081 115.35 23.2826 115.026 22.6761C114.724 22.0697 114.282 21.6041 113.699 21.2792C113.139 20.9544 112.491 20.7919 111.758 20.7919C111.024 20.7919 110.367 20.9544 109.784 21.2792C109.202 21.6041 108.759 22.0697 108.457 22.6761C108.155 23.2826 108.004 24.0081 108.004 24.8527C108.004 25.6757 108.155 26.4012 108.457 27.0293C108.759 27.6357 109.191 28.1014 109.752 28.4262C110.334 28.7511 111.003 28.9135 111.758 28.9135Z" fill="white"/>
<path d="M129.476 32.487V13.2551H122.681V10.7861H139.022V13.2551H132.259V32.487H129.476Z" fill="white"/>
<path d="M143.698 32.8119C142.188 32.8119 140.828 32.4979 139.62 31.8698C138.412 31.2417 137.463 30.3429 136.773 29.1734C136.083 27.9822 135.737 26.542 135.737 24.8527C135.737 23.2284 136.072 21.8207 136.74 20.6295C137.409 19.4383 138.315 18.5179 139.459 17.8682C140.602 17.2184 141.875 16.8936 143.277 16.8936C144.765 16.8936 146.049 17.1859 147.128 17.7707C148.206 18.3555 149.037 19.146 149.619 20.1422C150.202 21.1168 150.493 22.2322 150.493 23.4883C150.493 23.8348 150.439 24.2247 150.331 24.6578C150.245 25.0693 150.126 25.405 149.975 25.6649H138.423C138.531 26.7045 138.811 27.5924 139.264 28.3288C139.739 29.0435 140.375 29.5849 141.174 29.9531C141.972 30.3213 142.889 30.5054 143.924 30.5054C144.938 30.5054 145.823 30.3538 146.578 30.0505C147.354 29.7257 148.098 29.2709 148.81 28.6861L149.846 30.6678C149.026 31.3825 148.098 31.9239 147.063 32.2921C146.027 32.6386 144.906 32.8119 143.698 32.8119ZM138.423 23.4558H147.775C147.796 23.4125 147.807 23.3692 147.807 23.3259C147.807 23.2826 147.807 23.2176 147.807 23.1309C147.807 22.3513 147.645 21.6691 147.322 21.0843C146.998 20.4779 146.502 20.0123 145.833 19.6874C145.186 19.3625 144.366 19.2001 143.374 19.2001C142.597 19.2001 141.864 19.3734 141.174 19.7199C140.483 20.0447 139.901 20.5212 139.426 21.1493C138.952 21.7774 138.617 22.5462 138.423 23.4558Z" fill="white"/>
<path d="M161.708 32.8119C160.176 32.8119 158.817 32.487 157.63 31.8373C156.444 31.1659 155.516 30.2346 154.848 29.0435C154.179 27.8523 153.844 26.4554 153.844 24.8527C153.844 23.2501 154.179 21.8532 154.848 20.662C155.516 19.4708 156.444 18.5504 157.63 17.9006C158.817 17.2293 160.176 16.8936 161.708 16.8936C162.808 16.8936 163.8 17.056 164.685 17.3809C165.591 17.7057 166.389 18.1714 167.079 18.7778L166.076 20.7594C165.386 20.218 164.663 19.8282 163.908 19.5899C163.153 19.33 162.419 19.2001 161.708 19.2001C160.672 19.2001 159.766 19.4275 158.989 19.8823C158.213 20.3371 157.609 20.9869 157.177 21.8315C156.746 22.6761 156.53 23.6832 156.53 24.8527C156.53 26.0222 156.746 27.0293 157.177 27.874C157.609 28.7186 158.213 29.3683 158.989 29.8231C159.766 30.278 160.672 30.5054 161.708 30.5054C162.419 30.5054 163.153 30.3862 163.908 30.148C164.663 29.8881 165.386 29.4874 166.076 28.946L167.079 30.9277C166.389 31.5341 165.591 31.9997 164.685 32.3246C163.8 32.6495 162.808 32.8119 161.708 32.8119Z" fill="white"/>
<path d="M171.15 32.487V10.7861H173.771V24.7553L181.44 17.2184H184.676L178.205 23.4883L185 32.487H181.764L176.36 25.275L173.771 27.7765V32.487H171.15Z" fill="white"/>
<defs>
<filter id="filter0_f_1_2119" x="6.51562" y="13.8682" width="32.2691" height="26.6797" filterUnits="userSpaceOnUse" color-interpolation-filters="sRGB">
<feFlood flood-opacity="0" result="BackgroundImageFix"/>
<feBlend mode="normal" in="SourceGraphic" in2="BackgroundImageFix" result="shape"/>
<feGaussianBlur stdDeviation="2" result="effect1_foregroundBlur_1_2119"/>
</filter>
<filter id="filter1_f_1_2119" x="16.2266" y="21.9902" width="32.2691" height="26.6797" filterUnits="userSpaceOnUse" color-interpolation-filters="sRGB">
<feFlood flood-opacity="0" result="BackgroundImageFix"/>
<feBlend mode="normal" in="SourceGraphic" in2="BackgroundImageFix" result="shape"/>
<feGaussianBlur stdDeviation="2" result="effect1_foregroundBlur_1_2119"/>
</filter>
<filter id="filter2_f_1_2119" x="-8.85547" y="-7.24805" width="37.9319" height="31.5525" filterUnits="userSpaceOnUse" color-interpolation-filters="sRGB">
<feFlood flood-opacity="0" result="BackgroundImageFix"/>
<feBlend mode="normal" in="SourceGraphic" in2="BackgroundImageFix" result="shape"/>
<feGaussianBlur stdDeviation="2" result="effect1_foregroundBlur_1_2119"/>
</filter>
<filter id="filter3_f_1_2119" x="4.08984" y="5.74609" width="37.9319" height="31.5525" filterUnits="userSpaceOnUse" color-interpolation-filters="sRGB">
<feFlood flood-opacity="0" result="BackgroundImageFix"/>
<feBlend mode="normal" in="SourceGraphic" in2="BackgroundImageFix" result="shape"/>
<feGaussianBlur stdDeviation="2" result="effect1_foregroundBlur_1_2119"/>
</filter>
</defs>
</svg>
