<svg width="159" height="36" viewBox="0 0 159 36" fill="none" xmlns="http://www.w3.org/2000/svg">
<mask id="mask0_1_188" style="mask-type:luminance" maskUnits="userSpaceOnUse" x="5" y="22" width="24" height="14">
<path d="M6.97353 25.4115L15.1018 22.6406L25.7228 31.9298C26.3671 32.4938 27.3471 32.4287 27.911 31.7836C28.0979 31.5696 28.2154 31.3193 28.2662 31.0598H28.2679C28.1748 31.6043 27.7944 32.0812 27.2346 32.2706L16.5967 35.8972L16.5959 35.8955C16.0894 36.0663 15.5085 35.9707 15.0773 35.5936L6.51609 28.1063C6.28525 27.9262 6.10177 27.6793 6.00115 27.3808C5.7255 26.5682 6.16096 25.6863 6.97353 25.4115ZM17.794 25.0039L10.5164 27.4848L16.4428 32.668L23.6951 30.1956L17.794 25.0039Z" fill="white"/>
</mask>
<g mask="url(#mask0_1_188)">
<path d="M28.2679 22.6396H5.72552V36.067H28.2679V22.6396Z" fill="white"/>
<g filter="url(#filter0_f_1_188)">
<path d="M22.6418 15.3184L9.03857 21.9814L15.3867 31.3097L29.8968 24.6466L22.6418 15.3184Z" fill="#050E1F" fill-opacity="0.33"/>
</g>
<g filter="url(#filter1_f_1_188)">
<path d="M30.9851 22.2715L17.3818 28.9345L23.73 38.2628L38.2401 31.5998L30.9851 22.2715Z" fill="#050E1F" fill-opacity="0.33"/>
</g>
</g>
<mask id="mask1_1_188" style="mask-type:luminance" maskUnits="userSpaceOnUse" x="11" y="0" width="22" height="14">
<path d="M31.4302 10.3801L23.373 13.1273L12.9634 4.02155C12.5322 3.64443 11.9513 3.54888 11.4448 3.71968L11.444 3.71799L22.0472 0.102422L22.048 0.104113C22.5545 -0.0666879 23.1354 0.0288593 23.5666 0.405974L31.8885 7.68447C32.1194 7.86457 32.3028 8.11147 32.4035 8.40995C32.6783 9.22252 32.2428 10.1044 31.4302 10.3801ZM20.674 10.7648L27.8874 8.30595L22.2002 3.33158L14.9868 5.79044L20.674 10.7648Z" fill="white"/>
</mask>
<g mask="url(#mask1_1_188)">
<path d="M32.6782 -0.0668945H11.4439V13.1262H32.6782V-0.0668945Z" fill="white"/>
<g filter="url(#filter2_f_1_188)">
<path d="M12.6056 -2.75879L-4.17169 5.64246L3.65772 17.4042L21.5535 9.00296L12.6056 -2.75879Z" fill="#050E1F" fill-opacity="0.33"/>
</g>
<g filter="url(#filter3_f_1_188)">
<path d="M23.73 8.36572L6.9527 16.767L14.7821 28.5287L32.6779 20.1275L23.73 8.36572Z" fill="#050E1F" fill-opacity="0.33"/>
</g>
</g>
<mask id="mask2_1_188" style="mask-type:luminance" maskUnits="userSpaceOnUse" x="0" y="3" width="31" height="30">
<path d="M30.397 20.2935L28.2696 31.0607L28.2662 31.0598C28.2155 31.3194 28.0979 31.5706 27.9111 31.7836C27.3471 32.4279 26.3671 32.4931 25.7228 31.9299L0.597275 9.95407C0.36644 9.77397 0.182955 9.52707 0.0823348 9.22859C-0.192469 8.41602 0.242989 7.53411 1.05556 7.25931L11.444 3.71814L11.4448 3.71984C11.9513 3.54903 12.5322 3.64458 12.9634 4.0217L29.8085 18.7554C30.2668 19.1021 30.5145 19.6906 30.397 20.2935ZM25.7397 27.8239L27.1729 20.57L11.597 6.94645L4.59842 9.3326L25.7397 27.8239Z" fill="white"/>
</mask>
<g mask="url(#mask2_1_188)">
<path d="M30.5145 3.54834H-0.192444V32.494H30.5145V3.54834Z" fill="white"/>
</g>
<path d="M52.6463 27.8336L46.945 9.25586H51.4504L55.0659 22.7164L58.4866 9.25586H62.7973L66.2181 22.7164L69.8057 9.25586H74.3111L68.6376 27.8336H64.1601L60.6559 14.7903L57.1239 27.8336H52.6463Z" fill="white"/>
<path d="M80.2948 28.1117C78.9413 28.1117 77.7084 27.8614 76.5959 27.3608C75.4835 26.8417 74.5935 26.0815 73.9261 25.0803C73.2586 24.0606 72.9249 22.7998 72.9249 21.298C72.9249 19.9075 73.2308 18.7023 73.8426 17.6826C74.4545 16.6629 75.2795 15.8749 76.3178 15.3187C77.3561 14.7624 78.5242 14.4843 79.822 14.4843C81.1384 14.4843 82.2879 14.7254 83.2706 15.2074C84.2718 15.6895 85.0505 16.3662 85.6067 17.2376C86.1629 18.0905 86.441 19.0732 86.441 20.1856C86.441 20.5193 86.3947 20.8901 86.302 21.298C86.2093 21.6874 86.0888 22.0211 85.9404 22.2992H76.8462C76.9389 22.8925 77.1429 23.3931 77.4581 23.801C77.7733 24.1904 78.209 24.487 78.7652 24.691C79.3214 24.8949 79.9611 24.9969 80.6842 24.9969C81.4443 24.9969 82.1581 24.8857 82.8256 24.6632C83.4931 24.4221 84.1235 24.1069 84.7168 23.7176L85.8848 26.4153C85.0876 26.9715 84.2162 27.3979 83.2706 27.6946C82.3436 27.9727 81.3516 28.1117 80.2948 28.1117ZM76.8462 19.7962H82.4919C82.5104 19.7592 82.5197 19.7221 82.5197 19.685C82.5197 19.6479 82.5197 19.5923 82.5197 19.5181C82.5197 19.0917 82.427 18.7301 82.2416 18.4335C82.0562 18.1183 81.7688 17.8773 81.3794 17.7104C81.0086 17.525 80.5266 17.4323 79.9333 17.4323C79.3956 17.4323 78.9043 17.5343 78.4593 17.7382C78.0328 17.9236 77.6806 18.1925 77.4025 18.5447C77.1243 18.897 76.9389 19.3142 76.8462 19.7962Z" fill="white"/>
<path d="M96.9417 28.1117C95.9775 28.1117 95.1432 27.9356 94.4387 27.5833C93.7341 27.2311 93.1779 26.7583 92.77 26.165V27.8336H89.1268V9.25586H92.9647V16.1808C93.3726 15.6617 93.9103 15.2538 94.5777 14.9571C95.2452 14.6419 96.0332 14.4843 96.9417 14.4843C98.1283 14.4843 99.1851 14.7624 100.112 15.3187C101.058 15.8563 101.809 16.6351 102.365 17.6548C102.921 18.6745 103.199 19.8889 103.199 21.298C103.199 22.7071 102.921 23.9215 102.365 24.9413C101.809 25.961 101.058 26.749 100.112 27.3052C99.1851 27.8429 98.1283 28.1117 96.9417 28.1117ZM96.0517 24.7744C96.6821 24.7744 97.2383 24.6354 97.7204 24.3572C98.221 24.0791 98.601 23.6805 98.8606 23.1614C99.1387 22.6237 99.2778 22.0026 99.2778 21.298C99.2778 20.5749 99.1387 19.9538 98.8606 19.4347C98.601 18.9156 98.221 18.5169 97.7204 18.2388C97.2383 17.9607 96.6821 17.8217 96.0517 17.8217C95.4213 17.8217 94.8558 17.9607 94.3552 18.2388C93.8546 18.5169 93.4746 18.9156 93.215 19.4347C92.9554 19.9538 92.8256 20.5749 92.8256 21.298C92.8256 22.0026 92.9554 22.6237 93.215 23.1614C93.4746 23.6805 93.8454 24.0791 94.3274 24.3572C94.828 24.6354 95.4028 24.7744 96.0517 24.7744Z" fill="white"/>
<path d="M111.28 27.8336V11.3695H105.44V9.25586H119.484V11.3695H113.672V27.8336H111.28Z" fill="white"/>
<path d="M123.502 28.1117C122.205 28.1117 121.037 27.8429 119.998 27.3052C118.96 26.7675 118.144 25.9981 117.551 24.9969C116.958 23.9772 116.661 22.7442 116.661 21.298C116.661 19.9075 116.948 18.7023 117.523 17.6826C118.098 16.6629 118.877 15.8749 119.859 15.3187C120.842 14.7624 121.936 14.4843 123.141 14.4843C124.42 14.4843 125.523 14.7346 126.45 15.2352C127.377 15.7358 128.091 16.4126 128.592 17.2654C129.093 18.0998 129.343 19.0546 129.343 20.13C129.343 20.4266 129.296 20.7604 129.204 21.1312C129.13 21.4834 129.028 21.7708 128.898 21.9933H118.969C119.062 22.8833 119.303 23.6434 119.692 24.2738C120.1 24.8857 120.647 25.3492 121.333 25.6644C122.019 25.9796 122.807 26.1372 123.697 26.1372C124.569 26.1372 125.329 26.0074 125.978 25.7478C126.645 25.4697 127.285 25.0803 127.897 24.5797L128.787 26.2762C128.082 26.8881 127.285 27.3516 126.395 27.6668C125.505 27.9634 124.541 28.1117 123.502 28.1117ZM118.969 20.1022H127.007C127.025 20.0651 127.034 20.028 127.034 19.9909C127.034 19.9538 127.034 19.8982 127.034 19.8241C127.034 19.1566 126.895 18.5726 126.617 18.072C126.339 17.5528 125.913 17.1542 125.338 16.8761C124.782 16.598 124.077 16.4589 123.224 16.4589C122.557 16.4589 121.927 16.6072 121.333 16.9039C120.74 17.182 120.239 17.5899 119.831 18.1276C119.424 18.6653 119.136 19.3235 118.969 20.1022Z" fill="white"/>
<path d="M138.981 28.1117C137.665 28.1117 136.497 27.8336 135.477 27.2774C134.457 26.7026 133.66 25.9054 133.085 24.8857C132.511 23.8659 132.223 22.67 132.223 21.298C132.223 19.926 132.511 18.7301 133.085 17.7104C133.66 16.6907 134.457 15.9027 135.477 15.3465C136.497 14.7717 137.665 14.4843 138.981 14.4843C139.927 14.4843 140.78 14.6234 141.54 14.9015C142.319 15.1796 143.005 15.5782 143.598 16.0974L142.736 17.7938C142.142 17.3303 141.521 16.9966 140.872 16.7926C140.224 16.5702 139.593 16.4589 138.981 16.4589C138.091 16.4589 137.313 16.6536 136.645 17.0429C135.978 17.4323 135.459 17.9885 135.088 18.7116C134.717 19.4347 134.532 20.2968 134.532 21.298C134.532 22.2992 134.717 23.1614 135.088 23.8845C135.459 24.6075 135.978 25.1638 136.645 25.5531C137.313 25.9425 138.091 26.1372 138.981 26.1372C139.593 26.1372 140.224 26.0352 140.872 25.8312C141.521 25.6087 142.142 25.2657 142.736 24.8022L143.598 26.4987C143.005 27.0178 142.319 27.4165 141.54 27.6946C140.78 27.9727 139.927 28.1117 138.981 28.1117Z" fill="white"/>
<path d="M147.097 27.8336V9.25586H149.35V21.2146L155.941 14.7624H158.722L153.16 20.13L159 27.8336H156.219L151.574 21.6596L149.35 23.801V27.8336H147.097Z" fill="white"/>
<defs>
<filter id="filter0_f_1_188" x="5.03857" y="11.3184" width="28.8583" height="23.9912" filterUnits="userSpaceOnUse" color-interpolation-filters="sRGB">
<feFlood flood-opacity="0" result="BackgroundImageFix"/>
<feBlend mode="normal" in="SourceGraphic" in2="BackgroundImageFix" result="shape"/>
<feGaussianBlur stdDeviation="2" result="effect1_foregroundBlur_1_188"/>
</filter>
<filter id="filter1_f_1_188" x="13.3818" y="18.2715" width="28.8583" height="23.9912" filterUnits="userSpaceOnUse" color-interpolation-filters="sRGB">
<feFlood flood-opacity="0" result="BackgroundImageFix"/>
<feBlend mode="normal" in="SourceGraphic" in2="BackgroundImageFix" result="shape"/>
<feGaussianBlur stdDeviation="2" result="effect1_foregroundBlur_1_188"/>
</filter>
<filter id="filter2_f_1_188" x="-8.17169" y="-6.75879" width="33.7252" height="28.1631" filterUnits="userSpaceOnUse" color-interpolation-filters="sRGB">
<feFlood flood-opacity="0" result="BackgroundImageFix"/>
<feBlend mode="normal" in="SourceGraphic" in2="BackgroundImageFix" result="shape"/>
<feGaussianBlur stdDeviation="2" result="effect1_foregroundBlur_1_188"/>
</filter>
<filter id="filter3_f_1_188" x="2.9527" y="4.36572" width="33.7252" height="28.1631" filterUnits="userSpaceOnUse" color-interpolation-filters="sRGB">
<feFlood flood-opacity="0" result="BackgroundImageFix"/>
<feBlend mode="normal" in="SourceGraphic" in2="BackgroundImageFix" result="shape"/>
<feGaussianBlur stdDeviation="2" result="effect1_foregroundBlur_1_188"/>
</filter>
</defs>
</svg>
