<svg width="30" height="30" viewBox="0 0 30 30" fill="none" xmlns="http://www.w3.org/2000/svg">
<g clip-path="url(#clip0_2_87)">
<path d="M1.08492 15.9176C1.32908 16.0664 1.5911 16.0873 1.82336 16.1081C1.96627 16.123 2.10027 16.1349 2.22234 16.1736C2.48734 16.26 2.74341 16.5339 2.84167 16.8406C2.87066 16.9316 2.88358 17.0212 2.88579 17.1082C2.84896 17.1299 2.81127 17.1505 2.77579 17.174C2.48182 17.3681 2.31666 17.7021 2.34399 18.0455C2.34608 18.0714 2.35199 18.0968 2.35448 18.1227C2.29632 18.1612 2.23535 18.1977 2.17172 18.2341C2.10027 18.2728 2.02583 18.3145 1.95733 18.3621C1.66554 18.5556 1.4988 18.8891 1.52561 19.2315C1.58514 19.9581 1.80251 20.6697 2.15684 21.286C2.16576 21.3009 2.17471 21.3158 2.18661 21.3277C2.50223 21.6612 2.81784 21.9679 3.25555 22.0572C3.45504 22.0989 3.64561 22.084 3.83021 22.0721C3.90465 22.0691 3.97611 22.0632 4.04458 22.0632C4.60138 22.0661 5.21475 22.4562 5.53633 23.0071C5.67925 23.2512 5.87577 23.7366 5.59589 24.2398C5.56314 24.3023 5.51549 24.3648 5.46487 24.4333C5.33386 24.609 5.18797 24.8085 5.17902 25.0377C5.16116 25.4635 5.60185 25.7553 5.81324 25.8953C6.00679 26.0233 6.2033 26.1543 6.39684 26.2823C6.59039 26.4133 6.78392 26.5414 6.98044 26.6724C7.17099 26.7974 7.38836 26.9404 7.65335 26.997C7.97493 27.0505 8.32926 26.9612 8.71633 26.7349C8.8265 26.6664 8.93965 26.5801 9.05577 26.4937C9.23146 26.3627 9.4101 26.2258 9.57684 26.1662C9.82398 26.0709 10.2349 26.2049 10.4969 26.3717C10.8095 26.5741 11.0358 26.8957 11.1192 27.256C11.143 27.3572 11.1549 27.4644 11.1669 27.5716C11.1936 27.783 11.2204 28.0004 11.3157 28.2207C11.4765 28.5631 11.8011 28.8311 12.2328 28.98C12.602 29.108 13.001 29.1289 13.3226 29.1467L13.4923 29.1557C13.6233 29.1646 13.7633 29.1735 13.9002 29.1735C14.2248 29.1735 14.5493 29.1229 14.8113 28.8966C15.0555 28.6822 15.2103 28.3845 15.3473 28.0927C15.3877 28.0017 15.4313 27.9054 15.4788 27.8101C15.5296 27.78 15.5808 27.7508 15.6277 27.71C15.8746 27.4945 16.0217 27.2095 16.1732 26.8874C16.2805 26.6447 16.391 26.3938 16.5597 26.2086C16.7042 26.0472 16.9708 25.9867 17.1845 25.9621C17.4596 25.9114 17.6661 25.9012 17.8487 26.0076C18.0417 26.1135 18.1993 26.2814 18.3665 26.4592L18.4392 26.536C18.4733 26.5749 18.5076 26.6136 18.5401 26.6462C18.6102 26.7157 18.7175 26.7311 18.8036 26.6844C18.8902 26.6377 18.9362 26.5397 18.9167 26.4434L17.9103 21.4999C17.8638 21.2711 17.7303 21.0752 17.5343 20.9486C17.3404 20.8233 17.1098 20.7821 16.8839 20.833C15.3422 21.1827 13.9215 21.1393 12.6624 20.7045C10.7471 20.0389 9.13794 18.3544 8.46334 16.3087C7.79747 14.2859 8.03852 11.9746 9.10828 10.1257C9.10828 10.1255 9.10828 10.1258 9.10828 10.1257C9.54299 9.3714 10.1391 8.67514 10.8334 8.1122C11.8197 7.30749 12.9942 6.75981 14.1404 6.57037C14.323 6.54013 14.4827 6.43836 14.5894 6.28338C14.6987 6.12476 14.7394 5.92514 14.701 5.73585L13.9939 2.26328C13.9799 2.19553 13.9354 2.13781 13.8732 2.10742C13.8104 2.0766 13.7377 2.07689 13.6761 2.10771C13.6037 2.14348 13.5254 2.16616 13.3545 2.20091C13.187 2.23478 13.0689 2.22897 12.9532 2.17924C12.7177 2.08489 12.524 1.87596 12.3458 1.65977L12.3181 1.62779C12.1152 1.39401 11.9055 1.15223 11.6118 0.995064C11.1987 0.773639 10.7384 0.810277 10.424 0.879335C10.0786 0.955664 9.76107 1.10759 9.45401 1.25458L9.39004 1.28526C8.85559 1.55117 8.27434 1.88687 8.14494 2.50985C8.13097 2.58038 8.12511 2.65001 8.12344 2.71925C7.74822 2.95096 7.41944 3.24942 7.32583 3.69778C7.26628 4.00147 7.33477 4.28732 7.41217 4.58209L7.4479 4.7012C7.45401 4.72018 7.46028 4.74189 7.46655 4.76219C7.17681 4.85164 6.86737 4.8594 6.59017 4.77324C6.47619 4.73806 6.36598 4.69081 6.25636 4.64428C6.02869 4.5476 5.79345 4.44757 5.52332 4.43565C5.18253 4.41792 4.82895 4.55691 4.52247 4.81846C4.26049 5.03799 4.06625 5.30798 3.87608 5.57229C3.74171 5.76591 3.58707 5.99286 3.46576 6.24118C3.3165 6.40627 3.18616 6.58384 3.05902 6.75867C2.75829 7.19041 2.34741 7.78294 2.4665 8.42906C2.54094 8.8608 2.82977 9.19131 3.08285 9.48312C3.13644 9.54861 3.19302 9.61115 3.24661 9.67664C3.3647 9.81745 3.52535 10.0432 3.58869 10.2811C3.45473 10.3232 3.31327 10.3547 3.16775 10.3871C2.81679 10.4653 2.50392 10.5457 2.22972 10.7359C1.90754 10.9515 1.65951 11.3081 1.5115 11.7688C1.49993 11.8059 1.49282 11.8429 1.48283 11.88C1.45947 11.8941 1.4355 11.9061 1.41246 11.9217C1.09088 12.1391 0.840759 12.4964 0.694863 12.9549C0.569812 13.3509 0.540044 13.7648 0.513238 14.1251L0.510258 14.1608C0.48645 14.4496 0.462625 14.7474 0.522179 15.0541C0.60256 15.4352 0.80503 15.7508 1.08492 15.9176ZM1.7764 12.9719C1.80286 12.6153 1.83019 12.2464 1.9372 11.9038C2.01832 11.6512 2.17796 11.3078 2.48095 11.105C2.69176 10.9589 2.96072 10.8908 3.26487 10.823C3.58182 10.7524 3.90952 10.6795 4.20582 10.4875C4.53061 10.2824 4.6728 9.96706 4.79987 9.68559C4.98655 9.25408 4.8464 8.72676 4.40704 8.20307C4.35266 8.13678 4.29596 8.07121 4.23868 8.0052C4.00199 7.73158 3.77809 7.47308 3.72313 7.16312C3.64492 6.73306 3.91214 6.30359 4.24071 5.83006C4.42041 5.58029 4.59022 5.34418 4.81063 5.15954C5.02929 4.97315 5.27878 4.87036 5.50355 4.8817C5.69313 4.89013 5.88184 4.97039 6.08161 5.05529C6.20199 5.10647 6.32644 5.15924 6.45816 5.19995C7.01732 5.37311 7.67592 5.26073 8.17867 4.90511C8.51481 4.66551 8.71864 4.42984 8.78436 4.20434C8.86112 3.94105 8.76865 3.63355 8.69451 3.38639L8.66194 3.27561C8.59448 3.027 8.54185 2.80426 8.58256 2.59868C8.67095 2.17372 9.14841 1.90432 9.58573 1.68667L9.64679 1.65745C9.94425 1.51511 10.2249 1.38078 10.5203 1.3155C10.7605 1.26243 11.1088 1.23204 11.401 1.38877C11.622 1.50712 11.7962 1.7079 11.9805 1.92045L12.0047 1.94822C12.2169 2.20556 12.4583 2.46202 12.7819 2.59185C12.9776 2.67574 13.1876 2.69042 13.4434 2.63852C13.5036 2.62631 13.5574 2.61468 13.6068 2.60232L14.2631 5.82497C14.2777 5.89592 14.2625 5.97065 14.2215 6.02997C14.1843 6.08405 14.1297 6.11938 14.0677 6.1297C12.8456 6.33179 11.5967 6.91291 10.5514 7.76575C9.81573 8.36242 9.18301 9.10127 8.72155 9.90221C7.58927 11.8596 7.33397 14.3067 8.03939 16.4484C8.75644 18.6236 10.4717 20.416 12.5162 21.1265C13.856 21.5892 15.3585 21.6369 16.9827 21.2686C17.0886 21.2443 17.1994 21.2639 17.2918 21.3238C17.386 21.3846 17.45 21.4787 17.4724 21.5889L18.3296 25.7986C18.2491 25.7318 18.163 25.6706 18.0682 25.6189C17.7388 25.427 17.3977 25.4687 17.1191 25.5206C16.7184 25.5657 16.4183 25.6969 16.2282 25.9092C16.0118 26.1471 15.8804 26.4447 15.7589 26.7208C15.6388 26.974 15.5161 27.2146 15.3343 27.3731C15.1023 27.5748 14.715 27.5487 14.3399 27.5236L14.1651 27.5127C13.856 27.4965 13.506 27.4781 13.1971 27.3701C13.0137 27.3075 12.6842 27.156 12.5412 26.8474C12.4725 26.6939 12.4516 26.5175 12.4295 26.3308C12.415 26.2094 12.4001 26.0883 12.3734 25.9685C12.2641 25.497 11.9672 25.075 11.5586 24.8102C11.3516 24.6769 10.964 24.5004 10.586 24.5004C10.4674 24.5004 10.3499 24.5177 10.2391 24.5591C10.0126 24.6439 9.80526 24.7996 9.60492 24.9501C9.5014 25.028 9.39963 25.1051 9.30281 25.1644C9.01348 25.3356 8.75877 25.4043 8.5529 25.3698C8.38047 25.3342 8.2092 25.2208 8.04375 25.1112C7.84981 24.9831 7.65586 24.8534 7.46104 24.7233C7.26738 24.5939 7.07257 24.4638 6.87658 24.3341C6.7562 24.2544 6.43635 24.0427 6.44304 23.869C6.44682 23.7751 6.55528 23.6284 6.64251 23.5105C6.70125 23.4311 6.76173 23.3489 6.80622 23.2678C7.08856 22.7611 7.06471 22.1511 6.7405 21.5944C6.34388 20.9136 5.57246 20.4344 4.86006 20.4291C4.78068 20.4301 4.70043 20.4352 4.61959 20.4406C4.45618 20.4511 4.30178 20.4614 4.16308 20.4329C3.86038 20.3702 3.6138 20.1353 3.34833 19.8548C3.03487 19.2995 2.8418 18.6621 2.78946 18.0097C2.77492 17.8312 2.86622 17.6495 3.02179 17.5465C3.08256 17.5065 3.14624 17.4706 3.20992 17.4346C3.37769 17.3395 3.56786 17.2316 3.71616 17.0502C4.1119 16.5666 4.24304 16.0232 4.08515 15.5179C3.94238 15.0744 3.57746 14.6901 3.1788 14.562C3.01015 14.5065 2.84209 14.4915 2.67925 14.4771C2.47891 14.4594 2.28932 14.4427 2.13231 14.3477C1.96046 14.2441 1.83165 14.0363 1.77902 13.7779C1.72958 13.5357 1.75052 13.2829 1.77291 13.0154L1.7764 12.9719Z" fill="white"/>
<path d="M11.5714 11.5427C10.9256 12.6587 10.7805 14.0562 11.183 15.281C11.5924 16.5276 12.5752 17.5549 13.7482 17.962C14.1736 18.1097 14.6333 18.1834 15.1154 18.1834C15.6882 18.1834 16.293 18.0795 16.9109 17.8721C17.3109 17.7379 17.6564 17.5768 17.9649 17.392L18.3546 19.1409C18.368 19.1998 18.4043 19.2508 18.4555 19.2825C18.507 19.3141 18.5689 19.324 18.6274 19.3088C19.0816 19.194 19.5506 19.0719 20.0199 18.9497C20.4153 18.8468 20.8108 18.7439 21.1972 18.6453C21.2926 19.1319 21.3729 19.6304 21.4508 20.1147C21.5182 20.5334 21.5909 20.9613 21.6702 21.3867C21.6032 21.4188 21.5377 21.4565 21.4741 21.4998C20.9643 21.8475 20.7457 22.443 20.9175 23.0169C21.0833 23.5706 21.6229 23.9842 22.201 24.0002C22.2126 24.0006 22.2242 24.0008 22.2359 24.0008C22.8011 24.0008 23.3443 23.6222 23.5362 23.0895C23.7325 22.5459 23.5444 21.8925 23.0896 21.5359C22.7989 21.3084 22.4472 21.2169 22.1008 21.2602C22.0257 20.8542 21.9564 20.445 21.8916 20.0436C21.8006 19.4784 21.7064 18.8936 21.5883 18.3256C21.5758 18.266 21.5398 18.2141 21.488 18.1818C21.4363 18.1497 21.374 18.1392 21.315 18.1546C20.8562 18.2705 20.3816 18.3941 19.9074 18.5175C19.5154 18.6196 19.1237 18.7216 18.7408 18.8193L18.3624 17.1212C18.4086 17.0853 18.4584 17.0521 18.5023 17.0146C18.84 16.7264 19.1201 16.3701 19.3391 15.9733C19.9645 15.8074 20.3599 15.724 20.7401 15.6444C21.1141 15.566 21.4993 15.4853 22.1004 15.3271C22.2815 15.6005 22.4836 15.8819 22.6799 16.1553C22.9067 16.4709 23.1408 16.7971 23.3379 17.1039C23.3795 17.1686 23.4507 17.2065 23.5258 17.2065C23.5403 17.2065 23.5551 17.2051 23.5697 17.2022C24.1152 17.0924 24.7168 17.0084 25.2983 16.9273C25.8189 16.8545 26.3534 16.7785 26.8572 16.6843C27.0541 17.1883 27.5593 17.5564 28.1025 17.5713C28.1142 17.5718 28.1258 17.5719 28.1374 17.5719C28.703 17.5719 29.2462 17.1935 29.4384 16.6605C29.6341 16.1167 29.4459 15.4635 28.9914 15.1072C28.5195 14.7376 27.8853 14.7233 27.3756 15.0711C26.9669 15.3498 26.7498 15.7882 26.7666 16.2468C26.275 16.3385 25.749 16.4133 25.2364 16.4848C24.7002 16.5597 24.1474 16.6369 23.6307 16.7352C23.4472 16.4579 23.242 16.1723 23.0428 15.8947C22.8168 15.5802 22.5834 15.2549 22.3868 14.9491C22.3342 14.8673 22.2356 14.8287 22.1411 14.8542C21.4604 15.0371 21.0478 15.1236 20.6488 15.2072C20.3402 15.2718 20.0228 15.3384 19.5837 15.4486C19.8077 14.86 19.9056 14.211 19.8501 13.561C19.8376 13.4151 19.8157 13.2701 19.7885 13.1261L24.4794 12.014C24.5375 12.2517 24.6078 12.4913 24.6789 12.7275C24.6075 12.7609 24.5373 12.7997 24.4696 12.8459C23.9599 13.1936 23.7415 13.7891 23.9134 14.3631C24.0791 14.9167 24.6188 15.3302 25.1965 15.3462C25.2082 15.3466 25.2198 15.3468 25.2314 15.3468C25.7967 15.3468 26.3399 14.9683 26.5318 14.4355C26.7281 13.8919 26.5402 13.2385 26.0854 12.882C25.7979 12.6567 25.4502 12.5654 25.107 12.6055C25.0168 12.3013 24.9265 11.9903 24.8665 11.7013C24.8546 11.6418 24.8188 11.5911 24.7682 11.5584C24.7176 11.5256 24.6551 11.5137 24.5955 11.5286L19.6828 12.6924C19.4703 11.9685 19.076 11.296 18.548 10.7497C19.0647 10.6494 19.6711 10.5198 20.263 10.3933C21.0248 10.2304 21.8125 10.0619 22.392 9.95972C22.4615 9.94736 22.5211 9.90316 22.5528 9.84021C22.6909 9.56543 22.8363 9.29486 22.9817 9.0243C23.112 8.78194 23.242 8.53943 23.3673 8.29402C23.7369 8.21973 24.1489 8.11214 24.5484 8.00775C24.8587 7.92657 25.1761 7.84406 25.4719 7.77731C25.6706 8.2783 26.1741 8.64366 26.7153 8.6585C26.7269 8.65894 26.7385 8.65909 26.7502 8.65909C27.3154 8.65909 27.8586 8.2805 28.0505 7.7478C28.2468 7.2042 28.0586 6.55083 27.6039 6.19434C27.1322 5.82462 26.4983 5.81066 25.9883 6.15813C25.5778 6.43826 25.3603 6.87944 25.3794 7.34031C25.0748 7.40892 24.7515 7.49304 24.4353 7.57566C24.0038 7.68833 23.5574 7.80508 23.1765 7.87618C23.1079 7.88897 23.0495 7.93302 23.0181 7.99539C22.8797 8.27061 22.734 8.54176 22.5883 8.81305C22.4586 9.05425 22.3292 9.29545 22.2045 9.53955C21.803 9.61273 21.3182 9.71278 20.8181 9.81857C20.817 9.80986 20.8192 9.80143 20.817 9.79271L19.6055 4.65805C19.9651 4.51119 20.267 4.22027 20.3996 3.85215C20.5959 3.3084 20.4081 2.65503 19.9533 2.29854C19.4814 1.92911 18.8475 1.91472 18.3375 2.26248C17.8277 2.6101 17.6094 3.20561 17.7812 3.7796C17.947 4.33323 18.4866 4.74686 19.0644 4.76285C19.076 4.76329 19.0874 4.76343 19.099 4.76343C19.1232 4.76343 19.1469 4.75887 19.171 4.75751L20.3823 9.89691C20.3834 9.90169 20.3865 9.90534 20.3879 9.90996C20.3151 9.92552 20.2422 9.941 20.1696 9.95652C19.4485 10.1107 18.7064 10.2692 18.1374 10.3724C18.104 10.3455 18.0736 10.3152 18.0394 10.2892C17.2526 9.69032 16.2616 9.35229 15.2489 9.33703C15.2329 9.33688 15.2172 9.33674 15.2009 9.33674C14.3254 9.33674 13.3867 9.69322 12.6179 10.3191C12.1934 10.6647 11.8413 11.0763 11.5714 11.5427ZM25.8098 13.2336C26.1125 13.4707 26.2422 13.9222 26.1119 14.284C25.984 14.6387 25.6083 14.9001 25.2311 14.9001C25.2239 14.9001 25.2163 14.9 25.2088 14.8998C24.8246 14.8891 24.4516 14.6034 24.3414 14.2351C24.2018 13.7692 24.4463 13.4025 24.7214 13.2149C24.9968 13.0274 25.4271 12.9338 25.8098 13.2336ZM19.0766 4.31651C18.6925 4.30576 18.3194 4.01992 18.2092 3.65151C18.0697 3.18555 18.3142 2.81917 18.5893 2.63148C18.8646 2.44378 19.2953 2.3503 19.6776 2.65009C19.9803 2.88721 20.11 3.33893 19.9798 3.70065C19.8492 4.06223 19.4578 4.32291 19.0766 4.31651ZM14.6804 10.8672C14.7982 10.8408 14.9203 10.9142 14.9482 11.0346C14.9761 11.1548 14.9011 11.2746 14.781 11.3025C13.8674 11.5136 13.0881 12.3007 12.886 13.2164C12.6839 14.1322 13.0593 15.1742 13.7991 15.7503C13.8965 15.8262 13.9139 15.9665 13.838 16.0638C13.7938 16.1204 13.7281 16.1499 13.6615 16.1499C13.6135 16.1499 13.5653 16.1345 13.5246 16.1028C12.64 15.4136 12.2082 14.2151 12.4499 13.1201C12.6915 12.0252 13.588 11.1199 14.6804 10.8672ZM14.7955 16.6725C14.7548 16.746 14.6787 16.7874 14.6001 16.7874C14.5635 16.7874 14.5263 16.7784 14.492 16.7593L14.2469 16.6233C14.139 16.5635 14.1 16.4277 14.1596 16.3197C14.2189 16.212 14.3541 16.1726 14.4632 16.2325L14.7089 16.3688C14.8168 16.4287 14.8554 16.5647 14.7955 16.6725Z" fill="white"/>
<path d="M6.21301 13.7291C6.22174 13.7291 6.23046 13.7287 6.23918 13.7277C6.3616 13.7134 6.44941 13.6025 6.43516 13.4801C6.21389 11.5774 6.93006 9.56653 8.30368 8.23202C8.39208 8.1461 8.39411 8.00464 8.30833 7.91624C8.22227 7.82785 8.08095 7.82596 7.99255 7.91159C6.52123 9.34075 5.75446 11.4942 5.99144 13.5315C6.00482 13.6454 6.10136 13.7291 6.21301 13.7291Z" fill="white"/>
<path d="M8.78289 7.77249C8.84017 7.77249 8.89716 7.75069 8.94078 7.70707L9.11088 7.53697C9.19811 7.44974 9.19811 7.30842 9.11088 7.22119C9.02365 7.13395 8.88233 7.13395 8.7951 7.22119L8.62499 7.39129C8.53776 7.47852 8.53776 7.61984 8.62499 7.70707C8.66861 7.75069 8.7256 7.77249 8.78289 7.77249Z" fill="white"/>
</g>
<defs>
<clipPath id="clip0_2_87">
<rect width="30" height="30" fill="white"/>
</clipPath>
</defs>
</svg>
