<svg width="30" height="31" viewBox="0 0 30 31" fill="none" xmlns="http://www.w3.org/2000/svg">
<g clip-path="url(#clip0_3128_383)">
<path d="M15 5.17285C15.7767 5.17285 16.4062 4.54325 16.4062 3.7666C16.4062 2.98995 15.7767 2.36035 15 2.36035C14.2233 2.36035 13.5938 2.98995 13.5938 3.7666C13.5938 4.54325 14.2233 5.17285 15 5.17285Z" fill="white"/>
<path d="M28.0078 6.58105C28.7845 6.58105 29.4141 5.95146 29.4141 5.1748C29.4141 4.39815 28.7845 3.76855 28.0078 3.76855C27.2312 3.76855 26.6016 4.39815 26.6016 5.1748C26.6016 5.95146 27.2312 6.58105 28.0078 6.58105Z" fill="white"/>
<path d="M26.2517 16.4248C27.0284 16.4248 27.658 15.7952 27.658 15.0186C27.658 14.2419 27.0284 13.6123 26.2517 13.6123C25.4751 13.6123 24.8455 14.2419 24.8455 15.0186C24.8455 15.7952 25.4751 16.4248 26.2517 16.4248Z" fill="white"/>
<path d="M24.8438 29.4326C25.6204 29.4326 26.25 28.803 26.25 28.0264C26.25 27.2497 25.6204 26.6201 24.8438 26.6201C24.0671 26.6201 23.4375 27.2497 23.4375 28.0264C23.4375 28.803 24.0671 29.4326 24.8438 29.4326Z" fill="white"/>
<path d="M15 27.6768C15.7767 27.6768 16.4062 27.0472 16.4062 26.2705C16.4062 25.4939 15.7767 24.8643 15 24.8643C14.2233 24.8643 13.5938 25.4939 13.5938 26.2705C13.5938 27.0472 14.2233 27.6768 15 27.6768Z" fill="white"/>
<path d="M1.99219 26.2686C2.76884 26.2686 3.39844 25.639 3.39844 24.8623C3.39844 24.0857 2.76884 23.4561 1.99219 23.4561C1.21554 23.4561 0.585938 24.0857 0.585938 24.8623C0.585938 25.639 1.21554 26.2686 1.99219 26.2686Z" fill="white"/>
<path d="M3.74817 16.4248C4.52482 16.4248 5.15442 15.7952 5.15442 15.0186C5.15442 14.2419 4.52482 13.6123 3.74817 13.6123C2.97152 13.6123 2.34192 14.2419 2.34192 15.0186C2.34192 15.7952 2.97152 16.4248 3.74817 16.4248Z" fill="white"/>
<path d="M5.15625 3.41699C5.9329 3.41699 6.5625 2.78739 6.5625 2.01074C6.5625 1.23409 5.9329 0.604492 5.15625 0.604492C4.3796 0.604492 3.75 1.23409 3.75 2.01074C3.75 2.78739 4.3796 3.41699 5.15625 3.41699Z" fill="white"/>
<path d="M20.1562 9.8623H9.84375V20.1748H20.1562V9.8623Z" fill="#1C1C25"/>
<path d="M17.1094 12.9092H12.8906V17.1279H17.1094V12.9092Z" fill="white"/>
<path d="M12.8906 17.7139H17.1094C17.433 17.7139 17.6953 17.4515 17.6953 17.1279V12.9092C17.6953 12.5856 17.433 12.3232 17.1094 12.3232H12.8906C12.567 12.3232 12.3047 12.5856 12.3047 12.9092V17.1279C12.3047 17.4515 12.567 17.7139 12.8906 17.7139ZM13.4766 13.4951H16.5234V16.542H13.4766V13.4951Z" fill="white"/>
<path d="M28.0078 3.18262C26.9093 3.18262 26.0156 4.07629 26.0156 5.1748C26.0156 6.27332 26.9093 7.16699 28.0078 7.16699C29.1063 7.16699 30 6.27332 30 5.1748C30 4.07629 29.1063 3.18262 28.0078 3.18262ZM28.0078 5.99512C27.5555 5.99512 27.1875 5.62715 27.1875 5.1748C27.1875 4.72246 27.5555 4.35449 28.0078 4.35449C28.4602 4.35449 28.8281 4.72246 28.8281 5.1748C28.8281 5.62715 28.4602 5.99512 28.0078 5.99512Z" fill="white"/>
<path d="M24.5813 5.75879C24.7354 5.75879 24.8866 5.69609 24.9956 5.58711C25.1045 5.47812 25.1672 5.32695 25.1672 5.17285C25.1672 5.01875 25.1045 4.86758 24.9956 4.75859C24.8866 4.64967 24.7354 4.58691 24.5813 4.58691C24.4266 4.58691 24.2754 4.64961 24.1665 4.75859C24.0575 4.86758 23.9954 5.01875 23.9954 5.17285C23.9954 5.32695 24.0575 5.47812 24.1665 5.58711C24.276 5.69604 24.4266 5.75879 24.5813 5.75879Z" fill="white"/>
<path d="M26.2518 13.0264C25.3571 13.0264 24.5985 13.6192 24.3477 14.4326H20.7422V9.8623C20.7422 9.53875 20.4798 9.27637 20.1562 9.27637H19.2187V5.75898H22.5013C22.8249 5.75898 23.0872 5.4966 23.0872 5.17305C23.0872 4.84949 22.8249 4.58711 22.5013 4.58711H18.6328C18.3092 4.58711 18.0469 4.84949 18.0469 5.17305V9.27637H15.5859V5.67092C16.3993 5.42008 16.9922 4.66146 16.9922 3.7668C16.9922 2.66828 16.0985 1.77461 15 1.77461C13.9015 1.77461 13.0078 2.66828 13.0078 3.7668C13.0078 4.66146 13.6006 5.42014 14.414 5.67092V9.27637H9.84374C9.52012 9.27637 9.2578 9.53875 9.2578 9.8623V10.7998H5.74036V3.91539C6.55469 3.66514 7.14842 2.90605 7.14842 2.01074C7.14842 0.912227 6.25475 0.0185547 5.15624 0.0185547C4.05772 0.0185547 3.16405 0.912227 3.16405 2.01074C3.16405 2.90477 3.75602 3.66297 4.56848 3.91434V11.3857C4.56848 11.7093 4.83081 11.9717 5.15442 11.9717H9.2578V14.4326H5.65229C5.40145 13.6192 4.64278 13.0264 3.74817 13.0264C2.64965 13.0264 1.75598 13.92 1.75598 15.0186C1.75598 16.1171 2.64965 17.0107 3.74817 17.0107C4.64284 17.0107 5.40151 16.4179 5.65229 15.6045H9.2578V20.1748C9.2578 20.4984 9.52012 20.7607 9.84374 20.7607H10.7812V24.2781H7.4987C7.17508 24.2781 6.91276 24.5405 6.91276 24.8641C6.91276 25.1876 7.17508 25.45 7.4987 25.45H11.3672C11.6908 25.45 11.9531 25.1876 11.9531 24.8641V20.7607H14.414V24.3662C13.6006 24.617 13.0078 25.3756 13.0078 26.2703C13.0078 27.3688 13.9015 28.2625 15 28.2625C16.0985 28.2625 16.9922 27.3688 16.9922 26.2703C16.9922 25.3756 16.3993 24.617 15.5859 24.3662V20.7607H20.1562C20.4798 20.7607 20.7422 20.4984 20.7422 20.1748V19.2373H24.2596V26.1217C23.4453 26.372 22.8515 27.1311 22.8515 28.0264C22.8515 29.1249 23.7452 30.0186 24.8437 30.0186C25.9423 30.0186 26.8359 29.1249 26.8359 28.0264C26.8359 27.1323 26.244 26.3741 25.4315 26.1228V18.6514C25.4315 18.3278 25.1692 18.0654 24.8456 18.0654H20.7422V15.6045H24.3477C24.5985 16.4179 25.3572 17.0107 26.2518 17.0107C27.3503 17.0107 28.244 16.1171 28.244 15.0186C28.244 13.92 27.3503 13.0264 26.2518 13.0264ZM15 2.94648C15.4523 2.94648 15.8203 3.31445 15.8203 3.7668C15.8203 4.21914 15.4523 4.58711 15 4.58711C14.5476 4.58711 14.1797 4.21914 14.1797 3.7668C14.1797 3.31445 14.5476 2.94648 15 2.94648ZM5.15624 1.19043C5.60858 1.19043 5.97655 1.5584 5.97655 2.01074C5.97655 2.46309 5.60858 2.83105 5.15624 2.83105C4.70389 2.83105 4.33592 2.46309 4.33592 2.01074C4.33592 1.5584 4.70389 1.19043 5.15624 1.19043ZM3.74817 15.8389C3.29583 15.8389 2.92786 15.4709 2.92786 15.0186C2.92786 14.5662 3.29583 14.1982 3.74817 14.1982C4.20051 14.1982 4.56848 14.5662 4.56848 15.0186C4.56848 15.4709 4.20051 15.8389 3.74817 15.8389ZM15 27.0906C14.5476 27.0906 14.1797 26.7227 14.1797 26.2703C14.1797 25.818 14.5476 25.45 15 25.45C15.4523 25.45 15.8203 25.818 15.8203 26.2703C15.8203 26.7227 15.4523 27.0906 15 27.0906ZM24.8437 28.8467C24.3914 28.8467 24.0234 28.4787 24.0234 28.0264C24.0234 27.574 24.3914 27.2061 24.8437 27.2061C25.2961 27.2061 25.664 27.574 25.664 28.0264C25.664 28.4787 25.2961 28.8467 24.8437 28.8467ZM19.5703 19.5889H10.4297V10.4482H19.5703V19.5889ZM26.2518 15.8389C25.7995 15.8389 25.4315 15.4709 25.4315 15.0186C25.4315 14.5662 25.7995 14.1982 26.2518 14.1982C26.7041 14.1982 27.0721 14.5662 27.0721 15.0186C27.0721 15.4709 26.7041 15.8389 26.2518 15.8389Z" fill="white"/>
<path d="M1.99219 22.8701C0.893672 22.8701 0 23.7638 0 24.8623C0 25.9608 0.893672 26.8545 1.99219 26.8545C3.0907 26.8545 3.98438 25.9608 3.98438 24.8623C3.98438 23.7638 3.0907 22.8701 1.99219 22.8701ZM1.99219 25.6826C1.53984 25.6826 1.17188 25.3146 1.17188 24.8623C1.17188 24.41 1.53984 24.042 1.99219 24.042C2.44453 24.042 2.8125 24.41 2.8125 24.8623C2.8125 25.3146 2.44453 25.6826 1.99219 25.6826Z" fill="white"/>
<path d="M5.41992 24.2783C5.26582 24.2783 5.11465 24.341 5.00566 24.45C4.89668 24.5589 4.83398 24.7101 4.83398 24.8643C4.83398 25.0184 4.89668 25.1695 5.00566 25.2785C5.11465 25.3874 5.26582 25.4502 5.41992 25.4502C5.57402 25.4502 5.7252 25.3875 5.83418 25.2785C5.94316 25.1695 6.00586 25.0184 6.00586 24.8643C6.00586 24.7101 5.94316 24.5589 5.83418 24.45C5.7252 24.341 5.57402 24.2783 5.41992 24.2783Z" fill="white"/>
</g>
<defs>
<clipPath id="clip0_3128_383">
<rect width="30" height="30" fill="white" transform="translate(0 0.0185547)"/>
</clipPath>
</defs>
</svg>
