<svg width="30" height="30" viewBox="0 0 30 30" fill="none" xmlns="http://www.w3.org/2000/svg">
<g clip-path="url(#clip0_3071_28)">
<path d="M15 5.15454C15.7767 5.15454 16.4062 4.52494 16.4062 3.74829C16.4062 2.97164 15.7767 2.34204 15 2.34204C14.2233 2.34204 13.5938 2.97164 13.5938 3.74829C13.5938 4.52494 14.2233 5.15454 15 5.15454Z" fill="#3E66F3"/>
<path d="M28.0078 6.5625C28.7845 6.5625 29.4141 5.9329 29.4141 5.15625C29.4141 4.3796 28.7845 3.75 28.0078 3.75C27.2312 3.75 26.6016 4.3796 26.6016 5.15625C26.6016 5.9329 27.2312 6.5625 28.0078 6.5625Z" fill="#3E66F3"/>
<path d="M26.2518 16.4062C27.0284 16.4062 27.658 15.7767 27.658 15C27.658 14.2233 27.0284 13.5938 26.2518 13.5938C25.4751 13.5938 24.8455 14.2233 24.8455 15C24.8455 15.7767 25.4751 16.4062 26.2518 16.4062Z" fill="#3E66F3"/>
<path d="M24.8438 29.4141C25.6204 29.4141 26.25 28.7845 26.25 28.0078C26.25 27.2312 25.6204 26.6016 24.8438 26.6016C24.0671 26.6016 23.4375 27.2312 23.4375 28.0078C23.4375 28.7845 24.0671 29.4141 24.8438 29.4141Z" fill="#3E66F3"/>
<path d="M15 27.658C15.7767 27.658 16.4062 27.0284 16.4062 26.2517C16.4062 25.4751 15.7767 24.8455 15 24.8455C14.2233 24.8455 13.5938 25.4751 13.5938 26.2517C13.5938 27.0284 14.2233 27.658 15 27.658Z" fill="#3E66F3"/>
<path d="M1.99219 26.25C2.76884 26.25 3.39844 25.6204 3.39844 24.8438C3.39844 24.0671 2.76884 23.4375 1.99219 23.4375C1.21554 23.4375 0.585938 24.0671 0.585938 24.8438C0.585938 25.6204 1.21554 26.25 1.99219 26.25Z" fill="#3E66F3"/>
<path d="M3.74817 16.4062C4.52482 16.4062 5.15442 15.7767 5.15442 15C5.15442 14.2233 4.52482 13.5938 3.74817 13.5938C2.97152 13.5938 2.34192 14.2233 2.34192 15C2.34192 15.7767 2.97152 16.4062 3.74817 16.4062Z" fill="#3E66F3"/>
<path d="M5.15625 3.39844C5.9329 3.39844 6.5625 2.76884 6.5625 1.99219C6.5625 1.21554 5.9329 0.585938 5.15625 0.585938C4.3796 0.585938 3.75 1.21554 3.75 1.99219C3.75 2.76884 4.3796 3.39844 5.15625 3.39844Z" fill="#3E66F3"/>
<path d="M20.1562 9.84375H9.84375V20.1562H20.1562V9.84375Z" fill="#1C1C25"/>
<path d="M17.1094 12.8906H12.8906V17.1094H17.1094V12.8906Z" fill="white"/>
<path d="M12.8906 17.6953H17.1094C17.433 17.6953 17.6953 17.4329 17.6953 17.1094V12.8906C17.6953 12.5671 17.433 12.3047 17.1094 12.3047H12.8906C12.567 12.3047 12.3047 12.5671 12.3047 12.8906V17.1094C12.3047 17.4329 12.567 17.6953 12.8906 17.6953ZM13.4766 13.4766H16.5234V16.5234H13.4766V13.4766Z" fill="#3E66F3"/>
<path d="M28.0078 3.16406C26.9093 3.16406 26.0156 4.05773 26.0156 5.15625C26.0156 6.25477 26.9093 7.14844 28.0078 7.14844C29.1063 7.14844 30 6.25477 30 5.15625C30 4.05773 29.1063 3.16406 28.0078 3.16406ZM28.0078 5.97656C27.5555 5.97656 27.1875 5.60859 27.1875 5.15625C27.1875 4.70391 27.5555 4.33594 28.0078 4.33594C28.4602 4.33594 28.8281 4.70391 28.8281 5.15625C28.8281 5.60859 28.4602 5.97656 28.0078 5.97656Z" fill="#3E66F3"/>
<path d="M24.5812 5.74048C24.7353 5.74048 24.8865 5.67778 24.9955 5.5688C25.1045 5.45981 25.1672 5.30864 25.1672 5.15454C25.1672 5.00044 25.1045 4.84927 24.9955 4.74028C24.8865 4.63136 24.7353 4.5686 24.5812 4.5686C24.4266 4.5686 24.2754 4.6313 24.1664 4.74028C24.0574 4.84927 23.9953 5.00044 23.9953 5.15454C23.9953 5.30864 24.0574 5.45981 24.1664 5.5688C24.276 5.67772 24.4266 5.74048 24.5812 5.74048Z" fill="#3E66F3"/>
<path d="M26.2518 13.0078C25.3571 13.0078 24.5985 13.6006 24.3477 14.4141H20.7422V9.84375C20.7422 9.5202 20.4798 9.25781 20.1562 9.25781H19.2187V5.74043H22.5013C22.8249 5.74043 23.0872 5.47805 23.0872 5.15449C23.0872 4.83094 22.8249 4.56855 22.5013 4.56855H18.6328C18.3092 4.56855 18.0469 4.83094 18.0469 5.15449V9.25781H15.5859V5.65236C16.3993 5.40152 16.9922 4.64291 16.9922 3.74824C16.9922 2.64973 16.0985 1.75605 15 1.75605C13.9015 1.75605 13.0078 2.64973 13.0078 3.74824C13.0078 4.64291 13.6006 5.40158 14.414 5.65236V9.25781H9.84374C9.52012 9.25781 9.2578 9.5202 9.2578 9.84375V10.7812H5.74036V3.89684C6.55469 3.64658 7.14842 2.8875 7.14842 1.99219C7.14842 0.893672 6.25475 0 5.15624 0C4.05772 0 3.16405 0.893672 3.16405 1.99219C3.16405 2.88621 3.75602 3.64441 4.56848 3.89578V11.3672C4.56848 11.6907 4.83081 11.9531 5.15442 11.9531H9.2578V14.4141H5.65229C5.40145 13.6006 4.64278 13.0078 3.74817 13.0078C2.64965 13.0078 1.75598 13.9015 1.75598 15C1.75598 16.0985 2.64965 16.9922 3.74817 16.9922C4.64284 16.9922 5.40151 16.3994 5.65229 15.5859H9.2578V20.1562C9.2578 20.4798 9.52012 20.7422 9.84374 20.7422H10.7812V24.2596H7.4987C7.17508 24.2596 6.91276 24.522 6.91276 24.8455C6.91276 25.1691 7.17508 25.4314 7.4987 25.4314H11.3672C11.6908 25.4314 11.9531 25.1691 11.9531 24.8455V20.7422H14.414V24.3476C13.6006 24.5985 13.0078 25.3571 13.0078 26.2518C13.0078 27.3503 13.9015 28.2439 15 28.2439C16.0985 28.2439 16.9922 27.3503 16.9922 26.2518C16.9922 25.3571 16.3993 24.5984 15.5859 24.3476V20.7422H20.1562C20.4798 20.7422 20.7422 20.4798 20.7422 20.1562V19.2188H24.2596V26.1032C23.4453 26.3534 22.8515 27.1125 22.8515 28.0078C22.8515 29.1063 23.7452 30 24.8437 30C25.9423 30 26.8359 29.1063 26.8359 28.0078C26.8359 27.1138 26.244 26.3556 25.4315 26.1042V18.6328C25.4315 18.3093 25.1692 18.0469 24.8456 18.0469H20.7422V15.5859H24.3477C24.5985 16.3994 25.3572 16.9922 26.2518 16.9922C27.3503 16.9922 28.244 16.0985 28.244 15C28.244 13.9015 27.3503 13.0078 26.2518 13.0078ZM15 2.92793C15.4523 2.92793 15.8203 3.2959 15.8203 3.74824C15.8203 4.20059 15.4523 4.56855 15 4.56855C14.5476 4.56855 14.1797 4.20059 14.1797 3.74824C14.1797 3.2959 14.5476 2.92793 15 2.92793ZM5.15624 1.17188C5.60858 1.17188 5.97655 1.53984 5.97655 1.99219C5.97655 2.44453 5.60858 2.8125 5.15624 2.8125C4.70389 2.8125 4.33592 2.44453 4.33592 1.99219C4.33592 1.53984 4.70389 1.17188 5.15624 1.17188ZM3.74817 15.8203C3.29583 15.8203 2.92786 15.4523 2.92786 15C2.92786 14.5477 3.29583 14.1797 3.74817 14.1797C4.20051 14.1797 4.56848 14.5477 4.56848 15C4.56848 15.4523 4.20051 15.8203 3.74817 15.8203ZM15 27.0721C14.5476 27.0721 14.1797 26.7041 14.1797 26.2518C14.1797 25.7994 14.5476 25.4314 15 25.4314C15.4523 25.4314 15.8203 25.7994 15.8203 26.2518C15.8203 26.7041 15.4523 27.0721 15 27.0721ZM24.8437 28.8281C24.3914 28.8281 24.0234 28.4602 24.0234 28.0078C24.0234 27.5555 24.3914 27.1875 24.8437 27.1875C25.2961 27.1875 25.664 27.5555 25.664 28.0078C25.664 28.4602 25.2961 28.8281 24.8437 28.8281ZM19.5703 19.5703H10.4297V10.4297H19.5703V19.5703ZM26.2518 15.8203C25.7995 15.8203 25.4315 15.4523 25.4315 15C25.4315 14.5477 25.7995 14.1797 26.2518 14.1797C26.7041 14.1797 27.0721 14.5477 27.0721 15C27.0721 15.4523 26.7041 15.8203 26.2518 15.8203Z" fill="#3E66F3"/>
<path d="M1.99219 22.8516C0.893672 22.8516 0 23.7452 0 24.8438C0 25.9423 0.893672 26.8359 1.99219 26.8359C3.0907 26.8359 3.98438 25.9423 3.98438 24.8438C3.98438 23.7452 3.0907 22.8516 1.99219 22.8516ZM1.99219 25.6641C1.53984 25.6641 1.17188 25.2961 1.17188 24.8438C1.17188 24.3914 1.53984 24.0234 1.99219 24.0234C2.44453 24.0234 2.8125 24.3914 2.8125 24.8438C2.8125 25.2961 2.44453 25.6641 1.99219 25.6641Z" fill="#3E66F3"/>
<path d="M5.41992 24.2595C5.26582 24.2595 5.11465 24.3222 5.00566 24.4312C4.89668 24.5401 4.83398 24.6913 4.83398 24.8455C4.83398 24.9996 4.89668 25.1507 5.00566 25.2597C5.11465 25.3686 5.26582 25.4314 5.41992 25.4314C5.57402 25.4314 5.7252 25.3687 5.83418 25.2597C5.94316 25.1507 6.00586 24.9996 6.00586 24.8455C6.00586 24.6913 5.94316 24.5401 5.83418 24.4312C5.7252 24.3222 5.57402 24.2595 5.41992 24.2595Z" fill="#3E66F3"/>
</g>
<defs>
<clipPath id="clip0_3071_28">
<rect width="30" height="30" fill="white"/>
</clipPath>
</defs>
</svg>
