<svg width="30" height="30" viewBox="0 0 30 30" fill="none" xmlns="http://www.w3.org/2000/svg">
<g clip-path="url(#clip0_1398_281)">
<path d="M1.08522 15.9176C1.32938 16.0664 1.59141 16.0873 1.82366 16.1081C1.96658 16.123 2.10057 16.1349 2.22264 16.1736C2.48765 16.26 2.74371 16.5339 2.84197 16.8406C2.87096 16.9316 2.88388 17.0212 2.8861 17.1082C2.84926 17.1299 2.81157 17.1505 2.7761 17.174C2.48212 17.3681 2.31696 17.7021 2.3443 18.0455C2.34639 18.0714 2.35229 18.0968 2.35478 18.1227C2.29663 18.1612 2.23566 18.1977 2.17203 18.2341C2.10057 18.2728 2.02613 18.3145 1.95764 18.3621C1.66585 18.5556 1.4991 18.8891 1.52591 19.2315C1.58545 19.9581 1.80282 20.6697 2.15715 21.286C2.16607 21.3009 2.17501 21.3158 2.18691 21.3277C2.50253 21.6612 2.81815 21.9679 3.25586 22.0572C3.45534 22.0989 3.64591 22.084 3.83052 22.0721C3.90495 22.0691 3.97641 22.0632 4.04489 22.0632C4.60169 22.0661 5.21506 22.4562 5.53664 23.0071C5.67955 23.2512 5.87608 23.7366 5.59619 24.2398C5.56344 24.3023 5.51579 24.3648 5.46518 24.4333C5.33417 24.609 5.18827 24.8085 5.17933 25.0377C5.16146 25.4635 5.60215 25.7553 5.81354 25.8953C6.00709 26.0233 6.2036 26.1543 6.39715 26.2823C6.59069 26.4133 6.78422 26.5414 6.98075 26.6724C7.1713 26.7974 7.38867 26.9404 7.65366 26.997C7.97523 27.0505 8.32956 26.9612 8.71664 26.7349C8.8268 26.6664 8.93995 26.5801 9.05608 26.4937C9.23176 26.3627 9.41041 26.2258 9.57715 26.1662C9.82429 26.0709 10.2352 26.2049 10.4972 26.3717C10.8099 26.5741 11.0361 26.8957 11.1195 27.256C11.1433 27.3572 11.1552 27.4644 11.1672 27.5716C11.1939 27.783 11.2208 28.0004 11.316 28.2207C11.4768 28.5631 11.8014 28.8311 12.2331 28.98C12.6023 29.108 13.0013 29.1289 13.3229 29.1467L13.4926 29.1557C13.6236 29.1646 13.7636 29.1735 13.9005 29.1735C14.2251 29.1735 14.5496 29.1229 14.8117 28.8966C15.0558 28.6822 15.2106 28.3845 15.3476 28.0927C15.388 28.0017 15.4317 27.9054 15.4791 27.8101C15.5299 27.78 15.5811 27.7508 15.628 27.71C15.8749 27.4945 16.022 27.2095 16.1735 26.8874C16.2808 26.6447 16.3913 26.3938 16.56 26.2086C16.7045 26.0472 16.9711 25.9867 17.1848 25.9621C17.4599 25.9114 17.6664 25.9012 17.849 26.0076C18.042 26.1135 18.1996 26.2814 18.3668 26.4592L18.4395 26.536C18.4736 26.5749 18.5079 26.6136 18.5404 26.6462C18.6105 26.7157 18.7178 26.7311 18.8039 26.6844C18.8905 26.6377 18.9365 26.5397 18.917 26.4434L17.9106 21.4999C17.8641 21.2711 17.7306 21.0752 17.5346 20.9486C17.3407 20.8233 17.1101 20.7821 16.8842 20.833C15.3425 21.1827 13.9218 21.1393 12.6627 20.7045C10.7474 20.0389 9.13824 18.3544 8.46364 16.3087C7.79777 14.2859 8.03882 11.9746 9.10858 10.1257C9.10858 10.1255 9.10858 10.1258 9.10858 10.1257C9.54329 9.3714 10.1394 8.67514 10.8337 8.1122C11.8201 7.30749 12.9945 6.75981 14.1407 6.57037C14.3233 6.54013 14.483 6.43836 14.5897 6.28338C14.699 6.12476 14.7397 5.92514 14.7013 5.73585L13.9942 2.26328C13.9802 2.19553 13.9357 2.13781 13.8735 2.10742C13.8107 2.0766 13.738 2.07689 13.6764 2.10771C13.604 2.14348 13.5257 2.16616 13.3548 2.20091C13.1873 2.23478 13.0692 2.22897 12.9535 2.17924C12.718 2.08489 12.5243 1.87596 12.3461 1.65977L12.3184 1.62779C12.1155 1.39401 11.9058 1.15223 11.6122 0.995064C11.199 0.773639 10.7387 0.810277 10.4243 0.879335C10.0789 0.955664 9.76137 1.10759 9.45431 1.25458L9.39034 1.28526C8.8559 1.55117 8.27464 1.88687 8.14525 2.50985C8.13127 2.58038 8.12542 2.65001 8.12375 2.71925C7.74852 2.95096 7.41975 3.24942 7.32614 3.69778C7.26658 4.00147 7.33508 4.28732 7.41248 4.58209L7.44821 4.7012C7.45431 4.72018 7.46058 4.74189 7.46685 4.76219C7.17711 4.85164 6.86767 4.8594 6.59048 4.77324C6.47649 4.73806 6.36629 4.69081 6.25667 4.64428C6.02899 4.5476 5.79375 4.44757 5.52362 4.43565C5.18284 4.41792 4.82925 4.55691 4.52278 4.81846C4.26079 5.03799 4.06655 5.30798 3.87639 5.57229C3.74201 5.76591 3.58738 5.99286 3.46607 6.24118C3.31681 6.40627 3.18647 6.58384 3.05933 6.75867C2.75859 7.19041 2.34771 7.78294 2.4668 8.42906C2.54124 8.8608 2.83007 9.19131 3.08315 9.48312C3.13675 9.54861 3.19332 9.61115 3.24691 9.67664C3.36501 9.81745 3.52566 10.0432 3.58899 10.2811C3.45504 10.3232 3.31357 10.3547 3.16806 10.3871C2.8171 10.4653 2.50422 10.5457 2.23002 10.7359C1.90784 10.9515 1.65981 11.3081 1.51181 11.7688C1.50023 11.8059 1.49313 11.8429 1.48313 11.88C1.45978 11.8941 1.43581 11.9061 1.41276 11.9217C1.09118 12.1391 0.841064 12.4964 0.695168 12.9549C0.570117 13.3509 0.540349 13.7648 0.513543 14.1251L0.510563 14.1608C0.486756 14.4496 0.46293 14.7474 0.522485 15.0541C0.602865 15.4352 0.805335 15.7508 1.08522 15.9176ZM1.7767 12.9719C1.80316 12.6153 1.8305 12.2464 1.9375 11.9038C2.01863 11.6512 2.17826 11.3078 2.48125 11.105C2.69206 10.9589 2.96103 10.8908 3.26518 10.823C3.58212 10.7524 3.90983 10.6795 4.20613 10.4875C4.53092 10.2824 4.67311 9.96706 4.80018 9.68559C4.98685 9.25408 4.8467 8.72676 4.40734 8.20307C4.35297 8.13678 4.29626 8.07121 4.23898 8.0052C4.00229 7.73158 3.7784 7.47308 3.72344 7.16312C3.64522 6.73306 3.91244 6.30359 4.24102 5.83006C4.42072 5.58029 4.59053 5.34418 4.81094 5.15954C5.0296 4.97315 5.27908 4.87036 5.50385 4.8817C5.69344 4.89013 5.88215 4.97039 6.08191 5.05529C6.20229 5.10647 6.32674 5.15924 6.45846 5.19995C7.01762 5.37311 7.67623 5.26073 8.17898 4.90511C8.51511 4.66551 8.71895 4.42984 8.78466 4.20434C8.86142 3.94105 8.76896 3.63355 8.69481 3.38639L8.66224 3.27561C8.59478 3.027 8.54215 2.80426 8.58286 2.59868C8.67126 2.17372 9.14871 1.90432 9.58603 1.68667L9.6471 1.65745C9.94456 1.51511 10.2252 1.38078 10.5206 1.3155C10.7608 1.26243 11.1091 1.23204 11.4013 1.38877C11.6223 1.50712 11.7965 1.7079 11.9809 1.92045L12.005 1.94822C12.2173 2.20556 12.4586 2.46202 12.7822 2.59185C12.9779 2.67574 13.1879 2.69042 13.4437 2.63852C13.5039 2.62631 13.5577 2.61468 13.6072 2.60232L14.2634 5.82497C14.278 5.89592 14.2629 5.97065 14.2219 6.02997C14.1846 6.08405 14.13 6.11938 14.068 6.1297C12.8459 6.33179 11.597 6.91291 10.5517 7.76575C9.81604 8.36242 9.18331 9.10127 8.72185 9.90221C7.58958 11.8596 7.33428 14.3067 8.0397 16.4484C8.75675 18.6236 10.472 20.416 12.5165 21.1265C13.8563 21.5892 15.3588 21.6369 16.983 21.2686C17.0889 21.2443 17.1997 21.2639 17.2921 21.3238C17.3864 21.3846 17.4503 21.4787 17.4727 21.5889L18.3299 25.7986C18.2494 25.7318 18.1633 25.6706 18.0685 25.6189C17.7391 25.427 17.398 25.4687 17.1194 25.5206C16.7187 25.5657 16.4187 25.6969 16.2285 25.9092C16.0121 26.1471 15.8807 26.4447 15.7592 26.7208C15.6391 26.974 15.5164 27.2146 15.3346 27.3731C15.1026 27.5748 14.7153 27.5487 14.3402 27.5236L14.1654 27.5127C13.8563 27.4965 13.5063 27.4781 13.1975 27.3701C13.014 27.3075 12.6845 27.156 12.5415 26.8474C12.4728 26.6939 12.4519 26.5175 12.4298 26.3308C12.4153 26.2094 12.4004 26.0883 12.3737 25.9685C12.2644 25.497 11.9675 25.075 11.5589 24.8102C11.3519 24.6769 10.9643 24.5004 10.5863 24.5004C10.4677 24.5004 10.3502 24.5177 10.2394 24.5591C10.0129 24.6439 9.80557 24.7996 9.60523 24.9501C9.50171 25.028 9.39994 25.1051 9.30311 25.1644C9.01379 25.3356 8.75907 25.4043 8.5532 25.3698C8.38077 25.3342 8.20951 25.2208 8.04406 25.1112C7.85011 24.9831 7.65616 24.8534 7.46135 24.7233C7.26769 24.5939 7.07287 24.4638 6.87689 24.3341C6.75651 24.2544 6.43666 24.0427 6.44334 23.869C6.44712 23.7751 6.55558 23.6284 6.64282 23.5105C6.70155 23.4311 6.76203 23.3489 6.80652 23.2678C7.08886 22.7611 7.06502 22.1511 6.74081 21.5944C6.34419 20.9136 5.57276 20.4344 4.86037 20.4291C4.78099 20.4301 4.70073 20.4352 4.6199 20.4406C4.45648 20.4511 4.30208 20.4614 4.16338 20.4329C3.86068 20.3702 3.61411 20.1353 3.34863 19.8548C3.03518 19.2995 2.8421 18.6621 2.78976 18.0097C2.77522 17.8312 2.86653 17.6495 3.02209 17.5465C3.08286 17.5065 3.14654 17.4706 3.21022 17.4346C3.378 17.3395 3.56817 17.2316 3.71646 17.0502C4.1122 16.5666 4.24334 16.0232 4.08545 15.5179C3.94268 15.0744 3.57776 14.6901 3.17911 14.562C3.01046 14.5065 2.84239 14.4915 2.67956 14.4771C2.47922 14.4594 2.28963 14.4427 2.13261 14.3477C1.96076 14.2441 1.83195 14.0363 1.77932 13.7779C1.72989 13.5357 1.75082 13.2829 1.77321 13.0154L1.7767 12.9719Z" fill="#3E66F3"/>
<path d="M11.5717 11.5432C10.9259 12.6592 10.7808 14.0566 11.1832 15.2815C11.5926 16.5281 12.5754 17.5554 13.7484 17.9625C14.1738 18.1102 14.6335 18.1839 15.1156 18.1839C15.6885 18.1839 16.2933 18.0799 16.9112 17.8726C17.3111 17.7384 17.6567 17.5773 17.9652 17.3925L18.3549 19.1414C18.3682 19.2003 18.4046 19.2513 18.4558 19.283C18.5072 19.3146 18.5692 19.3245 18.6276 19.3093C19.0818 19.1945 19.5508 19.0724 20.0201 18.9502C20.4156 18.8473 20.811 18.7444 21.1975 18.6458C21.2929 19.1324 21.3731 19.6309 21.451 20.1152C21.5184 20.5339 21.5911 20.9618 21.6704 21.3872C21.6035 21.4193 21.5379 21.457 21.4743 21.5003C20.9646 21.8479 20.7459 22.4434 20.9178 23.0174C21.0835 23.5711 21.6232 23.9847 22.2012 24.0007C22.2129 24.0011 22.2245 24.0013 22.2361 24.0013C22.8014 24.0013 23.3446 23.6227 23.5365 23.09C23.7327 22.5464 23.5446 21.893 23.0898 21.5364C22.7992 21.3089 22.4474 21.2174 22.101 21.2607C22.026 20.8547 21.9566 20.4455 21.8918 20.0441C21.8008 19.4789 21.7066 18.8941 21.5886 18.3261C21.5761 18.2665 21.54 18.2146 21.4883 18.1823C21.4365 18.1502 21.3743 18.1397 21.3152 18.1551C20.8564 18.271 20.3819 18.3946 19.9076 18.518C19.5156 18.6201 19.124 18.7221 18.741 18.8198L18.3626 17.1216C18.4088 17.0858 18.4586 17.0526 18.5026 17.0151C18.8402 16.7269 19.1204 16.3706 19.3394 15.9738C19.9647 15.8078 20.3602 15.7245 20.7404 15.6448C21.1143 15.5665 21.4996 15.4858 22.1006 15.3276C22.2818 15.6009 22.4839 15.8824 22.6801 16.1557C22.9069 16.4714 23.141 16.7976 23.3382 17.1044C23.3797 17.1691 23.451 17.207 23.526 17.207C23.5405 17.207 23.5554 17.2056 23.5699 17.2027C24.1154 17.0929 24.717 17.0089 25.2986 16.9277C25.8192 16.855 26.3536 16.779 26.8574 16.6848C27.0544 17.1888 27.5596 17.5569 28.1028 17.5718C28.1144 17.5722 28.1261 17.5724 28.1377 17.5724C28.7032 17.5724 29.2464 17.1939 29.4386 16.661C29.6343 16.1172 29.4462 15.464 28.9917 15.1076C28.5198 14.7381 27.8856 14.7238 27.3759 15.0716C26.9672 15.3503 26.75 15.7887 26.7669 16.2473C26.2753 16.339 25.7492 16.4138 25.2366 16.4853C24.7004 16.5602 24.1477 16.6374 23.631 16.7357C23.4475 16.4584 23.2422 16.1728 23.043 15.8952C22.8171 15.5807 22.5836 15.2554 22.387 14.9496C22.3344 14.8678 22.2358 14.8292 22.1413 14.8547C21.4606 15.0376 21.048 15.1241 20.6491 15.2077C20.3404 15.2723 20.023 15.3389 19.5839 15.4491C19.808 14.8605 19.9058 14.2114 19.8503 13.5615C19.8379 13.4156 19.816 13.2706 19.7888 13.1265L24.4796 12.0144C24.5378 12.2522 24.608 12.4918 24.6792 12.728C24.6077 12.7614 24.5376 12.8002 24.4699 12.8464C23.9601 13.1941 23.7418 13.7896 23.9136 14.3636C24.0793 14.9172 24.619 15.3307 25.1968 15.3467C25.2084 15.3471 25.2201 15.3472 25.2317 15.3472C25.7969 15.3472 26.3401 14.9688 26.532 14.436C26.7283 13.8924 26.5405 13.239 26.0857 12.8825C25.7982 12.6572 25.4504 12.5658 25.1073 12.606C25.0171 12.3018 24.9267 11.9908 24.8667 11.7018C24.8548 11.6422 24.8191 11.5916 24.7685 11.5589C24.7178 11.5261 24.6553 11.5142 24.5958 11.5291L19.6831 12.6929C19.4705 11.969 19.0763 11.2965 18.5482 10.7502C19.065 10.6499 19.6714 10.5203 20.2632 10.3938C21.025 10.2309 21.8128 10.0624 22.3923 9.96021C22.4618 9.94785 22.5214 9.90365 22.5531 9.8407C22.6912 9.56592 22.8366 9.29535 22.982 9.02479C23.1122 8.78243 23.2422 8.53992 23.3675 8.29451C23.7371 8.22021 24.1491 8.11263 24.5487 8.00824C24.859 7.92706 25.1763 7.84455 25.4722 7.7778C25.6708 8.27879 26.1744 8.64414 26.7155 8.65899C26.7271 8.65943 26.7388 8.65957 26.7504 8.65957C27.3157 8.65957 27.8588 8.28099 28.0507 7.74829C28.247 7.20468 28.0589 6.55131 27.6041 6.19482C27.1325 5.8251 26.4986 5.81115 25.9886 6.15862C25.578 6.43875 25.3606 6.87993 25.3797 7.3408C25.0751 7.40941 24.7518 7.49353 24.4355 7.57615C24.004 7.68882 23.5577 7.80557 23.1768 7.87666C23.1082 7.88946 23.0497 7.93351 23.0183 7.99588C22.8799 8.2711 22.7342 8.54225 22.5885 8.81354C22.4589 9.05474 22.3295 9.29593 22.2047 9.54004C21.8032 9.61322 21.3185 9.71327 20.8183 9.81906C20.8173 9.81035 20.8195 9.80192 20.8173 9.79319L19.6058 4.65854C19.9653 4.51168 20.2673 4.22076 20.3999 3.85264C20.5962 3.30889 20.4083 2.65552 19.9535 2.29903C19.4816 1.9296 18.8477 1.91521 18.3377 2.26297C17.828 2.61059 17.6096 3.2061 17.7815 3.78009C17.9472 4.33372 18.4869 4.74735 19.0646 4.76334C19.0763 4.76378 19.0876 4.76392 19.0992 4.76392C19.1234 4.76392 19.1472 4.75936 19.1713 4.758L20.3825 9.8974C20.3837 9.90218 20.3867 9.90583 20.3882 9.91045C20.3153 9.92601 20.2425 9.94149 20.1699 9.95701C19.4487 10.1112 18.7066 10.2697 18.1376 10.3729C18.1043 10.346 18.0738 10.3156 18.0397 10.2897C17.2528 9.69081 16.2619 9.35278 15.2491 9.33751C15.2331 9.33737 15.2174 9.33722 15.2011 9.33722C14.3256 9.33722 13.387 9.69371 12.6182 10.3196C12.1936 10.6652 11.8415 11.0768 11.5717 11.5432ZM25.81 13.234C26.1127 13.4712 26.2424 13.9227 26.1121 14.2845C25.9842 14.6392 25.6085 14.9006 25.2314 14.9006C25.2241 14.9006 25.2166 14.9005 25.209 14.9003C24.8249 14.8896 24.4518 14.6039 24.3416 14.2356C24.2021 13.7696 24.4466 13.403 24.7217 13.2154C24.997 13.0279 25.4274 12.9342 25.81 13.234ZM19.0769 4.317C18.6927 4.30624 18.3197 4.02041 18.2095 3.652C18.0699 3.18604 18.3144 2.81966 18.5895 2.63196C18.8649 2.44427 19.2955 2.35079 19.6779 2.65057C19.9806 2.8877 20.1103 3.33942 19.98 3.70114C19.8494 4.06272 19.4581 4.3234 19.0769 4.317ZM14.6806 10.8677C14.7984 10.8413 14.9205 10.9147 14.9484 11.0351C14.9764 11.1553 14.9013 11.2751 14.7812 11.303C13.8676 11.5141 13.0884 12.3012 12.8863 13.2169C12.6842 14.1327 13.0596 15.1747 13.7993 15.7508C13.8967 15.8267 13.9142 15.967 13.8383 16.0643C13.7941 16.1208 13.7284 16.1504 13.6618 16.1504C13.6138 16.1504 13.5655 16.1349 13.5248 16.1033C12.6403 15.4141 12.2085 14.2155 12.4501 13.1206C12.6917 12.0257 13.5882 11.1204 14.6806 10.8677ZM14.7958 16.673C14.7551 16.7464 14.6789 16.7879 14.6004 16.7879C14.5637 16.7879 14.5265 16.7789 14.4922 16.7598L14.2471 16.6237C14.1392 16.564 14.1003 16.4282 14.1599 16.3202C14.2192 16.2124 14.3544 16.173 14.4634 16.2329L14.7091 16.3693C14.817 16.4292 14.8557 16.5652 14.7958 16.673Z" fill="#3E66F3"/>
<path d="M6.21326 13.7291C6.22198 13.7291 6.2307 13.7287 6.23943 13.7277C6.36184 13.7134 6.44966 13.6025 6.43541 13.4801C6.21413 11.5774 6.93031 9.56653 8.30393 8.23202C8.39232 8.1461 8.39436 8.00464 8.30858 7.91624C8.22251 7.82785 8.08119 7.82596 7.9928 7.91159C6.52148 9.34075 5.75471 11.4942 5.99169 13.5315C6.00506 13.6454 6.1016 13.7291 6.21326 13.7291Z" fill="#3E66F3"/>
<path d="M8.78313 7.77298C8.84041 7.77298 8.8974 7.75117 8.94102 7.70756L9.11112 7.53746C9.19835 7.45022 9.19835 7.30891 9.11112 7.22167C9.02389 7.13444 8.88257 7.13444 8.79534 7.22167L8.62524 7.39178C8.53801 7.47901 8.53801 7.62033 8.62524 7.70756C8.66885 7.75117 8.72585 7.77298 8.78313 7.77298Z" fill="#3E66F3"/>
</g>
<defs>
<clipPath id="clip0_1398_281">
<rect width="30" height="30" fill="white" transform="translate(0.000244141)"/>
</clipPath>
</defs>
</svg>
